<svg width="24" height="24" viewBox="0 0 24 24" fill="none" xmlns="http://www.w3.org/2000/svg">
<g clip-path="url(#clip0_3066_48294)">
<path d="M15.1572 11.8093L19.9872 13.1043C20.2445 13.169 20.4863 13.2842 20.6986 13.4433C20.9109 13.6024 21.0895 13.8021 21.2239 14.0308C21.3582 14.2595 21.4458 14.5127 21.4814 14.7756C21.517 15.0384 21.4999 15.3058 21.4312 15.562C21.3625 15.8182 21.2435 16.0582 21.0811 16.268C20.9188 16.4778 20.7163 16.6532 20.4855 16.784C20.2547 16.9148 20.0002 16.9984 19.7368 17.0298C19.4733 17.0613 19.2063 17.0401 18.9512 16.9673L4.46219 13.0853L3.11719 6.51333L6.01519 7.28933L7.42919 9.73933L10.3272 10.5153L10.2072 3.23633L13.1052 4.01333L15.1572 11.8093Z" stroke="#889096" stroke-width="1.5" stroke-linecap="round" stroke-linejoin="round"/>
<path d="M3 21H21" stroke="#889096" stroke-width="1.5" stroke-linecap="round" stroke-linejoin="round"/>
</g>
<defs>
<clipPath id="clip0_3066_48294">
<rect width="24" height="24" fill="white"/>
</clipPath>
</defs>
</svg>
