<svg width="20" height="20" viewBox="0 0 20 20" fill="none" xmlns="http://www.w3.org/2000/svg">
<g clip-path="url(#clip0_7033_2261)">
<path d="M9.942 19.4493C15.1927 19.4493 19.4492 15.1927 19.4492 9.94203C19.4492 4.69132 15.1927 0.434784 9.942 0.434784C4.69129 0.434784 0.434753 4.69132 0.434753 9.94203C0.434753 15.1927 4.69129 19.4493 9.942 19.4493Z" fill="#FCDD53" stroke="#E42A2B" stroke-width="0.869565"/>
<path d="M16.3478 12.1739C16.029 12.5507 15.7391 12.7536 15.2174 12.8406H9.47824C9.18839 12.6956 9.1594 12.4928 9.47824 12.3478H12.7246C13.0145 12.3478 13.2753 12.2609 13.4782 12C14.4348 10.7246 15.5362 9.50724 16.3768 8.11594C16 8.46377 15.7681 8.66666 15.2174 8.75362H11.2464C10.8406 8.75362 10.5217 8.89855 10.2608 9.24637C9.47824 10.2609 8.66665 11.2464 7.88404 12.2609C5.82607 14.7246 4.40578 9.30434 7.18838 10.1739C6.81157 9.68116 6.40578 9.21739 6.02896 8.72464C5.73911 8.43478 5.30433 8.40579 5.01447 8.72464C3.27534 10.9275 3.24636 14.3188 6.86954 14.6377H14.5797C15.1594 13.7971 15.7681 12.9855 16.3478 12.1739ZM15.1594 5.27536C14.8985 5.47826 14.7246 5.56522 14.3188 5.56522H10.8116C10.4637 5.56522 10.029 5.71014 9.79708 6L7.5652 8.84058L8.20288 9.65217C8.46375 9.33333 8.72462 9.01449 8.98549 8.69565C9.24636 8.40579 9.53621 8.28985 9.94201 8.28985H12.1159C13.2174 8.28985 14.6377 5.91304 15.1594 5.27536Z" fill="#478C3E"/>
</g>
<defs>
<clipPath id="clip0_7033_2261">
<rect width="20" height="20" fill="white"/>
</clipPath>
</defs>
</svg>
