<svg width="40" height="26" viewBox="0 0 40 26" fill="none" xmlns="http://www.w3.org/2000/svg">
<path d="M26.6555 14.9773C24.2503 16.0379 22.0776 16.9387 21.1145 17.2018L18.1453 18.0138L13.715 25.7593L16.0027 25.9868C16.4227 26.0285 16.8465 25.9711 17.2417 25.8188C17.6368 25.6665 17.9928 25.4234 18.2825 25.1081L27.042 15.5746C27.1013 15.5152 27.1385 15.4364 27.1473 15.3518C27.156 15.2672 27.1357 15.1821 27.0898 15.1112C27.044 15.0404 26.9755 14.9882 26.8962 14.9638C26.8169 14.9393 26.7318 14.9441 26.6555 14.9773ZM39.9259 5.43511C38.4272 3.36072 33.3858 3.84985 32.4102 4.11297C32.3505 4.12911 32.2908 4.14526 32.2311 4.16301L32.2358 4.15978L32.2279 4.16301L25.98 7.18502L7.30583 0.217169C6.79441 0.0214465 6.2443 -0.0433582 5.70305 0.0283566C4.30102 0.23106 2.96954 0.786874 1.82715 1.64631L16.2821 11.8762L10.2761 14.7804L2.20943 12.9637C2.17852 12.9567 2.14625 12.9603 2.11751 12.9739L0.0850051 13.9353C0.063126 13.9455 0.0440599 13.9611 0.0295234 13.9808C0.0149869 14.0005 0.00543659 14.0235 0.00173224 14.0479C-0.0019721 14.0723 0.000285917 14.0973 0.00830296 14.1205C0.01632 14.1438 0.0298443 14.1647 0.0476582 14.1812C0.974295 15.0404 5.55327 19.2587 5.55327 19.2587C5.6448 19.3431 5.75312 19.4059 5.87069 19.4428C5.98825 19.4797 6.11224 19.4899 6.23402 19.4726L9.71459 18.9772C9.83276 18.9604 9.94983 18.9361 10.0651 18.9046L20.7988 15.9717C23.0563 15.3551 33.202 10.6429 35.2914 9.55322C36.168 9.18677 40.625 6.85732 39.9259 5.43511Z" fill="#1150CB"/>
</svg>
