<svg width="64" height="64" viewBox="0 0 64 64" fill="none" xmlns="http://www.w3.org/2000/svg">
<g clip-path="url(#clip0_548_10316)">
<path d="M62.065 16.2324C60.3862 10.0474 53.9538 3.61488 47.7687 1.93613C43.9775 0.989878 38.8962 0.0161279 32 -0.00012207C25.105 0.0173779 20.0238 0.989878 16.2325 1.93613C10.0475 3.61613 3.615 10.0474 1.93625 16.2324C0.99 20.0236 0.0175 25.1049 0 31.9999C0.0175 38.8961 0.99 43.9774 1.93625 47.7686C3.615 53.9536 10.0475 60.3849 16.2325 62.0649C20.0238 63.0111 25.1075 63.9836 32 64.0011C38.8962 63.9836 43.9775 63.0111 47.7687 62.0649C53.9538 60.3849 60.3862 53.9536 62.065 47.7686C63.0112 43.9774 63.9837 38.8936 64.0013 31.9999C63.9837 25.1049 63.0112 20.0236 62.065 16.2324Z" fill="#E1F9FE"/>
<path d="M55.585 45.7774C54.2675 43.5786 49.2225 41.2936 44.37 40.6974C40.2616 40.2307 36.1298 40.0007 31.995 40.0086C27.8602 40.0007 23.7284 40.2306 19.62 40.6974C14.7675 41.2936 9.72249 43.5786 8.40499 45.7774C7.67249 47.1249 6.90874 48.9299 6.89624 51.3749C6.90874 53.8249 7.67249 55.6249 8.41499 56.9786C9.73249 59.1761 14.7775 61.4611 19.63 62.0586C23.7385 62.5242 27.8702 62.7537 32.005 62.7461C36.1397 62.7537 40.2715 62.5242 44.38 62.0586C49.2325 61.4611 54.2775 59.1761 55.595 56.9786C56.3375 55.6311 57.1012 53.8249 57.1137 51.3749C57.0912 48.9299 56.3275 47.1249 55.585 45.7774Z" fill="url(#paint0_radial_548_10316)"/>
<path d="M31.9787 22.2023C32.549 22.2025 33.1185 22.2405 33.6837 22.3161L33.175 16.3011C33.175 16.0027 33.0565 15.7165 32.8455 15.5056C32.6345 15.2946 32.3483 15.1761 32.05 15.1761C31.7516 15.1761 31.4655 15.2946 31.2545 15.5056C31.0435 15.7165 30.925 16.0027 30.925 16.3011L30.4175 22.3011C30.9355 22.2373 31.4568 22.2044 31.9787 22.2023Z" fill="url(#paint1_linear_548_10316)"/>
<path d="M33.3488 46.0473C33.3144 45.8963 33.2396 45.7576 33.1324 45.6459C33.0251 45.5343 32.8895 45.454 32.7401 45.4136C32.6538 45.3961 32.5501 45.3786 32.4288 45.3648V41.1248C32.4288 41.0456 32.3973 40.9696 32.3413 40.9136C32.2853 40.8575 32.2093 40.826 32.1301 40.826H31.8751C31.7958 40.826 31.7198 40.8575 31.6638 40.9136C31.6078 40.9696 31.5763 41.0456 31.5763 41.1248V45.3636C31.4513 45.3773 31.3526 45.3948 31.2651 45.4123C31.1158 45.4531 30.9804 45.5335 30.8732 45.6451C30.766 45.7567 30.691 45.8953 30.6563 46.0461C30.5563 46.7044 30.5563 47.374 30.6563 48.0323C30.6911 48.1829 30.7661 48.3213 30.8733 48.4326C30.9805 48.544 31.1159 48.6243 31.2651 48.6648C31.7528 48.7615 32.2548 48.7615 32.7426 48.6648C32.8918 48.6245 33.0274 48.5443 33.1346 48.4329C33.2418 48.3215 33.3167 48.183 33.3513 48.0323C33.4531 47.3741 33.4531 46.7042 33.3513 46.0461L33.3488 46.0473Z" fill="url(#paint2_linear_548_10316)"/>
<path d="M29.3625 43.5698C29.3355 43.454 29.2777 43.3476 29.1952 43.262C29.1127 43.1764 29.0085 43.1148 28.8938 43.0836C28.8288 43.0698 28.7538 43.0573 28.665 43.0461V40.8811C28.665 40.8018 28.6335 40.7258 28.5775 40.6698C28.5215 40.6138 28.4455 40.5823 28.3663 40.5823H28.2825C28.2033 40.5823 28.1273 40.6138 28.0713 40.6698C28.0152 40.7258 27.9838 40.8018 27.9838 40.8811V43.0461C27.895 43.0573 27.82 43.0698 27.7563 43.0836C27.6413 43.1144 27.537 43.1759 27.4544 43.2616C27.3718 43.3473 27.3141 43.4538 27.2875 43.5698C27.2092 44.0768 27.2092 44.5928 27.2875 45.0998C27.3141 45.2158 27.3718 45.3223 27.4544 45.408C27.537 45.4937 27.6413 45.5552 27.7563 45.5861C28.1317 45.661 28.5183 45.661 28.8938 45.5861C29.0085 45.5549 29.1127 45.4932 29.1952 45.4076C29.2777 45.322 29.3355 45.2156 29.3625 45.0998C29.4392 44.5927 29.4392 44.0769 29.3625 43.5698Z" fill="url(#paint3_linear_548_10316)"/>
<path d="M36.7162 43.5698C36.6895 43.4539 36.6318 43.3474 36.5492 43.2618C36.4667 43.1761 36.3624 43.1145 36.2475 43.0836C36.1837 43.0698 36.1075 43.0573 36.02 43.0461V40.8023C36.02 40.7733 36.0143 40.7446 36.0031 40.7178C35.992 40.6911 35.9757 40.6667 35.9551 40.6463C35.9346 40.6259 35.9102 40.6097 35.8833 40.5987C35.8565 40.5877 35.8277 40.5821 35.7987 40.5823H35.5587C35.5297 40.5821 35.501 40.5877 35.4742 40.5987C35.4473 40.6097 35.4229 40.6259 35.4024 40.6463C35.3818 40.6667 35.3655 40.6911 35.3544 40.7178C35.3432 40.7446 35.3375 40.7733 35.3375 40.8023V43.0461C35.25 43.0573 35.1737 43.0698 35.11 43.0836C34.9951 43.1145 34.8908 43.1761 34.8083 43.2618C34.7257 43.3474 34.668 43.4539 34.6412 43.5698C34.5646 44.0769 34.5646 44.5927 34.6412 45.0998C34.668 45.2157 34.7257 45.3222 34.8083 45.4079C34.8908 45.4935 34.9951 45.5551 35.11 45.5861C35.4855 45.6611 35.872 45.6611 36.2475 45.5861C36.3624 45.5551 36.4667 45.4935 36.5492 45.4079C36.6318 45.3222 36.6895 45.2157 36.7162 45.0998C36.7929 44.5927 36.7929 44.0769 36.7162 43.5698Z" fill="url(#paint4_linear_548_10316)"/>
<path d="M16.625 36.2886C15.9285 36.2886 15.2477 36.4952 14.6686 36.8821C14.0895 37.2691 13.6382 37.8191 13.3717 38.4626C13.1052 39.1061 13.0355 39.8142 13.1715 40.4973C13.3075 41.1804 13.643 41.8078 14.1356 42.3002C14.6281 42.7926 15.2557 43.1279 15.9388 43.2636C16.622 43.3993 17.33 43.3294 17.9734 43.0627C18.6168 42.796 19.1667 42.3445 19.5534 41.7652C19.9402 41.186 20.1465 40.5051 20.1463 39.8086C20.1463 39.3462 20.0552 38.8884 19.8782 38.4613C19.7012 38.0341 19.4418 37.646 19.1148 37.3191C18.7878 36.9923 18.3997 36.733 17.9724 36.5562C17.5452 36.3794 17.0874 36.2884 16.625 36.2886Z" fill="url(#paint5_linear_548_10316)"/>
<path d="M16.625 41.4224C16.3058 41.4221 15.994 41.3273 15.7287 41.1498C15.4635 40.9723 15.2569 40.7202 15.1349 40.4253C15.013 40.1304 14.9812 39.806 15.0436 39.493C15.106 39.1801 15.2598 38.8926 15.4856 38.6671C15.7113 38.4415 15.9988 38.2879 16.3118 38.2258C16.6248 38.1636 16.9492 38.1956 17.244 38.3178C17.5388 38.44 17.7908 38.6468 17.9681 38.9122C18.1453 39.1775 18.24 39.4895 18.24 39.8086C18.24 40.0206 18.1982 40.2306 18.117 40.4264C18.0358 40.6223 17.9168 40.8003 17.7669 40.9501C17.6169 41.1 17.4388 41.2188 17.2429 41.2999C17.047 41.3809 16.837 41.4225 16.625 41.4224Z" fill="url(#paint6_linear_548_10316)"/>
<path d="M47.5213 35.9999C46.8248 35.9999 46.1439 36.2064 45.5648 36.5934C44.9857 36.9804 44.5344 37.5304 44.2679 38.1739C44.0014 38.8174 43.9318 39.5255 44.0678 40.2085C44.2037 40.8916 44.5392 41.5191 45.0318 42.0115C45.5244 42.5039 46.1519 42.8391 46.8351 42.9749C47.5182 43.1106 48.2262 43.0407 48.8696 42.774C49.513 42.5073 50.0629 42.0558 50.4497 41.4765C50.8364 40.8973 51.0428 40.2164 51.0425 39.5199C51.0422 38.5862 50.671 37.6909 50.0107 37.0308C49.3504 36.3707 48.4549 35.9999 47.5213 35.9999Z" fill="url(#paint7_linear_548_10316)"/>
<path d="M47.375 41.4224C47.0558 41.4224 46.7438 41.3277 46.4784 41.1504C46.213 40.9731 46.0062 40.721 45.8841 40.4262C45.7619 40.1313 45.73 39.8068 45.7922 39.4938C45.8545 39.1807 46.0082 38.8932 46.2339 38.6675C46.4596 38.4418 46.7471 38.2881 47.0602 38.2259C47.3732 38.1636 47.6977 38.1956 47.9925 38.3177C48.2874 38.4398 48.5394 38.6467 48.7168 38.9121C48.8941 39.1774 48.9887 39.4894 48.9887 39.8086C48.9887 40.2366 48.8187 40.6471 48.5161 40.9497C48.2134 41.2523 47.803 41.4224 47.375 41.4224Z" fill="url(#paint8_linear_548_10316)"/>
<path d="M40.875 29.7011C40.5681 27.5557 39.4959 25.5936 37.856 24.1765C36.2162 22.7595 34.1193 21.9832 31.9521 21.9907C29.7849 21.9981 27.6934 22.7889 26.0634 24.2171C24.4333 25.6454 23.3746 27.6149 23.0825 29.7623C23.0144 30.2874 22.9727 30.8156 22.9575 31.3448H12.5875L11.9537 26.9111C11.9403 26.7602 11.8709 26.6198 11.7592 26.5176C11.6474 26.4153 11.5015 26.3586 11.35 26.3586H10.75V31.3448V32.9173C10.7501 33.3104 10.8975 33.6892 11.1631 33.9789C11.4288 34.2686 11.7934 34.4482 12.185 34.4823L22.2188 35.3648C22.3464 35.3757 22.4658 35.4323 22.5551 35.5241C22.6444 35.616 22.6976 35.7369 22.705 35.8648C22.83 38.0511 24.5275 40.1648 26.6437 40.6486C27.9437 40.9236 29.575 41.1148 32.0325 41.1186C34.49 41.1223 36.12 40.9223 37.4175 40.6486C39.5312 40.1648 41.22 38.0511 41.3237 35.8648C41.3301 35.7377 41.3822 35.6171 41.4704 35.5252C41.5586 35.4333 41.6769 35.3764 41.8037 35.3648L51.8338 34.4836C52.2253 34.4495 52.5899 34.2699 52.8556 33.9801C53.1213 33.6904 53.2687 33.3116 53.2687 32.9186V31.3448V26.3586H52.6625C52.511 26.3586 52.3651 26.4153 52.2533 26.5176C52.1416 26.6198 52.0722 26.7602 52.0588 26.9111L51.425 31.3448H41.0125C40.9981 30.7947 40.9522 30.2459 40.875 29.7011Z" fill="url(#paint9_linear_548_10316)"/>
<path d="M22.6887 35.8749C22.8137 38.0611 24.5112 40.1749 26.6275 40.6586C27.9275 40.9336 29.5575 41.1249 32.0162 41.1286C34.475 41.1324 36.1037 40.9324 37.4012 40.6586C39.515 40.1749 41.2037 38.0611 41.3075 35.8749L40.9712 30.6636C40.9287 30.1636 40.8625 29.7036 40.8625 29.7036C40.5556 27.5582 39.4833 25.5961 37.8435 24.1791C36.2037 22.7621 34.1068 21.9857 31.9396 21.9932C29.7723 22.0006 27.6809 22.7914 26.0508 24.2197C24.4208 25.6479 23.3621 27.6174 23.07 29.7649C23.07 29.7649 23.0262 30.0899 22.99 30.5399L22.6887 35.8749Z" fill="url(#paint10_linear_548_10316)"/>
<path d="M32.65 26.7499C32.6451 26.6853 32.6533 26.6204 32.6742 26.5592C32.6952 26.4979 32.7283 26.4416 32.7717 26.3935C32.8151 26.3454 32.8678 26.3067 32.9266 26.2797C32.9854 26.2526 33.0491 26.2378 33.1138 26.2361C34.6288 26.2461 36.1442 26.2778 37.66 26.3311C37.784 26.3438 37.9036 26.3841 38.01 26.449C38.1164 26.5139 38.2069 26.6017 38.275 26.7061C38.5417 27.1126 38.7591 27.5495 38.9225 28.0074C39.0125 28.2574 38.8375 28.5211 38.5613 28.5999C36.775 29.1061 34.9363 29.6574 33.255 30.1936C33.1813 30.2161 33.1032 30.2201 33.0276 30.2052C32.9519 30.1904 32.8811 30.1572 32.8213 30.1085C32.7616 30.0599 32.7147 29.9972 32.6848 29.9262C32.6549 29.8552 32.643 29.7779 32.65 29.7011C32.6825 28.7169 32.6825 27.7332 32.65 26.7499ZM25.0725 28.0099C25.2365 27.5522 25.4538 27.1154 25.72 26.7086C25.7882 26.6041 25.879 26.5161 25.9856 26.4512C26.0923 26.3864 26.2121 26.3462 26.3363 26.3336C27.8513 26.2811 29.3667 26.2494 30.8825 26.2386C30.9472 26.2403 31.0109 26.2551 31.0697 26.2822C31.1285 26.3092 31.1812 26.3479 31.2246 26.396C31.268 26.4441 31.3011 26.5004 31.3221 26.5617C31.343 26.6229 31.3512 26.6878 31.3463 26.7524C31.3138 27.7374 31.3138 28.7219 31.3463 29.7061C31.3533 29.7829 31.3414 29.8602 31.3115 29.9312C31.2816 30.0022 31.2347 30.0649 31.175 30.1135C31.1152 30.1622 31.0444 30.1954 30.9687 30.2102C30.8931 30.2251 30.815 30.2211 30.7413 30.1986C29.0613 29.6624 27.2213 29.1111 25.4338 28.6049C25.1588 28.5199 24.9825 28.2586 25.0725 28.0061V28.0099Z" fill="url(#paint11_linear_548_10316)"/>
</g>
<defs>
<radialGradient id="paint0_radial_548_10316" cx="0" cy="0" r="1" gradientUnits="userSpaceOnUse" gradientTransform="translate(32 49.5812) scale(25.1037 11.2967)">
<stop stop-color="#1EB4EB" stop-opacity="0.6"/>
<stop offset="1" stop-color="#1EB4EB" stop-opacity="0"/>
</radialGradient>
<linearGradient id="paint1_linear_548_10316" x1="34.345" y1="21.6548" x2="29.7675" y2="17.0773" gradientUnits="userSpaceOnUse">
<stop stop-color="#1EB4EB"/>
<stop offset="0.54" stop-color="#1EB4EB"/>
<stop offset="1" stop-color="#92F4FE"/>
</linearGradient>
<linearGradient id="paint2_linear_548_10316" x1="34.2488" y1="47.3173" x2="29.7538" y2="42.8223" gradientUnits="userSpaceOnUse">
<stop stop-color="#34344F"/>
<stop offset="0.54" stop-color="#353551"/>
<stop offset="1" stop-color="#666684"/>
</linearGradient>
<linearGradient id="paint3_linear_548_10316" x1="29.79" y1="44.8123" x2="26.8588" y2="41.8811" gradientUnits="userSpaceOnUse">
<stop stop-color="#34344F"/>
<stop offset="0.54" stop-color="#353551"/>
<stop offset="1" stop-color="#666684"/>
</linearGradient>
<linearGradient id="paint4_linear_548_10316" x1="37.1562" y1="44.8011" x2="34.2012" y2="41.8473" gradientUnits="userSpaceOnUse">
<stop stop-color="#34344F"/>
<stop offset="0.54" stop-color="#353551"/>
<stop offset="1" stop-color="#666684"/>
</linearGradient>
<linearGradient id="paint5_linear_548_10316" x1="19.115" y1="42.2986" x2="14.1363" y2="37.3199" gradientUnits="userSpaceOnUse">
<stop stop-color="#1EB4EB"/>
<stop offset="0.54" stop-color="#1EB4EB"/>
<stop offset="1" stop-color="#92F4FE"/>
</linearGradient>
<linearGradient id="paint6_linear_548_10316" x1="17.7662" y1="40.9499" x2="15.4837" y2="38.6674" gradientUnits="userSpaceOnUse">
<stop stop-color="#34344F"/>
<stop offset="0.54" stop-color="#353551"/>
<stop offset="1" stop-color="#666684"/>
</linearGradient>
<linearGradient id="paint7_linear_548_10316" x1="50.01" y1="42.0099" x2="45.03" y2="37.0311" gradientUnits="userSpaceOnUse">
<stop stop-color="#1EB4EB"/>
<stop offset="0.54" stop-color="#1EB4EB"/>
<stop offset="1" stop-color="#92F4FE"/>
</linearGradient>
<linearGradient id="paint8_linear_548_10316" x1="48.515" y1="40.9499" x2="46.2325" y2="38.6674" gradientUnits="userSpaceOnUse">
<stop stop-color="#34344F"/>
<stop offset="0.54" stop-color="#353551"/>
<stop offset="1" stop-color="#666684"/>
</linearGradient>
<linearGradient id="paint9_linear_548_10316" x1="44.4312" y1="42.3961" x2="19.57" y2="17.5336" gradientUnits="userSpaceOnUse">
<stop stop-color="#1EB4EB"/>
<stop offset="0.54" stop-color="#1EB4EB"/>
<stop offset="1" stop-color="#92F4FE"/>
</linearGradient>
<linearGradient id="paint10_linear_548_10316" x1="39.195" y1="39.8586" x2="24.785" y2="25.4499" gradientUnits="userSpaceOnUse">
<stop stop-color="#1EB4EB"/>
<stop offset="0.54" stop-color="#1EB4EB"/>
<stop offset="1" stop-color="#92F4FE"/>
</linearGradient>
<linearGradient id="paint11_linear_548_10316" x1="35.7138" y1="31.5499" x2="28.2813" y2="24.1186" gradientUnits="userSpaceOnUse">
<stop stop-color="#BCE4ED"/>
<stop offset="0.57" stop-color="white"/>
<stop offset="1" stop-color="white"/>
</linearGradient>
<clipPath id="clip0_548_10316">
<rect width="64" height="64" fill="white"/>
</clipPath>
</defs>
</svg>
