<svg width="16" height="16" viewBox="0 0 16 16" fill="none" xmlns="http://www.w3.org/2000/svg">
<g clip-path="url(#clip0_5353_2061)">
<path fill-rule="evenodd" clip-rule="evenodd" d="M8 1.99999C4.68629 1.99999 2 4.68628 2 7.99999C2 11.3137 4.68629 14 8 14C11.3137 14 14 11.3137 14 7.99999C14 4.68628 11.3137 1.99999 8 1.99999ZM0.666664 7.99999C0.666664 3.9499 3.94991 0.666656 8 0.666656C12.0501 0.666656 15.3333 3.9499 15.3333 7.99999C15.3333 12.0501 12.0501 15.3333 8 15.3333C3.94991 15.3333 0.666664 12.0501 0.666664 7.99999ZM8 4.66666C8.36819 4.66666 8.66666 4.96513 8.66666 5.33332V7.99999C8.66666 8.36818 8.36819 8.66666 8 8.66666C7.63181 8.66666 7.33333 8.36818 7.33333 7.99999V5.33332C7.33333 4.96513 7.63181 4.66666 8 4.66666ZM7.33333 10.6667C7.33333 10.2985 7.63181 9.99999 8 9.99999H8.00666C8.37485 9.99999 8.67333 10.2985 8.67333 10.6667C8.67333 11.0348 8.37485 11.3333 8.00666 11.3333H8C7.63181 11.3333 7.33333 11.0348 7.33333 10.6667Z" fill="#FF592C"/>
</g>
<defs>
<clipPath id="clip0_5353_2061">
<rect width="16" height="16" fill="white"/>
</clipPath>
</defs>
</svg>
