<svg width="16" height="16" viewBox="0 0 16 16" fill="none" xmlns="http://www.w3.org/2000/svg">
<path fill-rule="evenodd" clip-rule="evenodd" d="M7.99983 5.00275C8.35941 5.00275 8.65091 5.30122 8.65091 5.66941V8.33608C8.65091 8.70427 8.35941 9.00275 7.99983 9.00275C7.64025 9.00275 7.34875 8.70427 7.34875 8.33608V5.66941C7.34875 5.30122 7.64025 5.00275 7.99983 5.00275ZM7.34875 11.0027C7.34875 10.6346 7.64025 10.3361 7.99983 10.3361H8.00634C8.36592 10.3361 8.65742 10.6346 8.65742 11.0027C8.65742 11.3709 8.36592 11.6694 8.00634 11.6694H7.99983C7.64025 11.6694 7.34875 11.3709 7.34875 11.0027Z" fill="#CC5802"/>
<path fill-rule="evenodd" clip-rule="evenodd" d="M7.99983 5.00275C8.35941 5.00275 8.65091 5.30122 8.65091 5.66941V8.33608C8.65091 8.70427 8.35941 9.00275 7.99983 9.00275C7.64025 9.00275 7.34875 8.70427 7.34875 8.33608V5.66941C7.34875 5.30122 7.64025 5.00275 7.99983 5.00275ZM7.34875 11.0027C7.34875 10.6346 7.64025 10.3361 7.99983 10.3361H8.00634C8.36592 10.3361 8.65742 10.6346 8.65742 11.0027C8.65742 11.3709 8.36592 11.6694 8.00634 11.6694H7.99983C7.64025 11.6694 7.34875 11.3709 7.34875 11.0027Z" fill="#CC5802"/>
<path d="M2.82064 14H13.195C13.4368 13.9983 13.6746 13.9368 13.8875 13.821C14.1003 13.7052 14.2819 13.5385 14.4164 13.3355C14.5509 13.1325 14.6341 12.8993 14.6589 12.6564C14.6837 12.4134 14.6492 12.168 14.5585 11.9416L9.29723 2.77228C9.16907 2.5383 8.98119 2.34326 8.75313 2.20744C8.52508 2.07163 8.26517 2 8.00043 2C7.73569 2 7.47578 2.07163 7.24773 2.20744C7.01967 2.34326 6.8318 2.5383 6.70363 2.77228L1.44232 11.9416C1.35336 12.1628 1.31808 12.4024 1.33943 12.6402C1.36079 12.878 1.43815 13.1072 1.56508 13.3087C1.692 13.5101 1.86479 13.678 2.06903 13.7983C2.27327 13.9185 2.50303 13.9877 2.73913 14" stroke="#CC5802" stroke-linecap="round" stroke-linejoin="round"/>
</svg>
