<svg width="20" height="20" viewBox="0 0 20 20" fill="none" xmlns="http://www.w3.org/2000/svg">
<circle cx="10" cy="10" r="10" fill="#9C8761"/>
<path fill-rule="evenodd" clip-rule="evenodd" d="M3.33331 10.0179L14.5617 15.8333C14.8103 14.427 13.2451 13.5969 13.2305 13.4752C13.2134 13.3196 14.4766 12.9315 14.5697 11.8667C14.7271 10.0892 11.8052 9.97618 11.7049 11.3053C11.6515 12.0003 12.58 12.016 12.6088 11.5C12.649 10.809 13.5084 10.9394 13.6417 11.717C13.7765 12.4958 12.6873 12.8256 12.2519 12.8153C11.574 12.798 10.672 12.3379 10.5902 11.6579C10.4773 10.7215 11.747 10.6006 10.109 10.716C9.46561 10.7609 8.99619 10.4745 8.69742 10.0136C9.06852 9.58499 9.46561 9.28717 10.109 9.33287C11.747 9.44908 10.4773 9.32696 10.5902 8.38149C10.672 7.69563 11.574 7.23038 12.2519 7.21344C12.6873 7.20241 13.7765 7.5353 13.6417 8.322C13.5084 9.10635 12.649 9.23792 12.6088 8.54104C12.58 8.01945 11.6515 8.036 11.7049 8.73761C11.8052 10.0786 14.7271 9.96515 14.5697 8.17073C14.478 7.11732 13.2612 6.71944 13.2309 6.55595C13.2153 6.46968 14.8051 5.55848 14.5617 4.16668" fill="white"/>
</svg>
