<svg width="20" height="20" viewBox="0 0 20 20" fill="none" xmlns="http://www.w3.org/2000/svg">
<g clip-path="url(#clip0_7033_346)">
<path d="M15.9622 13.869C14.9086 16.9294 11.9001 19.1453 8.36094 19.1453C3.94731 19.1453 0.35664 15.7012 0.35664 11.4677C0.35664 7.23427 3.94731 3.78978 8.36094 3.78978C9.70476 3.78978 10.9715 4.11061 12.0843 4.67429L12.3711 4.43263C11.1796 3.80529 9.81327 3.44775 8.36094 3.44775C3.75072 3.44775 6.10352e-05 7.0453 6.10352e-05 11.4677C6.10352e-05 15.8898 3.75028 19.4869 8.36094 19.4869C12.106 19.4869 15.2839 17.1131 16.3447 13.851L15.9622 13.869Z" fill="#003366"/>
<path d="M3.00391 13.9391C7.83113 13.5126 12.6136 12.8032 17.3281 11.664C17.2549 11.9767 17.1822 12.2885 17.109 12.6012C11.0783 13.92 6.87113 14.0412 3.00391 13.9391Z" fill="#00B2E2"/>
<path d="M3.77203 13.4792C8.29288 12.7979 12.9218 11.7188 17.6759 10.1763C17.6009 10.4963 17.5264 10.8159 17.452 11.1359C12.1788 12.7261 7.68224 13.4359 3.77203 13.4792Z" fill="#00B2E2"/>
<path d="M4.50812 12.9906C8.94216 11.9302 13.4571 10.4457 18.0273 8.66898C17.9528 8.99061 17.8775 9.31224 17.8026 9.63427C12.9609 11.4575 8.48259 12.6579 4.50812 12.9906Z" fill="#57C8E7"/>
<path d="M5.24261 12.4122C9.71325 11.1093 14.1107 9.14894 18.463 6.80035C18.3712 7.19504 18.2792 7.58978 18.1873 7.98447C12.9745 10.4673 8.55794 12.0571 5.24261 12.4122Z" fill="#98DAE9"/>
<path d="M6.19409 11.8008C11.2149 9.47184 15.2971 7.05878 18.9745 4.60898C18.8732 5.04369 18.7715 5.47836 18.6703 5.91305C14.5005 8.46651 10.3388 10.5816 6.19409 11.8008Z" fill="#57C8E7"/>
<path d="M6.9256 11.0441C11.8626 8.05058 16.1452 5.00529 19.6077 1.89508C19.4844 2.4261 19.3601 2.95794 19.2362 3.48854C15.1401 6.87875 10.9481 9.21344 6.9256 11.0441Z" fill="#00B2E2"/>
<path d="M19.8903 0C19.4243 0.0123413 18.9592 0.023281 18.4932 0.0346968C16.7664 2.0596 15.0251 3.81142 13.2745 5.41142C11.3775 7.14489 9.47107 8.69957 7.56299 10.229C11.7426 7.52365 15.8898 4.49387 19.8903 0Z" fill="#00B2E2"/>
</g>
<defs>
<clipPath id="clip0_7033_346">
<rect width="20" height="20" fill="white"/>
</clipPath>
</defs>
</svg>
