<svg width="20" height="21" viewBox="0 0 20 21" fill="none" xmlns="http://www.w3.org/2000/svg">
<path d="M3.33325 7.99998C3.33325 7.07951 4.07944 6.33331 4.99992 6.33331H14.1666C15.0871 6.33331 15.8333 7.07951 15.8333 7.99998V8.41665C15.8333 8.64677 16.0198 8.83331 16.2499 8.83331C16.48 8.83331 16.6666 9.01986 16.6666 9.24998V11.75C16.6666 11.9801 16.48 12.1666 16.2499 12.1666C16.0198 12.1666 15.8333 12.3532 15.8333 12.5833V13C15.8333 13.9205 15.0871 14.6666 14.1666 14.6666H10.4166" stroke="#7E868C" stroke-width="1.5" stroke-linecap="round" stroke-linejoin="round"/>
<path fill-rule="evenodd" clip-rule="evenodd" d="M2.5 13H7.5V14.6667C7.5 15.5871 6.75381 16.3333 5.83333 16.3333H4.16667C3.24619 16.3333 2.5 15.5871 2.5 14.6667V13Z" stroke="#7E868C" stroke-width="1.5" stroke-linecap="round" stroke-linejoin="round"/>
<path d="M4.99992 18.8333V16.3333" stroke="#7E868C" stroke-width="1.5" stroke-linecap="round" stroke-linejoin="round"/>
<path d="M3.33341 13V10.9167" stroke="#7E868C" stroke-width="1.5" stroke-linecap="round" stroke-linejoin="round"/>
<path d="M6.66667 13V10.9167" stroke="#7E868C" stroke-width="1.5" stroke-linecap="round" stroke-linejoin="round"/>
</svg>
