<svg width="64" height="64" viewBox="0 0 64 64" fill="none" xmlns="http://www.w3.org/2000/svg">
<path d="M62.0625 16.2374C60.3875 10.0499 53.95 3.61238 47.7625 1.93738C43.975 0.987378 38.9 0.0123779 32 -0.00012207C25.1 0.0123779 20.025 0.987378 16.2375 1.93738C10.05 3.61238 3.6125 10.0499 1.9375 16.2374C0.9875 20.0249 0.0125 25.0999 0 31.9999C0.0125 38.8999 0.9875 43.9749 1.9375 47.7624C3.6125 53.9499 10.05 60.3749 16.2375 62.0624C20.025 63.0124 25.1125 63.9874 32 63.9999C38.9 63.9874 43.975 63.0124 47.7625 62.0624C53.95 60.3874 60.375 53.9499 62.0625 47.7624C63.0125 43.9749 63.9875 38.8874 64 31.9999C63.9875 25.0999 63.0125 20.0249 62.0625 16.2374Z" fill="#FFF0E0"/>
<path d="M55.5874 45.7749C54.2749 43.5749 49.2249 41.2874 44.3749 40.6999C40.2624 40.2374 36.1374 39.9999 31.9999 40.0124C27.8624 39.9999 23.7374 40.2374 19.6249 40.6999C14.7749 41.2999 9.7249 43.5749 8.4124 45.7749C7.6749 47.1249 6.9124 48.9249 6.8999 51.3749C6.9124 53.8249 7.6749 55.6249 8.4249 56.9749C9.7374 59.1749 14.7874 61.4624 19.6374 62.0499C23.7499 62.5124 27.8749 62.7499 32.0124 62.7374C36.1499 62.7499 40.2749 62.5124 44.3874 62.0499C49.2374 61.4499 54.2874 59.1624 55.5999 56.9749C56.3374 55.6249 57.0999 53.8249 57.1124 51.3749C57.0874 48.9249 56.3249 47.1249 55.5874 45.7749Z" fill="url(#paint0_radial_548_10349)"/>
<path d="M35.2 35.1874H28.95V43.7249H35.2V35.1874Z" fill="url(#paint1_linear_548_10349)"/>
<path d="M50.425 47.5374C38.1625 48.4999 25.8375 48.4999 13.5625 47.5374C12.275 47.4374 11.0375 46.2874 10.8625 44.9874C10.825 44.7499 10.8 44.4999 10.7625 44.2624C10.5875 42.9624 11.575 41.9749 12.925 42.0374C25.6375 42.6624 38.35 42.6624 51.075 42.0374C52.425 41.9749 53.4 42.9624 53.2375 44.2624C53.2125 44.4999 53.175 44.7499 53.1375 44.9874C52.95 46.2749 51.725 47.4249 50.425 47.5374Z" fill="url(#paint2_linear_548_10349)"/>
<path d="M33.45 19.5874H30.7V23.3499H33.45V19.5874Z" fill="url(#paint3_linear_548_10349)"/>
<path d="M32.0751 22.1749C31.3626 22.1749 30.5626 22.2499 30.5626 22.2499C21.9626 23.0374 14.2876 30.2124 13.9001 38.6374C13.8626 39.4874 14.6001 40.2374 15.4751 40.2749C26.5001 40.6124 37.5126 40.6124 48.5376 40.2749C49.4126 40.2499 50.1501 39.4874 50.1126 38.6374C49.7251 30.2124 42.0501 23.0374 33.4501 22.2499C33.4376 22.2374 32.8001 22.1749 32.0751 22.1749Z" fill="url(#paint4_linear_548_10349)"/>
<path d="M34.4376 20.7374C35.7376 20.7499 36.7876 19.6999 36.8001 18.3999C36.8001 18.3624 36.8001 18.3124 36.8001 18.2749C36.7501 16.8999 35.6626 15.7749 34.3751 15.7499C32.8501 15.7374 31.3251 15.7374 29.8001 15.7499C28.5001 15.7624 27.4126 16.8999 27.3751 18.2749C27.3126 19.5749 28.3126 20.6749 29.6126 20.7374C29.6501 20.7374 29.7001 20.7374 29.7376 20.7374H34.4376Z" fill="url(#paint5_linear_548_10349)"/>
<path d="M24.1251 29.5874C22.3001 30.7374 20.9001 32.4374 20.1251 34.4499C19.9501 34.9249 19.4876 35.2374 18.9751 35.2249C18.8251 35.2249 18.6751 35.1999 18.5376 35.1374C17.9001 34.9124 17.5626 34.2124 17.8001 33.5749C18.7251 31.1249 20.5376 28.9749 22.8251 27.5249C23.3876 27.1499 24.1501 27.2999 24.5251 27.8624L24.5376 27.8749C24.8876 28.4624 24.7001 29.2249 24.1251 29.5874Z" fill="white"/>
<defs>
<radialGradient id="paint0_radial_548_10349" cx="0" cy="0" r="1" gradientUnits="userSpaceOnUse" gradientTransform="translate(32.0049 48.7771) scale(25.1006 11.2953)">
<stop stop-color="#FE7737" stop-opacity="0.6"/>
<stop offset="1" stop-color="#FE7837" stop-opacity="0"/>
</radialGradient>
<linearGradient id="paint1_linear_548_10349" x1="35.7706" y1="43.153" x2="28.3768" y2="35.7593" gradientUnits="userSpaceOnUse">
<stop stop-color="#E24B17"/>
<stop offset="1" stop-color="#F46127"/>
</linearGradient>
<linearGradient id="paint2_linear_548_10349" x1="43.2474" y1="55.6601" x2="20.7534" y2="33.1661" gradientUnits="userSpaceOnUse">
<stop stop-color="#34344F"/>
<stop offset="0.26" stop-color="#3B3B57"/>
<stop offset="0.66" stop-color="#50506D"/>
<stop offset="1" stop-color="#666684"/>
</linearGradient>
<linearGradient id="paint3_linear_548_10349" x1="33.7006" y1="23.0894" x2="30.4468" y2="19.8342" gradientUnits="userSpaceOnUse">
<stop stop-color="#34344F"/>
<stop offset="0.26" stop-color="#3B3B57"/>
<stop offset="0.66" stop-color="#50506D"/>
<stop offset="1" stop-color="#666684"/>
</linearGradient>
<linearGradient id="paint4_linear_548_10349" x1="42.6751" y1="46.7397" x2="21.3265" y2="25.3914" gradientUnits="userSpaceOnUse">
<stop stop-color="#FE7838"/>
<stop offset="0.54" stop-color="#FE7636"/>
<stop offset="1" stop-color="#FFAD8A"/>
</linearGradient>
<linearGradient id="paint5_linear_548_10349" x1="34.9608" y1="21.1949" x2="29.1876" y2="15.4215" gradientUnits="userSpaceOnUse">
<stop stop-color="#FE7838"/>
<stop offset="0.54" stop-color="#FE7636"/>
<stop offset="1" stop-color="#FFAD8A"/>
</linearGradient>
</defs>
</svg>
