<svg width="65" height="64" viewBox="0 0 65 64" fill="none" xmlns="http://www.w3.org/2000/svg">
<g clip-path="url(#clip0_3303_27903)">
<g clip-path="url(#clip1_3303_27903)">
<path d="M51.8454 25.5756L51.0615 18.7496C50.7524 16.1017 50.0017 13.5189 48.8314 11.1097L47.2968 7.94092C46.4246 6.15032 44.5808 5 42.5605 5H7.76132C4.86875 5 2.5282 7.3115 2.5282 10.1547V16.6443C2.5282 17.4365 2.5282 17.2737 2.5282 17.2737C4.95707 17.328 16.3617 17.2629 16.8034 17.2629H23.1295L30.6921 17.2737H48.5002C48.6106 17.8489 48.7099 18.424 48.7762 18.9992V19.1186H44.1172C42.3286 19.1186 40.8713 20.551 40.8713 22.3091V26.0748C40.8713 26.5197 41.2356 26.8887 41.6993 26.8887H46.2148C46.1817 27.0406 46.1596 27.2034 46.1596 27.3553V28.4731C46.1596 29.6342 47.1091 30.5675 48.2904 30.5675H49.7146V33.2263C49.7146 33.5736 49.4276 33.8557 49.0743 33.8557H46.9656C46.1375 32.1194 44.36 30.9148 42.2845 30.9148C41.0811 30.9148 39.966 31.3272 39.0938 32.0109V19.9216C39.0938 19.4767 38.7295 19.1077 38.2658 19.1077H20.0051C19.5524 19.1077 19.177 19.4658 19.177 19.9216C19.177 20.3666 19.5414 20.7355 20.0051 20.7355H22.3235V25.2609H17.9516C18.0288 25.3585 18.1282 25.4453 18.2607 25.4996C18.9893 25.836 19.6407 26.3135 20.2038 26.8778H29.8862V33.8557L24.3549 33.9208C22.9307 33.9425 22.8535 36.1021 24.2777 36.1238C24.2887 36.1238 24.2997 36.1238 24.3108 36.1238H37.1176C37.1838 38.8694 39.4692 41.0832 42.2845 41.0832C45.0997 41.0832 47.3851 38.8694 47.4513 36.1238H49.0743C50.7082 36.1238 52.0331 34.8215 52.0331 33.2154V28.2669C52.0331 27.3553 51.9779 26.4546 51.8785 25.5539L51.8454 25.5756ZM7.17618 15.6568H4.83563V11.1314H7.17618V15.6568ZM14.7388 15.6568H8.83223V11.1314H14.7388V15.6568ZM22.3014 15.6568H16.3949V11.1314H22.3014V15.6568ZM29.8641 15.6568H23.9575V11.1314H29.8641V15.6568ZM37.4267 15.6568H31.5091V11.1314H37.4267V15.6568ZM38.2547 9.51447H4.91291C5.211 8.23392 6.38128 7.27894 7.77236 7.27894H42.5715C43.6976 7.27894 44.7354 7.91921 45.2212 8.9176L45.5082 9.51447H38.2437H38.2547ZM39.0828 15.6568V11.1314H46.3031L46.7668 12.0864C47.3299 13.2367 47.7715 14.4305 48.1248 15.6568H39.0938H39.0828ZM42.5163 25.2717V22.3199C42.5163 21.4518 43.2339 20.7464 44.1172 20.7464H48.9859L49.5048 25.2717H42.5163ZM49.7036 28.9614H48.2794C48.0144 28.9614 47.8046 28.7444 47.8046 28.4948V27.377C47.8046 27.1166 48.0254 26.9104 48.2794 26.9104H49.6484C49.6815 27.377 49.7036 27.8436 49.7036 28.3103V28.9831V28.9614ZM29.8641 25.2717H23.9575V20.7464H29.8641V25.2717ZM37.4267 33.8666H31.5091V26.8887H37.4267V33.8666ZM37.4267 25.2717H31.5091V20.7464H37.4267V25.2717ZM42.2734 38.8368C40.6947 38.8368 39.414 37.578 39.414 36.0261C39.414 34.4743 40.6947 33.2154 42.2734 33.2154C43.8522 33.2154 45.1329 34.4743 45.1329 36.0261C45.1329 37.578 43.8522 38.8368 42.2734 38.8368Z" fill="#1150CB"/>
<path d="M13.6569 37.0245C13.5134 36.8834 13.3036 36.7966 13.0939 36.7966H11.5151C11.3053 36.7966 11.1066 36.8834 10.952 37.0245C10.8085 37.1656 10.7202 37.3718 10.7202 37.578C10.7202 37.7842 10.6319 37.9795 10.4883 38.1314C10.3448 38.2725 10.135 38.3593 9.92527 38.3593C9.71551 38.3593 9.51678 38.2725 9.36222 38.1314C9.21869 37.9904 9.13037 37.7842 9.13037 37.578C9.13037 37.3718 9.04205 37.1765 8.89852 37.0245C8.755 36.8834 8.54523 36.7966 8.33547 36.7966H6.7567C6.54693 36.7966 6.3482 36.8834 6.19364 37.0245C6.05011 37.1656 5.96179 37.3718 5.96179 37.578V48.4518C5.96179 48.658 6.05011 48.8533 6.19364 49.0052C6.33716 49.1463 6.54693 49.2331 6.7567 49.2331H13.0828C13.2926 49.2331 13.4913 49.1463 13.6459 49.0052C13.8004 48.8642 13.8777 48.658 13.8777 48.4518V37.578C13.8777 37.3718 13.7894 37.1765 13.6459 37.0245H13.6569Z" fill="#1150CB"/>
<path d="M19.8726 31.4791C19.8726 31.4791 19.8726 31.4574 19.8726 31.4466C19.8726 31.0993 19.8285 30.7521 19.7512 30.4156C19.5856 29.7754 19.2875 29.1785 18.868 28.6685C18.4484 28.1584 17.9074 27.746 17.3113 27.4639C16.7151 27.1817 16.0416 27.0298 15.3792 27.0298H4.51551C3.84205 27.0298 3.19067 27.1817 2.58345 27.4639C1.97623 27.746 1.4463 28.1584 1.02677 28.6685C0.607233 29.1785 0.298103 29.7754 0.143538 30.4156C0.0552157 30.7521 0.0220947 31.0993 0.0220947 31.4466C0.0220947 31.4574 0.0220947 31.4683 0.0220947 31.4791V54.5615C0.0220947 54.5615 0.0220947 54.5832 0.0220947 54.5941C0.0220947 54.9414 0.0662561 55.2886 0.143538 55.625C0.309144 56.2653 0.607233 56.8622 1.02677 57.3722C1.4463 57.8823 1.98727 58.2947 2.58345 58.5768C3.17963 58.859 3.85309 59.0109 4.51551 59.0109H15.3571C16.0306 59.0109 16.682 58.859 17.2892 58.5768C17.8964 58.2947 18.4263 57.8823 18.8459 57.3722C19.2654 56.8622 19.5745 56.2653 19.7291 55.625C19.8174 55.2886 19.8505 54.9414 19.8505 54.5941C19.8505 54.5832 19.8505 54.5724 19.8505 54.5615V31.4791H19.8726ZM1.81063 54.2577V32.3256C1.81063 31.6419 2.30744 31.0776 2.91466 31.0776H16.969C17.5762 31.0776 18.073 31.6311 18.073 32.3256V54.2577C18.073 54.9414 17.5762 55.5057 16.969 55.5057H2.91466C2.30744 55.5057 1.81063 54.9522 1.81063 54.2577Z" fill="#1150CB"/>
<path d="M3.70962 23.3184C3.52193 23.3184 3.33425 23.2533 3.17968 23.1339C2.82639 22.8409 2.78223 22.3309 3.06928 21.9836C4.83573 19.9 7.44125 18.7063 10.2013 18.7063C12.6744 18.7063 15.0039 19.6504 16.7593 21.3759C17.0795 21.6906 17.0795 22.2115 16.7593 22.5262C16.4391 22.8409 15.9092 22.8409 15.589 22.5262C14.1538 21.1155 12.2328 20.3341 10.2013 20.3341C7.93807 20.3341 5.79624 21.3217 4.34996 23.0254C4.18435 23.2208 3.9525 23.3184 3.70962 23.3184Z" fill="#1150CB"/>
<path d="M7.34182 25.2611C7.15413 25.2611 6.96645 25.1959 6.81188 25.0766C6.45859 24.7836 6.41443 24.2735 6.70148 23.9263C7.52951 22.9496 8.74394 22.3853 10.0357 22.3853C11.1949 22.3853 12.2879 22.8302 13.1049 23.6332C13.425 23.948 13.425 24.4689 13.1049 24.7836C12.7847 25.0983 12.2548 25.0983 11.9346 24.7836C10.8637 23.7309 8.94267 23.8177 7.97112 24.9572C7.80551 25.1525 7.57367 25.2502 7.33078 25.2502L7.34182 25.2611Z" fill="#1150CB"/>
</g>
</g>
<defs>
<clipPath id="clip0_3303_27903">
<rect width="64" height="64" fill="white" transform="translate(0.333374)"/>
</clipPath>
<clipPath id="clip1_3303_27903">
<rect width="52" height="54" fill="white" transform="translate(0 5)"/>
</clipPath>
</defs>
</svg>
