<svg width="24" height="24" viewBox="0 0 24 24" fill="none" xmlns="http://www.w3.org/2000/svg">
<g clip-path="url(#clip0_3738_27271)">
<path d="M11.5 21H6C5.46957 21 4.96086 20.7893 4.58579 20.4142C4.21071 20.0391 4 19.5304 4 19L4 7C4 6.46957 4.21071 5.96086 4.58579 5.58579C4.96086 5.21071 5.46957 5 6 5L18 5C18.5304 5 19.0391 5.21071 19.4142 5.58579C19.7893 5.96086 20 6.46957 20 7V11.5" stroke="#1150CB" stroke-width="1.5" stroke-linecap="round" stroke-linejoin="round"/>
<path d="M16 3V7" stroke="#1150CB" stroke-width="1.5" stroke-linecap="round" stroke-linejoin="round"/>
<path d="M8 3V7" stroke="#1150CB" stroke-width="1.5" stroke-linecap="round" stroke-linejoin="round"/>
<path d="M4 11L20 11" stroke="#1150CB" stroke-width="1.5" stroke-linecap="round" stroke-linejoin="round"/>
<path d="M15 18C15 18.7956 15.3161 19.5587 15.8787 20.1213C16.4413 20.6839 17.2044 21 18 21C18.7956 21 19.5587 20.6839 20.1213 20.1213C20.6839 19.5587 21 18.7956 21 18C21 17.2044 20.6839 16.4413 20.1213 15.8787C19.5587 15.3161 18.7956 15 18 15C17.2044 15 16.4413 15.3161 15.8787 15.8787C15.3161 16.4413 15 17.2044 15 18Z" stroke="#1150CB" stroke-width="1.5" stroke-linecap="round" stroke-linejoin="round"/>
<path d="M20.1992 20.2002L21.9992 22.0002" stroke="#1150CB" stroke-width="1.5" stroke-linecap="round" stroke-linejoin="round"/>
</g>
<defs>
<clipPath id="clip0_3738_27271">
<rect width="24" height="24" fill="white"/>
</clipPath>
</defs>
</svg>
