<svg width="22" height="22" viewBox="0 0 22 22" fill="none" xmlns="http://www.w3.org/2000/svg">
<path fill-rule="evenodd" clip-rule="evenodd" d="M5.90502 2.66234C5.62124 2.5188 5.2861 2.5188 5.00232 2.66234C4.8956 2.71632 4.76256 2.83158 4.17554 3.41861L4.0179 3.57624C3.45769 4.13646 3.30668 4.29848 3.18597 4.51336C3.04606 4.76243 2.92884 5.21317 2.92969 5.49884C2.93045 5.75305 2.96798 5.90614 3.13324 6.48839C3.94884 9.36196 5.48744 12.0737 7.75177 14.3381C10.0161 16.6024 12.7279 18.141 15.6014 18.9566C16.1837 19.1219 16.3368 19.1594 16.591 19.1601C16.8767 19.161 17.3274 19.0438 17.5765 18.9039C17.7914 18.7831 17.9534 18.6321 18.5136 18.0719L18.6712 17.9143C19.2582 17.3273 19.3735 17.1942 19.4275 17.0875C19.571 16.8037 19.571 16.4686 19.4275 16.1848C19.3735 16.0781 19.2583 15.9451 18.6712 15.358L19.3783 14.6509L18.6712 15.358L18.4764 15.1632C18.0907 14.7775 18.0039 14.6985 17.9382 14.6557C17.6067 14.4402 17.1795 14.4402 16.848 14.6557C16.7823 14.6985 16.6955 14.7775 16.3098 15.1632C16.3022 15.1708 16.2944 15.1786 16.2864 15.1866C16.1967 15.2767 16.0831 15.3907 15.9466 15.4884L15.3644 14.6754L15.9466 15.4884C15.4596 15.8371 14.7976 15.95 14.2226 15.7824C14.0622 15.7356 13.9302 15.672 13.8275 15.6225C13.8193 15.6186 13.8114 15.6148 13.8037 15.611C12.2537 14.8669 10.802 13.8528 9.51953 12.5703C8.23706 11.2878 7.22297 9.83613 6.4788 8.28617C6.47507 8.27842 6.47125 8.27048 6.46733 8.26236C6.41783 8.15967 6.35419 8.02766 6.30744 7.86728L7.26748 7.58743L6.30744 7.86728C6.13981 7.29225 6.25271 6.63018 6.60141 6.1432L6.60142 6.14319C6.69911 6.00676 6.81314 5.89315 6.9032 5.80341C6.91122 5.79542 6.91906 5.78761 6.92667 5.78C7.31238 5.39429 7.39136 5.30756 7.43409 5.24183L7.4341 5.24183C7.64959 4.91038 7.64959 4.48309 7.4341 4.15165C7.39136 4.08591 7.31238 3.99918 6.92667 3.61347L6.7318 3.4186C6.14478 2.83158 6.01174 2.71632 5.90502 2.66234ZM4.09963 0.877641C4.95097 0.447037 5.95637 0.447036 6.80771 0.877641C7.24031 1.09645 7.61586 1.47296 8.0503 1.90851C8.08188 1.94017 8.11377 1.97215 8.14601 2.00439L8.34088 2.19926C8.36213 2.22051 8.38318 2.24152 8.40402 2.26233C8.69068 2.5485 8.93761 2.79501 9.11085 3.06146L8.27247 3.60655L9.11085 3.06146C9.75734 4.0558 9.75734 5.33767 9.11085 6.33201C8.93761 6.59846 8.69068 6.84497 8.40402 7.13114C8.38318 7.15195 8.36213 7.17296 8.34088 7.19421C8.28328 7.25182 8.25389 7.28136 8.23342 7.30302C8.23304 7.30465 8.23268 7.30645 8.23235 7.3084C8.23198 7.31056 8.23171 7.31257 8.23151 7.31438C8.23481 7.32169 8.23927 7.33136 8.24542 7.34443C8.25503 7.36485 8.26632 7.38839 8.28176 7.42053C8.92958 8.76981 9.81307 10.0354 10.9337 11.1561C12.0544 12.2768 13.32 13.1603 14.6693 13.8081L14.2365 14.7096L14.6693 13.8081C14.7014 13.8235 14.725 13.8348 14.7454 13.8444C14.7585 13.8506 14.7681 13.855 14.7755 13.8583C14.7773 13.8581 14.7793 13.8579 14.7814 13.8575C14.7834 13.8572 14.7852 13.8568 14.7868 13.8564C14.8085 13.8359 14.838 13.8066 14.8956 13.7489C14.9169 13.7277 14.9379 13.7066 14.9587 13.6858C15.2449 13.3991 15.4914 13.1522 15.7578 12.979C16.7522 12.3325 18.034 12.3325 19.0284 12.979C19.2948 13.1522 19.5413 13.3991 19.8275 13.6858C19.8483 13.7066 19.8693 13.7277 19.8906 13.7489L19.1835 14.4561L19.8906 13.749L20.0854 13.9438C20.1177 13.9761 20.1497 14.0079 20.1813 14.0395C20.6169 14.474 20.9934 14.8495 21.2122 15.2821C21.6428 16.1335 21.6428 17.1389 21.2122 17.9902C20.9934 18.4228 20.6169 18.7984 20.1813 19.2328C20.1497 19.2644 20.1177 19.2963 20.0854 19.3285L19.9278 19.4861C19.905 19.509 19.8824 19.5316 19.8601 19.5539C19.3948 20.0196 19.0381 20.3768 18.556 20.6476C18.0061 20.9565 17.2158 21.162 16.585 21.1601C16.0332 21.1585 15.6307 21.0441 15.1117 20.8966C15.0931 20.8913 15.0743 20.886 15.0554 20.8806C11.8621 19.9743 8.84919 18.2639 6.33755 15.7523C3.82592 13.2406 2.11557 10.2277 1.20923 7.03448C1.20386 7.01555 1.19853 6.99678 1.19323 6.97816C1.04573 6.45915 0.931342 6.05668 0.9297 5.5048C0.927823 4.87402 1.13333 4.08378 1.44226 3.53384L1.44226 3.53384C1.71306 3.05177 2.07021 2.69498 2.53594 2.22973C2.55828 2.20742 2.58086 2.18486 2.60369 2.16203L2.76132 2.00439C2.79357 1.97215 2.82546 1.94017 2.85704 1.90851C3.29148 1.47296 3.66703 1.09645 4.09963 0.877642L4.54586 1.75988L4.09963 0.877641Z" fill="#00D9FF"/>
</svg>
