<svg width="65" height="64" viewBox="0 0 65 64" fill="none" xmlns="http://www.w3.org/2000/svg">
<g clip-path="url(#clip0_3303_27930)">
<path d="M28.6973 47.1115C27.3294 52.7533 22.1075 56.9507 15.887 56.9507C8.61821 56.9507 2.71729 51.2314 2.71729 44.1646C2.71729 37.0978 8.60822 31.3784 15.887 31.3784C22.0775 31.3784 27.2795 35.5274 28.6773 41.1207" stroke="#1150CB" stroke-width="2" stroke-miterlimit="10" stroke-linecap="round"/>
<path d="M23.2856 46.7431C22.5767 52.5691 19.5314 56.9507 15.887 56.9507C11.7134 56.9507 8.32861 51.2314 8.32861 44.1646C8.32861 37.0978 11.7134 31.3784 15.887 31.3784C19.5414 31.3784 22.5867 35.76 23.2856 41.586" stroke="#1150CB" stroke-width="1.5" stroke-miterlimit="10" stroke-linecap="round"/>
<path d="M15.887 46.1421V56.9507" stroke="#1150CB" stroke-width="1.5" stroke-miterlimit="10" stroke-linecap="round"/>
<path d="M15.887 31.3784V42.0707" stroke="#1150CB" stroke-width="1.5" stroke-miterlimit="10" stroke-linecap="round"/>
<path d="M2.71729 44.1646H12.6919" stroke="#1150CB" stroke-width="1.5" stroke-miterlimit="10" stroke-linecap="round"/>
<path d="M39.0015 24.4473C39.0015 24.3795 39.0015 24.3116 38.9916 24.2438C38.8817 14.2882 30.6045 6.20357 20.3602 6.01939C20.2803 6.01939 20.2104 6 20.1306 6C20.1106 6 20.1006 6 20.0806 6C20.0507 6 20.0307 6 20.0008 6C9.52688 6 1 14.2785 1 24.4473C1 24.9805 1.44931 25.4167 1.99846 25.4167C2.54762 25.4167 2.99693 24.9805 2.99693 24.4473C2.99693 22.654 4.55453 21.1999 6.4616 21.1999C8.36866 21.1999 9.92627 22.6637 9.92627 24.457C9.92627 24.9902 10.3756 25.4264 10.9247 25.4264C10.9647 25.4264 11.0046 25.407 11.0545 25.3973C11.1144 25.3973 11.1644 25.4264 11.2143 25.4264C11.7634 25.4264 12.2127 24.9902 12.2127 24.457V24.3795C12.2527 22.6152 13.7903 21.1902 15.6774 21.1902C17.5645 21.1902 19.0722 22.5958 19.1321 24.3407V24.4473H19.1421C19.1421 24.9805 19.5914 25.4167 20.1406 25.4167C20.6897 25.4167 21.139 24.9805 21.139 24.4473C21.139 24.4183 21.139 24.3989 21.139 24.3795C21.179 22.6152 22.7166 21.1999 24.6137 21.1999C26.5108 21.1999 28.0584 22.6443 28.0783 24.4183C28.0783 24.428 28.0783 24.4473 28.0783 24.457C28.0783 24.9902 28.5277 25.4264 29.0768 25.4264C29.2066 25.4264 29.3264 25.3973 29.4462 25.3489C29.4762 25.3392 29.4962 25.3198 29.5261 25.3101C29.606 25.2713 29.6759 25.2229 29.7458 25.1647C29.7757 25.1356 29.7957 25.1162 29.8257 25.0871C29.8856 25.029 29.9255 24.9611 29.9654 24.8836C29.9854 24.8545 30.0054 24.8157 30.0154 24.7866C30.0154 24.7672 30.0353 24.7479 30.0453 24.7285L30.0853 24.4473C30.0853 22.654 31.6429 21.1902 33.5499 21.1902C35.457 21.1902 37.0146 22.6443 37.0146 24.4377C37.0146 24.9708 37.4639 25.407 38.0131 25.407C38.5622 25.407 39.0115 24.9708 39.0115 24.4377L39.0015 24.4473ZM6.4616 19.2515C5.43318 19.2515 4.46467 19.5326 3.63594 20.0076C5.13364 14.8214 9.16744 10.6724 14.3594 8.89845C12.0131 11.5449 10.4555 15.7811 10.2458 20.7152C9.26728 19.8137 7.92934 19.2515 6.4616 19.2515ZM24.6137 19.2515C23.2957 19.2515 22.0776 19.6974 21.139 20.4341V8.06478C24.7135 8.89845 27.629 14.0846 28.0184 20.3759C27.0799 19.6683 25.9017 19.2418 24.6237 19.2418L24.6137 19.2515Z" fill="#1150CB"/>
<path d="M16.636 38.4355H19.0423C19.4018 38.4355 19.7313 38.6294 19.901 38.9493L21.179 41.3243L16.3065 42.0804L15.6875 39.6473C15.5277 39.0366 15.997 38.4452 16.626 38.4452L16.636 38.4355Z" fill="#1150CB"/>
<path d="M20.9194 46.5203H16.6759L15.7673 48.1973C15.4478 48.7886 15.8173 49.5157 16.4762 49.6126L19.1222 50.0197C19.6214 50.0973 20.0907 49.7871 20.2105 49.3024L20.9094 46.5203H20.9194Z" fill="#1150CB"/>
<path d="M32.3619 41.6733L28.4679 41.7993C27.9686 41.8187 27.5493 41.46 27.4694 40.9753L26.3511 33.482C26.2613 32.9003 26.7205 32.3672 27.3096 32.3672H29.7359C30.1453 32.3672 30.5147 32.6289 30.6545 33.0167L33.2405 40.384C33.4602 41.0044 33.0109 41.6539 32.3519 41.6733H32.3619Z" fill="#1150CB"/>
<path d="M32.3619 46.6558L28.4679 46.5298C27.9686 46.5104 27.5493 46.8691 27.4694 47.3538L26.3511 54.8471C26.2613 55.4287 26.7205 55.9619 27.3096 55.9619H29.7359C30.1453 55.9619 30.5147 55.7002 30.6545 55.3124L33.2405 47.9451C33.4602 47.3247 33.0109 46.6752 32.3519 46.6558H32.3619Z" fill="#1150CB"/>
<path d="M30.6844 42.1871C33.0907 42.1871 35.467 42.6814 37.6537 43.6411C37.8733 43.7381 38.0131 43.9416 38.0131 44.1646C38.0131 44.3876 37.8733 44.5911 37.6537 44.6881C35.467 45.6477 33.0907 46.1421 30.6944 46.1421C30.1452 46.1421 29.5861 46.1131 29.0369 46.0646L15.358 44.7753C15.0185 44.7462 14.7589 44.4845 14.7589 44.1646C14.7589 43.8447 15.0185 43.583 15.358 43.5539L29.0369 42.2646C29.5861 42.2161 30.1352 42.1871 30.6844 42.1871ZM30.6844 40.2483C30.0753 40.2483 29.4463 40.2774 28.8372 40.3355L15.1583 41.6248C13.7904 41.7508 12.762 42.8462 12.762 44.1646C12.762 45.483 13.7904 46.5784 15.1583 46.7044L28.8372 47.9937C29.4463 48.0518 30.0653 48.0809 30.6844 48.0809C33.3503 48.0809 36.0461 47.5187 38.4724 46.4523C39.401 46.0452 40.0001 45.1437 40.0001 44.1646C40.0001 43.1855 39.401 42.284 38.4724 41.8769C36.0461 40.8105 33.3503 40.2483 30.6844 40.2483Z" fill="#1150CB"/>
</g>
<defs>
<clipPath id="clip0_3303_27930">
<rect width="39" height="51.9201" fill="white" transform="translate(1 6)"/>
</clipPath>
</defs>
</svg>
