<svg width="24" height="24" viewBox="0 0 24 24" fill="none" xmlns="http://www.w3.org/2000/svg">
<path fill-rule="evenodd" clip-rule="evenodd" d="M7.9754 5.63498C7.63284 5.63498 7.36847 5.90776 7.36847 6.22789C7.36847 6.54803 7.63284 6.82081 7.9754 6.82081C8.31795 6.82081 8.58232 6.54803 8.58232 6.22789C8.58232 5.90776 8.31795 5.63498 7.9754 5.63498ZM5.86847 6.22789C5.86847 5.06469 6.81913 4.13498 7.9754 4.13498C9.13166 4.13498 10.0823 5.06469 10.0823 6.22789C10.0823 7.3911 9.13166 8.32081 7.9754 8.32081C6.81913 8.32081 5.86847 7.3911 5.86847 6.22789ZM5.63862 8.82839C5.77904 8.68941 5.96862 8.61146 6.16619 8.61146H7.54671C8.6973 8.61146 9.63004 9.5442 9.63004 10.6948V13.9831H12.9508C13.2883 13.9831 13.5842 14.2085 13.6739 14.5339L14.879 18.9071H16.117C16.5312 18.9071 16.867 19.2429 16.867 19.6571C16.867 20.0714 16.5312 20.4071 16.117 20.4071H14.3077C13.9703 20.4071 13.6744 20.1817 13.5847 19.8564L12.3795 15.4831H8.88004C8.46583 15.4831 8.13004 15.1473 8.13004 14.7331V10.6948C8.13004 10.3726 7.86887 10.1115 7.54671 10.1115H6.47457L4.51854 12.0473L6.69376 14.2C6.98817 14.4914 6.99063 14.9663 6.69926 15.2607C6.40789 15.5551 5.93303 15.5576 5.63862 15.2662L2.92476 12.5804C2.78242 12.4395 2.70233 12.2476 2.70233 12.0473C2.70233 11.847 2.78242 11.6551 2.92476 11.5142L5.63862 8.82839ZM3.94068 15.7547C4.08139 15.3652 3.87964 14.9353 3.49006 14.7946C3.10048 14.6539 2.67059 14.8556 2.52988 15.2452C2.31634 15.8364 2.21918 16.473 2.25859 17.1243C2.38631 19.2346 3.90812 20.9997 5.99665 21.5637C8.0806 22.1263 10.3304 21.3886 11.6011 19.6856C11.8488 19.3536 11.7805 18.8837 11.4485 18.636C11.1165 18.3882 10.6466 18.4566 10.3989 18.7886C9.51222 19.9769 7.90435 20.525 6.38766 20.1155C4.87554 19.7072 3.84187 18.4549 3.75585 17.0336C3.72906 16.591 3.79488 16.1584 3.94068 15.7547Z" fill="#1150CB"/>
<path fill-rule="evenodd" clip-rule="evenodd" d="M19.1959 4.96043C19.0626 4.89257 18.9234 4.83494 18.7795 4.78794C18.3558 4.64958 17.903 4.60707 17.4497 4.65302C16.9966 4.69894 16.5486 4.8325 16.1293 5.03998C15.5706 5.31641 15.2923 5.83914 15.2661 6.36418C15.241 6.86958 15.4434 7.37797 15.8141 7.74861L17.6237 9.55827C17.9944 9.92891 18.5028 10.1313 19.0082 10.1062C19.5332 10.0801 20.0559 9.80172 20.3324 9.24305C20.5398 8.82372 20.6734 8.37574 20.7193 7.92266C20.7653 7.46931 20.7228 7.01651 20.5844 6.59282C20.5134 6.37548 20.4182 6.16904 20.3001 5.97719L21.4672 4.81011C21.7601 4.51722 21.7644 4.03816 21.4767 3.7401C21.1891 3.44204 20.7185 3.43786 20.4256 3.73075L19.1959 4.96043ZM17.9678 11.5583C18.3203 11.7758 18.4536 12.2513 18.2656 12.6204L17.5927 13.9408C17.4046 14.3099 16.9664 14.4327 16.6139 14.2152C16.2614 13.9977 16.1281 13.5222 16.3162 13.1531L16.9891 11.8326C17.1771 11.4636 17.6153 11.3407 17.9678 11.5583ZM13.782 8.62558C14.1433 8.42309 14.2599 7.97317 14.0424 7.62067C13.8249 7.26817 13.3556 7.14657 12.9943 7.34906L11.7046 8.0718C11.3432 8.2743 11.2266 8.72421 11.4442 9.07671C11.6617 9.42921 12.131 9.55081 12.4923 9.34832L13.782 8.62558ZM15.9332 9.47192C16.2261 9.76481 16.2303 10.2438 15.9426 10.5417L14.9222 11.5983C14.6344 11.8963 14.1637 11.9004 13.8708 11.6075C13.5779 11.3146 13.5738 10.8356 13.8615 10.5377L14.8819 9.48108C15.1696 9.18313 15.6403 9.17902 15.9332 9.47192ZM18.3139 6.21384C18.5225 6.28197 18.6994 6.3913 18.8402 6.53212C18.981 6.67294 19.0904 6.84983 19.1585 7.05847C19.2269 7.268 19.2535 7.50932 19.227 7.7714C19.2004 8.03374 19.1212 8.30845 18.9879 8.57783C18.9819 8.59002 18.9773 8.59544 18.9759 8.59701C18.9751 8.59786 18.9745 8.5984 18.9741 8.59877C18.9737 8.59911 18.9733 8.59931 18.973 8.5995C18.9722 8.6 18.9612 8.60668 18.9336 8.60805C18.8716 8.61114 18.77 8.58319 18.6844 8.49761L16.8747 6.68795C16.7892 6.60237 16.7612 6.50078 16.7643 6.43873C16.7657 6.41113 16.7723 6.40011 16.7728 6.3993C16.7732 6.39867 16.7737 6.39791 16.7753 6.39647C16.7769 6.39505 16.7823 6.39044 16.7945 6.38441C17.0639 6.25112 17.3386 6.17196 17.6009 6.14537C17.863 6.11881 18.1043 6.14541 18.3139 6.21384Z" fill="#1150CB"/>
</svg>
