<svg width="24" height="25" viewBox="0 0 24 25" fill="none" xmlns="http://www.w3.org/2000/svg">
<path d="M4.25 13.3798C4.25 12.8398 4.25 12.4998 4.25 12.4998C4.25 12.4998 4.25 4.71985 5.36 3.62985C7.57 1.49985 16.43 1.49985 18.65 3.62985C19.76 4.71985 19.76 12.4998 19.76 12.4998C19.76 12.4998 19.76 12.8398 19.76 13.3798C19.76 15.4498 19.54 20.5098 18.66 21.3798C16.43 23.4998 7.57 23.4999 5.35 21.3699C4.47 20.4999 4.28 15.4998 4.25 13.3798Z" stroke="#3E3AFF" stroke-width="1.5" stroke-linecap="round" stroke-linejoin="round"/>
<path d="M19.75 13.3798C19.75 15.4498 19.53 20.5098 18.65 21.3798C16.43 23.4998 7.57 23.4998 5.35 21.3698C4.47 20.5098 4.28 15.4498 4.25 13.3698C7.38 11.8498 16.62 11.8498 19.75 13.3798Z" stroke="#3E3AFF" stroke-width="1.5" stroke-linecap="round" stroke-linejoin="round"/>
<path d="M10.9102 6.76981C10.9102 6.76981 10.9102 7.92981 10.6102 8.08981C9.43054 8.42743 8.17985 8.42743 7.0002 8.08981C6.7002 7.92981 6.7002 6.76981 6.7002 6.76981C6.7002 6.76981 6.7402 5.61981 7.0002 5.49981C8.1687 5.17991 9.40169 5.17991 10.5702 5.49981C10.9102 5.61981 10.9102 6.76981 10.9102 6.76981Z" stroke="#3E3AFF" stroke-width="1.5" stroke-linecap="round" stroke-linejoin="round"/>
<path d="M17.2598 6.76987C17.2598 6.76987 17.2598 7.92987 16.9598 8.08987C15.7927 8.4199 14.557 8.4199 13.3898 8.08987C13.0898 7.92987 13.0898 6.76987 13.0898 6.76987C13.0898 6.76987 13.0898 5.61987 13.3898 5.44987C14.5755 5.13895 15.8233 5.15623 16.9998 5.49987C17.2598 5.61987 17.2598 6.76987 17.2598 6.76987Z" stroke="#3E3AFF" stroke-width="1.5" stroke-linecap="round" stroke-linejoin="round"/>
</svg>
