<svg width="24" height="25" viewBox="0 0 24 25" fill="none" xmlns="http://www.w3.org/2000/svg">
<path fill-rule="evenodd" clip-rule="evenodd" d="M7.69007 4.59715C4.89549 6.12444 3 9.09086 3 12.5C3 13.2443 3.09034 13.9674 3.26066 14.6591L4.09499 14.1775C4.40506 13.9985 4.76894 13.9363 5.12086 14.0022L8.2807 14.5935L8.26877 11.9089C8.26758 11.6408 8.33829 11.3772 8.47352 11.1457L9.33701 11.65L9.36074 11.6639M9.33701 11.65L8.47352 11.1457L10.2064 8.17891L7.69007 4.59715M3.96621 16.5612C5.45042 19.4914 8.49065 21.5 12 21.5C12.1512 21.5 12.3015 21.4963 12.4508 21.4889C13.0024 21.4618 13.4716 21.8869 13.4988 22.4385C13.526 22.9902 13.1008 23.4593 12.5492 23.4865C12.3672 23.4955 12.1841 23.5 12 23.5C5.92487 23.5 1 18.5751 1 12.5C1 6.42487 5.92487 1.5 12 1.5C14.9935 1.5 17.7077 2.69573 19.691 4.63561C19.6974 4.64172 19.7037 4.64792 19.71 4.65421C21.7406 6.64993 23 9.42789 23 12.5C23 12.6844 22.9954 12.8675 22.9864 13.0492C22.9598 13.5908 22.5062 14.0125 21.9641 13.9997L21.9876 13C21.9641 13.9997 21.9643 13.9997 21.9641 13.9997L21.9595 13.9996L21.9511 13.9994L21.9232 13.9985C21.8997 13.9977 21.8667 13.9964 21.825 13.9944C21.7416 13.9905 21.6231 13.9839 21.4761 13.9729C21.1827 13.9511 20.7726 13.9116 20.2999 13.8409C19.3714 13.702 18.1294 13.4326 17.0531 12.8945C16.6256 12.6808 16.1402 12.2478 15.7446 11.7299C15.3366 11.1959 14.9484 10.474 14.8234 9.62873C14.6947 8.75829 14.854 7.80431 15.4756 6.88179C15.8823 6.27807 16.4693 5.7134 17.256 5.19337C15.7772 4.12776 13.9619 3.5 12 3.5C11.1661 3.5 10.3587 3.61342 9.5923 3.82567L12.0274 7.29174C12.3645 7.77168 12.3911 8.40411 12.0952 8.91058L10.2694 12.0365L10.2834 15.1896C10.2876 16.1314 9.43309 16.8439 8.50744 16.6707L4.93473 16.0021L3.96621 16.5612ZM18.7926 6.59549C17.9219 7.0933 17.4169 7.5798 17.1342 7.99933C16.8026 8.49147 16.7431 8.93892 16.8019 9.33611C16.8644 9.75844 17.07 10.1704 17.3338 10.5157C17.6101 10.8773 17.8747 11.0693 17.9474 11.1056C18.7481 11.5059 19.7498 11.7364 20.5957 11.8629C20.7306 11.8831 20.8597 11.9003 20.9813 11.9151C20.8511 9.88523 20.0479 8.03844 18.7926 6.59549ZM12.8839 13.3839C13.1622 13.1056 13.5777 13.0164 13.9457 13.156L22.2944 16.3228C22.6799 16.469 22.9361 16.8367 22.9398 17.2489C22.9434 17.6611 22.6937 18.0333 22.311 18.1863L19.007 19.507L17.6863 22.811C17.5333 23.1937 17.1611 23.4434 16.7489 23.4398C16.3367 23.4361 15.969 23.1799 15.8228 22.7944L12.656 14.4457C12.5164 14.0777 12.6056 13.6622 12.8839 13.3839ZM15.3141 15.8141L16.7822 19.6845L17.3091 18.3665C17.4107 18.1122 17.6122 17.9107 17.8665 17.8091L19.1845 17.2822L15.3141 15.8141Z" fill="#1150CB"/>
</svg>
