<svg width="18" height="11" viewBox="0 0 18 11" fill="none" xmlns="http://www.w3.org/2000/svg">
<path fill-rule="evenodd" clip-rule="evenodd" d="M0 -0.00012207H18V10.9999H0V-0.00012207Z" fill="#3F51B5"/>
<path fill-rule="evenodd" clip-rule="evenodd" d="M0 1.65571L8.51261 6.65236L9.79261 4.64204L1.88565 -0.00012207H0V1.65571Z" fill="white"/>
<path fill-rule="evenodd" clip-rule="evenodd" d="M17.9997 -0.00012207H16.5232L8.61621 4.6405L9.89462 6.65236L17.9997 1.89511V-0.00012207Z" fill="white"/>
<path fill-rule="evenodd" clip-rule="evenodd" d="M9.89462 4.0343L8.61621 6.04616L17.0553 10.9998H17.9997V8.79156L9.89462 4.0343Z" fill="white"/>
<path fill-rule="evenodd" clip-rule="evenodd" d="M0 9.03249V10.9998H1.35352L9.79261 6.04616L8.5142 4.0343L0 9.03249Z" fill="white"/>
<path fill-rule="evenodd" clip-rule="evenodd" d="M0 3.92847H18V7.07132H0V3.92847Z" fill="white"/>
<path fill-rule="evenodd" clip-rule="evenodd" d="M7.36328 -0.00012207H10.636V10.9999H7.36328V-0.00012207Z" fill="white"/>
<path fill-rule="evenodd" clip-rule="evenodd" d="M6.22585 3.92841L0 0.274536V1.1953L4.65661 3.92841H6.22585Z" fill="#E53935"/>
<path fill-rule="evenodd" clip-rule="evenodd" d="M17.3083 -0.00012207L10.6143 3.92845H12.1835L18.0003 0.515503V-0.00012207H17.3083Z" fill="#E53935"/>
<path fill-rule="evenodd" clip-rule="evenodd" d="M12.7158 7.07129L18.0004 10.1727V9.25195L14.2851 7.07129H12.7158Z" fill="#E53935"/>
<path fill-rule="evenodd" clip-rule="evenodd" d="M5.69371 7.07129L0 10.4136V10.9999H0.568892L7.26296 7.07129H5.69371Z" fill="#E53935"/>
<path fill-rule="evenodd" clip-rule="evenodd" d="M0 4.71411H18V6.28554H0V4.71411Z" fill="#E53935"/>
<path fill-rule="evenodd" clip-rule="evenodd" d="M8.18164 -0.00012207H9.818V10.9999H8.18164V-0.00012207Z" fill="#E53935"/>
</svg>
