<svg width="36" height="36" viewBox="0 0 36 36" fill="none" xmlns="http://www.w3.org/2000/svg">
<path d="M18.4426 4.16779e-07C14.9934 -0.000753515 11.6214 1.02138 8.75311 2.93712C5.88481 4.85286 3.64904 7.57617 2.32855 10.7626C1.00807 13.9491 0.662175 17.4556 1.33463 20.8386C2.00708 24.2217 3.66766 27.3293 6.10637 29.7686C8.54509 32.2078 11.6524 33.8691 15.0353 34.5423C18.4182 35.2155 21.9248 34.8704 25.1115 33.5506C28.2983 32.2308 31.0221 29.9956 32.9384 27.1277C34.8548 24.2598 35.8777 20.8881 35.8777 17.4388C35.8726 12.816 34.0342 8.38384 30.7657 5.11463C27.4972 1.84542 23.0655 0.00605381 18.4426 4.16779e-07Z" fill="white"/>
<path d="M18.4426 4.16779e-07C14.9934 -0.000753515 11.6214 1.02138 8.75311 2.93712C5.88481 4.85286 3.64904 7.57617 2.32855 10.7626C1.00807 13.9491 0.662175 17.4556 1.33463 20.8386C2.00708 24.2217 3.66766 27.3293 6.10637 29.7686C8.54509 32.2078 11.6524 33.8691 15.0353 34.5423C18.4182 35.2155 21.9248 34.8704 25.1115 33.5506C28.2983 32.2308 31.0221 29.9956 32.9384 27.1277C34.8548 24.2598 35.8777 20.8881 35.8777 17.4388C35.8726 12.816 34.0342 8.38384 30.7657 5.11463C27.4972 1.84542 23.0655 0.00605381 18.4426 4.16779e-07ZM23.2798 10.3451C23.2798 10.4149 23.2521 10.4818 23.2027 10.5311C23.1534 10.5804 23.0865 10.6081 23.0168 10.6081H20.9203C20.6733 10.6081 20.4363 10.706 20.2613 10.8803C20.0863 11.0546 19.9874 11.2912 19.9864 11.5382V13.7338H22.971C23.0073 13.7342 23.043 13.742 23.0761 13.7569C23.1091 13.7718 23.1387 13.7933 23.1631 13.8201C23.1874 13.847 23.2059 13.8785 23.2175 13.9129C23.229 13.9472 23.2334 13.9836 23.2302 14.0197L22.971 17.1148C22.9653 17.1805 22.9351 17.2417 22.8863 17.2862C22.8376 17.3307 22.774 17.3552 22.708 17.355H19.9864V27.6277C19.9864 27.6974 19.9587 27.7643 19.9094 27.8137C19.8601 27.863 19.7932 27.8907 19.7234 27.8907H15.9688C15.8991 27.8907 15.8322 27.863 15.7828 27.8137C15.7335 27.7643 15.7058 27.6974 15.7058 27.6277V17.355H13.8304C13.7607 17.355 13.6938 17.3273 13.6444 17.2779C13.5951 17.2286 13.5674 17.1617 13.5674 17.092V13.9968C13.5674 13.927 13.5951 13.8601 13.6444 13.8108C13.6938 13.7615 13.7607 13.7338 13.8304 13.7338H15.7058V10.753C15.7058 9.75418 16.1026 8.79628 16.8088 8.09001C17.5151 7.38374 18.473 6.98697 19.4718 6.98697H23.0168C23.0865 6.98697 23.1534 7.01468 23.2027 7.064C23.2521 7.11332 23.2798 7.18022 23.2798 7.24998V10.3451Z" fill="#1877F2"/>
</svg>
