<svg width="24" height="24" viewBox="0 0 24 24" fill="none" xmlns="http://www.w3.org/2000/svg">
<path d="M9.75 16.375L8.0625 20.875M16.3065 20.8125L14.3178 16.4373M5.25 16.375C4.00736 16.375 3 15.3676 3 14.125V6.25C3 5.00736 4.00736 4 5.25 4H18.75C19.9926 4 21 5.00736 21 6.25V14.125C21 15.3676 19.9926 16.375 18.75 16.375H5.25Z" stroke="#1150CB" stroke-width="1.5" stroke-linecap="round" stroke-linejoin="round"/>
<path d="M18 10.1552C18 11.1589 17.4768 11.7572 16.6108 11.7572C15.7447 11.7572 15.2215 11.1589 15.2215 10.1552V9.602C15.2215 8.59825 15.7447 8 16.6108 8C17.4768 8 18 8.59825 18 9.602V10.1552ZM16.6108 11.1264C17.0463 11.1264 17.2766 10.7985 17.2766 10.1477V9.60951C17.2766 8.9587 17.0463 8.63079 16.6108 8.63079C16.1752 8.63079 15.9449 8.9587 15.9449 9.60951V10.1477C15.9449 10.7985 16.1752 11.1264 16.6108 11.1264Z" fill="#1150CB"/>
<path d="M13.1089 11.6846H12.3955V8.07259H14.6783V8.68585H13.1089V9.66458H14.5357V10.2528H13.1089V11.6846Z" fill="#1150CB"/>
<path d="M9.62204 11.6846H9.00627V8.07259H9.63956L10.8811 10.4731H10.9237V8.07259H11.5394V11.6846H10.9086L9.66459 9.26908H9.62204V11.6846Z" fill="#1150CB"/>
<path d="M8.20776 11.6846H6V11.0738H6.74844V8.68335H6V8.07259H8.20776V8.68335H7.45932V11.0738H8.20776V11.6846Z" fill="#1150CB"/>
</svg>
