<svg width="20" height="21" viewBox="0 0 20 21" fill="none" xmlns="http://www.w3.org/2000/svg">
<path d="M8.125 14.1458L6.71875 17.8958M13.5888 17.8437L11.9315 14.1977M4.375 14.1458C3.33946 14.1458 2.5 13.3063 2.5 12.2708V5.70831C2.5 4.67278 3.33947 3.83331 4.375 3.83331H15.625C16.6605 3.83331 17.5 4.67278 17.5 5.70831V12.2708C17.5 13.3063 16.6605 14.1458 15.625 14.1458H4.375Z" stroke="#7E868C" stroke-width="1.5" stroke-linecap="round" stroke-linejoin="round"/>
<path d="M15 8.96268C15 9.79914 14.564 10.2977 13.8423 10.2977C13.1205 10.2977 12.6846 9.79914 12.6846 8.96268V8.50169C12.6846 7.66523 13.1205 7.16669 13.8423 7.16669C14.564 7.16669 15 7.66523 15 8.50169V8.96268ZM13.8423 9.77203C14.2052 9.77203 14.3971 9.49877 14.3971 8.95642V8.50795C14.3971 7.9656 14.2052 7.69234 13.8423 7.69234C13.4793 7.69234 13.2874 7.9656 13.2874 8.50795V8.95642C13.2874 9.49877 13.4793 9.77203 13.8423 9.77203Z" fill="#7E868C"/>
<path d="M10.9241 10.2372H10.3296V7.22717H12.232V7.73823H10.9241V8.55383H12.1131V9.04403H10.9241V10.2372Z" fill="#7E868C"/>
<path d="M8.01827 10.2372H7.50513V7.22717H8.03287L9.0675 9.22759H9.10296V7.22717H9.6161V10.2372H9.09044L8.05373 8.22425H8.01827V10.2372Z" fill="#7E868C"/>
<path d="M6.8398 10.2372H5V9.72822H5.6237V7.73614H5V7.22717H6.8398V7.73614H6.2161V9.72822H6.8398V10.2372Z" fill="#7E868C"/>
</svg>
