<svg width="279" height="86" viewBox="0 0 279 86" fill="none" xmlns="http://www.w3.org/2000/svg">
<path fill-rule="evenodd" clip-rule="evenodd" d="M30.2861 30.1886C32.9268 33.7016 36.0163 37.2746 39.487 40.7587C39.7063 40.9788 39.9258 41.1971 40.1455 41.4141C43.4071 44.6328 46.7379 47.5119 50.0166 49.9953C62.1978 59.2227 73.6589 62.9923 78.1763 58.4574C82.6937 53.9225 78.9386 42.4169 69.7469 30.1886C78.9386 17.9602 82.6937 6.45465 78.1763 1.91975C73.6589 -2.61516 62.1978 1.15446 50.0166 10.3819C46.7379 12.8655 43.4074 15.7443 40.1455 18.963C39.9258 19.18 39.7063 19.3986 39.487 19.6184C36.016 23.1028 32.9268 26.6755 30.2861 30.1886Z" fill="url(#paint0_linear_832_1287)"/>
<path fill-rule="evenodd" clip-rule="evenodd" d="M23.4783 0.773882C16.9152 3.71962 12 15.7703 12 30.1888C12 44.6073 16.9152 56.6577 23.4783 59.6037C22.8675 59.3088 22.3246 58.928 21.8563 58.4579C17.3389 53.923 21.094 42.4174 30.2857 30.1891C32.9264 26.676 36.0159 23.103 39.4866 19.6189C39.7059 19.3988 39.9254 19.1805 40.1452 18.9635C43.4067 15.7448 46.7376 12.8658 50.0162 10.3824C39.0977 2.11117 28.758 -1.77489 23.4783 0.773882Z" fill="#499CFF"/>
<path fill-rule="evenodd" clip-rule="evenodd" d="M40.146 41.414C39.9263 41.197 39.7067 40.9785 39.4875 40.7586C36.0165 37.2742 32.9273 33.7015 30.2866 30.1885C21.0948 42.4168 17.3398 53.9224 21.8572 58.4573C22.3255 58.9275 22.8686 59.3083 23.4791 59.6031C28.7588 62.1519 39.0985 58.2658 50.0168 49.9952C46.7382 47.5115 43.4076 44.6327 40.1458 41.414H40.146ZM23.668 59.6852C24.6146 60.0829 25.5943 60.2916 26.5977 60.2916C25.5943 60.2916 24.6146 60.0827 23.668 59.6852Z" fill="url(#paint1_linear_832_1287)"/>
<path d="M187.531 12.1982V27.1491L191.999 20.4044H200.041L193.692 29.6581L201.158 40.0765H192.446L187.531 32.9946V40.0765H180.55L180.383 39.9079V12.3669L180.55 12.1982H187.531Z" fill="#FFF0E0"/>
<path d="M97.1718 27.1491L101.695 20.4044H109.681L103.333 29.6604L110.687 40.0765H102.142L97.1718 33.107V39.9079L97.0042 40.0765H90.0234V12.1982H97.0042L97.1718 12.3669V27.1491Z" fill="#FFF0E0"/>
<path d="M131.574 32.2081H117.947C118.796 35.3534 123.103 35.2207 125.571 34.3169C126.259 34.0651 126.791 33.6424 127.481 33.4356L130.901 37.3228C126.695 41.1561 118.238 41.6372 113.868 37.9433C109.95 34.6317 109.637 27.9116 112.651 23.8985C115.932 19.5302 123.15 18.8804 127.656 21.5941C131.382 23.8378 132.376 28.1005 131.574 32.2081ZM124.984 28.6109C125.127 24.3122 117.965 24.4741 117.947 28.6109H124.984Z" fill="#FFF0E0"/>
<path d="M143.858 14.8968V20.405H148.326V26.0256H143.858V33.2762C143.858 33.4089 144.321 34.0069 144.473 34.1193C145.002 34.5173 145.838 34.5173 146.472 34.4431C146.783 34.4071 147.794 33.9822 147.886 34.0541L149.432 39.2746C145.885 41.0529 139.706 41.4306 137.619 37.3073C137.318 36.7093 136.712 34.7938 136.712 34.1733V26.0234H133.585V20.4027H136.712V15.6814L143.861 14.8945L143.858 14.8968Z" fill="#FFF0E0"/>
<path d="M160.836 14.8968V20.405H165.304V26.0256H160.836V33.1638C160.836 33.193 161.033 33.6337 161.078 33.7079C161.819 34.9512 163.868 34.4093 164.969 34.0047L166.399 39.2656C163.921 40.5606 160.461 40.9697 157.792 40.048C152.263 38.1369 153.967 30.5334 153.688 26.0234H150.561V20.4027H153.688V15.6814L160.836 14.8945V14.8968Z" fill="#FFF0E0"/>
<path d="M176.138 20.4043H168.99V40.0765H176.138V20.4043Z" fill="#FFF0E0"/>
<path d="M210.875 12.1982L210.316 30.8587H203.726L203.224 12.1982H210.875Z" fill="#FFF0E0"/>
<ellipse cx="4.10344" cy="2.64379" rx="4.10344" ry="2.64379" transform="matrix(0.808864 -0.587995 0.584169 0.811632 202.272 36.9062)" fill="#00D9FF"/>
<ellipse cx="4.10344" cy="2.64379" rx="4.10344" ry="2.64379" transform="matrix(0.808864 -0.587995 0.584169 0.811632 167.665 15.7358)" fill="#00D9FF"/>
<path opacity="0.7" d="M13.1449 80.2236V70.7691H16.3395C17.0812 70.7691 17.6875 70.903 18.1584 71.1707C18.6323 71.4354 18.9832 71.7939 19.2109 72.2464C19.4387 72.6988 19.5526 73.2035 19.5526 73.7606C19.5526 74.3176 19.4387 74.8239 19.2109 75.2794C18.9863 75.7349 18.6385 76.098 18.1676 76.3689C17.6967 76.6366 17.0935 76.7705 16.358 76.7705H14.0682V75.7549H16.321C16.8288 75.7549 17.2366 75.6672 17.5444 75.4917C17.8522 75.3163 18.0753 75.0793 18.2138 74.7808C18.3554 74.4792 18.4261 74.1391 18.4261 73.7606C18.4261 73.382 18.3554 73.0435 18.2138 72.7449C18.0753 72.4464 17.8506 72.2125 17.5398 72.0432C17.2289 71.8709 16.8165 71.7847 16.3026 71.7847H14.2898V80.2236H13.1449ZM24.0136 80.3714C23.3735 80.3714 22.8118 80.219 22.3286 79.9143C21.8485 79.6096 21.473 79.1834 21.2022 78.6356C20.9344 78.0877 20.8006 77.4476 20.8006 76.7151C20.8006 75.9765 20.9344 75.3317 21.2022 74.7808C21.473 74.2299 21.8485 73.8021 22.3286 73.4974C22.8118 73.1927 23.3735 73.0404 24.0136 73.0404C24.6538 73.0404 25.2139 73.1927 25.694 73.4974C26.1772 73.8021 26.5527 74.2299 26.8204 74.7808C27.0913 75.3317 27.2267 75.9765 27.2267 76.7151C27.2267 77.4476 27.0913 78.0877 26.8204 78.6356C26.5527 79.1834 26.1772 79.6096 25.694 79.9143C25.2139 80.219 24.6538 80.3714 24.0136 80.3714ZM24.0136 79.3927C24.4999 79.3927 24.9 79.268 25.2139 79.0187C25.5278 78.7694 25.7602 78.4417 25.911 78.0354C26.0618 77.6292 26.1372 77.1891 26.1372 76.7151C26.1372 76.2412 26.0618 75.7995 25.911 75.3902C25.7602 74.9809 25.5278 74.65 25.2139 74.3976C24.9 74.1453 24.4999 74.0191 24.0136 74.0191C23.5274 74.0191 23.1273 74.1453 22.8133 74.3976C22.4994 74.65 22.2671 74.9809 22.1163 75.3902C21.9654 75.7995 21.89 76.2412 21.89 76.7151C21.89 77.1891 21.9654 77.6292 22.1163 78.0354C22.2671 78.4417 22.4994 78.7694 22.8133 79.0187C23.1273 79.268 23.5274 79.3927 24.0136 79.3927ZM30.2151 80.2236L28.0546 73.1327H29.1995L30.7321 78.5617H30.806L32.3202 73.1327H33.4836L34.9793 78.5432H35.0532L36.5858 73.1327H37.7307L35.5702 80.2236H34.4992L32.9481 74.7762H32.8373L31.2861 80.2236H30.2151ZM41.8629 80.3714C41.1796 80.3714 40.5903 80.2206 40.0948 79.9189C39.6023 79.6143 39.2222 79.1895 38.9545 78.6448C38.6898 78.097 38.5575 77.4599 38.5575 76.7336C38.5575 76.0073 38.6898 75.3671 38.9545 74.8131C39.2222 74.2561 39.5946 73.8221 40.0717 73.5113C40.5518 73.1974 41.1119 73.0404 41.7521 73.0404C42.1214 73.0404 42.4861 73.1019 42.8462 73.2251C43.2063 73.3482 43.534 73.5482 43.8295 73.8252C44.1249 74.0991 44.3604 74.4623 44.5358 74.9147C44.7112 75.3671 44.7989 75.9242 44.7989 76.5858V77.0475H39.333V76.1057H43.691C43.691 75.7056 43.611 75.3486 43.4509 75.0347C43.294 74.7208 43.0693 74.473 42.7769 74.2915C42.4876 74.1099 42.146 74.0191 41.7521 74.0191C41.3181 74.0191 40.9426 74.1268 40.6256 74.3422C40.3117 74.5546 40.0701 74.8316 39.9009 75.1732C39.7316 75.5148 39.647 75.8811 39.647 76.2719V76.8998C39.647 77.4353 39.7393 77.8892 39.9239 78.2616C40.1117 78.6309 40.3717 78.9126 40.7041 79.1064C41.0365 79.2973 41.4228 79.3927 41.8629 79.3927C42.1491 79.3927 42.4076 79.3527 42.6384 79.2726C42.8723 79.1895 43.0739 79.0664 43.2432 78.9033C43.4125 78.7371 43.5433 78.5309 43.6356 78.2847L44.6881 78.5802C44.5774 78.9372 44.3912 79.2511 44.1296 79.5219C43.868 79.7897 43.5448 79.999 43.1601 80.1498C42.7754 80.2975 42.343 80.3714 41.8629 80.3714ZM46.4163 80.2236V73.1327H47.4688V74.2037H47.5427C47.6719 73.8529 47.9058 73.5682 48.2444 73.3497C48.5829 73.1312 48.9646 73.0219 49.3893 73.0219C49.4693 73.0219 49.5693 73.0235 49.6893 73.0265C49.8094 73.0296 49.9002 73.0342 49.9617 73.0404V74.1483C49.9248 74.1391 49.8401 74.1253 49.7078 74.1068C49.5785 74.0853 49.4416 74.0745 49.2969 74.0745C48.9522 74.0745 48.6445 74.1468 48.3736 74.2915C48.1059 74.433 47.8935 74.63 47.7366 74.8824C47.5827 75.1317 47.5057 75.4163 47.5057 75.7364V80.2236H46.4163ZM53.9704 80.3714C53.2871 80.3714 52.6978 80.2206 52.2023 79.9189C51.7098 79.6143 51.3297 79.1895 51.062 78.6448C50.7973 78.097 50.665 77.4599 50.665 76.7336C50.665 76.0073 50.7973 75.3671 51.062 74.8131C51.3297 74.2561 51.7021 73.8221 52.1792 73.5113C52.6593 73.1974 53.2194 73.0404 53.8596 73.0404C54.2289 73.0404 54.5936 73.1019 54.9537 73.2251C55.3138 73.3482 55.6415 73.5482 55.937 73.8252C56.2324 74.0991 56.4679 74.4623 56.6433 74.9147C56.8187 75.3671 56.9064 75.9242 56.9064 76.5858V77.0475H51.4405V76.1057H55.7985C55.7985 75.7056 55.7185 75.3486 55.5584 75.0347C55.4015 74.7208 55.1768 74.473 54.8844 74.2915C54.5951 74.1099 54.2535 74.0191 53.8596 74.0191C53.4256 74.0191 53.0501 74.1268 52.7331 74.3422C52.4192 74.5546 52.1776 74.8316 52.0084 75.1732C51.8391 75.5148 51.7545 75.8811 51.7545 76.2719V76.8998C51.7545 77.4353 51.8468 77.8892 52.0314 78.2616C52.2192 78.6309 52.4792 78.9126 52.8116 79.1064C53.144 79.2973 53.5303 79.3927 53.9704 79.3927C54.2566 79.3927 54.5151 79.3527 54.7459 79.2726C54.9798 79.1895 55.1814 79.0664 55.3507 78.9033C55.52 78.7371 55.6508 78.5309 55.7431 78.2847L56.7956 78.5802C56.6849 78.9372 56.4987 79.2511 56.2371 79.5219C55.9755 79.7897 55.6523 79.999 55.2676 80.1498C54.8829 80.2975 54.4505 80.3714 53.9704 80.3714ZM61.2013 80.3714C60.6104 80.3714 60.0887 80.2221 59.6363 79.9236C59.1839 79.622 58.83 79.1972 58.5745 78.6494C58.3191 78.0985 58.1914 77.4476 58.1914 76.6966C58.1914 75.9519 58.3191 75.3055 58.5745 74.7577C58.83 74.2099 59.1855 73.7867 59.6409 73.4882C60.0964 73.1897 60.6227 73.0404 61.2198 73.0404C61.6814 73.0404 62.0461 73.1173 62.3139 73.2712C62.5847 73.422 62.7909 73.5944 62.9325 73.7883C63.0771 73.9791 63.1895 74.136 63.2695 74.2591H63.3618V70.7691H64.4513V80.2236H63.3988V79.1341H63.2695C63.1895 79.2634 63.0756 79.4265 62.9279 79.6235C62.7802 79.8174 62.5693 79.9913 62.2954 80.1452C62.0215 80.296 61.6568 80.3714 61.2013 80.3714ZM61.349 79.3927C61.7861 79.3927 62.1554 79.2788 62.457 79.051C62.7586 78.8202 62.9879 78.5017 63.1449 78.0954C63.3018 77.6861 63.3803 77.2137 63.3803 76.6782C63.3803 76.1488 63.3034 75.6856 63.1495 75.2886C62.9956 74.8885 62.7678 74.5777 62.4662 74.3561C62.1646 74.1314 61.7922 74.0191 61.349 74.0191C60.8874 74.0191 60.5027 74.1376 60.1949 74.3746C59.8902 74.6085 59.661 74.927 59.5071 75.3302C59.3563 75.7303 59.2809 76.1796 59.2809 76.6782C59.2809 77.1829 59.3578 77.6415 59.5117 78.0539C59.6686 78.4632 59.8995 78.7894 60.2042 79.0326C60.5119 79.2726 60.8936 79.3927 61.349 79.3927ZM70.322 80.2236V70.7691H71.4114V74.2591H71.5038C71.5838 74.136 71.6946 73.9791 71.8362 73.7883C71.9808 73.5944 72.187 73.422 72.4548 73.2712C72.7256 73.1173 73.0918 73.0404 73.5535 73.0404C74.1506 73.0404 74.6768 73.1897 75.1323 73.4882C75.5878 73.7867 75.9433 74.2099 76.1987 74.7577C76.4542 75.3055 76.5819 75.9519 76.5819 76.6966C76.5819 77.4476 76.4542 78.0985 76.1987 78.6494C75.9433 79.1972 75.5894 79.622 75.1369 79.9236C74.6845 80.2221 74.1629 80.3714 73.572 80.3714C73.1165 80.3714 72.7518 80.296 72.4779 80.1452C72.2039 79.9913 71.9931 79.8174 71.8454 79.6235C71.6977 79.4265 71.5838 79.2634 71.5038 79.1341H71.3745V80.2236H70.322ZM71.393 76.6782C71.393 77.2137 71.4715 77.6861 71.6284 78.0954C71.7854 78.5017 72.0147 78.8202 72.3163 79.051C72.6179 79.2788 72.9872 79.3927 73.4242 79.3927C73.8797 79.3927 74.2598 79.2726 74.5645 79.0326C74.8723 78.7894 75.1031 78.4632 75.257 78.0539C75.4139 77.6415 75.4924 77.1829 75.4924 76.6782C75.4924 76.1796 75.4155 75.7303 75.2616 75.3302C75.1108 74.927 74.8815 74.6085 74.5737 74.3746C74.269 74.1376 73.8859 74.0191 73.4242 74.0191C72.981 74.0191 72.6087 74.1314 72.307 74.3561C72.0054 74.5777 71.7777 74.8885 71.6238 75.2886C71.4699 75.6856 71.393 76.1488 71.393 76.6782ZM78.6562 82.8827C78.4716 82.8827 78.3069 82.8673 78.1623 82.8366C78.0176 82.8089 77.9176 82.7812 77.8622 82.7535L78.1392 81.7932C78.4039 81.8609 78.6378 81.8856 78.8409 81.8671C79.044 81.8486 79.2241 81.7578 79.381 81.5947C79.5411 81.4347 79.6873 81.1746 79.8196 80.8145L80.0227 80.2606L77.4006 73.1327H78.5824L80.5398 78.7833H80.6136L82.571 73.1327H83.7528L80.7429 81.2577C80.6075 81.624 80.4397 81.9271 80.2397 82.1672C80.0397 82.4103 79.8073 82.5903 79.5426 82.7073C79.281 82.8242 78.9856 82.8827 78.6562 82.8827Z" fill="#FFF0E0"/>
<mask id="mask0_832_1287" style="mask-type:alpha" maskUnits="userSpaceOnUse" x="92" y="59" width="26" height="27">
<path fill-rule="evenodd" clip-rule="evenodd" d="M92.9197 72.4851C92.9197 79.5204 98.4512 85.2237 105.275 85.2237C112.098 85.2237 117.63 79.5204 117.63 72.4851C117.63 65.4498 112.098 59.7466 105.275 59.7466C98.4512 59.7466 92.9197 65.4498 92.9197 72.4851Z" fill="white"/>
</mask>
<g mask="url(#mask0_832_1287)">
<path fill-rule="evenodd" clip-rule="evenodd" d="M92.9197 72.4856C92.9197 79.5208 98.4512 85.2241 105.275 85.2241C112.098 85.2241 117.63 79.5208 117.63 72.4856C117.63 65.4503 112.098 59.7471 105.275 59.7471C98.4512 59.7471 92.9197 65.4503 92.9197 72.4856Z" fill="#FFC800"/>
<path fill-rule="evenodd" clip-rule="evenodd" d="M114.305 58.7271H96.0192V63.8225H114.305V58.7271ZM96.0192 86.2422H114.305V81.1468H96.0192V86.2422ZM91.5708 75.7971H118.999V69.173H91.5708V75.7971Z" fill="url(#paint2_linear_832_1287)"/>
</g>
<path d="M126.122 65.8047H135.821C139.625 65.8047 140.572 67.4766 140.572 68.9669V69.1643C140.572 70.8362 139.124 71.6809 138.126 71.8053C139.626 72.0205 141.233 72.9738 141.233 75.1116V75.3089C141.233 77.1249 140.144 79.1738 135.876 79.1738H126.124V65.8047H126.122ZM129.802 68.5898V70.9802H135.285C136.394 70.9802 136.733 70.4413 136.733 69.8116V69.7762C136.733 69.1287 136.376 68.5898 135.285 68.5898H129.802ZM129.802 73.6035V76.2445H135.572C136.876 76.2445 137.233 75.5794 137.233 74.8964V74.8253C137.233 74.1601 136.876 73.6035 135.572 73.6035H129.802Z" fill="white"/>
<path d="M149.637 79.4113H148.976C144.081 79.4113 142.867 76.715 142.867 74.3247V74.074C142.867 71.8099 143.973 68.9873 148.672 68.9873H149.458C154.531 68.9873 155.442 71.8277 155.442 74.6129V74.9366H146.421C146.582 76.0873 147.279 77.021 149.423 77.021C151.442 77.021 151.708 76.2472 151.781 76.0676H155.406C155.406 76.8769 154.763 79.4113 149.637 79.4113ZM146.457 73.0495H151.708C151.691 72.3133 151.351 71.2711 149.119 71.2711C147.296 71.2711 146.673 72.0073 146.457 73.0495Z" fill="white"/>
<path d="M163.737 79.4113H163.076C158.181 79.4113 156.967 76.715 156.967 74.3247V74.074C156.967 71.8099 158.073 68.9873 162.772 68.9873H163.558C168.631 68.9873 169.542 71.8277 169.542 74.6129V74.9366H160.521C160.682 76.0873 161.379 77.021 163.523 77.021C165.542 77.021 165.808 76.2472 165.881 76.0676H169.506C169.506 76.8769 168.863 79.4113 163.737 79.4113ZM160.557 73.0495H165.808C165.791 72.3133 165.451 71.2711 163.219 71.2711C161.396 71.2711 160.773 72.0073 160.557 73.0495Z" fill="white"/>
<path d="M174.815 79.1783H171.331V65.5723H174.815V79.1783Z" fill="white"/>
<path d="M180.442 68.089H176.887V65.5723H180.442V68.089ZM180.407 79.1783H176.923V69.2023H180.407V79.1764V79.1783Z" fill="white"/>
<path d="M182.387 69.2017H185.834V70.7828C186.244 70.2439 187.601 68.9668 189.853 68.9668H190.032C192.925 68.9668 194.248 70.9446 194.248 72.7054V79.1757H190.763V73.9824C190.763 72.8317 190.102 71.7184 188.388 71.7184C186.673 71.7184 185.869 72.887 185.869 74.1088V79.1777H182.385V69.2017H182.387Z" fill="white"/>
<path d="M202.881 79.4113H202.22C197.325 79.4113 196.111 76.715 196.111 74.3247V74.074C196.111 71.8099 197.217 68.9873 201.916 68.9873H202.703C207.776 68.9873 208.686 71.8277 208.686 74.6129V74.9366H199.666C199.827 76.0873 200.523 77.021 202.667 77.021C204.686 77.021 204.953 76.2472 205.025 76.0676H208.651C208.651 76.8769 208.007 79.4113 202.881 79.4113ZM199.701 73.0495H204.953C204.935 72.3133 204.596 71.2711 202.363 71.2711C200.541 71.2711 199.917 72.0073 199.701 73.0495Z" fill="white"/>
<path d="M210.055 69.6356C208.107 69.6356 207.615 68.5658 207.615 67.6598V67.5117C207.615 66.6669 208.062 65.5596 210.055 65.5596H210.348C212.335 65.5596 212.759 66.6669 212.759 67.5276V67.6598C212.759 68.5658 212.15 69.6356 210.334 69.6356H210.057H210.055ZM210.216 69.1086C211.925 69.1086 212.149 68.2263 212.149 67.5433C212.149 66.8998 211.941 66.0866 210.216 66.0866H210.2C208.429 66.0866 208.245 66.8683 208.245 67.5887C208.245 68.3092 208.429 69.1066 210.2 69.1066H210.216V69.1086ZM209.755 68.6369H208.963V66.5446H210.687C211.311 66.5446 211.487 66.7774 211.487 67.0479V67.0795C211.487 67.3656 211.264 67.5058 211.079 67.5374C211.38 67.5986 211.519 67.794 211.519 68.0092V68.3882C211.519 68.5046 211.527 68.55 211.566 68.5974V68.6369H210.781C210.75 68.6052 210.713 68.5678 210.713 68.4593V68.2421C210.713 68.0329 210.652 67.9479 210.452 67.9479H209.759V68.6369H209.755ZM210.495 67.421C210.663 67.421 210.711 67.336 210.711 67.2275C210.711 67.111 210.663 67.0262 210.495 67.0262H209.755V67.421H210.495Z" fill="white"/>
<defs>
<linearGradient id="paint0_linear_832_1287" x1="30.2861" y1="30.1886" x2="80.0886" y2="30.1886" gradientUnits="userSpaceOnUse">
<stop stop-color="#00D9FF"/>
<stop offset="1" stop-color="#75B4FF"/>
</linearGradient>
<linearGradient id="paint1_linear_832_1287" x1="19.9448" y1="45.2827" x2="50.0168" y2="45.2827" gradientUnits="userSpaceOnUse">
<stop stop-color="#0157C0"/>
<stop offset="1" stop-color="#003983"/>
</linearGradient>
<linearGradient id="paint2_linear_832_1287" x1="92.8836" y1="72.0631" x2="117.703" y2="72.0631" gradientUnits="userSpaceOnUse">
<stop stop-color="#2B2B2B"/>
<stop offset="0.152836" stop-color="#131313"/>
<stop offset="0.745954" stop-color="#131313"/>
<stop offset="1" stop-color="#1B1B1B"/>
</linearGradient>
</defs>
</svg>
