<svg width="16" height="16" viewBox="0 0 16 16" fill="none" xmlns="http://www.w3.org/2000/svg">
<g clip-path="url(#clip0_7025_1482)">
<path d="M15.04 8.16669C15.04 7.64669 14.9933 7.14669 14.9067 6.66669H8V9.50669H11.9467C11.7733 10.42 11.2533 11.1934 10.4733 11.7134V13.56H12.8533C14.24 12.28 15.04 10.4 15.04 8.16669Z" fill="#4285F4"/>
<path d="M8.00004 15.3334C9.98004 15.3334 11.64 14.68 12.8534 13.56L10.4734 11.7134C9.82004 12.1534 8.9867 12.42 8.00004 12.42C6.09337 12.42 4.47337 11.1334 3.89337 9.40002H1.45337V11.2934C2.66004 13.6867 5.13337 15.3334 8.00004 15.3334Z" fill="#34A853"/>
<path d="M3.89329 9.39332C3.74663 8.95332 3.65996 8.48665 3.65996 7.99998C3.65996 7.51332 3.74663 7.04665 3.89329 6.60665V4.71332H1.45329C0.953293 5.69998 0.666626 6.81332 0.666626 7.99998C0.666626 9.18665 0.953293 10.3 1.45329 11.2867L3.35329 9.80665L3.89329 9.39332Z" fill="#FBBC05"/>
<path d="M8.00004 3.58669C9.08004 3.58669 10.04 3.96002 10.8067 4.68002L12.9067 2.58002C11.6334 1.39335 9.98004 0.666687 8.00004 0.666687C5.13337 0.666687 2.66004 2.31335 1.45337 4.71335L3.89337 6.60669C4.47337 4.87335 6.09337 3.58669 8.00004 3.58669Z" fill="#EA4335"/>
</g>
<defs>
<clipPath id="clip0_7025_1482">
<rect width="16" height="16" fill="white"/>
</clipPath>
</defs>
</svg>
