<svg width="20" height="20" viewBox="0 0 20 20" fill="none" xmlns="http://www.w3.org/2000/svg">
<g clip-path="url(#clip0_1039_5464)">
<path d="M10.0003 18.3332C14.6027 18.3332 18.3337 14.6022 18.3337 9.99984C18.3337 5.39746 14.6027 1.6665 10.0003 1.6665C5.39795 1.6665 1.66699 5.39746 1.66699 9.99984C1.66699 14.6022 5.39795 18.3332 10.0003 18.3332Z" stroke="#1D9F18" stroke-width="1.67" stroke-linecap="round" stroke-linejoin="round"/>
<path d="M15 10.8333C14.8012 12.0103 14.1878 13.0773 13.2708 13.8415C12.3537 14.6057 11.1936 15.0166 10 14.9999C8.80642 15.0166 7.64625 14.6057 6.72923 13.8415C5.8122 13.0773 5.19883 12.0103 5 10.8333H15Z" stroke="#1D9F18" stroke-width="1.67" stroke-linecap="round" stroke-linejoin="round"/>
<path d="M7.5 7.49988H7.50833" stroke="#1D9F18" stroke-width="1.67" stroke-linecap="round" stroke-linejoin="round"/>
<path d="M12.5 7.49988H12.5083" stroke="#1D9F18" stroke-width="1.67" stroke-linecap="round" stroke-linejoin="round"/>
</g>
<defs>
<clipPath id="clip0_1039_5464">
<rect width="20" height="20" fill="white"/>
</clipPath>
</defs>
</svg>
