<svg width="18" height="18" viewBox="0 0 18 18" fill="none"
     xmlns="http://www.w3.org/2000/svg">
    <path fill-rule="evenodd" clip-rule="evenodd"
          d="M0 9.00024C0 4.03224 4.032 0.000244141 9 0.000244141C13.968 0.000244141 18 4.03224 18 9.00024C18 13.9682 13.968 18.0002 9 18.0002C4.032 18.0002 0 13.9682 0 9.00024ZM12.2533 6.47357C12.5144 6.21243 12.9381 6.21318 13.1983 6.47524C13.4572 6.736 13.4565 7.15706 13.1966 7.41691L8.33331 12.2802L5.4703 9.41723C5.21055 9.15748 5.21055 8.73633 5.4703 8.47658C5.7298 8.21708 6.15044 8.21678 6.4103 8.47592L8.33331 10.3936L12.2533 6.47357Z"
          fill="#3FC431"/>
</svg>
