<svg width="49" height="54" viewBox="0 0 49 54" fill="none" xmlns="http://www.w3.org/2000/svg">
<g clip-path="url(#clip0_3303_27881)">
<path d="M37.9077 10.8598C37.9661 11.9014 37.5962 12.9141 36.876 13.6953C35.4065 15.3059 32.876 15.4313 31.2507 13.975C30.4624 13.2709 29.9952 12.2968 29.9369 11.2456C29.8882 10.2039 30.2483 9.19126 30.9685 8.41969C31.7471 7.56133 32.8371 7.11768 33.9174 7.11768C34.8712 7.11768 35.8347 7.45524 36.5938 8.14C37.3724 8.84405 37.8493 9.81816 37.8979 10.8598H37.9077Z" fill="#1150CB"/>
<path d="M35.6984 0C28.7884 0 23.1729 5.57457 23.1729 12.4126C23.1729 19.2506 28.7884 24.8251 35.6984 24.8251C42.6084 24.8251 48.2143 19.2602 48.2143 12.4126C48.2143 5.56492 42.5987 0 35.6984 0ZM42.7155 18.9227C42.5695 19.077 42.3749 19.1638 42.1802 19.1638C42.005 19.1638 41.8299 19.0963 41.6839 18.9709L37.4405 15.1709C36.4381 16.01 35.1826 16.444 33.9271 16.444C32.6717 16.444 31.3189 15.9907 30.2678 15.0552C29.1875 14.0811 28.5549 12.7694 28.477 11.3227C28.4089 9.87605 28.9052 8.50652 29.8882 7.43597C31.9028 5.22736 35.3578 5.0634 37.5865 7.05983C38.6766 8.01464 39.3092 9.3456 39.3773 10.7826C39.4357 11.9786 39.0853 13.1166 38.4235 14.0907L42.6766 17.9003C42.9783 18.1704 42.9977 18.6237 42.7252 18.9323L42.7155 18.9227Z" fill="#1150CB"/>
<path d="M24.3407 24.8541V27.7759C24.3407 28.1519 24.6521 28.4605 25.0219 28.4605H27.9708C28.3504 28.4605 28.6521 28.1519 28.6521 27.7855V24.9409C28.2336 24.7094 27.8346 24.4587 27.4356 24.1887H25.0122C24.6326 24.1887 24.3309 24.4973 24.3309 24.8637L24.3407 24.8541ZM25.7129 25.5291H27.2896V27.0912H25.7129V25.5291Z" fill="#1150CB"/>
<path d="M15.8736 24.1694H12.9247C12.5451 24.1694 12.2434 24.478 12.2434 24.8444V27.7662C12.2434 28.1423 12.5548 28.4509 12.9247 28.4509H15.8736C16.2532 28.4509 16.5646 28.1423 16.5646 27.7759V24.8541C16.5646 24.478 16.2532 24.1791 15.8736 24.1791V24.1694ZM15.1923 27.0912H13.6157V25.5291H15.1923V27.0912Z" fill="#1150CB"/>
<path d="M15.8736 30.043H12.9247C12.5451 30.043 12.2434 30.3515 12.2434 30.718V33.6398C12.2434 34.0158 12.5548 34.3148 12.9247 34.3148H15.8736C16.2532 34.3148 16.5646 34.0062 16.5646 33.6398V30.718C16.5646 30.3419 16.2532 30.043 15.8736 30.043ZM15.1923 32.9648H13.6157V31.4026H15.1923V32.9648Z" fill="#1150CB"/>
<path d="M15.8736 35.926H12.9247C12.5451 35.926 12.2434 36.2346 12.2434 36.601V39.5228C12.2434 39.8989 12.5548 40.1978 12.9247 40.1978H15.8736C16.2532 40.1978 16.5646 39.8892 16.5646 39.5228V36.601C16.5646 36.225 16.2532 35.926 15.8736 35.926ZM15.1923 38.8478H13.6157V37.2857H15.1923V38.8478Z" fill="#1150CB"/>
<path d="M21.9174 30.043H18.9685C18.5889 30.043 18.2872 30.3515 18.2872 30.718V33.6398C18.2872 34.0158 18.5987 34.3148 18.9685 34.3148H21.9174C22.297 34.3148 22.5987 34.0062 22.5987 33.6398V30.718C22.5987 30.3419 22.2872 30.043 21.9174 30.043ZM21.2361 32.9648H19.6595V31.4026H21.2361V32.9648Z" fill="#1150CB"/>
<path d="M6.7835 35.926H3.83459C3.45502 35.926 3.15332 36.2346 3.15332 36.601V39.5228C3.15332 39.8989 3.46476 40.1978 3.83459 40.1978H6.7835C7.16307 40.1978 7.46477 39.8892 7.46477 39.5228V36.601C7.46477 36.225 7.15333 35.926 6.7835 35.926ZM6.10224 38.8478H4.52559V37.2857H6.10224V38.8478Z" fill="#1150CB"/>
<path d="M21.9174 35.926H18.9685C18.5889 35.926 18.2872 36.2346 18.2872 36.601V39.5228C18.2872 39.8989 18.5987 40.1978 18.9685 40.1978H21.9174C22.297 40.1978 22.5987 39.8892 22.5987 39.5228V36.601C22.5987 36.225 22.2872 35.926 21.9174 35.926ZM21.2361 38.8478H19.6595V37.2857H21.2361V38.8478Z" fill="#1150CB"/>
<path d="M33.9952 40.1978H36.9441C37.3237 40.1978 37.6254 39.8892 37.6254 39.5228V36.601C37.6254 36.225 37.314 35.926 36.9441 35.926H33.9952C33.6157 35.926 33.314 36.2346 33.314 36.601V39.5228C33.314 39.8989 33.6254 40.1978 33.9952 40.1978ZM34.6765 37.276H36.2531V38.8382H34.6765V37.276Z" fill="#1150CB"/>
<path d="M27.9709 30.043H25.022C24.6424 30.043 24.3407 30.3515 24.3407 30.718V33.6398C24.3407 34.0158 24.6521 34.3148 25.022 34.3148H27.9709C28.3504 34.3148 28.6521 34.0062 28.6521 33.6398V30.718C28.6521 30.3419 28.3407 30.043 27.9709 30.043ZM27.2896 32.9648H25.713V31.4026H27.2896V32.9648Z" fill="#1150CB"/>
<path d="M21.9174 24.1694H18.9685C18.5889 24.1694 18.2872 24.478 18.2872 24.8444V27.7662C18.2872 28.1423 18.5987 28.4509 18.9685 28.4509H21.9174C22.297 28.4509 22.5987 28.1423 22.5987 27.7759V24.8541C22.5987 24.478 22.2872 24.1791 21.9174 24.1791V24.1694ZM21.2361 27.0912H19.6595V25.5291H21.2361V27.0912Z" fill="#1150CB"/>
<path d="M27.9709 35.926H25.022C24.6424 35.926 24.3407 36.2346 24.3407 36.601V39.5228C24.3407 39.8989 24.6521 40.1978 25.022 40.1978H27.9709C28.3504 40.1978 28.6521 39.8892 28.6521 39.5228V36.601C28.6521 36.225 28.3407 35.926 27.9709 35.926ZM27.2896 38.8478H25.713V37.2857H27.2896V38.8478Z" fill="#1150CB"/>
<path d="M30.1607 25.6546V52.1H26.3067V45.995H27.0658C27.4454 45.995 27.7471 45.6864 27.7471 45.3199V42.6773C27.7471 42.3011 27.4356 42.0021 27.0658 42.0021H13.8395C13.4599 42.0021 13.1582 42.3108 13.1582 42.6773V45.3199C13.1582 45.696 13.4696 45.995 13.8395 45.995H14.6862V52.1H10.6278V22.7516H25.7033C25.0901 22.1632 24.5354 21.5267 24.0293 20.8516H13.3626V19.2024H22.9587C22.6278 18.5948 22.3553 17.9582 22.112 17.3024H10.7251V15.6532H21.6156C21.4697 15.0359 21.3626 14.3994 21.3042 13.7532H9.77132C9.24578 13.7532 8.80782 14.1775 8.80782 14.708V18.2668C8.80782 18.7973 9.23604 19.2217 9.77132 19.2217H11.4356V20.8709H9.66427C9.13872 20.8709 8.70076 21.2952 8.70076 21.8257V32.6565H0.963507C0.437958 32.6565 0 33.0809 0 33.6114V45.3488C0 45.8793 0.428225 46.3036 0.963507 46.3036H1.82969V53.0838C1.82969 53.6046 2.25792 54.0386 2.7932 54.0386H37.9953C38.5306 54.0386 38.9588 53.6142 38.9588 53.0838V46.3036H39.825C40.3505 46.3036 40.7885 45.8793 40.7885 45.3488V33.6114C40.7885 33.0809 40.3602 32.6565 39.825 32.6565H32.0877V26.3104C31.4259 26.1465 30.7836 25.9439 30.1704 25.6835L30.1607 25.6546ZM1.91728 44.3651V34.5276H8.69103V44.3651H1.91728ZM8.69103 52.1H3.74697V46.2747H8.70076V52.1H8.69103ZM19.8054 52.1H16.0487V45.995H19.8054V52.1ZM24.9344 52.1H21.1777V45.995H24.9344V52.1ZM20.4964 44.6351H14.5207V43.3524H26.3748V44.6351H20.4964ZM37.0318 52.1H32.0877V46.2747H37.0318V52.1ZM38.8615 34.5276V44.3651H32.0877V34.5276H38.8615Z" fill="#1150CB"/>
</g>
<defs>
<clipPath id="clip0_3303_27881">
<rect width="48.2143" height="54" fill="white"/>
</clipPath>
</defs>
</svg>
