<svg width="62" height="32" viewBox="0 0 62 32" fill="none" xmlns="http://www.w3.org/2000/svg">
<circle cx="16" cy="16" r="16" fill="#2F4653"/>
<path d="M23.3799 6.81744C22.3914 6.20673 21.0792 6.22418 20.3063 7.14896C20.2524 7.21876 20.1086 7.35835 20.1446 7.46304C20.1805 7.56773 20.4322 7.55029 20.522 7.60263C20.7018 7.68988 20.7737 7.86437 20.7557 8.03885C20.7557 8.24824 20.7557 10.2897 20.7377 13.0816C18.2034 13.0641 15.651 13.0467 13.1167 13.0292C13.0628 12.4185 13.0448 11.738 13.0987 10.9877C13.1347 10.3072 13.2245 9.60925 13.3683 8.92874C13.4223 8.63211 13.4942 8.33548 13.584 8.03885C13.6739 7.72477 13.9076 7.32345 13.8896 6.99193C13.8896 6.93958 13.8716 6.90468 13.8536 6.86978C13.7817 6.78254 13.6559 6.79999 13.5481 6.83489C12.901 6.99193 12.2719 7.32345 11.7686 7.75967C11.6248 7.89926 11.2114 8.26569 10.834 8.91129C9.86338 10.6038 9.77351 13.0118 9.77351 13.0118C9.71959 14.5647 9.66566 17.7229 11.3732 21.0033C11.3732 21.0033 12.5775 23.3066 14.285 23.8649C14.6265 23.9696 14.7164 23.8998 14.7523 23.8649C14.8782 23.6904 14.5906 23.4112 14.5187 23.2891C14.3569 23.0623 14.2311 22.8005 14.1232 22.5563C13.8896 22.0328 13.7278 21.4744 13.62 20.8986C13.2605 19.1886 13.0268 17.4438 13.0807 15.6989H20.7737C20.7737 17.8974 20.7737 20.096 20.7737 22.2945C20.7737 22.7307 20.9534 23.1495 21.3668 23.3589C21.6185 23.481 21.906 23.5334 22.1757 23.5683C22.661 23.6206 23.1642 23.6555 23.6495 23.5683C23.9371 23.5159 24.2067 23.4112 24.4224 23.2193C24.7639 22.9052 24.7639 22.5039 24.7639 22.0851C24.7639 18.7699 24.7999 15.472 24.7999 12.1568C24.7999 11.3367 24.7999 10.5166 24.7819 9.69649C24.7639 8.56232 24.4045 7.44559 23.3799 6.81744Z" fill="url(#paint0_linear_3069_54901)"/>
<path d="M14.2308 24.7024C11.1213 23.8125 9.91704 20.6368 9.252 17.8625C9.1082 17.2518 8.96441 16.6585 8.89251 16.0478C8.64088 14.1808 8.65885 12.1393 9.26997 10.342C8.80264 10.4467 8.58695 10.8481 8.29937 11.1621C7.29281 12.3312 7.20294 13.7097 7.167 15.0707C7.05915 18.2638 8.24545 20.5321 8.51506 21.0207C9.12618 22.12 9.77325 22.8354 9.97096 23.0448C10.654 23.7951 11.355 24.3011 11.8942 24.6501C11.4808 24.5454 10.8697 24.3534 10.2406 23.9696C9.64743 23.6206 9.23402 23.2193 8.94644 22.9226C8.55101 22.4341 8.26342 21.9804 8.08368 21.6838C7.59838 20.8462 6.96928 19.8167 6.66372 18.4383C6.57385 18.0544 6.51993 17.6531 6.35816 17.6356C6.1245 17.6182 5.87286 18.4034 5.81894 18.5779C5.63919 19.1362 5.58527 19.6423 5.60325 19.904C5.62122 20.9509 6.43006 22.9924 8.35329 24.3709C8.35329 24.3709 10.0429 25.5748 12.9367 25.6795C13.0625 25.6795 13.7635 25.6621 14.2668 25.3131C14.5184 25.1037 14.6802 24.842 14.2308 24.7024Z" fill="url(#paint1_linear_3069_54901)"/>
<circle cx="46" cy="16" r="15.6667" fill="#203E7A" stroke="white" stroke-width="0.666667"/>
<g clip-path="url(#clip0_3069_54901)">
<path fill-rule="evenodd" clip-rule="evenodd" d="M51.9915 14.8216C51.9915 17.07 51.4778 18.7455 50.4509 19.8374C49.4241 20.9293 47.8379 21.4749 45.6991 21.4749C43.7009 21.4749 42.1846 20.929 41.1511 19.8374C40.1172 18.7458 39.6002 17.0995 39.6005 14.8984V7.51378C39.6011 7.34061 39.7411 7.20056 39.914 7.19995H43.5372C43.7104 7.20056 43.8504 7.34061 43.851 7.51378V15.0597C43.851 15.9584 44.0172 16.6502 44.3557 17.1381C44.9648 17.9456 46.1132 18.1063 46.9207 17.4972C47.0419 17.4057 47.1513 17.2997 47.2461 17.1812C47.5769 16.7234 47.7416 16.0486 47.7407 15.157V13.744H51.9915V14.8213V14.8216Z" fill="white"/>
<path fill-rule="evenodd" clip-rule="evenodd" d="M51.6629 12.9188H47.7411V7.52837C47.7417 7.34699 47.8884 7.20025 48.0695 7.19995H48.6565C48.6577 9.04041 50.15 10.5318 51.9904 10.5318H51.9913V12.9188H51.6626H51.6629Z" fill="white"/>
<path fill-rule="evenodd" clip-rule="evenodd" d="M49.492 7.20001H51.663C51.8444 7.20062 51.9911 7.34736 51.9914 7.52843V9.70217C50.6109 9.70217 49.4917 8.58294 49.4917 7.20244V7.19971L49.492 7.20001Z" fill="#F4821F"/>
<path fill-rule="evenodd" clip-rule="evenodd" d="M40.3121 25.0614C40.7918 25.0614 41.0233 24.7943 41.0233 24.4021V23.457H40.68V24.3927C40.68 24.5969 40.5144 24.7624 40.3103 24.7624C40.1061 24.7624 39.9405 24.5969 39.9405 24.3927V23.457H39.6V24.4052C39.6 24.7925 39.8315 25.062 40.3112 25.062L40.3118 25.0614H40.3121ZM43.0953 25.0331V24.7378H42.3345L43.0789 23.7258V23.4564H41.8949V23.752H42.6393L41.8949 24.7609V25.0319L43.0953 25.0331ZM44.6991 25.0614C44.9746 25.0678 45.2301 24.9177 45.3583 24.6737L45.0691 24.5343C44.9974 24.6734 44.8546 24.7615 44.6982 24.7633C44.4123 24.7491 44.192 24.506 44.2063 24.2201C44.2194 23.954 44.432 23.7413 44.6982 23.7283C44.8543 23.731 44.9968 23.8188 45.0691 23.9573L45.3583 23.8155C45.2301 23.5718 44.9743 23.4223 44.6991 23.4302C44.2488 23.4169 43.873 23.7708 43.8594 24.221C43.846 24.6713 44.1999 25.0471 44.6502 25.0608C44.6663 25.0614 44.6827 25.0614 44.6988 25.0608L44.6991 25.0614ZM47.6308 25.0331L47.0235 23.457H46.603L45.9933 25.0331H46.3761L46.4754 24.7661H47.1514L47.2483 25.0331H47.6311H47.6308ZM47.059 24.4708H46.5675L46.8133 23.7924L47.059 24.4708ZM49.8966 25.4287L49.3182 24.4334C49.5314 24.3821 49.677 24.1846 49.6633 23.9655C49.6736 23.6945 49.4625 23.4667 49.1915 23.4564C49.1723 23.4558 49.1532 23.4561 49.1341 23.4576H48.3964V25.0337H48.7321V24.4735H48.9779L49.5114 25.4284H49.8966V25.4287ZM49.0842 24.1782H48.7321V23.7529H49.083C49.2006 23.7404 49.3057 23.8258 49.3182 23.9431C49.3306 24.0603 49.2452 24.1658 49.128 24.1782C49.1131 24.1797 49.0982 24.1797 49.0833 24.1782H49.0845H49.0842ZM51.1559 25.0337C51.6499 25.0337 51.9926 24.7217 51.9926 24.2469C51.9926 23.772 51.6493 23.4576 51.1559 23.4576H50.5343V25.0337H51.1559ZM51.1559 24.7384H50.87V23.7532H51.1559C51.4099 23.7343 51.631 23.9251 51.6499 24.1791C51.6514 24.2016 51.6514 24.2244 51.6499 24.2469C51.6608 24.5072 51.4588 24.7272 51.1984 24.7381C51.1841 24.7387 51.1696 24.7387 51.155 24.7381H51.1559V24.7384Z" fill="white"/>
<path fill-rule="evenodd" clip-rule="evenodd" d="M52.4001 23.4272V23.4309C52.4001 23.5931 52.2688 23.7243 52.1069 23.7247C51.9447 23.7247 51.8134 23.5934 51.8131 23.4315C51.8131 23.2692 51.9444 23.138 52.1063 23.1377H52.3998V23.4272H52.4001Z" fill="white"/>
</g>
<defs>
<linearGradient id="paint0_linear_3069_54901" x1="8.08567" y1="17.8298" x2="24.5785" y2="11.7359" gradientUnits="userSpaceOnUse">
<stop offset="0.005" stop-color="#9C8837"/>
<stop offset="0.965" stop-color="#B39F4D"/>
</linearGradient>
<linearGradient id="paint1_linear_3069_54901" x1="4.61117" y1="20.3479" x2="15.063" y2="17.7343" gradientUnits="userSpaceOnUse">
<stop offset="0.005" stop-color="#9C8837"/>
<stop offset="0.965" stop-color="#B39F4D"/>
</linearGradient>
<clipPath id="clip0_3069_54901">
<rect width="12.8" height="18.2284" fill="white" transform="translate(39.6 7.19995)"/>
</clipPath>
</defs>
</svg>
