<svg width="22" height="23" viewBox="0 0 22 23" fill="none" xmlns="http://www.w3.org/2000/svg">
<ellipse cx="11" cy="11.5556" rx="3.55556" ry="3.55556" fill="#FFF0E0"/>
<path d="M15.4437 0.888672C18.8748 0.888743 21.6664 3.68017 21.6664 7.11035V15.999C21.6663 19.43 18.8757 22.2215 15.4457 22.2217H6.55603C3.12523 22.2214 0.333539 19.4309 0.333374 16.001V7.11133C0.333621 3.68043 3.12498 0.888672 6.55505 0.888672H15.4437ZM11.0004 6.22168C8.05903 6.22168 5.66638 8.61433 5.66638 11.5557C5.66656 14.4968 8.05914 16.8887 11.0004 16.8887C13.9414 16.8885 16.3332 14.4967 16.3334 11.5557C16.3334 8.61444 13.9416 6.22186 11.0004 6.22168ZM17.222 4.44434C16.7315 4.44445 16.3334 4.84246 16.3334 5.33301C16.3334 5.8236 16.7315 6.22156 17.222 6.22168C17.7127 6.22168 18.1107 5.82367 18.1107 5.33301C18.1107 4.84239 17.7127 4.44434 17.222 4.44434Z" fill="#FFF0E0"/>
</svg>
