<svg width="20" height="20" viewBox="0 0 20 20" fill="none" xmlns="http://www.w3.org/2000/svg">
<path fill-rule="evenodd" clip-rule="evenodd" d="M5 6.66663C5 3.9052 7.23858 1.66663 10 1.66663C12.7614 1.66663 15 3.9052 15 6.66663V7.62523C15.2355 7.67684 15.4616 7.75198 15.68 7.86327C16.3072 8.18285 16.8171 8.69278 17.1367 9.31999C17.3428 9.72444 17.4249 10.155 17.4632 10.6234C17.5 11.0744 17.5 11.6281 17.5 12.2989V13.5344C17.5 14.2052 17.5 14.7588 17.4632 15.2098C17.4249 15.6782 17.3428 16.1088 17.1367 16.5133C16.8171 17.1405 16.3072 17.6504 15.68 17.97C15.2755 18.1761 14.8449 18.2582 14.3765 18.2965C13.9255 18.3333 13.3719 18.3333 12.7011 18.3333H7.2989C6.6281 18.3333 6.07447 18.3333 5.62348 18.2965C5.15506 18.2582 4.72448 18.1761 4.32003 17.97C3.69283 17.6504 3.18289 17.1405 2.86331 16.5133C2.65724 16.1088 2.5751 15.6782 2.53683 15.2098C2.49998 14.7588 2.49999 14.2052 2.5 13.5344V12.2989C2.49999 11.6281 2.49998 11.0744 2.53683 10.6234C2.5751 10.155 2.65724 9.72444 2.86331 9.31999C3.18289 8.69278 3.69283 8.18285 4.32003 7.86327C4.53845 7.75198 4.76449 7.67684 5 7.62523V6.66663ZM6.66667 7.50131C6.86476 7.49995 7.07533 7.49996 7.29892 7.49996H12.7011C12.9247 7.49996 13.1352 7.49995 13.3333 7.50131V6.66663C13.3333 4.82568 11.841 3.33329 10 3.33329C8.15905 3.33329 6.66667 4.82568 6.66667 6.66663V7.50131ZM5.7592 9.19792C5.39385 9.22777 5.20702 9.28187 5.07668 9.34828C4.76308 9.50807 4.50811 9.76304 4.34832 10.0766C4.28192 10.207 4.22781 10.3938 4.19796 10.7592C4.16732 11.1342 4.16667 11.6195 4.16667 12.3333V13.5C4.16667 14.2138 4.16732 14.699 4.19796 15.0741C4.22781 15.4394 4.28192 15.6263 4.34832 15.7566C4.50811 16.0702 4.76308 16.3252 5.07668 16.485C5.20702 16.5514 5.39385 16.6055 5.7592 16.6353C6.13427 16.666 6.61952 16.6666 7.33333 16.6666H12.6667C13.3805 16.6666 13.8657 16.666 14.2408 16.6353C14.6061 16.6055 14.793 16.5514 14.9233 16.485C15.2369 16.3252 15.4919 16.0702 15.6517 15.7566C15.7181 15.6263 15.7722 15.4394 15.802 15.0741C15.8327 14.699 15.8333 14.2138 15.8333 13.5V12.3333C15.8333 11.6195 15.8327 11.1342 15.802 10.7592C15.7722 10.3938 15.7181 10.207 15.6517 10.0766C15.4919 9.76304 15.2369 9.50807 14.9233 9.34828C14.793 9.28187 14.6061 9.22777 14.2408 9.19792C13.8657 9.16727 13.3805 9.16663 12.6667 9.16663H7.33333C6.61952 9.16663 6.13427 9.16727 5.7592 9.19792ZM10 11.25C10.4602 11.25 10.8333 11.6231 10.8333 12.0833V13.75C10.8333 14.2102 10.4602 14.5833 10 14.5833C9.53976 14.5833 9.16667 14.2102 9.16667 13.75V12.0833C9.16667 11.6231 9.53976 11.25 10 11.25Z" fill="#1150CB"/>
</svg>
