<svg width="20" height="20" viewBox="0 0 20 20" fill="none" xmlns="http://www.w3.org/2000/svg">
<path d="M7.5 10H7.50833" stroke="#1150CB" stroke-width="1.5" stroke-linecap="round" stroke-linejoin="round"/>
<path d="M12.5 10H12.5083" stroke="#1150CB" stroke-width="1.5" stroke-linecap="round" stroke-linejoin="round"/>
<path d="M8.33331 13.3333C8.74998 13.5833 9.33331 13.75 9.99998 13.75C10.6666 13.75 11.25 13.5833 11.6666 13.3333" stroke="#1150CB" stroke-width="1.5" stroke-linecap="round" stroke-linejoin="round"/>
<path d="M15.8334 5.25C16.5883 6.19639 17.103 7.31148 17.3334 8.5C17.6151 8.63647 17.8528 8.84956 18.0191 9.11485C18.1853 9.38014 18.2735 9.68691 18.2735 10C18.2735 10.3131 18.1853 10.6199 18.0191 10.8851C17.8528 11.1504 17.6151 11.3635 17.3334 11.5C16.9736 13.1779 16.0493 14.6817 14.7148 15.7604C13.3802 16.8392 11.7161 17.4277 10 17.4277C8.28398 17.4277 6.61985 16.8392 5.28528 15.7604C3.95071 14.6817 3.02644 13.1779 2.66669 11.5C2.3849 11.3635 2.14726 11.1504 1.98097 10.8851C1.81469 10.6199 1.7265 10.3131 1.7265 10C1.7265 9.68691 1.81469 9.38014 1.98097 9.11485C2.14726 8.84956 2.3849 8.63647 2.66669 8.5C3.01191 6.80875 3.92993 5.28835 5.26587 4.19531C6.60182 3.10226 8.2739 2.50348 10 2.5C11.6667 2.5 12.9167 3.41667 12.9167 4.58333C12.9167 5.75 12.1667 6.66667 11.25 6.66667C10.5834 6.66667 10 6.33333 10 5.83333" stroke="#1150CB" stroke-width="1.5" stroke-linecap="round" stroke-linejoin="round"/>
</svg>
