<svg width="20" height="21" viewBox="0 0 20 21" fill="none" xmlns="http://www.w3.org/2000/svg">
<path d="M13.3287 4.86438C14.8547 5.8762 15.9008 7.46197 16.2264 9.25682C16.7979 9.62429 17.1243 10.2709 17.0791 10.9461C17.0339 11.6214 16.6243 12.2193 16.009 12.5083C15.112 15.2842 12.5153 17.1667 9.58325 17.1667C6.6512 17.1667 4.05454 15.2842 3.15755 12.5083C2.54216 12.2193 2.13256 11.6214 2.0874 10.9461C2.04223 10.2709 2.36859 9.62429 2.94008 9.25682C3.25912 7.49826 4.2702 5.93883 5.74928 4.92404" stroke="#7E868C" stroke-width="1.5" stroke-linecap="round" stroke-linejoin="round"/>
<path d="M7.70435 13.4404C8.19803 13.9415 8.87374 14.2238 9.57915 14.2238C10.2846 14.2238 10.9603 13.9415 11.454 13.4404" stroke="#7E868C" stroke-width="1.5" stroke-linecap="round" stroke-linejoin="round"/>
<path d="M6.95435 3C8.07923 3.74574 8.82915 5.61011 8.82915 6.72872" stroke="#7E868C" stroke-width="1.5" stroke-linecap="round" stroke-linejoin="round"/>
<path d="M9.9541 3C11.079 4.49149 11.4539 5.61011 11.4539 6.72872" stroke="#7E868C" stroke-width="1.5" stroke-linecap="round" stroke-linejoin="round"/>
<path d="M7.32946 10.4574H7.33696" stroke="#7E868C" stroke-width="1.5" stroke-linecap="round" stroke-linejoin="round"/>
<path d="M11.829 10.4574H11.8365" stroke="#7E868C" stroke-width="1.5" stroke-linecap="round" stroke-linejoin="round"/>
</svg>
