<svg width="38" height="43" viewBox="0 0 38 43" fill="none" xmlns="http://www.w3.org/2000/svg">
<path d="M29.8599 9.00165V5.01583C29.8599 2.80285 27.8999 0.956665 25.4332 0.956665H4.99319C2.55319 0.956665 0.566528 2.79063 0.566528 5.01583V38.4673C0.566528 40.7047 2.53986 42.5265 4.99319 42.5265H25.4332C27.8999 42.5265 29.8599 40.6681 29.8599 38.4673V26.5221H26.7132V34.0169H3.73986V8.32919H26.7132V9.01387H29.8599V9.00165ZM15.2199 37.2936C15.8065 37.2936 16.2732 37.7215 16.2732 38.2595C16.2732 38.7974 15.8065 39.2376 15.2199 39.2376C14.6332 39.2376 14.1665 38.8096 14.1665 38.2595C14.1665 37.7093 14.6332 37.2936 15.2199 37.2936ZM16.4732 5.46821H13.9799C13.4732 5.46821 13.0599 5.08919 13.0599 4.62459C13.0599 4.15999 13.4732 3.78097 13.9799 3.78097H16.4732C16.9799 3.78097 17.3932 4.15999 17.3932 4.62459C17.3932 5.08919 16.9799 5.46821 16.4732 5.46821Z" fill="#1150CB"/>
<path d="M35.9931 24.3458L31.073 19.5286C30.833 19.2963 30.4997 19.1618 30.1664 19.1618H27.1264C27.1264 19.1618 27.0331 19.1618 26.9664 19.1495L25.8597 18.9417C25.8464 18.9417 25.8197 18.9295 25.8197 18.9172C25.8197 18.9172 25.8197 18.9172 25.8197 18.905L26.5664 18.5871C26.7797 18.5015 26.9664 18.3915 27.1531 18.257L27.3797 18.0981C27.6731 17.878 28.0331 17.7557 28.4197 17.7557H30.2197C30.5664 17.7557 30.8997 17.6212 31.1397 17.3889L35.8997 12.7307C36.3931 12.2538 36.0197 11.4591 35.2997 11.4591H24.833C23.073 11.4591 21.6464 12.7674 21.6464 14.3812V22.6952C21.6464 24.3091 23.073 25.6173 24.833 25.6173H35.4064C36.1264 25.6173 36.4997 24.8348 36.0064 24.3458H35.9931ZM34.833 16.7898H34.8197L34.3664 16.5942C34.0997 17.1322 34.5264 17.7435 35.1664 17.7435H36.8997C37.3797 17.7435 37.7797 17.3767 37.7797 16.9366V13.1586C37.7797 12.3517 36.5797 12.1071 36.2064 12.8529L34.3531 16.6064L34.8197 16.8021L34.833 16.7898ZM36.8997 19.174H35.4864C34.8731 19.174 34.4464 19.7364 34.6597 20.2744L36.1931 23.9667C36.5131 24.7492 37.7797 24.5292 37.7797 23.6978V19.9809C37.7797 19.5286 37.3797 19.174 36.8997 19.174ZM17.7397 11.4469H16.4731C15.2064 11.4469 14.1664 12.3883 14.1664 13.5621V15.286C14.1664 15.934 14.7397 16.3619 15.2731 16.4842C16.2731 16.7165 17.0064 17.5479 17.0064 18.5382C17.0064 19.5286 16.2731 20.36 15.2731 20.5923C14.7397 20.7145 14.1664 21.1424 14.1664 21.7904V23.5144C14.1664 24.6759 15.1931 25.6295 16.4731 25.6295H17.7397C19.4997 25.6295 20.9264 24.3213 20.9264 22.7074V14.3935C20.9264 12.7796 19.4997 11.4714 17.7397 11.4714V11.4469Z" fill="#1150CB"/>
</svg>
