<svg width="24" height="25" viewBox="0 0 24 25" fill="none" xmlns="http://www.w3.org/2000/svg">
<path d="M8.954 18.5779C8.414 18.5779 8 18.1639 8 17.6059V7.48988C8 6.91388 8.414 6.49988 8.99 6.49988H12.32C14.732 6.49988 16.352 7.95788 16.352 10.1359C16.352 12.2959 14.714 13.7899 12.32 13.7899H9.908V17.6059C9.908 18.1639 9.494 18.5779 8.954 18.5779ZM9.908 12.0979H12.302C13.598 12.0979 14.39 11.3599 14.39 10.1539C14.39 8.94788 13.598 8.19188 12.302 8.19188H9.908V12.0979Z" fill="#3E3AFF"/>
<path d="M5 3.24988H19C20.2426 3.24988 21.25 4.25724 21.25 5.49988V19.4999C21.25 20.7425 20.2426 21.7499 19 21.7499H5C3.75736 21.7499 2.75 20.7425 2.75 19.4999V5.49988C2.75 4.25724 3.75736 3.24988 5 3.24988Z" stroke="#3E3AFF" stroke-width="1.5"/>
</svg>
