<svg width="50" height="35" viewBox="0 0 50 35" fill="none" xmlns="http://www.w3.org/2000/svg">
<path d="M48.6933 30.1201L44.0266 25.7461C43.3333 26.6682 42.4666 27.4658 41.4933 28.1262L46.1733 32.5003C46.8533 33.1358 48.0266 33.1358 48.7066 32.5003C49.4133 31.8523 49.4133 30.793 48.72 30.145C48.72 30.145 48.72 30.145 48.7066 30.1326L48.6933 30.1201Z" fill="#1150CB"/>
<path d="M35.4133 11.7268C30.48 11.7268 26.4667 15.4777 26.4667 20.076C26.4667 24.6868 30.48 28.4377 35.4133 28.4377C39.72 28.4377 44.36 25.1728 44.36 20.076C44.36 15.4653 40.3333 11.7268 35.4133 11.7268ZM35.4133 26.1199C31.8533 26.1199 28.96 23.4157 28.96 20.0885C28.96 16.7613 31.8533 14.0571 35.4133 14.0571C38.9733 14.0571 41.8667 16.7613 41.8667 20.0885C41.8667 23.4157 38.9733 26.1199 35.4133 26.1199Z" fill="#1150CB"/>
<path d="M24.96 20.0761C24.96 17.4716 26.0533 15.0167 28.0266 13.1724C30 11.3281 32.6266 10.3062 35.4133 10.3062C35.72 10.3062 36.0133 10.3311 36.3066 10.3436V8.03821H0.0133057V30.145C0.0133057 32.3756 1.95997 34.1825 4.3333 34.1825H31.9866C34.3733 34.1825 36.3066 32.3631 36.3066 30.145V29.7836C36.0133 29.8085 35.7066 29.821 35.4133 29.821C29.6533 29.821 24.96 25.4345 24.96 20.0511V20.0761Z" fill="#1150CB"/>
<path d="M31.9999 0.287109H4.34661C1.95995 0.287109 0.0266113 2.09403 0.0266113 4.32465V6.64249H36.3199V4.32465C36.3199 2.09403 34.3866 0.287109 31.9999 0.287109ZM4.61328 5.07234C4.07995 5.07234 3.63994 4.66111 3.63994 4.16265C3.63994 3.66419 4.07995 3.25296 4.61328 3.25296C5.14661 3.25296 5.58661 3.66419 5.58661 4.16265C5.58661 4.66111 5.14661 5.07234 4.61328 5.07234ZM7.87994 5.07234C7.34661 5.07234 6.90661 4.66111 6.90661 4.16265C6.90661 3.66419 7.34661 3.25296 7.87994 3.25296C8.41328 3.25296 8.85328 3.66419 8.85328 4.16265C8.85328 4.66111 8.41328 5.07234 7.87994 5.07234ZM11.1333 5.07234C10.5999 5.07234 10.1599 4.66111 10.1599 4.16265C10.1599 3.66419 10.5999 3.25296 11.1333 3.25296C11.6666 3.25296 12.1066 3.65172 12.1066 4.16265C12.1066 4.67357 11.6799 5.07234 11.1333 5.07234Z" fill="#1150CB"/>
</svg>
