<svg width="24" height="24" viewBox="0 0 24 24" fill="none" xmlns="http://www.w3.org/2000/svg">
<circle cx="12" cy="12" r="12" fill="#FFAD32"/>
<path d="M11.3479 18V16.3117C10.893 16.2511 10.4785 16.1196 10.0842 15.9275C9.68997 15.7355 9.37658 15.4625 9.12384 15.1087C8.8711 14.7548 8.69924 14.3201 8.61836 13.7944H10.155C10.2561 14.1078 10.4077 14.3606 10.62 14.5324C10.8323 14.7043 11.0851 14.8357 11.3682 14.9065C11.6512 14.9773 11.9545 15.0177 12.2578 15.0177C12.5409 15.0177 12.8037 14.9773 13.0362 14.9065C13.2789 14.8357 13.4709 14.7144 13.6226 14.5527C13.7742 14.3909 13.845 14.1887 13.845 13.936C13.845 13.7237 13.7944 13.5518 13.7035 13.4305C13.6125 13.2991 13.481 13.198 13.3294 13.1171C13.1778 13.0362 12.9857 12.9655 12.7734 12.9149C12.4499 12.8138 12.1365 12.7431 11.8332 12.6824C11.5299 12.6217 11.2468 12.551 10.9739 12.4802C10.7009 12.4094 10.4482 12.3184 10.2056 12.1971C9.81129 12.0051 9.48778 11.7422 9.25526 11.4187C9.02274 11.0952 8.90143 10.6504 8.90143 10.0842C8.90143 9.57877 9.02274 9.14406 9.25526 8.80034C9.48778 8.45661 9.80118 8.19377 10.1752 8.00168C10.5594 7.8096 10.9638 7.6984 11.3985 7.66807V6H12.8138V7.68829C13.2485 7.73884 13.6428 7.86015 13.9865 8.06234C14.3302 8.26453 14.6133 8.53749 14.8256 8.88121C15.0379 9.22494 15.1491 9.63943 15.1491 10.1247H13.6731C13.6529 9.86184 13.5619 9.63943 13.4002 9.46757C13.2384 9.2957 13.0463 9.17439 12.8037 9.09351C12.5611 9.01264 12.2982 8.98231 12.0051 8.98231C11.7523 8.98231 11.5097 9.01264 11.2569 9.07329C11.0143 9.13395 10.8121 9.23505 10.6504 9.38669C10.4886 9.53833 10.4179 9.75063 10.4179 10.0236C10.4179 10.1955 10.4583 10.3471 10.5392 10.4785C10.62 10.6099 10.7313 10.7211 10.8627 10.8121C11.0042 10.9031 11.1559 10.9739 11.3378 11.0345C11.6411 11.1457 11.9646 11.2367 12.3286 11.3176C12.6925 11.3884 13.0362 11.4794 13.3496 11.5703C13.7641 11.6816 14.1179 11.8231 14.4212 11.9848C14.7245 12.1466 14.957 12.369 15.1289 12.6521C15.2906 12.9351 15.3816 13.289 15.3816 13.7338C15.3816 14.2999 15.2603 14.765 15.0278 15.1289C14.7953 15.4928 14.4819 15.7759 14.0775 15.9781C13.6832 16.1803 13.2384 16.3016 12.7532 16.342V17.9899H11.3378L11.3479 18Z" fill="white"/>
</svg>
