<svg width="24" height="24" viewBox="0 0 24 24" fill="none" xmlns="http://www.w3.org/2000/svg">
<path d="M20 9.99988C20 15.9999 12 21.9999 12 21.9999C12 21.9999 4 15.9999 4 9.99988C4 7.87815 4.84285 5.84331 6.34315 4.34302C7.84344 2.84273 9.87827 1.99988 12 1.99988C14.1217 1.99988 16.1566 2.84273 17.6569 4.34302C19.1571 5.84331 20 7.87815 20 9.99988Z" stroke="#3E3AFF" stroke-width="2" stroke-linecap="round" stroke-linejoin="round"/>
<path d="M12 12.9999C13.6569 12.9999 15 11.6567 15 9.99988C15 8.34302 13.6569 6.99988 12 6.99988C10.3431 6.99988 9 8.34302 9 9.99988C9 11.6567 10.3431 12.9999 12 12.9999Z" stroke="#3E3AFF" stroke-width="2" stroke-linecap="round" stroke-linejoin="round"/>
</svg>
