<svg width="14" height="14" viewBox="0 0 14 14" fill="none" xmlns="http://www.w3.org/2000/svg">
<path fill-rule="evenodd" clip-rule="evenodd" d="M0 7C0 10.8663 3.13367 14 7 14C10.8663 14 14 10.8663 14 7C14 3.13367 10.8663 0 7 0C3.13367 0 0 3.13367 0 7ZM9.61353 4.38642C9.84134 4.61423 9.84134 4.98357 9.61353 5.21138L7.8249 7.00001L9.61353 8.78864C9.84134 9.01645 9.84134 9.38579 9.61353 9.6136C9.38572 9.84141 9.01638 9.84141 8.78857 9.6136L6.99994 7.82497L5.21131 9.6136C4.9835 9.84141 4.61416 9.84141 4.38635 9.6136C4.15854 9.38579 4.15854 9.01645 4.38635 8.78864L6.17498 7.00001L4.38635 5.21138C4.15854 4.98357 4.15854 4.61423 4.38635 4.38642C4.61416 4.15861 4.9835 4.15861 5.21131 4.38642L6.99994 6.17505L8.78857 4.38642C9.01638 4.15861 9.38572 4.15861 9.61353 4.38642Z" fill="#3E3AFF"/>
</svg>
