<svg width="16" height="16" viewBox="0 0 16 16" fill="none" xmlns="http://www.w3.org/2000/svg">
<g clip-path="url(#clip0_3574_5510)">
<path d="M7.66699 11.3333H2.66699C3.03028 11.1276 3.3402 10.8395 3.57178 10.4921C3.80337 10.1447 3.95016 9.7478 4.00033 9.33333V7.33333C4.04003 6.48738 4.30919 5.66818 4.77896 4.96353C5.24872 4.25888 5.90139 3.69535 6.66699 3.33333C6.66699 2.97971 6.80747 2.64057 7.05752 2.39052C7.30757 2.14048 7.6467 2 8.00033 2C8.35395 2 8.69309 2.14048 8.94313 2.39052C9.19318 2.64057 9.33366 2.97971 9.33366 3.33333C10.0993 3.69535 10.7519 4.25888 11.2217 4.96353C11.6915 5.66818 11.9606 6.48738 12.0003 7.33333V9.33333C12.011 9.41933 12.025 9.504 12.0437 9.588" stroke="white" stroke-linecap="round" stroke-linejoin="round"/>
<path d="M6 11.3334V12C5.9999 12.473 6.16741 12.9307 6.47278 13.2918C6.77815 13.653 7.20162 13.8942 7.668 13.9727" stroke="white" stroke-linecap="round" stroke-linejoin="round"/>
<path d="M10 12.6667L11.3333 14L14 11.3334" stroke="white" stroke-linecap="round" stroke-linejoin="round"/>
</g>
<defs>
<clipPath id="clip0_3574_5510">
<rect width="16" height="16" fill="white"/>
</clipPath>
</defs>
</svg>
