<svg class="mb-[2px]" width="16" height="16" viewBox="0 0 16 16" fill="none"
     xmlns="http://www.w3.org/2000/svg">
    <g clip-path="url(#clip0_7033_4835)">
        <path
                d="M3.33334 12V8C3.33334 6.93913 3.75477 5.92172 4.50492 5.17157C5.25506 4.42143 6.27248 4 7.33334 4H8.66668C9.72754 4 10.745 4.42143 11.4951 5.17157C12.2453 5.92172 12.6667 6.93913 12.6667 8V12C12.6667 12.5304 12.456 13.0391 12.0809 13.4142C11.7058 13.7893 11.1971 14 10.6667 14H5.33334C4.80291 14 4.2942 13.7893 3.91913 13.4142C3.54406 13.0391 3.33334 12.5304 3.33334 12Z"
                stroke="#7E868C" stroke-linecap="round" stroke-linejoin="round"/>
        <path
                d="M6.66666 4V3.33333C6.66666 2.97971 6.80713 2.64057 7.05718 2.39052C7.30723 2.14048 7.64637 2 7.99999 2C8.35361 2 8.69275 2.14048 8.9428 2.39052C9.19285 2.64057 9.33332 2.97971 9.33332 3.33333V4"
                stroke="#7E868C" stroke-linecap="round" stroke-linejoin="round"/>
        <path
                d="M6 14V11.3333C6 10.9797 6.14048 10.6406 6.39052 10.3905C6.64057 10.1405 6.97971 10 7.33333 10H8.66667C9.02029 10 9.35943 10.1405 9.60948 10.3905C9.85952 10.6406 10 10.9797 10 11.3333V14"
                stroke="#7E868C" stroke-linecap="round" stroke-linejoin="round"/>
        <path d="M7.33334 6.66663H8.66668" stroke="#7E868C" stroke-linecap="round"
              stroke-linejoin="round"/>
    </g>
    <defs>
        <clipPath id="clip0_7033_4835">
            <rect width="16" height="16" fill="white"/>
        </clipPath>
    </defs>
</svg>