<svg width="20" height="20" viewBox="0 0 20 20" fill="none" xmlns="http://www.w3.org/2000/svg">
<g clip-path="url(#clip0_643_103493)">
<path d="M9.5 10.3334V4.58337H1.25V11.9167C1.25 13.0834 2.16667 14 3.33333 14H7C7 13.9167 7 13.75 7 13.6667C6.91667 12.25 7.91667 11.0834 9.5 10.3334Z" stroke="#1D9F18" stroke-width="1.5" stroke-miterlimit="10" stroke-linecap="round" stroke-linejoin="round"/>
<path d="M5.33333 7.91671L4.25 6.83337L3.25 7.91671V9.50004H5.41667V7.91671H5.33333Z" stroke="#1D9F18" stroke-width="1.5" stroke-miterlimit="10" stroke-linecap="round" stroke-linejoin="round"/>
<path d="M4.25 6.83337V4.58337" stroke="#1D9F18" stroke-width="1.5" stroke-miterlimit="10" stroke-linecap="round" stroke-linejoin="round"/>
<path d="M9.5 6.75H11.1667C12 6.75 12.6667 7.41667 12.6667 8.25V9.75C11.5 9.75 10.4167 10 9.58333 10.4167C9.5 10.3333 9.5 6.75 9.5 6.75Z" stroke="#1D9F18" stroke-width="1.5" stroke-miterlimit="10" stroke-linecap="round" stroke-linejoin="round"/>
<path d="M12.5837 9.66675C12.667 9.66675 12.7503 9.66675 12.8337 9.66675C16.0837 9.66675 18.7503 11.5001 18.7503 13.6667C18.7503 14.5001 18.3337 15.0834 17.667 15.4167H8.00033C7.41699 15.1667 7.08366 14.6667 6.91699 14.0834C6.91699 14.0001 6.91699 13.8334 6.91699 13.7501C6.91699 12.4167 7.91699 11.1667 9.50032 10.5001C10.3337 9.91675 11.417 9.66675 12.5837 9.66675Z" stroke="#1D9F18" stroke-width="1.5" stroke-miterlimit="10" stroke-linecap="round" stroke-linejoin="round"/>
<path d="M12.25 11.6667C12.25 11.6667 12.25 10.6667 13.3333 9.66675" stroke="#1D9F18" stroke-width="1.5" stroke-miterlimit="10" stroke-linecap="round" stroke-linejoin="round"/>
<path d="M14.4163 12C14.4163 12 14.333 11 15.4997 10.0834" stroke="#1D9F18" stroke-width="1.5" stroke-miterlimit="10" stroke-linecap="round" stroke-linejoin="round"/>
<path d="M10.167 11.9167C10.167 11.9167 10.167 10.75 11.2503 9.75" stroke="#1D9F18" stroke-width="1.5" stroke-miterlimit="10" stroke-linecap="round" stroke-linejoin="round"/>
</g>
<defs>
<clipPath id="clip0_643_103493">
<rect width="20" height="20" fill="white"/>
</clipPath>
</defs>
</svg>
