<svg width="24" height="25" viewBox="0 0 24 25" fill="none" xmlns="http://www.w3.org/2000/svg">
<path d="M12.8604 4.16992V6.64992C12.863 6.89218 12.9611 7.12363 13.1333 7.294C13.3056 7.46438 13.5381 7.55994 13.7804 7.55992H16.0004C16.2426 7.55994 16.4751 7.46438 16.6474 7.294C16.8196 7.12363 16.9177 6.89218 16.9204 6.64992V4.16992" stroke="#3E3AFF" stroke-width="1.5" stroke-linecap="round" stroke-linejoin="round"/>
<path d="M14.8799 7.55994V12.9599" stroke="#3E3AFF" stroke-width="1.5" stroke-linecap="round" stroke-linejoin="round"/>
<path d="M22.2796 9.74992C22.616 8.53698 22.5776 7.25068 22.1696 6.05992C22.0336 5.54675 21.7409 5.08882 21.3321 4.75002C20.9234 4.41121 20.4191 4.20842 19.8896 4.16992V9.74992H22.2796Z" stroke="#3E3AFF" stroke-width="1.5" stroke-linecap="round" stroke-linejoin="round"/>
<path d="M19.8896 12.9599V9.74988" stroke="#3E3AFF" stroke-width="1.5" stroke-linecap="round" stroke-linejoin="round"/>
<path d="M14.69 20.8299C14.5841 19.3521 13.9222 17.9692 12.8378 16.9597C11.7533 15.9502 10.3266 15.3889 8.845 15.3889C7.36337 15.3889 5.93673 15.9502 4.85225 16.9597C3.76776 17.9692 3.10594 19.3521 3 20.8299H14.69Z" stroke="#3E3AFF" stroke-width="1.5" stroke-linecap="round" stroke-linejoin="round"/>
<path d="M16.17 20.83H1.5" stroke="#3E3AFF" stroke-width="1.5" stroke-linecap="round" stroke-linejoin="round"/>
<path d="M8.83008 14.9699V13.2499" stroke="#3E3AFF" stroke-width="1.5" stroke-linecap="round" stroke-linejoin="round"/>
</svg>
