<svg width="20" height="20" viewBox="0 0 20 20" fill="none" xmlns="http://www.w3.org/2000/svg">
<g clip-path="url(#clip0_7033_184)">
<path d="M9.89865 0H10.1911C10.6459 0.0145783 11.1012 0.0465386 11.5521 0.113263C13.157 0.342591 14.6955 1.00422 15.9712 2.00845C17.4383 3.16518 18.6542 4.68526 19.3021 6.45372C19.9656 8.26088 20.0672 10.2575 19.6866 12.1393C19.33 13.8876 18.4383 15.5046 17.2128 16.7898C15.9466 18.1444 14.3155 19.1756 12.5108 19.618C10.4997 20.1103 8.33113 20.015 6.39697 19.2563C4.76807 18.6171 3.30211 17.5484 2.21673 16.1679C1.2636 14.949 0.576103 13.5136 0.265277 11.9929C-0.193986 9.7445 0.12242 7.33347 1.21003 5.30932C2.04764 3.69393 3.33503 2.31403 4.90088 1.39279C6.40423 0.4923 8.14809 0.00841059 9.89865 0ZM8.61349 4.6247C7.76695 4.65722 6.90311 4.6875 6.0895 4.94711C5.45892 5.17644 4.85512 5.54482 4.45334 6.09543C4.027 6.6724 3.87633 7.42094 3.94775 8.12743C4.027 8.83728 4.44162 9.46191 4.95445 9.93627C5.56215 10.5144 6.32666 10.8771 7.00133 11.3644C7.28592 11.573 7.59898 11.7838 7.75077 12.1169C7.93157 12.4993 7.8222 12.9815 7.51974 13.2697C7.07108 13.7177 6.41483 13.8584 5.80322 13.8797C5.21003 13.8898 4.61293 13.8618 4.02811 13.7541C3.8568 13.7272 3.68994 13.6633 3.51583 13.6655C3.36684 13.6969 3.32275 13.8623 3.27588 13.9862C3.17655 14.2952 3.05769 14.5985 2.96505 14.9097C2.90534 15.0701 2.97175 15.2804 3.14697 15.328C3.69887 15.5001 4.2809 15.5439 4.85512 15.5725C5.56494 15.6011 6.28592 15.5983 6.97956 15.425C7.8395 15.222 8.64586 14.7611 9.2184 14.0799C9.76584 13.4401 10.0248 12.548 9.85624 11.7165C9.70947 11.0308 9.26081 10.4555 8.74798 9.99906C8.04318 9.35706 7.15367 8.96905 6.44273 8.33433C6.00244 7.98277 5.96505 7.23703 6.36182 6.83893C6.63693 6.55072 7.03146 6.41335 7.41874 6.36681C8.17878 6.27654 8.94608 6.29616 9.71003 6.29C9.90088 6.29953 10.099 6.2115 10.1855 6.03375C10.3607 5.69789 10.4645 5.33119 10.5995 4.97851C10.6297 4.88038 10.6883 4.7475 10.5923 4.66619C10.4974 4.60339 10.3786 4.62021 10.2714 4.61517C9.71896 4.62021 9.16595 4.60956 8.61349 4.6247ZM11.7457 4.90169C11.6241 5.19606 11.527 5.49996 11.4104 5.79601C11.3702 5.91713 11.3077 6.04273 11.3317 6.17393C11.3534 6.27486 11.4673 6.29168 11.5532 6.28944C12.4545 6.28663 13.3562 6.27654 14.2575 6.27598C13.4433 8.11341 12.6537 9.96262 11.7898 11.7771C11.7318 11.8842 11.7268 12.086 11.8869 12.095C12.3155 12.1129 12.7457 12.1045 13.1749 12.0995C13.3886 12.0978 13.5739 11.9481 13.6486 11.7513C14.6459 9.47985 15.6364 7.20507 16.6353 4.93365C16.6615 4.86468 16.6944 4.79291 16.6849 4.71722C16.6353 4.61293 16.5063 4.62022 16.4104 4.61629C15.0147 4.61685 13.6185 4.61629 12.2229 4.61629C12.0236 4.60283 11.8194 4.71049 11.7457 4.90169Z" fill="#C0172B"/>
<path d="M8.61348 4.62477C9.16593 4.60963 9.71895 4.62028 10.2714 4.61523C10.3785 4.62028 10.4974 4.60346 10.5923 4.66626C10.6883 4.74756 10.6297 4.88045 10.5995 4.97857C10.4645 5.33126 10.3607 5.69796 10.1855 6.03382C10.099 6.21156 9.90087 6.29959 9.71002 6.29006C8.94607 6.29623 8.17877 6.27661 7.41872 6.36688C7.03145 6.41342 6.63692 6.55079 6.3618 6.83899C5.96504 7.23709 6.00243 7.98283 6.44272 8.3344C7.15366 8.96911 8.04317 9.35712 8.74797 9.99913C9.2608 10.4555 9.70946 11.0308 9.85622 11.7166C10.0248 12.5481 9.76582 13.4402 9.21839 14.0799C8.64584 14.7612 7.83948 15.2221 6.97955 15.4251C6.28591 15.5983 5.56493 15.6011 4.85511 15.5725C4.28089 15.544 3.69886 15.5002 3.14696 15.3281C2.97174 15.2804 2.90533 15.0702 2.96504 14.9098C3.05768 14.5986 3.17654 14.2953 3.27587 13.9863C3.32274 13.8624 3.36683 13.697 3.51582 13.6656C3.68993 13.6633 3.85678 13.7273 4.0281 13.7542C4.61292 13.8618 5.21002 13.8899 5.80321 13.8798C6.41482 13.8585 7.07107 13.7177 7.51973 13.2697C7.82218 12.9815 7.93156 12.4993 7.75076 12.1169C7.59897 11.7839 7.28591 11.573 7.00131 11.3644C6.32665 10.8772 5.56214 10.5144 4.95444 9.93633C4.4416 9.46198 4.02698 8.83735 3.94774 8.1275C3.87631 7.42101 4.02698 6.67246 4.45332 6.0955C4.85511 5.54488 5.4589 5.1765 6.08948 4.94717C6.9031 4.68757 7.76694 4.65729 8.61348 4.62477Z" fill="white"/>
<path d="M11.7457 4.9017C11.8194 4.7105 12.0236 4.60284 12.2229 4.6163C13.6185 4.6163 15.0147 4.61686 16.4104 4.6163C16.5063 4.62023 16.6353 4.61294 16.6849 4.71723C16.6944 4.79292 16.6615 4.86469 16.6353 4.93366C15.6364 7.20508 14.6459 9.47986 13.6486 11.7513C13.5739 11.9481 13.3886 12.0978 13.1749 12.0995C12.7457 12.1045 12.3155 12.1129 11.8869 12.095C11.7268 12.086 11.7318 11.8842 11.7898 11.7771C12.6537 9.96263 13.4433 8.11342 14.2575 6.27599C13.3562 6.27655 12.4545 6.28664 11.5532 6.28945C11.4673 6.29169 11.3534 6.27487 11.3317 6.17394C11.3077 6.04274 11.3702 5.91714 11.4104 5.79603C11.527 5.49997 11.6241 5.19607 11.7457 4.9017Z" fill="white"/>
</g>
<defs>
<clipPath id="clip0_7033_184">
<rect width="20" height="20" fill="white"/>
</clipPath>
</defs>
</svg>
