<svg width="46" height="45" viewBox="0 0 46 45" fill="none" xmlns="http://www.w3.org/2000/svg">
<path d="M37.3499 0.871071C35.4565 1.05447 33.6166 1.62911 31.8432 2.58277C32.4699 2.90066 33.0432 3.32858 33.4965 3.84209C38.3099 1.5313 42.8032 2.74171 43.3366 5.98171C44.0699 10.6278 37.3765 9.93085 27.7499 9.56405C27.2032 9.56405 26.7499 9.97975 26.7632 10.4933C26.7632 10.9945 27.2166 11.398 27.7632 11.398C33.8299 11.5936 37.5766 11.8626 41.2166 11.2146C47.9366 10.0409 46.4699 -0.00923121 37.3632 0.871071H37.3499Z" fill="#1150CB"/>
<path d="M35.3368 13.4521C32.8035 13.4399 30.0702 13.3054 28.8035 13.2809C28.3235 13.5132 27.7901 13.6355 27.2301 13.6355C24.6568 13.6355 22.9768 11.1413 24.1368 9.03836C24.7235 7.96243 25.9235 7.27775 27.2301 7.27775C28.0035 7.27775 28.7635 7.55896 29.0835 7.79126C29.9635 7.81571 31.4835 7.88907 33.3235 7.9502L32.7101 6.23851C32.3768 5.32153 31.6568 4.56349 30.7235 4.12334C29.7635 3.67096 28.6568 3.5976 27.6301 3.91549L14.8968 7.77904C13.8835 8.0847 13.0435 8.75715 12.5635 9.62522L0.510149 31.6817C0.0301495 32.562 -0.0498553 33.5645 0.296811 34.506C0.630145 35.4352 1.35014 36.1932 2.31014 36.6334L19.2968 44.446C19.8701 44.7028 20.4702 44.8373 21.0968 44.8373C22.6302 44.8373 24.0168 44.0548 24.6968 42.7955L36.7501 20.739C37.2301 19.871 37.3101 18.8439 36.9635 17.9147L35.3501 13.4643L35.3368 13.4521ZM12.6568 30.6913C12.3635 31.0948 11.9235 31.4127 11.4302 31.6083C10.9368 31.7917 10.3768 31.8406 9.85681 31.7428C9.32347 31.645 8.84347 31.4127 8.4568 31.0581C8.07014 30.7158 7.81681 30.2756 7.71014 29.7866C7.60347 29.3098 7.65682 28.8085 7.87015 28.3561C8.08349 27.9037 8.43015 27.5125 8.87015 27.2435C9.32349 26.9745 9.84349 26.8278 10.3902 26.8278C10.7502 26.8278 11.1102 26.8889 11.4302 27.0112C11.7635 27.1335 12.0568 27.3168 12.3101 27.5491C12.5635 27.7814 12.7635 28.0504 12.8968 28.3561C13.0301 28.6618 13.0968 28.9796 13.0968 29.3098C13.0968 29.7988 12.9368 30.2756 12.6301 30.6913H12.6568ZM18.6968 35.8142C18.6968 36.5478 18.0568 37.1347 17.2568 37.1347C16.4568 37.1347 15.8168 36.5478 15.8168 35.8142V23.1476C15.8168 22.4141 16.4568 21.8272 17.2568 21.8272C18.0568 21.8272 18.6968 22.4141 18.6968 23.1476V35.8142ZM26.6435 30.4468C26.5101 30.7525 26.3102 31.0215 26.0568 31.2538C25.8035 31.4861 25.4968 31.6695 25.1768 31.7917C24.8435 31.914 24.4968 31.9873 24.1368 31.9873C23.6035 31.9873 23.0702 31.8406 22.6168 31.5594C22.1635 31.2782 21.8168 30.8992 21.6168 30.4346C21.4168 29.97 21.3635 29.4687 21.4568 28.9919C21.5635 28.5028 21.8168 28.0627 22.2035 27.7081C22.5902 27.3535 23.0701 27.1212 23.6035 27.0234C24.1368 26.9256 24.6835 26.9745 25.1768 27.1701C25.6701 27.3658 26.0968 27.6836 26.4035 28.0871C26.6968 28.5028 26.8568 28.9796 26.8568 29.4809C26.8568 29.811 26.7901 30.1289 26.6435 30.4346V30.4468Z" fill="#1150CB"/>
</svg>
