<svg width="24" height="24" viewBox="0 0 24 24" fill="none" xmlns="http://www.w3.org/2000/svg">
<path d="M5 20V8.33333C5 5.38782 7.38781 3 10.3333 3H11.2143C13.6996 3 15.7143 5.01472 15.7143 7.5V7.5" stroke="#1150CB" stroke-width="1.5" stroke-linecap="round"/>
<path d="M19.6828 10.5118C19.7098 10.5727 19.7351 10.6342 19.7588 10.6962C20.0211 11.3842 19.403 12 18.6666 12L12.9999 12C12.2636 12 11.6454 11.3842 11.9078 10.6962C11.9314 10.6342 11.9567 10.5727 11.9838 10.5118C12.1932 10.04 12.5001 9.61128 12.887 9.25016C13.2739 8.88904 13.7332 8.60259 14.2388 8.40715C14.7443 8.21172 15.2861 8.11113 15.8333 8.11113C16.3805 8.11113 16.9223 8.21172 17.4278 8.40715C17.9333 8.60259 18.3926 8.88904 18.7796 9.25016C19.1665 9.61128 19.4734 10.04 19.6828 10.5118Z" stroke="#1150CB" stroke-width="1.5" stroke-linejoin="round"/>
<path d="M12.5 15L12.5 17" stroke="#1150CB" stroke-width="1.5" stroke-linecap="round"/>
<path d="M15.8333 15L15.8333 17" stroke="#1150CB" stroke-width="1.5" stroke-linecap="round"/>
<path d="M19.1666 15L19.1666 17" stroke="#1150CB" stroke-width="1.5" stroke-linecap="round"/>
</svg>
