<svg width="20" height="20" viewBox="0 0 20 20" fill="none" xmlns="http://www.w3.org/2000/svg">
<path d="M3.54199 10.7333C3.54199 10.2833 3.54199 10 3.54199 10C3.54199 10 3.54199 3.51668 4.46699 2.60835C6.30866 0.83335 13.692 0.83335 15.542 2.60835C16.467 3.51668 16.467 10 16.467 10C16.467 10 16.467 10.2833 16.467 10.7333C16.467 12.4583 16.2837 16.675 15.5503 17.4C13.692 19.1667 6.30866 19.1667 4.45866 17.3917C3.72533 16.6667 3.56699 12.5 3.54199 10.7333Z" stroke="#27272A" stroke-width="1.5" stroke-linecap="round" stroke-linejoin="round"/>
<path d="M16.4587 10.7334C16.4587 12.4584 16.2753 16.6751 15.542 17.4001C13.692 19.1667 6.30866 19.1668 4.45866 17.3918C3.72533 16.6751 3.56699 12.4584 3.54199 10.7251C6.15033 9.45842 13.8503 9.45842 16.4587 10.7334Z" stroke="#27272A" stroke-width="1.5" stroke-linecap="round" stroke-linejoin="round"/>
<path d="M13 5.475C13 5.475 13 6.84167 12.5667 7.03334C10.877 7.41669 9.12297 7.41669 7.43333 7.03334C7 6.84167 7 5.475 7 5.475C7 5.475 7 4.10834 7.43333 3.91667C9.12297 3.53331 10.877 3.53331 12.5667 3.91667C13 4.10834 13 5.475 13 5.475Z" stroke="#27272A" stroke-width="1.5" stroke-linecap="round" stroke-linejoin="round"/>
</svg>
