<svg width="12" height="13" viewBox="0 0 12 13" fill="none" xmlns="http://www.w3.org/2000/svg">
<path d="M10.9923 5.50429C11.0423 5.24226 10.8424 4.92783 10.5926 4.92783L7.7448 4.50858L6.4458 1.78349C6.39584 1.67868 6.34588 1.62627 6.24595 1.57387C5.99615 1.41665 5.69638 1.52146 5.54649 1.78349L4.29746 4.50858L1.44965 4.92783C1.29977 4.92783 1.19985 4.98024 1.14988 5.08505C0.950039 5.29467 0.950039 5.6091 1.14988 5.81873L3.1983 7.91495L2.69869 10.9021C2.69869 11.0069 2.69869 11.1117 2.74865 11.2165C2.89854 11.4785 3.1983 11.5833 3.44811 11.4261L5.99615 10.0112L8.54418 11.4261C8.59414 11.4785 8.69407 11.4785 8.79399 11.4785C8.84395 11.4785 8.84395 11.4785 8.89391 11.4785C9.14372 11.4261 9.34356 11.1641 9.2936 10.8497L8.79399 7.86255L10.8424 5.76632C10.9423 5.71392 10.9923 5.6091 10.9923 5.50429Z" fill="#FE7C39"/>
</svg>
