<svg width="24" height="24" viewBox="0 0 24 24" fill="none" xmlns="http://www.w3.org/2000/svg">
<path d="M21 11.9999V5.99988C21 5.46944 20.7893 4.96074 20.4142 4.58566C20.0391 4.21059 19.5304 3.99988 19 3.99988H5C4.46957 3.99988 3.96086 4.21059 3.58579 4.58566C3.21071 4.96074 3 5.46944 3 5.99988V19.9999C3 21.0999 3.9 21.9999 5 21.9999H12.5" stroke="#3E3AFF" stroke-width="2" stroke-linecap="round" stroke-linejoin="round"/>
<path d="M16 1.99988V5.99988" stroke="#3E3AFF" stroke-width="2" stroke-linecap="round" stroke-linejoin="round"/>
<path d="M8 1.99988V5.99988" stroke="#3E3AFF" stroke-width="2" stroke-linecap="round" stroke-linejoin="round"/>
<path d="M3 9.99988H21" stroke="#3E3AFF" stroke-width="2" stroke-linecap="round" stroke-linejoin="round"/>
<path d="M18 20.9999C18.7956 20.9999 19.5587 20.6838 20.1213 20.1212C20.6839 19.5586 21 18.7955 21 17.9999C21 17.2042 20.6839 16.4412 20.1213 15.8786C19.5587 15.3159 18.7956 14.9999 18 14.9999C17.2044 14.9999 16.4413 15.3159 15.8787 15.8786C15.3161 16.4412 15 17.2042 15 17.9999C15 18.7955 15.3161 19.5586 15.8787 20.1212C16.4413 20.6838 17.2044 20.9999 18 20.9999Z" stroke="#3E3AFF" stroke-width="2" stroke-linecap="round" stroke-linejoin="round"/>
<path d="M22 21.9999L20.5 20.4999" stroke="#3E3AFF" stroke-width="2" stroke-linecap="round" stroke-linejoin="round"/>
</svg>
