<svg width="44" height="40" viewBox="0 0 44 40" fill="none" xmlns="http://www.w3.org/2000/svg">
<path d="M12.7267 17.9346H10.4334C9.66004 17.9346 9.02002 18.5092 9.02002 19.2306V32.643C9.02002 33.3521 9.6467 33.939 10.4334 33.939H12.7267C13.3534 33.939 13.9667 33.7067 14.4067 33.3032C14.8467 32.8875 15.1 32.3373 15.1 31.7627V20.1353C15.1 19.8541 15.0467 19.5607 14.9267 19.3039C14.8067 19.035 14.6334 18.8027 14.4067 18.5948C14.18 18.387 13.9267 18.228 13.6334 18.118C13.34 18.0079 13.0334 17.9468 12.7267 17.959V17.9346ZM31.46 33.9267H33.7534C34.5267 33.9267 35.1667 33.3521 35.1667 32.6307V19.2184C35.1667 18.5092 34.54 17.9224 33.7534 17.9224H31.46C31.1534 17.9224 30.8334 17.9835 30.5534 18.0813C30.26 18.1913 30.0067 18.3503 29.78 18.5581C29.5534 18.766 29.38 18.9983 29.26 19.2673C29.14 19.5363 29.0734 19.8175 29.0867 20.0987V31.726C29.0867 32.0072 29.1534 32.3006 29.2734 32.5574C29.3934 32.8264 29.5667 33.0587 29.7934 33.2665C30.02 33.4744 30.2734 33.6333 30.5667 33.7433C30.86 33.8534 31.1667 33.9145 31.4734 33.9145L31.46 33.9267Z" fill="#1150CB"/>
<path d="M43.4335 25.9184C43.4335 23.791 42.2068 21.9326 40.3802 20.8933C40.2202 19.7563 41.3668 13.9854 36.4735 8.27567C36.4202 8.21454 36.3535 8.17786 36.3002 8.14118C36.5802 7.66435 36.6868 7.11417 36.5802 6.58843C36.4868 6.05047 36.1935 5.56141 35.7668 5.19462C32.0202 2.00352 27.1668 0.24292 22.0868 0.24292C17.0068 0.24292 12.1668 2.00352 8.43351 5.19462C8.00685 5.56141 7.72684 6.05047 7.6335 6.5762C7.54017 7.10194 7.63351 7.65213 7.91351 8.12896C7.84685 8.16564 7.78018 8.21454 7.72685 8.26345C2.82018 13.9732 3.96684 19.7318 3.80684 20.8933C2.87351 21.4313 2.11351 22.1649 1.58018 23.0452C1.04685 23.9255 0.766846 24.9158 0.766846 25.9184C0.766846 29.1951 3.67351 31.8727 7.24685 31.8727V19.9764C6.92685 19.9886 6.35351 19.9764 5.58018 20.1842C5.68685 19.4384 4.8335 14.2666 9.12683 9.27824C9.14016 9.25379 9.14017 9.24156 9.1535 9.21711C9.6335 9.41273 10.1668 9.47386 10.6868 9.40051C11.2068 9.32715 11.6868 9.10707 12.0735 8.77696C14.8068 6.42949 18.3668 5.13349 22.0868 5.13349C25.8068 5.13349 29.3668 6.42949 32.1268 8.77696C32.5135 9.10707 32.9935 9.31492 33.5002 9.40051C34.0202 9.47386 34.5402 9.42496 35.0202 9.22933C35.0202 9.25379 35.0335 9.26601 35.0468 9.29047C39.3535 14.3033 38.4602 19.4017 38.5802 20.1842C38.0602 20.0497 37.5002 19.9764 36.9268 19.9764V31.8727C37.6602 31.8727 38.3802 31.7626 39.0468 31.5425C39.1402 32.5084 39.0602 34.0367 37.9402 35.186C36.4468 36.7265 33.3802 37.2401 29.0735 36.7021C28.9268 35.4917 27.7268 34.1468 26.5402 33.6455C25.7935 33.3276 24.9535 33.2909 24.1802 33.5477C23.4068 33.8044 22.7802 34.3302 22.4335 35.0026C22.0868 35.6873 22.0468 36.4576 22.3268 37.1667C22.6068 37.8758 23.1802 38.4505 23.9135 38.7684C25.2202 39.3308 27.4602 39.3063 28.5135 38.2915C32.1668 38.7928 36.8202 38.8173 39.2868 36.2619C41.1402 34.3546 40.9402 31.8482 40.7402 30.7356C41.5802 30.1854 42.2468 29.4641 42.7268 28.6327C43.1935 27.8013 43.4335 26.8721 43.4335 25.9306V25.9184Z" fill="#1150CB"/>
</svg>
