<svg width="20" height="20" viewBox="0 0 20 20" fill="none" xmlns="http://www.w3.org/2000/svg">
<path d="M11.0413 0.0661157C16.0661 0.595041 20 4.82645 20 10.0165C20 15.5372 15.5372 20 10.0165 20C4.49587 20 0 15.5372 0 10.0165C0 4.49587 4.46281 0 10.0165 0C10.3471 0 10.7107 0.0330578 11.0413 0.0661157ZM11.5702 19.3058C16.6942 18.4463 20.1653 13.5868 19.3058 8.42975C18.5785 4.16529 15.1074 1.05785 11.0083 0.628099C10.1818 0.528926 9.32231 0.561983 8.46281 0.694215C7.43802 0.859504 6.47934 1.19008 5.61983 1.65289C10.1157 3.20661 12.562 5.55372 12.7273 7.93388C12.8264 9.42149 12.1322 10.4793 11.2066 11.3388L17.6198 10.9091C17.7851 10.9091 17.8512 11.1074 17.6529 11.1736L2.34711 15.5372C3.90083 17.6859 6.31405 19.1074 8.99174 19.3719C9.85124 19.4711 10.7107 19.4711 11.5702 19.3058ZM7.3719 10.2149C8.19835 7.07438 7.23967 3.76859 4.95868 2.01653C1.85124 4 0.0330578 7.70248 0.694215 11.5702C0.892562 12.8595 1.35537 14.0165 2.01653 15.0413C4.46281 14.3802 6.61157 13.0909 7.3719 10.2149Z" fill="white"/>
<path d="M11.5703 19.3058C16.6943 18.4463 20.1654 13.5868 19.3058 8.42975C18.5786 4.16529 15.1075 1.05785 11.0083 0.628098C10.1819 0.528925 9.32238 0.561983 8.46287 0.694214C7.43808 0.859503 6.4794 1.19008 5.6199 1.65289C10.1158 3.20661 12.562 5.55372 12.7273 7.93388C12.8265 9.42149 12.1323 10.4793 11.2067 11.3388L17.6199 10.9091C17.7852 10.9091 17.8513 11.1074 17.653 11.1736L2.34717 15.5372C3.90089 17.686 6.31411 19.1074 8.9918 19.3719C9.8513 19.4711 10.7108 19.4711 11.5703 19.3058ZM7.37196 10.2149C8.19841 7.07438 7.23973 3.76859 4.95874 2.01653C1.8513 4 0.0331221 7.70248 0.694279 11.5702C0.892626 12.8595 1.35544 14.0165 2.01659 15.0413C4.46287 14.3802 6.61163 13.0909 7.37196 10.2149Z" fill="#C70A0C"/>
</svg>
