<svg width="32" height="32" viewBox="0 0 32 32" fill="none" xmlns="http://www.w3.org/2000/svg">
<path fill-rule="evenodd" clip-rule="evenodd" d="M23.4232 24.4757L23.424 24.4738L23.4427 24.427L26.6667 8.17241V8.11961C26.6667 7.71461 26.5171 7.36105 26.1914 7.14898C25.9064 6.96335 25.5788 6.95013 25.349 6.96757C25.106 6.98601 24.8769 7.04666 24.7183 7.09715C24.6367 7.12313 24.5684 7.14815 24.5195 7.16708C24.495 7.17658 24.4751 7.18464 24.4607 7.19065L24.4465 7.19662L6.47088 14.2482L6.46593 14.25C6.45622 14.2535 6.44338 14.2583 6.42788 14.2643C6.39696 14.2764 6.35488 14.2936 6.30545 14.316C6.20839 14.36 6.07428 14.4279 5.93828 14.521C5.70729 14.6792 5.26745 15.0537 5.34172 15.6474C5.40324 16.1391 5.74222 16.4514 5.97075 16.6131C6.09326 16.6998 6.21046 16.7623 6.29629 16.8032C6.33977 16.8239 6.37671 16.8398 6.40422 16.851C6.41801 16.8566 6.42954 16.8611 6.43847 16.8644L6.44989 16.8687L6.45719 16.8714L9.60214 17.9302C9.59153 18.1275 9.6111 18.3287 9.66343 18.5272L11.2388 24.5031C11.4256 25.2117 12.0666 25.7052 12.7993 25.7047C13.4561 25.7042 14.0387 25.3069 14.2861 24.714L16.7456 22.0842L20.9697 25.3227L21.0298 25.3489C21.4136 25.5164 21.7721 25.5694 22.0999 25.5247C22.4273 25.4799 22.6875 25.3427 22.8829 25.1863C23.0752 25.0325 23.207 24.8588 23.2898 24.7281C23.3319 24.6617 23.3633 24.6033 23.3851 24.5594C23.396 24.5373 23.4047 24.5187 23.4111 24.5041L23.4192 24.4854L23.4221 24.4785L23.4232 24.4757ZM11.2228 18.1161C11.187 17.9803 11.2432 17.8369 11.3617 17.7616L22.029 10.9875C22.029 10.9875 22.6564 10.6066 22.634 10.9875C22.634 10.9875 22.746 11.0547 22.4097 11.3684C22.0908 11.6663 14.8069 18.6986 14.0699 19.4102C14.0274 19.4513 14.002 19.4984 13.987 19.5556L12.7981 24.092L11.2228 18.1161Z" fill="#FFF0E0"/>
</svg>
