<svg width="32" height="32" viewBox="0 0 32 32" fill="none" xmlns="http://www.w3.org/2000/svg">
<path d="M16 31.9999C24.8365 31.9999 31.9999 24.8365 31.9999 16C31.9999 7.16343 24.8365 0 16 0C7.16343 0 0 7.16343 0 16C0 24.8365 7.16343 31.9999 16 31.9999Z" fill="white"/>
<path d="M31.5555 16C31.5555 24.591 24.591 31.5555 16 31.5555C7.40889 31.5555 0.444444 24.591 0.444444 16C0.444444 7.40889 7.40889 0.444444 16 0.444444C24.591 0.444444 31.5555 7.40889 31.5555 16Z" stroke="white" stroke-opacity="0.2" stroke-width="0.888889"/>
<path d="M6.65899 15.8619L17.4336 11.4226C18.4971 10.9602 22.1041 9.48043 22.1041 9.48043C22.1041 9.48043 23.7688 8.83303 23.6301 10.4053C23.5839 11.0527 23.2139 13.3186 22.844 15.7695L21.6879 23.0296C21.6879 23.0296 21.5954 24.0932 20.8093 24.2781C20.0232 24.4631 18.7284 23.6307 18.4971 23.4458C18.3122 23.307 15.0289 21.2261 13.8266 20.2088C13.5029 19.9313 13.133 19.3764 13.8729 18.729C15.5376 17.203 17.526 15.307 18.7284 14.1047C19.2833 13.5498 19.8382 12.255 17.5261 13.8273L11.0058 18.2203C11.0058 18.2203 10.2659 18.6828 8.87865 18.2666C7.49136 17.8504 5.87287 17.2955 5.87287 17.2955C5.87287 17.2955 4.76304 16.6018 6.65899 15.8619Z" fill="#2994FF"/>
</svg>
