<svg width="105" height="105" viewBox="0 0 105 105" fill="none" xmlns="http://www.w3.org/2000/svg">
<path d="M52.5833 104.566C81.1083 104.566 104.232 81.4416 104.232 52.9165C104.232 24.3915 81.1083 1.26733 52.5833 1.26733C24.0582 1.26733 0.934082 24.3915 0.934082 52.9165C0.934082 81.4416 24.0582 104.566 52.5833 104.566Z" fill="url(#paint0_linear_559_20197)"/>
<path d="M22.1765 52.4674L57.25 38.0165C60.7122 36.5112 72.4535 31.6942 72.4535 31.6942C72.4535 31.6942 77.8726 29.5868 77.421 34.7048C77.2704 36.8122 76.0662 44.1882 74.862 52.1663L71.0987 75.7995C71.0987 75.7995 70.7977 79.2617 68.2386 79.8638C65.6796 80.466 61.4648 77.7564 60.7122 77.1543C60.11 76.7027 49.4224 69.9288 45.5086 66.6172C44.4549 65.714 43.2507 63.9076 45.6592 61.8002C51.0782 56.8327 57.551 50.661 61.4648 46.7472C63.2712 44.9409 65.0775 40.726 57.551 45.844L36.3263 60.1444C36.3263 60.1444 33.9178 61.6497 29.4019 60.2949C24.886 58.9402 19.6175 57.1338 19.6175 57.1338C19.6175 57.1338 16.0048 54.8758 22.1765 52.4674Z" fill="#F0F2FF"/>
<defs>
<linearGradient id="paint0_linear_559_20197" x1="0.934082" y1="52.9165" x2="104.232" y2="52.9165" gradientUnits="userSpaceOnUse">
<stop stop-color="#00D9FF"/>
<stop offset="1" stop-color="#75B4FF"/>
</linearGradient>
</defs>
</svg>
