<svg width="20" height="21" viewBox="0 0 20 21" fill="none" xmlns="http://www.w3.org/2000/svg">
<g clip-path="url(#clip0_3494_64251)">
<path d="M4.99992 18C5.92039 18 6.66659 17.2538 6.66659 16.3333C6.66659 15.4128 5.92039 14.6667 4.99992 14.6667C4.07944 14.6667 3.33325 15.4128 3.33325 16.3333C3.33325 17.2538 4.07944 18 4.99992 18Z" stroke="#7E868C" stroke-width="1.5" stroke-linecap="round" stroke-linejoin="round"/>
<path d="M14.9999 6.33333C15.9204 6.33333 16.6666 5.58714 16.6666 4.66667C16.6666 3.74619 15.9204 3 14.9999 3C14.0794 3 13.3333 3.74619 13.3333 4.66667C13.3333 5.58714 14.0794 6.33333 14.9999 6.33333Z" stroke="#7E868C" stroke-width="1.5" stroke-linecap="round" stroke-linejoin="round"/>
<path d="M10.0001 16.3333H13.7501C14.5236 16.3333 15.2655 16.026 15.8125 15.4791C16.3595 14.9321 16.6667 14.1902 16.6667 13.4167C16.6667 12.6431 16.3595 11.9012 15.8125 11.3543C15.2655 10.8073 14.5236 10.5 13.7501 10.5H7.08341C6.30987 10.5 5.568 10.1927 5.02102 9.64572C4.47404 9.09874 4.16675 8.35687 4.16675 7.58332C4.16675 6.80978 4.47404 6.06791 5.02102 5.52093C5.568 4.97395 6.30987 4.66666 7.08341 4.66666H10.0001" stroke="#7E868C" stroke-width="1.5" stroke-linecap="round" stroke-linejoin="round"/>
</g>
<defs>
<clipPath id="clip0_3494_64251">
<rect width="20" height="20" fill="white" transform="translate(0 0.5)"/>
</clipPath>
</defs>
</svg>
