<svg width="18" height="18" viewBox="0 0 18 18" fill="none" xmlns="http://www.w3.org/2000/svg">
<path d="M8.99565 18C13.9285 18 18 13.9265 18 9C18 4.0735 13.9198 0 8.98695 0C4.06283 0 0 4.0735 0 9C0 13.9265 4.07153 18 8.99565 18ZM8.98695 14.0832C8.75205 14.0832 8.57806 13.9091 8.57806 13.6654V13.0474C7.28178 12.9429 6.32479 12.264 6.0638 11.3066C6.029 11.1934 6.0116 11.089 6.0116 10.9845C6.0116 10.619 6.2639 10.3665 6.63799 10.3665C6.95118 10.3665 7.15998 10.5319 7.29048 10.854C7.42968 11.3849 7.85597 11.7766 8.57806 11.881V9.51354L8.42146 9.47872C6.91638 9.13056 6.1334 8.43424 6.1334 7.25919C6.1334 5.98839 7.15128 5.11799 8.57806 4.98743V4.37814C8.57806 4.12573 8.75205 3.96035 8.98695 3.96035C9.22185 3.96035 9.40454 4.13443 9.40454 4.37814V4.98743C10.6225 5.10928 11.5273 5.7795 11.7709 6.71083C11.797 6.81528 11.8231 6.91973 11.8231 7.02418C11.8231 7.37234 11.5708 7.62476 11.2054 7.62476C10.8835 7.62476 10.6747 7.44197 10.5442 7.14604C10.3702 6.61509 9.97873 6.27563 9.40454 6.17118V8.40812L9.60464 8.45164C11.1793 8.74758 11.971 9.47002 11.971 10.706C11.971 12.0812 10.8748 12.9255 9.40454 13.0561V13.6654C9.40454 13.9091 9.22185 14.0832 8.98695 14.0832ZM8.57806 8.19923V6.16248C7.89077 6.27563 7.47318 6.68472 7.47318 7.17215C7.47318 7.65957 7.79507 7.97292 8.51716 8.18182L8.57806 8.19923ZM9.40454 9.71373V11.881C10.231 11.7853 10.6399 11.3675 10.6399 10.8017C10.6399 10.2969 10.3528 9.96615 9.56984 9.75725L9.40454 9.71373Z" fill="#11181C"/>
</svg>
