<svg width="12" height="12" viewBox="0 0 12 12" fill="none" xmlns="http://www.w3.org/2000/svg">
<path d="M6 0C3.879 0 3 1.3605 3 3C3 3.552 3.26367 4.10645 3.26367 4.10645C3.15767 4.16695 2.98334 4.36058 3.02734 4.70508C3.10934 5.34658 3.38745 5.50994 3.56445 5.52344C3.63195 6.12194 4.275 6.88752 4.5 6.99902V7.99902C4.4585 8.12452 4.38483 8.22679 4.29883 8.32129C4.71783 8.68279 5.287 8.99902 6 8.99902C6.713 8.99902 7.28217 8.68279 7.70117 8.32129C7.61517 8.22679 7.5415 8.12452 7.5 7.99902V6.99902C7.725 6.88752 8.36805 6.12194 8.43555 5.52344C8.61255 5.50994 8.89066 5.34658 8.97266 4.70508C9.01666 4.36058 8.84233 4.16745 8.73633 4.10645C8.73633 4.10645 9 3.6055 9 3C9 1.786 8.5235 0.75 7.5 0.75C7.5 0.75 7.1445 0 6 0ZM3.38086 8.83594C2.03236 9.29394 0 9.50202 0 11.999H12C12 9.50202 9.96764 9.29394 8.61914 8.83594C8.04914 9.41344 7.182 9.99902 6 9.99902C4.818 9.99902 3.95086 9.41344 3.38086 8.83594Z" fill="#27272A"/>
</svg>
