<svg fill="currentColor" width="15" height="15" viewBox="0 0 15 15" xmlns="http://www.w3.org/2000/svg" >
<path d="M1.95356 13.046H13.1022C13.0462 12.318 12.9342 11.59 12.5982 10.9174C12.3182 10.3574 11.0856 9.90871 9.51689 9.29204L8.9009 9.12404L8.78889 9.01204C8.67689 8.84404 8.5649 8.67671 8.5649 8.50871C8.5089 8.17204 8.50889 7.72337 8.62089 7.33137L8.6769 7.21937L8.78889 7.10737C9.46089 6.37937 9.7969 5.42671 9.6849 4.41804C9.6849 2.90537 8.78889 1.89737 7.55623 1.89737C6.32356 1.89737 5.37156 2.90537 5.37156 4.36204C5.31665 4.85706 5.36819 5.35811 5.52272 5.83159C5.67725 6.30507 5.93121 6.74005 6.26756 7.10737L6.37956 7.33137C6.49156 7.72337 6.54756 8.17137 6.43556 8.56404C6.43556 8.67671 6.32356 8.90004 6.21156 9.01204L6.15556 9.12404L5.53956 9.34871C3.97089 9.90871 2.73823 10.4127 2.40223 10.9727C2.1092 11.6248 1.95589 12.3312 1.95356 13.046ZM13.2709 14.166H1.73023C1.61214 14.1677 1.49493 14.1456 1.3855 14.1012C1.27607 14.0568 1.17664 13.9909 1.09307 13.9075C1.00951 13.824 0.94349 13.7247 0.89892 13.6153C0.854349 13.506 0.832127 13.3888 0.833561 13.2707C0.833561 12.3174 1.05756 11.3654 1.39356 10.4694C1.89823 9.46004 3.24223 8.95604 5.14689 8.28404L5.37156 8.22804V7.77937C4.96148 7.31639 4.65055 6.77433 4.45792 6.18661C4.2653 5.59888 4.19507 4.97794 4.25156 4.36204C4.25089 2.34537 5.5949 0.833374 7.50023 0.833374C9.40556 0.833374 10.7496 2.34537 10.7496 4.41804C10.8616 5.59537 10.4696 6.88337 9.62956 7.77937C9.57355 7.92369 9.57355 8.08373 9.62956 8.22804L9.8529 8.28404C11.7582 8.95671 13.1022 9.46004 13.6062 10.4694V10.5247C13.9989 11.4214 14.1669 12.318 14.1669 13.2707C14.1669 13.774 13.7756 14.166 13.2709 14.166Z"/>
</svg>
