<svg width="18" height="18" viewBox="0 0 18 18" fill="none" xmlns="http://www.w3.org/2000/svg">
<path d="M2.06659 15.9325H16.0024C15.9324 15.0225 15.7924 14.1125 15.3724 13.2716C15.0224 12.5716 13.4816 12.0108 11.5208 11.24L10.7508 11.03L10.6108 10.89C10.4708 10.68 10.3308 10.4708 10.3308 10.2608C10.2608 9.83996 10.2608 9.27913 10.4008 8.78913L10.4708 8.64913L10.6108 8.50913C11.4508 7.59913 11.8708 6.40829 11.7308 5.14746C11.7308 3.25663 10.6108 1.99663 9.06992 1.99663C7.52909 1.99663 6.33909 3.25663 6.33909 5.07746C6.27045 5.69624 6.33487 6.32254 6.52804 6.91439C6.7212 7.50624 7.03864 8.04997 7.45909 8.50913L7.59909 8.78913C7.73909 9.27913 7.80909 9.83913 7.66909 10.33C7.66909 10.4708 7.52909 10.75 7.38909 10.89L7.31909 11.03L6.54909 11.3108C4.58825 12.0108 3.04742 12.6408 2.62742 13.3408C2.26113 14.1559 2.0695 15.0389 2.06659 15.9325ZM16.2133 17.3325H1.78742C1.63981 17.3345 1.4933 17.3069 1.35651 17.2514C1.21973 17.1959 1.09544 17.1136 0.990977 17.0093C0.886516 16.9049 0.803997 16.7808 0.748284 16.6441C0.692571 16.5074 0.664792 16.3609 0.666586 16.2133C0.666586 15.0216 0.946585 13.8316 1.36659 12.7116C1.99742 11.45 3.67742 10.82 6.05825 9.97996L6.33909 9.90996V9.34913C5.82648 8.77039 5.43782 8.09283 5.19704 7.35817C4.95626 6.62351 4.86848 5.84733 4.93909 5.07746C4.93825 2.55663 6.61825 0.666626 8.99992 0.666626C11.3816 0.666626 13.0616 2.55663 13.0616 5.14746C13.2016 6.61913 12.7116 8.22913 11.6616 9.34913C11.5916 9.52952 11.5916 9.72957 11.6616 9.90996L11.9408 9.97996C14.3224 10.8208 16.0024 11.45 16.6324 12.7116V12.7808C17.1233 13.9016 17.3333 15.0225 17.3333 16.2133C17.3333 16.8425 16.8441 17.3325 16.2133 17.3325Z" fill="#1150CB"/>
</svg>
