<svg width="32" height="32" viewBox="0 0 32 32" fill="none" xmlns="http://www.w3.org/2000/svg">
<circle cx="16" cy="16" r="16" fill="#00529C"/>
<path fill-rule="evenodd" clip-rule="evenodd" d="M9.44224 18.0387L8.26293 17.5273L13.1513 16.9314C13.2364 17.073 13.3219 17.2011 13.4215 17.3292L9.44224 18.0387ZM22.5578 18.0387L23.7371 17.4993L18.8772 16.9169C18.8347 17.0735 18.7066 17.2011 18.6216 17.3292L22.5578 18.0387ZM21.8478 18.1247L20.3698 18.6221L18.2668 17.9831L18.0817 17.9266C18.1527 17.869 18.2098 17.812 18.2668 17.7419C18.3519 17.6704 18.4229 17.5708 18.5085 17.4998L21.8478 18.1247ZM25.7555 16.7468L24.4055 17.3722L19.0058 16.7468C19.0483 16.6197 19.0914 16.4916 19.1339 16.3625L25.7555 16.7468ZM26.2383 16.5621L28 15.4394H18.4514C18.4514 15.8381 18.3944 16.1794 18.2668 16.4771C17.8971 17.4287 16.9739 17.8835 16.0498 17.8685C15.1407 17.84 14.217 17.3722 13.8047 16.5041C13.6626 16.1914 13.5776 15.8501 13.5776 15.4389H4L5.7482 16.5616L13.0662 16.1784C13.2078 16.7032 13.4635 17.1585 13.8047 17.4988C14.3876 18.1107 15.2257 18.4514 16.0498 18.4514C16.8598 18.4659 17.6844 18.1682 18.2668 17.5133C18.5795 17.1721 18.8207 16.7313 18.9628 16.2059L26.2383 16.5621ZM18.2668 19.4596L18.4514 19.8019L18.2668 19.8879L17.7695 20.1146L17.2011 18.9918C16.8463 19.1199 16.4481 19.1909 16.0498 19.205C15.6235 19.2195 15.1832 19.1619 14.7994 19.0338L14.3161 20.1146C14.1595 20.1281 13.9463 20.1146 13.8047 20.016C13.7337 19.973 13.6626 19.9014 13.6346 19.8019L13.8047 19.5177L14.217 18.7777C14.0889 18.6936 13.9754 18.6371 13.8618 18.5225L14.203 18.1112C14.7854 18.4669 15.4249 18.6651 16.0498 18.6651C16.6752 18.6796 17.3001 18.4795 17.883 18.0682L18.2673 18.1817L18.4234 18.2393C18.3669 18.2813 18.3238 18.3243 18.2673 18.3674C18.1532 18.48 18.0542 18.594 17.8695 18.6936L18.2668 19.4596ZM18.2668 13.6486C18.6361 14.0894 18.9057 14.6298 19.0483 15.2542H18.4374C18.3949 15.0686 18.3384 14.885 18.2673 14.7149C17.855 13.6351 17.0164 12.8671 16.0503 12.2267C15.9227 12.1561 15.8091 12.071 15.681 12C15.8091 12.043 15.9227 12.0861 16.0503 12.1291C16.9309 12.4828 17.7124 12.9667 18.2668 13.6486ZM16.6182 17.6554C16.7748 17.6269 17.0159 17.5418 17.2011 17.4002L16.2344 15.4819L17.2436 14.9981L16.391 14.2591L16.0498 14.4167L14.5863 15.0831L15.0126 16.0498L15.7091 15.7381L16.6182 17.6554ZM13.9754 17.9261C13.9183 17.883 13.8613 17.8265 13.8047 17.7835C13.6912 17.6849 13.5916 17.5853 13.5205 17.4853L10.1838 18.1157L11.6042 18.5925L13.9754 17.9261ZM13.0662 16.7468C13.0092 16.6197 12.9667 16.4916 12.9236 16.3625L6.24504 16.7468L7.59497 17.4007L13.0662 16.7468Z" fill="white"/>
</svg>
