<svg width="20" height="20" viewBox="0 0 20 20" fill="none" xmlns="http://www.w3.org/2000/svg">
<rect x="0.0625" y="0.0625" width="19.875" height="19.875" rx="9.9375" stroke="black" stroke-opacity="0.4" stroke-width="0.125"/>
<mask id="mask0_3069_49911" style="mask-type:luminance" maskUnits="userSpaceOnUse" x="0" y="0" width="20" height="20">
<path d="M9.9999 19.9998C15.5227 19.9998 19.9998 15.5227 19.9998 9.9999C19.9998 4.47711 15.5227 0 9.9999 0C4.47711 0 0 4.47711 0 9.9999C0 15.5227 4.47711 19.9998 9.9999 19.9998Z" fill="white"/>
</mask>
<g mask="url(#mask0_3069_49911)">
<path d="M40 5.81787H0V6.39392H40V5.81787Z" fill="#0099B5"/>
<path d="M40 0H0V6.39387H40V0Z" fill="#0099B5"/>
<path d="M40 13.606H0V19.9998H40V13.606Z" fill="#1EB53A"/>
<path d="M40 6.39404H0V6.80345H40V6.39404Z" fill="#CE1126"/>
<path d="M40 13.1968H0V13.6062H40V13.1968Z" fill="#CE1126"/>
<path d="M40 6.80322H0V13.1965H40V6.80322Z" fill="white"/>
<path d="M6.04186 5.60577C5.90755 5.62892 5.76885 5.64144 5.62745 5.64144C4.28973 5.64144 3.20459 4.55629 3.20459 3.21858C3.20459 1.88087 4.28973 0.794678 5.62745 0.794678C5.76885 0.794678 5.90755 0.807191 6.04186 0.830342C4.90061 1.02702 4.03341 2.02144 4.03341 3.21858C4.03341 4.41572 4.90061 5.40931 6.04186 5.60598V5.60577Z" fill="white"/>
<path d="M7.04117 4.6416L7.14816 4.97071H7.49395L7.21406 5.17406L7.32106 5.50296L7.04117 5.29961L6.76128 5.50296L6.86827 5.17406L6.58838 4.97071H6.93438L7.04117 4.6416Z" fill="white"/>
<path d="M8.9617 4.6416L9.06869 4.97071H9.41448L9.1346 5.17406L9.24159 5.50296L8.9617 5.29961L8.68181 5.50296L8.7888 5.17406L8.50891 4.97071H8.85491L8.9617 4.6416Z" fill="white"/>
<path d="M10.8822 4.6416L10.9892 4.97071H11.335L11.0551 5.17406L11.1621 5.50296L10.8822 5.29961L10.6023 5.50296L10.7093 5.17406L10.4294 4.97071H10.7754L10.8822 4.6416Z" fill="white"/>
<path d="M12.8026 4.6416L12.9096 4.97071H13.2554L12.9757 5.17406L13.0825 5.50296L12.8026 5.29961L12.5228 5.50296L12.6297 5.17406L12.3499 4.97071H12.6959L12.8026 4.6416Z" fill="white"/>
<path d="M14.7229 4.6416L14.8299 4.97071H15.1757L14.896 5.17406L15.0028 5.50296L14.7229 5.29961L14.4432 5.50296L14.55 5.17406L14.2701 4.97071H14.6161L14.7229 4.6416Z" fill="white"/>
<path d="M8.9617 2.70874L9.06869 3.03764H9.41448L9.1346 3.24099L9.24159 3.56989L8.9617 3.36675L8.68181 3.56989L8.7888 3.24099L8.50891 3.03764H8.85491L8.9617 2.70874Z" fill="white"/>
<path d="M10.8822 2.70874L10.9892 3.03764H11.335L11.0551 3.24099L11.1621 3.56989L10.8822 3.36675L10.6023 3.56989L10.7093 3.24099L10.4294 3.03764H10.7754L10.8822 2.70874Z" fill="white"/>
<path d="M12.8026 2.70874L12.9096 3.03764H13.2554L12.9757 3.24099L13.0825 3.56989L12.8026 3.36675L12.5228 3.56989L12.6297 3.24099L12.3499 3.03764H12.6959L12.8026 2.70874Z" fill="white"/>
<path d="M14.7229 2.70874L14.8299 3.03764H15.1757L14.896 3.24099L15.0028 3.56989L14.7229 3.36675L14.4432 3.56989L14.55 3.24099L14.2701 3.03764H14.6161L14.7229 2.70874Z" fill="white"/>
<path d="M10.8822 0.775879L10.9892 1.10499H11.335L11.0551 1.30834L11.1621 1.63724L10.8822 1.43389L10.6023 1.63724L10.7093 1.30834L10.4294 1.10499H10.7754L10.8822 0.775879Z" fill="white"/>
<path d="M12.8026 0.775879L12.9096 1.10499H13.2554L12.9757 1.30834L13.0825 1.63724L12.8026 1.43389L12.5228 1.63724L12.6297 1.30834L12.3499 1.10499H12.6959L12.8026 0.775879Z" fill="white"/>
<path d="M14.7229 0.775879L14.8299 1.10499H15.1757L14.896 1.30834L15.0028 1.63724L14.7229 1.43389L14.4432 1.63724L14.55 1.30834L14.2701 1.10499H14.6161L14.7229 0.775879Z" fill="white"/>
</g>
</svg>
