<svg width="20" height="21" viewBox="0 0 20 21" fill="none" xmlns="http://www.w3.org/2000/svg">
<path d="M8.125 14.1458L6.71875 17.8958M13.5888 17.8438L11.9315 14.1977M4.375 14.1458C3.33946 14.1458 2.5 13.3064 2.5 12.2708V5.70834C2.5 4.67281 3.33947 3.83334 4.375 3.83334H15.625C16.6605 3.83334 17.5 4.67281 17.5 5.70834V12.2708C17.5 13.3064 16.6605 14.1458 15.625 14.1458H4.375Z" stroke="#7E868C" stroke-width="1.5" stroke-linecap="round" stroke-linejoin="round"/>
<path d="M5.3916 7.16708L6.54371 10.5H7.11977L8.27188 7.16708" stroke="#7E868C" stroke-width="1.16651" stroke-linecap="round" stroke-linejoin="round"/>
<path d="M10 7.16705V10.5" stroke="#7E868C" stroke-width="1.16651" stroke-linecap="round" stroke-linejoin="round"/>
<path d="M12.3042 10.5V7.16705H13.4563C13.7619 7.16705 14.0549 7.2841 14.271 7.49245C14.487 7.70079 14.6084 7.98337 14.6084 8.27802C14.6084 8.57267 14.487 8.85524 14.271 9.06359C14.0549 9.27194 13.7619 9.38899 13.4563 9.38899H12.3042" stroke="#7E868C" stroke-width="1.16651" stroke-linecap="round" stroke-linejoin="round"/>
</svg>
