<svg width="24" height="24" viewBox="0 0 24 24" fill="none" xmlns="http://www.w3.org/2000/svg">
<path d="M9.75 16.375L8.0625 20.875M16.3065 20.8125L14.3178 16.4373M5.25 16.375C4.00736 16.375 3 15.3676 3 14.125V6.25C3 5.00736 4.00736 4 5.25 4H18.75C19.9926 4 21 5.00736 21 6.25V14.125C21 15.3676 19.9926 16.375 18.75 16.375H5.25Z" stroke="#1150CB" stroke-width="1.5" stroke-linecap="round" stroke-linejoin="round"/>
<path d="M6.46989 8.00049L7.85243 12H8.5437L9.92623 8.00049" stroke="#1150CB" stroke-linecap="round" stroke-linejoin="round"/>
<path d="M12 8.00049V12" stroke="#1150CB" stroke-linecap="round" stroke-linejoin="round"/>
<path d="M14.765 12V8.00049H16.1476C16.5143 8.00049 16.8659 8.14095 17.1252 8.39096C17.3845 8.64098 17.5301 8.98007 17.5301 9.33365C17.5301 9.68722 17.3845 10.0263 17.1252 10.2763C16.8659 10.5263 16.5143 10.6668 16.1476 10.6668H14.765" stroke="#1150CB" stroke-linecap="round" stroke-linejoin="round"/>
</svg>
