<svg width="62" height="32" viewBox="0 0 62 32" fill="none" xmlns="http://www.w3.org/2000/svg">
<circle cx="16" cy="16" r="16" fill="#1434CB"/>
<path d="M15.8832 12.2462L14.2798 19.7424H12.3404L13.944 12.2462H15.8832ZM24.0422 17.0866L25.063 14.2716L25.6504 17.0866H24.0422ZM26.2067 19.7424H28L26.4334 12.2462H24.7792C24.4064 12.2462 24.0921 12.4624 23.953 12.7957L21.0431 19.7424H23.0799L23.4842 18.6229H25.9719L26.2067 19.7424ZM21.1441 17.2952C21.1526 15.3168 18.4092 15.2072 18.4276 14.3232C18.4335 14.0546 18.6898 13.7685 19.2499 13.6954C19.5276 13.6596 20.2939 13.6306 21.1625 14.0309L21.5022 12.4406C21.0357 12.2718 20.4353 12.1093 19.6883 12.1093C17.7711 12.1093 16.4224 13.1277 16.4116 14.5871C16.3993 15.6663 17.375 16.2681 18.1086 16.6275C18.865 16.9949 19.1184 17.2304 19.1147 17.5587C19.1094 18.0616 18.5116 18.2844 17.9549 18.2928C16.9793 18.308 16.4138 18.0291 15.9632 17.819L15.6111 19.4624C16.065 19.6701 16.9013 19.8508 17.7672 19.8601C19.8054 19.8601 21.1381 18.8537 21.1441 17.2952ZM13.1121 12.2462L9.96986 19.7424H7.92017L6.37375 13.7599C6.28001 13.392 6.19823 13.2568 5.91313 13.1014C5.44678 12.8481 4.67694 12.6112 4 12.4639L4.04586 12.2462H7.34574C7.76606 12.2462 8.14424 12.5259 8.24051 13.0102L9.05739 17.3483L11.0747 12.2462H13.1121Z" fill="#FAFAFA"/>
<circle cx="46" cy="16" r="15.6667" fill="black" stroke="white" stroke-width="0.666667"/>
<path d="M49.2451 10.179H42.7554V21.8412H49.2451V10.179Z" fill="#FF5F00"/>
<path d="M43.1674 16.0105C43.1663 14.8873 43.4209 13.7787 43.9116 12.7684C44.4024 11.7582 45.1166 10.8728 46.0001 10.1794C44.906 9.31939 43.592 8.78456 42.2083 8.63605C40.8246 8.48753 39.427 8.73132 38.1753 9.33955C36.9236 9.94778 35.8682 10.8959 35.1299 12.0756C34.3915 13.2552 34 14.6188 34 16.0105C34 17.4021 34.3915 18.7657 35.1299 19.9454C35.8682 21.125 36.9236 22.0732 38.1753 22.6814C39.427 23.2896 40.8246 23.5334 42.2083 23.3849C43.592 23.2364 44.906 22.7016 46.0001 21.8416C45.1166 21.1481 44.4024 20.2628 43.9117 19.2525C43.4209 18.2423 43.1664 17.1336 43.1674 16.0105V16.0105Z" fill="#EB001B"/>
<path d="M58 16.0105C58.0001 17.4021 57.6086 18.7657 56.8703 19.9454C56.132 21.125 55.0767 22.0732 53.825 22.6814C52.5733 23.2896 51.1757 23.5334 49.792 23.3849C48.4083 23.2364 47.0943 22.7016 46.0002 21.8416C46.883 21.1474 47.5966 20.2619 48.0873 19.2518C48.578 18.2418 48.833 17.1334 48.833 16.0105C48.833 14.8875 48.578 13.7792 48.0873 12.7691C47.5966 11.759 46.883 10.8735 46.0002 10.1794C47.0943 9.31939 48.4083 8.78456 49.792 8.63605C51.1757 8.48753 52.5733 8.73133 53.825 9.33956C55.0767 9.9478 56.132 10.8959 56.8703 12.0756C57.6086 13.2552 58.0001 14.6188 58 16.0105V16.0105Z" fill="#F79E1B"/>
<path d="M57.2925 20.6061V20.3674H57.3887V20.3187H57.1436V20.3674H57.2399V20.6061H57.2925ZM57.7685 20.6061V20.3182H57.6933L57.6069 20.5162L57.5204 20.3182H57.4452V20.6061H57.4983V20.389L57.5794 20.5762H57.6344L57.7155 20.3885V20.6061H57.7685Z" fill="#F79E1B"/>
</svg>
