<svg width="48" height="48" viewBox="0 0 48 48" fill="none" xmlns="http://www.w3.org/2000/svg">
<g clip-path="url(#clip0_691_25090)">
<path d="M46.5487 12.1733C45.2897 7.53457 40.4653 2.71113 35.8266 1.45113C32.9822 0.742378 29.1722 0.0120654 24 -0.00012207C18.8278 0.0130029 15.0178 0.742378 12.1734 1.45207C7.53563 2.71113 2.71125 7.53457 1.45125 12.1733C0.7425 15.0177 0.0121875 18.8277 0 23.9999C0.013125 29.1721 0.7425 32.9821 1.45219 35.8264C2.71219 40.4652 7.53562 45.2886 12.1744 46.5486C15.0188 47.2583 18.8288 47.9877 24.0009 48.0008C29.1722 47.9877 32.9831 47.2583 35.8275 46.5486C40.4663 45.2886 45.2897 40.4652 46.5497 35.8264C47.2594 32.983 47.9888 29.1721 48.0019 23.9999C47.9888 18.8277 47.2594 15.0177 46.5497 12.1733H46.5487Z" fill="#DFF8FF"/>
<path d="M41.6884 34.3321C40.7003 32.684 36.9156 30.9693 33.2772 30.5221C31.0459 30.2699 28.0572 30.0102 23.9997 30.0065C19.9422 30.0112 16.9525 30.2699 14.7222 30.5221C11.0837 30.9702 7.29906 32.684 6.31094 34.3321C5.75406 35.3427 5.18219 36.6965 5.17188 38.5349C5.18219 40.3724 5.75406 41.7271 6.31094 42.7377C7.29906 44.3858 11.0837 46.1005 14.7222 46.5477C16.9534 46.7999 19.9431 47.0596 23.9997 47.0633C28.0572 47.0587 31.0459 46.799 33.2772 46.5477C36.9166 46.1005 40.7003 44.3858 41.6884 42.7377C42.2444 41.7271 42.8172 40.3733 42.8275 38.5349C42.8172 36.6974 42.2444 35.3427 41.6884 34.3321Z" fill="url(#paint0_radial_691_25090)"/>
<path d="M33.0827 14.3155C32.2952 12.0899 30.2898 10.318 28.0052 10.0255C26.3992 9.82489 24.2064 9.66083 21.2092 9.70114C18.212 9.74614 16.0164 9.97208 14.4048 10.2158C11.7433 10.6358 9.36578 12.9768 8.90922 15.6571C8.90922 15.6571 8.20422 19.4399 8.06641 24.5333H33.8645C33.8645 24.5333 33.8645 17.788 33.0817 14.3155H33.0827Z" fill="url(#paint1_linear_691_25090)"/>
<path d="M39.668 20.6839C39.3643 18.3149 37.2539 16.3096 34.7846 15.9814C30.4327 15.5502 24.0024 15.5146 24.0014 15.5296C21.2199 15.5005 14.7089 15.7668 13.2174 15.9814C11.7071 16.1764 10.3421 17.0089 9.42895 18.1555C9.42895 18.1555 9.42895 18.1555 9.42895 18.1574C8.84582 18.8924 8.4502 19.7558 8.33395 20.6849C8.15676 22.1174 8.01707 24.0739 8.08832 26.7514C8.16426 29.4289 8.40989 31.3893 8.6602 32.8274C9.09239 35.2058 11.2327 37.2946 13.6139 37.6939C15.0568 37.9696 21.3249 38.3511 24.0014 38.3024C26.678 38.3511 32.9461 37.9696 34.3889 37.6939C36.7702 37.2936 38.9096 35.2049 39.3427 32.8274C39.5939 31.3902 39.8396 29.4289 39.9146 26.7514C39.9858 24.0739 39.8461 22.1174 39.6689 20.6849L39.668 20.6839Z" fill="url(#paint2_linear_691_25090)"/>
<path d="M34.3729 29.1224C33.1541 29.1224 32.166 28.1342 32.166 26.9155C32.166 25.6967 33.1541 24.7086 34.3729 24.7086C35.5916 24.7086 36.5798 25.6967 36.5798 26.9155C36.5798 28.1342 35.5916 29.1224 34.3729 29.1224Z" fill="url(#paint3_linear_691_25090)"/>
</g>
<defs>
<radialGradient id="paint0_radial_691_25090" cx="0" cy="0" r="1" gradientUnits="userSpaceOnUse" gradientTransform="translate(23.9997 39.6962) scale(18.8278 8.47252)">
<stop stop-color="#1EB4EB" stop-opacity="0.6"/>
<stop offset="1" stop-color="#1EB4EB" stop-opacity="0"/>
</radialGradient>
<linearGradient id="paint1_linear_691_25090" x1="30.0058" y1="28.393" x2="12.2664" y2="10.6536" gradientUnits="userSpaceOnUse">
<stop stop-color="#34344F"/>
<stop offset="0.54" stop-color="#353551"/>
<stop offset="1" stop-color="#666684"/>
</linearGradient>
<linearGradient id="paint2_linear_691_25090" x1="35.5177" y1="38.0793" x2="12.4843" y2="15.0458" gradientUnits="userSpaceOnUse">
<stop stop-color="#1EB4EB"/>
<stop offset="0.54" stop-color="#1EB4EB"/>
<stop offset="1" stop-color="#92F4FE"/>
</linearGradient>
<linearGradient id="paint3_linear_691_25090" x1="35.9329" y1="28.4764" x2="32.8129" y2="25.3555" gradientUnits="userSpaceOnUse">
<stop stop-color="#BCE4ED"/>
<stop offset="0.57" stop-color="white"/>
<stop offset="1" stop-color="white"/>
</linearGradient>
<clipPath id="clip0_691_25090">
<rect width="48" height="48" fill="white"/>
</clipPath>
</defs>
</svg>
