<svg width="24" height="25" viewBox="0 0 24 25" fill="none" xmlns="http://www.w3.org/2000/svg">
<path d="M4.99986 10.0299C4.64276 10.3215 4.19589 10.4807 3.73486 10.4807C3.27382 10.4807 2.82695 10.3215 2.46986 10.0299L2.21986 9.82987C1.99512 9.64216 1.81435 9.4074 1.6903 9.14216C1.56625 8.87692 1.50195 8.58768 1.50195 8.29487C1.50195 8.00206 1.56625 7.71282 1.6903 7.44758C1.81435 7.18234 1.99512 6.94758 2.21986 6.75987C4.97436 4.50524 8.44089 3.30365 11.9999 3.36987C15.572 3.30213 19.0496 4.51932 21.7999 6.79987C22.0211 6.98762 22.1989 7.22128 22.3208 7.48462C22.4427 7.74796 22.5059 8.03468 22.5059 8.32487C22.5059 8.61506 22.4427 8.90178 22.3208 9.16512C22.1989 9.42846 22.0211 9.66212 21.7999 9.84987C21.7199 9.92987 21.6299 9.98987 21.5499 10.0599C21.1928 10.3515 20.7459 10.5107 20.2849 10.5107C19.8238 10.5107 19.377 10.3515 19.0199 10.0599C17.0416 8.46435 14.5605 7.6243 12.0199 7.68987C9.47616 7.61105 6.98752 8.44059 4.99986 10.0299Z" stroke="#3E3AFF" stroke-width="1.5" stroke-linecap="round" stroke-linejoin="round"/>
<path d="M9.76021 15.0399C9.42478 15.2359 9.03779 15.3256 8.65035 15.297C8.26292 15.2684 7.89326 15.123 7.59021 14.8799C7.34721 14.6754 7.15641 14.416 7.03358 14.1232C6.91075 13.8303 6.85943 13.5124 6.88386 13.1958C6.90829 12.8791 7.00777 12.5729 7.17408 12.3023C7.34038 12.0318 7.56872 11.8047 7.84021 11.6399C9.1125 10.9344 10.5454 10.5692 12.0002 10.5799C13.4584 10.5671 14.8951 10.9323 16.1702 11.6399C16.441 11.8056 16.6685 12.0333 16.8339 12.3043C16.9993 12.5753 17.0978 12.8818 17.1212 13.1984C17.1447 13.515 17.0924 13.8326 16.9688 14.125C16.8451 14.4174 16.6537 14.6762 16.4102 14.8799L16.2902 14.9799C16.0132 15.2106 15.6697 15.3467 15.3099 15.3683C14.9501 15.3899 14.5928 15.2958 14.2902 15.0999C13.5939 14.6996 12.8033 14.4924 12.0002 14.4999C11.2198 14.487 10.449 14.6728 9.76021 15.0399Z" stroke="#3E3AFF" stroke-width="1.5" stroke-linecap="round" stroke-linejoin="round"/>
<path d="M12.0002 21.6299C13.1324 21.6299 14.0502 20.7121 14.0502 19.5799C14.0502 18.4477 13.1324 17.5299 12.0002 17.5299C10.868 17.5299 9.9502 18.4477 9.9502 19.5799C9.9502 20.7121 10.868 21.6299 12.0002 21.6299Z" stroke="#3E3AFF" stroke-width="1.5" stroke-linecap="round" stroke-linejoin="round"/>
</svg>
