<svg width="180" height="120" viewBox="0 0 180 120" fill="none" xmlns="http://www.w3.org/2000/svg">
<g clip-path="url(#clip0_53_4170)">
<path d="M33.1895 92.6433C30.2702 90.764 24.2773 86.7817 23.6068 80.2841C22.8662 73.1101 28.8412 65.0768 35.2823 62.7672C40.1974 61.0049 42.6204 63.5659 45.5261 61.5093C50.2233 58.1847 45.3096 49.0232 48.5003 38.3632C51.1946 29.3607 58.7546 21.4245 66.8951 19.62C73.6448 18.1236 79.2134 21.1935 89.3652 26.7902C102.236 33.886 96.4995 19.62 110.5 15.5C124 11.5272 123.067 31.4569 132.323 32.0733C141.607 32.6921 150.336 41.3052 154.132 51.3196C159.843 66.3841 154.282 84.6892 144.77 91.196C139.295 94.9412 134.871 93.1627 121.253 92.4539C113.603 92.0557 104.037 92.7546 84.9045 94.1522C54.6285 96.3645 45.1814 100.364 33.1895 92.6433Z" fill="#F0F2FF"/>
<path d="M71.5496 97.1172C90.0107 97.1172 104.976 95.9425 104.976 94.4934C104.976 93.0443 90.0107 91.8696 71.5496 91.8696C53.0885 91.8696 38.1228 93.0443 38.1228 94.4934C38.1228 95.9425 53.0885 97.1172 71.5496 97.1172Z" fill="url(#paint0_linear_53_4170)"/>
<path d="M116.442 96.8893C128.949 96.8893 139.088 95.7656 139.088 94.3794C139.088 92.9933 128.949 91.8696 116.442 91.8696C103.935 91.8696 93.7959 92.9933 93.7959 94.3794C93.7959 95.7656 103.935 96.8893 116.442 96.8893Z" fill="url(#paint1_linear_53_4170)"/>
<path d="M129.998 32.4312C129.293 32.4311 128.588 32.4858 127.891 32.5947H127.889C127.713 32.6225 127.538 32.6538 127.364 32.6886H127.361C127.281 32.7043 127.202 32.7208 127.123 32.7381L127.086 32.746C127.005 32.7639 126.923 32.7824 126.842 32.8014C126.402 32.9063 125.967 33.0337 125.54 33.1831C125.492 33.1994 125.446 33.2163 125.398 33.2332C125.257 33.2833 125.116 33.3369 124.979 33.3926L124.84 33.4486C124.564 33.562 124.293 33.6844 124.026 33.816C123.982 33.8379 123.937 33.8601 123.893 33.8824L123.761 33.95L123.63 34.0192C123.587 34.0424 123.543 34.0659 123.5 34.0897C123.327 34.184 123.156 34.2824 122.988 34.3849C122.945 34.4103 122.903 34.4363 122.862 34.4623C122.821 34.4883 122.779 34.5146 122.737 34.5409C122.695 34.5672 122.655 34.5938 122.612 34.6207C122.569 34.6477 122.53 34.6746 122.489 34.7018C122.448 34.7291 122.407 34.7563 122.367 34.7845L122.25 34.8647L122.238 34.8731C122.2 34.8994 122.163 34.9264 122.125 34.9533C121.966 35.0673 121.809 35.1848 121.656 35.3059C121.578 35.366 121.502 35.4273 121.426 35.4897C121.388 35.521 121.35 35.5523 121.313 35.5837C121.275 35.615 121.238 35.6463 121.201 35.6776C121.163 35.7089 121.126 35.7402 121.089 35.7741C121.053 35.8079 121.016 35.8386 120.979 35.8711C120.943 35.9037 120.906 35.9369 120.87 35.9698C120.834 36.0026 120.798 36.0358 120.762 36.0693C120.655 36.1693 120.549 36.2712 120.445 36.375C120.375 36.4439 120.307 36.5137 120.239 36.5845C120.208 36.6158 120.176 36.649 120.145 36.6819L120.124 36.7041C120.095 36.7354 120.065 36.7667 120.037 36.798C120.005 36.8319 119.974 36.8663 119.943 36.9004L119.925 36.9192L119.839 37.016C119.709 37.1632 119.583 37.3128 119.46 37.465C119.431 37.5007 119.403 37.5364 119.374 37.5721L119.367 37.5818C119.336 37.6194 119.307 37.6576 119.278 37.6958C119.248 37.734 119.218 37.7735 119.188 37.8126C119.159 37.8518 119.131 37.8884 119.103 37.9266L119.098 37.9332C119.069 37.9718 119.041 38.0105 119.013 38.0494C118.984 38.0891 118.956 38.1289 118.928 38.1693C118.757 38.4108 118.594 38.6579 118.439 38.9105C118.418 38.9453 118.397 38.98 118.377 39.0148L118.354 39.053C118.34 39.0765 118.326 39.1 118.312 39.1237C118.293 39.1551 118.274 39.1889 118.255 39.2218L118.244 39.2406C118.228 39.2684 118.213 39.2963 118.197 39.3245C118.18 39.3527 118.162 39.3871 118.144 39.4184L118.142 39.4212L118.077 39.5409C118.07 39.554 118.063 39.5672 118.056 39.5803L118.003 39.6796C117.957 39.7673 117.912 39.8554 117.868 39.9439C117.848 39.9843 117.828 40.0253 117.808 40.066C117.806 40.0704 117.803 40.0751 117.801 40.0795C117.79 40.102 117.78 40.1242 117.77 40.1468C117.755 40.1781 117.741 40.2094 117.726 40.2389C117.708 40.278 117.69 40.3175 117.672 40.3572C117.657 40.3883 117.643 40.4196 117.63 40.4512C117.618 40.4768 117.606 40.5025 117.595 40.5285L117.58 40.5633C117.564 40.5993 117.548 40.6353 117.533 40.6713L117.508 40.7317L117.48 40.7988C117.469 40.826 117.457 40.8526 117.447 40.8795C117.44 40.8961 117.433 40.9124 117.427 40.9287C117.413 40.9632 117.399 40.9976 117.386 41.0324C117.341 41.147 117.297 41.2624 117.256 41.3787C117.244 41.41 117.233 41.4391 117.222 41.4698C117.221 41.4754 117.219 41.481 117.217 41.4864C117.201 41.5324 117.185 41.5779 117.17 41.6242C117.154 41.6705 117.14 41.7109 117.126 41.7545C117.116 41.7858 117.106 41.8171 117.095 41.8484C117.089 41.8672 117.083 41.886 117.077 41.9048C117.068 41.933 117.059 41.9611 117.051 41.9893C117.044 42.0112 117.037 42.0332 117.03 42.0554C117.022 42.0833 117.014 42.1111 117.006 42.139C116.998 42.1669 116.989 42.1957 116.981 42.2245C116.968 42.2677 116.956 42.3112 116.944 42.3548C116.934 42.3892 116.925 42.4237 116.916 42.4584C116.864 42.6538 116.815 42.8509 116.771 43.0496C116.761 43.0988 116.75 43.1483 116.74 43.1977C116.732 43.2366 116.724 43.276 116.716 43.3152C116.712 43.3368 116.708 43.3581 116.704 43.38C116.7 43.4019 116.696 43.4179 116.693 43.4367C116.686 43.4696 116.68 43.5027 116.674 43.5356L116.655 43.6468C116.655 43.6468 116.655 43.6487 116.655 43.6499C116.647 43.6916 116.64 43.7335 116.633 43.7752C116.628 43.8065 116.624 43.8353 116.619 43.8651C116.616 43.8851 116.613 43.9048 116.61 43.9249C116.602 43.9725 116.596 44.0207 116.589 44.0686L116.587 44.0802C116.579 44.1355 116.572 44.1912 116.565 44.2474C116.548 44.3783 116.533 44.5098 116.521 44.642C116.517 44.6752 116.514 44.7084 116.511 44.7419L116.508 44.7835C116.503 44.8305 116.499 44.8774 116.496 44.9247C116.495 44.9311 116.495 44.9374 116.495 44.9438C116.491 44.9883 116.488 45.0328 116.485 45.0772C116.485 45.0941 116.483 45.1107 116.482 45.1273C116.479 45.168 116.477 45.2084 116.475 45.2488C116.475 45.2648 116.473 45.2801 116.473 45.2964C116.471 45.3325 116.469 45.3686 116.468 45.4045C116.468 45.4267 116.466 45.4489 116.465 45.4715C116.465 45.5138 116.462 45.5557 116.461 45.5967C116.461 45.6068 116.461 45.6171 116.461 45.6281C116.461 45.6841 116.459 45.7402 116.458 45.7962C116.457 45.8523 116.458 45.9127 116.458 45.9713C116.458 51.7582 124.565 62.3174 128.234 66.8009C128.324 66.9111 128.424 67.0126 128.533 67.1041C128.559 67.126 128.584 67.1467 128.61 67.1667C128.644 67.193 128.679 67.218 128.714 67.2422C128.743 67.2616 128.771 67.2801 128.8 67.2976C128.814 67.3064 128.827 67.3145 128.841 67.322C128.87 67.3399 128.9 67.3565 128.93 67.3724C129.041 67.4309 129.156 67.4801 129.275 67.5196L129.315 67.5324L129.351 67.5434C129.38 67.5522 129.408 67.56 129.438 67.5672L129.467 67.5744C129.502 67.5829 129.537 67.5904 129.573 67.5973C129.652 67.6119 129.731 67.6224 129.811 67.6286H129.821C129.894 67.6345 129.967 67.6367 130.04 67.6352H130.046C130.089 67.6352 130.132 67.6323 130.175 67.6289C130.206 67.6264 130.238 67.6229 130.271 67.6192C130.286 67.6192 130.302 67.6154 130.317 67.6132L130.348 67.6092C130.905 67.5255 131.411 67.237 131.767 66.8C135.434 62.3205 143.54 51.7603 143.54 45.9734C143.54 38.4943 137.477 32.4312 129.998 32.4312ZM133.4 52.7195C132.345 53.2523 131.18 53.5291 129.998 53.5274C125.827 53.5274 122.445 50.1455 122.445 45.9744C122.445 42.3303 125.026 39.2894 128.457 38.5789C128.964 38.4743 129.479 38.4218 129.996 38.4223C134.168 38.4223 137.55 41.8043 137.55 45.975C137.55 47.3731 137.162 48.7439 136.43 49.9346C135.697 51.1254 134.648 52.0895 133.4 52.7195Z" fill="url(#paint2_linear_53_4170)"/>
<path d="M127.308 70.4057C126.842 70.0544 126.222 69.8916 125.607 69.9608L120.417 70.5416C119.347 70.6613 118.538 71.4498 118.538 72.3782V73.6687H119.728V72.3782C119.728 71.9627 120.089 71.6088 120.569 71.5553L125.761 70.9757C126.031 70.9418 126.304 71.0133 126.523 71.1751C126.735 71.3348 126.851 71.5562 126.851 71.7986V72.986H128.041V71.7986C128.041 71.2647 127.774 70.7565 127.308 70.4057Z" fill="url(#paint3_linear_53_4170)"/>
<path d="M137.964 73.1811L131.644 72.1969L131.242 94.7592L136.883 93.057C137.299 92.9984 137.61 92.6987 137.631 92.3368L138.696 73.974C138.718 73.5898 138.405 73.25 137.964 73.1811Z" fill="url(#paint4_linear_53_4170)"/>
<path d="M111.704 73.6577C110.983 73.7104 110.451 74.2527 110.508 74.8702L110.201 90.2556L110.158 92.385C110.208 92.9126 110.678 93.3398 111.288 93.4112L131.241 94.7599L131.644 72.1969L128.701 72.4124L111.704 73.6577Z" fill="url(#paint5_linear_53_4170)"/>
<path d="M124.803 88.5117C121.705 89.8895 114.579 90.2002 110.201 90.2556L110.158 92.385C110.208 92.9126 110.678 93.3398 111.288 93.4112L131.241 94.7599L131.644 72.1969L128.701 72.4124C128.762 76.2518 128.58 86.8329 124.803 88.5117Z" fill="url(#paint6_linear_53_4170)"/>
<path d="M134.445 93.0939C134.442 93.2536 134.607 93.3757 134.79 93.351C134.931 93.3313 135.036 93.2279 135.04 93.1049C135.155 88.4431 135.47 76.5797 135.57 72.8078L134.978 72.7139C134.878 76.43 134.561 88.3889 134.445 93.0939Z" fill="url(#paint7_linear_53_4170)"/>
<path d="M96.5136 24.5905L62.9997 24.63C62.6592 24.6304 62.322 24.6978 62.0075 24.8285C61.693 24.9592 61.4073 25.1506 61.1667 25.3917C60.9262 25.6328 60.7355 25.919 60.6056 26.2338C60.4756 26.5486 60.409 26.886 60.4094 27.2266L60.4827 91.3834C60.4831 91.724 60.5505 92.0612 60.6812 92.3757C60.8119 92.6902 61.0032 92.9759 61.2443 93.2165C61.4854 93.457 61.7715 93.6477 62.0863 93.7777C62.4011 93.9077 62.7384 93.9744 63.079 93.9741L96.5913 93.9355C96.9319 93.9352 97.269 93.8677 97.5835 93.7371C97.8981 93.6064 98.1838 93.415 98.4243 93.1739C98.6649 92.9329 98.8556 92.6468 98.9856 92.332C99.1156 92.0172 99.1823 91.6798 99.1819 91.3393L99.1087 27.1821C99.1081 26.4944 98.8344 25.835 98.3477 25.349C97.8611 24.863 97.2014 24.5902 96.5136 24.5905Z" fill="url(#paint8_linear_53_4170)"/>
<path d="M99.2165 24.5877L65.7038 24.6259C65.016 24.6268 64.3568 24.9009 63.871 25.3878C63.3852 25.8747 63.1128 26.5347 63.1135 27.2225L63.1868 91.3793C63.1872 91.7199 63.2546 92.0571 63.3853 92.3716C63.516 92.6861 63.7073 92.9718 63.9484 93.2123C64.1895 93.4529 64.4756 93.6436 64.7904 93.7736C65.1052 93.9036 65.4425 93.9703 65.7831 93.97L99.2957 93.9318C99.9835 93.9308 100.643 93.6568 101.129 93.1698C101.614 92.6829 101.887 92.023 101.886 91.3352L101.813 27.1783C101.812 26.8377 101.745 26.5006 101.614 26.1861C101.484 25.8715 101.292 25.5859 101.051 25.3453C100.81 25.1047 100.524 24.914 100.209 24.784C99.8944 24.654 99.557 24.5873 99.2165 24.5877Z" fill="url(#paint9_linear_53_4170)"/>
<path d="M99.6001 28.3435L64.7707 28.3833C64.7339 28.3838 64.6975 28.3916 64.6637 28.4063C64.6298 28.4209 64.5992 28.4421 64.5736 28.4686C64.548 28.4951 64.5279 28.5264 64.5144 28.5608C64.501 28.5951 64.4944 28.6317 64.4952 28.6686L64.5625 87.7274C64.5612 87.8021 64.5897 87.8742 64.6415 87.9279C64.6933 87.9816 64.7644 88.0126 64.839 88.014L99.669 87.9736C99.7437 87.972 99.8146 87.9409 99.8664 87.8871C99.9181 87.8332 99.9463 87.7611 99.9449 87.6864L99.8773 28.6275C99.8778 28.5907 99.8711 28.554 99.8575 28.5198C99.8438 28.4855 99.8236 28.4543 99.7978 28.4279C99.772 28.4015 99.7413 28.3804 99.7074 28.3659C99.6735 28.3515 99.637 28.3438 99.6001 28.3435Z" fill="#F0F2FF"/>
<path opacity="0.49" d="M85.6752 89.4367L80.8841 89.4423C80.6928 89.4397 80.5028 89.4752 80.3253 89.5466C80.1478 89.6181 79.9863 89.7242 79.8501 89.8586C79.714 89.9931 79.6059 90.1533 79.5322 90.3299C79.4585 90.5065 79.4207 90.696 79.4209 90.8873C79.4211 91.0787 79.4594 91.2681 79.5334 91.4445C79.6075 91.621 79.7159 91.7809 79.8524 91.9151C79.9888 92.0493 80.1506 92.155 80.3282 92.2261C80.5059 92.2971 80.6959 92.3322 80.8873 92.3292L85.6784 92.3239C85.8679 92.3237 86.0556 92.2861 86.2307 92.2134C86.4057 92.1406 86.5648 92.0341 86.6987 91.8999C86.8326 91.7657 86.9387 91.6065 87.0111 91.4313C87.0835 91.256 87.1206 91.0683 87.1204 90.8787C87.1202 90.6891 87.0826 90.5014 87.0099 90.3264C86.9372 90.1513 86.8306 89.9923 86.6965 89.8584C86.5623 89.7245 86.403 89.6183 86.2278 89.546C86.0526 89.4736 85.8648 89.4365 85.6752 89.4367Z" fill="url(#paint10_linear_53_4170)"/>
<path d="M84.8741 89.4384L81.0941 89.4428C80.465 89.4428 79.9558 90.0894 79.9568 90.8857C79.9577 91.6821 80.4685 92.3262 81.0973 92.3262L84.8775 92.3218C85.5066 92.3218 86.0155 91.6752 86.0149 90.8788C86.0142 90.0825 85.5032 89.4378 84.8741 89.4384Z" fill="#F0F2FF"/>
<path d="M88.1903 26.0877L76.733 26.1009C76.1784 26.1009 75.7779 26.5484 75.8374 27.0901L76.035 28.8853C76.0901 29.3864 76.5567 29.7866 77.0784 29.7859L87.8533 29.7737C88.375 29.7737 88.841 29.3723 88.8949 28.8706L89.0884 27.0748C89.1473 26.533 88.7449 26.0871 88.1903 26.0877Z" fill="url(#paint11_linear_53_4170)"/>
<path d="M84.6573 27.5841H78.3318C78.1881 27.5841 78.0503 27.6412 77.9487 27.7428C77.8471 27.8444 77.79 27.9821 77.79 28.1258C77.79 28.2695 77.8471 28.4073 77.9487 28.5089C78.0503 28.6105 78.1881 28.6676 78.3318 28.6676H84.6573C84.801 28.6676 84.9387 28.6105 85.0403 28.5089C85.1419 28.4073 85.199 28.2695 85.199 28.1258C85.199 27.9821 85.1419 27.8444 85.0403 27.7428C84.9387 27.6412 84.801 27.5841 84.6573 27.5841ZM86.962 27.5027C86.8388 27.5027 86.7183 27.5392 86.6158 27.6077C86.5133 27.6762 86.4335 27.7735 86.3863 27.8874C86.3391 28.0012 86.3268 28.1265 86.3508 28.2474C86.3749 28.3683 86.4342 28.4793 86.5214 28.5665C86.6085 28.6536 86.7196 28.713 86.8404 28.737C86.9613 28.7611 87.0866 28.7487 87.2005 28.7015C87.3144 28.6544 87.4117 28.5745 87.4802 28.472C87.5486 28.3696 87.5852 28.2491 87.5852 28.1258C87.5852 27.9606 87.5195 27.8021 87.4027 27.6852C87.2858 27.5683 87.1273 27.5027 86.962 27.5027Z" fill="url(#paint12_linear_53_4170)"/>
<path d="M82.3118 32.5598C77.3754 32.5598 72.9673 34.821 70.0679 38.3642C67.7578 41.1897 66.4958 44.727 66.4958 48.3767C66.4958 52.0263 67.7578 55.5636 70.0679 58.3891C72.9682 61.932 77.3767 64.1935 82.3118 64.1935C87.247 64.1935 91.6563 61.932 94.5557 58.3888C96.8656 55.5634 98.1274 52.0262 98.1274 48.3768C98.1274 44.7274 96.8656 41.1902 94.5557 38.3648C91.6563 34.8213 87.2482 32.5598 82.3118 32.5598Z" fill="white"/>
<path d="M70.0664 58.0617C71.549 59.8773 73.4168 61.3406 75.5346 62.3454C77.6524 63.3503 79.9672 63.8716 82.3113 63.8716C84.6553 63.8716 86.9701 63.3503 89.0879 62.3454C91.2057 61.3406 93.0735 59.8773 94.5561 58.0617V25.9569H70.0664V58.0617Z" fill="url(#paint13_linear_53_4170)"/>
<path d="M94.5561 40.3697H70.0664V40.8867H94.5561V40.3697Z" fill="url(#paint14_linear_53_4170)"/>
<path d="M94.5561 51.7931H70.0664V52.3101H94.5561V51.7931Z" fill="url(#paint15_linear_53_4170)"/>
<path d="M86.5026 54.4682H77.7869V62.7011H86.5026V54.4682Z" fill="url(#paint16_linear_53_4170)"/>
<path d="M81.2525 55.337H78.6675V58.5843H81.2525V55.337Z" fill="#E4E7FF"/>
<path d="M85.6314 55.337H83.0464V58.5843H85.6314V55.337Z" fill="#E4E7FF"/>
<path d="M87.4755 53.4189H76.9636V54.4679H87.4755V53.4189Z" fill="url(#paint17_linear_53_4170)"/>
<path d="M87.0793 62.5985H77.2109V63.3504H87.0793V62.5985Z" fill="url(#paint18_linear_53_4170)"/>
<path d="M82.3116 64.1938C84.0492 64.1957 85.7753 63.9109 87.4202 63.3508H77.2026C78.8477 63.9109 80.5738 64.1958 82.3116 64.1938Z" fill="url(#paint19_linear_53_4170)"/>
<path d="M87.0793 63.1024H77.2109V63.3504H87.0793V63.1024Z" fill="url(#paint20_linear_53_4170)"/>
<path d="M78.3657 42.999H74.8083V47.6476H78.3657V42.999Z" fill="url(#paint21_linear_53_4170)" fill-opacity="0.3"/>
<path d="M74.6958 46.7937L74.9804 47.5327L77.4552 43.1594L76.8433 42.999L74.6958 46.7937Z" fill="white"/>
<path d="M74.9951 48.418L75.3343 48.6466L78.5076 43.0391L78.1685 42.8105L74.9951 48.418Z" fill="white"/>
<path d="M74.6216 47.8706H78.5525V42.8105H74.6216V47.8706ZM74.9952 43.2574H78.1789V47.4241H74.9952V43.2574Z" fill="url(#paint22_linear_53_4170)"/>
<path d="M78.9707 47.6477H74.2031V48.8821H78.9707V47.6477Z" fill="url(#paint23_linear_53_4170)"/>
<path d="M78.9707 48.8821H74.2031V49.8692H78.9707V48.8821Z" fill="url(#paint24_linear_53_4170)"/>
<path d="M78.3657 45.1514H74.8083V45.5983H78.3657V45.1514Z" fill="url(#paint25_linear_53_4170)"/>
<path d="M89.8141 42.999H86.2568V47.6476H89.8141V42.999Z" fill="url(#paint26_linear_53_4170)" fill-opacity="0.3"/>
<path d="M86.1445 46.7937L86.4289 47.5327L88.9039 43.1594L88.2918 42.999L86.1445 46.7937Z" fill="white"/>
<path d="M86.4438 48.418L86.783 48.6466L89.9564 43.0391L89.6172 42.8105L86.4438 48.418Z" fill="white"/>
<path d="M86.0703 47.8706H90.0012V42.8105H86.0703V47.8706ZM86.4439 43.2574H89.6276V47.4241H86.4439V43.2574Z" fill="url(#paint27_linear_53_4170)"/>
<path d="M90.4195 47.6477H85.6519V48.8821H90.4195V47.6477Z" fill="url(#paint28_linear_53_4170)"/>
<path d="M90.4195 48.8821H85.6519V49.8692H90.4195V48.8821Z" fill="url(#paint29_linear_53_4170)"/>
<path d="M89.8141 45.1514H86.2568V45.5983H89.8141V45.1514Z" fill="url(#paint30_linear_53_4170)"/>
<path d="M78.3657 31.3265H74.8083V35.9751H78.3657V31.3265Z" fill="url(#paint31_linear_53_4170)" fill-opacity="0.3"/>
<path d="M74.6958 35.1209L74.9804 35.8602L77.4552 31.4868L76.8433 31.3265L74.6958 35.1209Z" fill="white"/>
<path d="M74.9951 36.7454L75.3343 36.974L78.5076 31.3666L78.1685 31.138L74.9951 36.7454Z" fill="white"/>
<path d="M74.6216 36.1984H78.5525V31.138H74.6216V36.1984ZM74.9952 31.5848H78.1789V35.7515H74.9952V31.5848Z" fill="url(#paint32_linear_53_4170)"/>
<path d="M78.9707 35.9752H74.2031V37.2096H78.9707V35.9752Z" fill="url(#paint33_linear_53_4170)"/>
<path d="M78.9707 37.209H74.2031V38.1961H78.9707V37.209Z" fill="url(#paint34_linear_53_4170)"/>
<path d="M78.3657 33.4789H74.8083V33.9257H78.3657V33.4789Z" fill="url(#paint35_linear_53_4170)"/>
<path d="M89.8141 31.3265H86.2568V35.9751H89.8141V31.3265Z" fill="url(#paint36_linear_53_4170)" fill-opacity="0.3"/>
<path d="M86.1445 35.1209L86.4289 35.8602L88.9039 31.4868L88.2918 31.3265L86.1445 35.1209Z" fill="white"/>
<path d="M86.4438 36.7454L86.783 36.974L89.9564 31.3666L89.6172 31.138L86.4438 36.7454Z" fill="white"/>
<path d="M86.0703 36.1984H90.0012V31.138H86.0703V36.1984ZM86.4439 31.5848H89.6276V35.7515H86.4439V31.5848Z" fill="url(#paint37_linear_53_4170)"/>
<path d="M90.4195 35.9752H85.6519V37.2096H90.4195V35.9752Z" fill="url(#paint38_linear_53_4170)"/>
<path d="M90.4195 37.209H85.6519V38.1961H90.4195V37.209Z" fill="url(#paint39_linear_53_4170)"/>
<path d="M89.8141 33.4789H86.2568V33.9257H89.8141V33.4789Z" fill="url(#paint40_linear_53_4170)"/>
<path d="M94.9631 26.2625H69.6602V27.3613H94.9631V26.2625Z" fill="url(#paint41_linear_53_4170)"/>
<path d="M88.4896 23.0773H75.4866C75.0767 23.0773 74.6835 23.2402 74.3936 23.5301C74.1038 23.8199 73.9409 24.2131 73.9409 24.623V27.0342H90.0365V24.623C90.0365 24.4199 89.9965 24.2188 89.9187 24.0312C89.841 23.8436 89.727 23.6732 89.5833 23.5296C89.4397 23.3861 89.2691 23.2722 89.0815 23.1946C88.8938 23.117 88.6927 23.0772 88.4896 23.0773Z" fill="url(#paint42_linear_53_4170)"/>
<path d="M77.6596 24.7447H76.9335V24.0376H76.4011V25.9199H76.9335V25.1859H77.6596V25.9199H78.192V24.0376H77.6596V24.7447Z" fill="white"/>
<path d="M80.5914 24.1264C80.4248 24.0432 80.2412 23.9999 80.055 23.9999C79.8688 23.9999 79.6851 24.0432 79.5186 24.1264C79.3631 24.2079 79.2329 24.3304 79.142 24.4806C79.0512 24.6308 79.0032 24.803 79.0032 24.9786C79.0032 25.1541 79.0512 25.3263 79.142 25.4766C79.2329 25.6268 79.3631 25.7493 79.5186 25.8308C79.6851 25.914 79.8688 25.9573 80.055 25.9573C80.2412 25.9573 80.4248 25.914 80.5914 25.8308C80.7469 25.7493 80.8771 25.6268 80.9679 25.4766C81.0588 25.3263 81.1068 25.1541 81.1068 24.9786C81.1068 24.803 81.0588 24.6308 80.9679 24.4806C80.8771 24.3304 80.7469 24.2079 80.5914 24.1264ZM80.4974 25.2596C80.4552 25.3385 80.3919 25.4041 80.3146 25.4491C80.2357 25.4932 80.1469 25.5164 80.0565 25.5164C79.9662 25.5164 79.8773 25.4932 79.7985 25.4491C79.7211 25.4041 79.6578 25.3385 79.6156 25.2596C79.5714 25.1726 79.5483 25.0763 79.5483 24.9786C79.5483 24.8809 79.5714 24.7846 79.6156 24.6975C79.6578 24.6186 79.7211 24.553 79.7985 24.5081C79.8773 24.464 79.9662 24.4408 80.0565 24.4408C80.1469 24.4408 80.2357 24.464 80.3146 24.5081C80.3919 24.5531 80.4552 24.6187 80.4974 24.6975C80.5417 24.7846 80.5648 24.8809 80.5648 24.9786C80.5648 25.0763 80.5417 25.1726 80.4974 25.2596Z" fill="white"/>
<path d="M81.7141 24.4597H82.2922V25.9199H82.8245V24.4597H83.3998V24.0376H81.7141V24.4597Z" fill="white"/>
<path d="M84.6633 25.1643H85.4997V24.7663H84.6633V24.4491H85.6124V24.0376H84.1362V25.9199H85.6475V25.5084H84.6633V25.1643Z" fill="white"/>
<path d="M87.0135 24.0376H86.4812V25.9199H87.9113V25.4978H87.0135V24.0376Z" fill="white"/>
<path d="M94.9631 27.3484H69.6602V28.6286H94.9631V27.3484Z" fill="url(#paint43_linear_53_4170)"/>
<path d="M90.0804 77.2506H73.2167C72.225 77.2506 71.4211 78.0545 71.4211 79.0462V81.857C71.4211 82.8486 72.225 83.6525 73.2167 83.6525H90.0804C91.0721 83.6525 91.876 82.8486 91.876 81.857V79.0462C91.876 78.0545 91.0721 77.2506 90.0804 77.2506Z" fill="url(#paint44_linear_53_4170)"/>
<path d="M112.075 33.0644L112.063 34.9016V34.9887C112.063 34.9887 112.058 35.3845 113.419 35.7571C114.78 36.1298 115.5 34.767 115.482 34.5506C115.47 34.4015 115.536 32.4024 115.579 31.6268C115.599 31.2767 115.613 31.0277 115.613 31.0277L112.163 31.6227L112.075 33.0644Z" fill="white"/>
<path d="M115.411 29.1023C115.411 29.1023 115.218 29.9071 114.93 30.0696L114.912 30.08C114.904 30.0834 114.894 30.0872 114.884 30.0906C114.874 30.0941 114.868 30.0928 114.862 30.0944C114.566 30.085 113.942 27.5031 113.942 27.5031C113.942 27.5031 113.581 27.2391 112.562 27.184C109.354 27.0096 110.065 27.9669 110.065 27.9669C110.065 27.9669 110.185 28.0514 110.189 28.2979C110.191 28.4212 110.194 28.5734 110.2 28.7541C110.207 28.9245 110.2 29.7249 110.215 30.482C110.219 30.7012 110.224 30.9145 110.231 31.1102C110.242 31.3939 110.258 31.6385 110.281 31.7951C110.449 32.9412 111.831 33.0495 111.854 33.0511C111.854 33.0511 113.253 33.1694 114.212 32.7664C114.266 32.7442 114.316 32.7223 114.363 32.7004C114.81 32.496 115.162 32.1301 115.35 31.6764C115.492 31.3319 115.72 31.031 115.931 30.9897C116.391 30.9001 117.009 30.2663 116.732 29.2674C116.431 28.1876 115.411 29.1023 115.411 29.1023Z" fill="white"/>
<path d="M112.931 31.3827L111.302 31.4357C110.876 31.5008 111.539 32.3882 112.124 32.2927C112.603 32.2774 112.993 31.9361 113.052 31.5071C113.054 31.4906 113.052 31.474 113.046 31.4584C113.041 31.4429 113.032 31.4287 113.02 31.4169C113.009 31.4051 112.995 31.3959 112.979 31.39C112.964 31.3841 112.947 31.3816 112.931 31.3827Z" fill="white"/>
<path d="M111.303 31.4358C111.759 31.7458 112.646 31.7521 112.971 31.3879C112.937 31.3713 111.342 31.4405 111.303 31.4358Z" fill="white"/>
<path d="M113.071 29.5368C112.99 29.5368 112.926 29.6308 112.928 29.7401C112.93 29.8494 112.998 29.9395 113.079 29.938C113.16 29.9364 113.224 29.844 113.222 29.7344C113.22 29.6248 113.151 29.5353 113.071 29.5368Z" fill="white"/>
<path d="M116.216 26.7534C116.216 26.7534 116.041 25.1896 115.087 24.7753C114.133 24.361 112.018 24.6569 110.57 25.1601C109.122 25.6634 108.439 26.2211 108.439 26.295C108.439 26.3689 108.661 26.9166 109.202 26.9905C109.202 26.9905 108.82 27.1236 108.757 27.3456C108.693 27.5676 109.122 27.7451 109.584 27.7749C109.584 27.7749 109.28 28.7854 109.933 29.36C109.933 29.36 110.458 27.8635 110.713 27.6565C110.968 27.4495 113.21 27.4345 113.926 27.5378C113.926 27.5378 113.992 28.0586 114.072 28.636C114.151 29.2135 114.61 29.8169 114.61 29.8169V30.0577C114.61 30.2597 114.982 30.6693 115.184 30.6693C115.184 30.6693 114.996 29.4853 115.633 29.1308C116.518 28.6392 116.691 29.2626 116.782 29.5103C117.116 29.3225 117.094 28.4716 117.091 28.2036C117.075 26.9754 116.216 26.7534 116.216 26.7534Z" fill="url(#paint45_linear_53_4170)"/>
<path d="M113.666 26.3948C113.371 26.2335 113.382 25.6902 113.382 25.6902C113.382 25.6902 112.078 26.3206 111.893 25.8959C111.707 25.4713 112.035 25.1309 112.035 25.1309C112.035 25.1309 111.33 25.4159 111.551 26.0484C111.772 26.681 113.148 26.0913 113.148 26.0913C113.148 26.0913 113.054 26.6359 113.608 26.6985C114.163 26.7611 114.257 26.2166 114.257 26.2166C114.257 26.2166 113.962 26.5564 113.666 26.3948Z" fill="url(#paint46_linear_53_4170)"/>
<path d="M119.591 87.4048L117.113 87.5392L117.196 89.8796L117.161 93.0721L120.82 92.8764L119.584 89.7976L119.591 87.4048Z" fill="white"/>
<path d="M107.142 90.585L103.852 92.0793L104.149 93.4659L109.162 93.501L109.497 90.6304L109.913 87.2923L107.092 87.4197L107.142 90.585Z" fill="white"/>
<path d="M118.762 90.6163C117.921 90.6611 117.342 91.2288 117.183 91.0716C117.183 91.0716 116.767 93.3663 116.979 93.925C117.191 94.4836 118.713 94.4019 119.51 94.3819C120.307 94.3618 121.011 93.8915 121.107 93.5677C121.204 93.2439 120.141 91.1878 120.034 90.9194C120.034 90.9191 119.603 90.5712 118.762 90.6163ZM107.504 92.001C106.645 91.9008 106.9 91.0616 106.439 90.905C105.979 90.7485 103.017 92.1657 102.478 92.859C101.939 93.5523 102.747 93.8984 104.209 93.9316C105.671 93.9648 107.516 93.8595 107.516 93.8595C107.516 93.8595 109.294 93.7462 109.561 93.6172C109.828 93.4881 109.365 91.7612 109.365 91.7612C109.365 91.7612 108.363 92.1012 107.504 92.001Z" fill="url(#paint47_linear_53_4170)"/>
<path d="M119.504 52.7402L112.744 52.9369L108.646 53.0387C108.645 53.0457 108.643 53.0528 108.642 53.06C108.636 53.0806 108.631 53.1015 108.627 53.1226C108.539 53.5196 108.437 54.2261 107.492 59.2239C106.263 65.7313 106.415 87.7419 106.415 87.7419L110.384 87.5299L113.962 61.2377L116.432 87.5731L120.766 87.3413C120.766 87.3413 120.849 66.3407 120.791 61.0561C120.734 55.7715 119.504 52.7402 119.504 52.7402Z" fill="url(#paint48_linear_53_4170)"/>
<path opacity="0.49" d="M112.06 56.9342C112.06 56.9342 111.043 82.2024 108.409 87.6361L110.384 87.5305L113.962 61.2384C113.962 61.2384 113.529 58.7996 113.375 58.2322C113.222 57.6648 112.06 56.9342 112.06 56.9342Z" fill="url(#paint49_linear_53_4170)"/>
<path opacity="0.49" d="M119.504 52.7402L112.744 52.9369L108.65 53.0387L108.627 53.1235C109.715 53.4132 115.906 53.4207 118.121 59.5815C120.659 66.6272 117.779 87.5017 117.779 87.5017L120.766 87.342C120.766 87.342 120.849 66.3413 120.791 61.0567C120.734 55.7721 119.504 52.7402 119.504 52.7402Z" fill="url(#paint50_linear_53_4170)"/>
<path d="M117.399 35.8564C117.399 35.8564 116.736 36.9461 116.724 37.2135C116.711 37.4809 117.953 38.2935 118.141 38.297C118.328 38.3004 118.241 36.5506 118.241 36.5506L117.399 35.8564Z" fill="#CDD3FF"/>
<path d="M114.358 37.3332C114.454 37.6278 115.672 38.4689 115.723 38.4263C115.774 38.3838 116.725 37.2135 116.725 37.2135L115.612 36.3402C115.612 36.3402 114.263 37.0385 114.358 37.3332Z" fill="#CDD3FF"/>
<path d="M119.075 34.5148L115.446 33.6537C115.446 33.6537 115.026 35.2445 113.362 35.4828C111.754 35.7132 112.101 34.0248 112.101 34.0248L108.862 35.3453C107.976 35.7092 107.261 36.394 106.858 37.2627L101.388 47.1455L103.37 48.3085L104.523 48.9821C104.523 48.9821 105.916 47.7608 107.017 45.9001C107.07 45.8134 108.26 45.0333 108.31 44.9444C108.753 46.7825 108.339 50.8628 108.082 52.9371C108.062 53.094 108.077 53.2532 108.124 53.404C108.172 53.5548 108.251 53.6937 108.357 53.8111C108.463 53.9285 108.593 54.0218 108.738 54.0846C108.883 54.1473 109.04 54.1782 109.198 54.1749L109.323 54.1724L119.625 53.957C119.788 53.9535 119.948 53.9141 120.093 53.8415C120.239 53.769 120.366 53.6652 120.467 53.5376C120.568 53.4099 120.639 53.2616 120.675 53.1032C120.712 52.9448 120.713 52.7803 120.679 52.6214C120.207 50.4388 119.42 46.0157 120.069 43.209L123.056 48.3417L127.171 47.7091C126.388 43.9389 122.988 38.6765 121.688 36.2371C121.244 35.4026 120.005 34.698 119.075 34.5148Z" fill="url(#paint51_linear_53_4170)"/>
<path d="M120.068 43.2076L118.162 38.575C118.162 38.575 117.654 44.2993 118.451 47.0527C119.248 49.8062 118.089 53.067 115.988 53.3569C114.148 53.6106 110.476 53.4196 109.322 54.1711L119.625 53.9557C119.787 53.9522 119.947 53.9127 120.092 53.8402C120.238 53.7677 120.366 53.6639 120.466 53.5363C120.567 53.4086 120.638 53.2603 120.675 53.1019C120.711 52.9435 120.712 52.779 120.678 52.6201C120.206 50.4375 119.42 46.0143 120.068 43.2076ZM103.371 48.3072L104.524 48.9808C104.524 48.9808 105.916 47.7595 107.017 45.8988L108.31 44.9431L108.654 38.2418C108.651 38.3307 107.54 40.8221 107.359 42.038C107.018 44.3127 105.54 45.627 103.371 48.3072Z" fill="url(#paint52_linear_53_4170)"/>
<path d="M111.506 44.3987C111.492 44.3191 111.427 44.2637 111.361 44.2734L108.901 44.6846C108.834 44.6958 108.79 44.7707 108.805 44.8508L109.602 49.2709C109.616 49.3495 109.68 49.4033 109.746 49.3924L112.149 48.9909C112.216 48.9796 112.259 48.9061 112.246 48.8265L111.506 44.3987Z" fill="url(#paint53_linear_53_4170)"/>
<path d="M111.264 44.5752C111.251 44.4956 111.186 44.4402 111.119 44.4499L108.66 44.8611C108.592 44.8724 108.549 44.9472 108.563 45.0277L109.36 49.4474C109.374 49.526 109.439 49.5802 109.505 49.5692L111.908 49.1674C111.974 49.1565 112.018 49.0829 112.004 49.0033L111.264 44.5752Z" fill="url(#paint54_linear_53_4170)"/>
<path d="M110.868 44.7797L110.148 44.8999C110.128 44.9034 110.114 44.9168 110.117 44.9312L110.255 45.658C110.258 45.6709 110.275 45.6787 110.295 45.6753L110.998 45.5578C111.017 45.5547 111.031 45.5412 111.029 45.5284L110.907 44.7988C110.906 44.7844 110.888 44.7765 110.868 44.7797Z" fill="url(#paint55_linear_53_4170)"/>
<path d="M123.318 46.9136C120.984 46.6969 113.621 47.9877 112.692 48.153C112.627 48.0625 112.165 47.4294 111.828 47.1936C111.465 46.9396 110.382 46.8532 110.297 46.964C110.212 47.0749 110.479 47.243 110.81 47.3241C111.141 47.4052 111.363 47.4463 111.363 47.4463L111.303 47.5938L109.306 47.6251C109.306 47.6251 109.219 47.7055 109.268 47.9006C109.317 48.0957 109.555 48.1511 109.555 48.1511C109.555 48.1511 109.362 48.5269 109.736 48.711C109.736 48.711 109.569 48.9857 109.868 49.1826C109.868 49.1826 109.797 49.4144 110.074 49.621C110.345 49.8224 112.24 49.8168 112.316 49.8168C113.406 49.9774 119.101 50.7822 122.582 50.5552C126.442 50.3046 127.251 48.0772 127.17 47.7118C127.17 47.709 125.812 47.1453 123.318 46.9136ZM102.009 45.8035C101.592 45.4237 100.886 45.1409 100.205 44.6878C98.7189 43.6992 96.9972 42.7707 96.188 42.1125C95.8771 42.4382 95.5251 43.1052 95.0999 43.5364C96.1815 44.9896 101.237 51.3981 104.525 48.9813C104.524 48.9813 103.648 47.2944 102.009 45.8035Z" fill="white"/>
<path d="M95.8798 40.1159C95.7583 40.1313 95.6606 40.7547 95.6105 41.3422C95.221 40.9201 94.6774 40.4967 94.6774 40.4967L94.6723 40.5042C94.5728 40.3977 93.8406 39.6305 93.5763 39.6449C93.3468 39.6572 94.0147 40.4904 94.4406 40.926L94.3952 41.0099C94.1788 40.7732 93.2679 39.8046 92.9911 39.8322C92.7055 39.8616 93.6969 41.0701 94.1369 41.479L94.0467 41.645C93.9111 41.4981 92.967 40.4748 92.6883 40.502C92.4096 40.5293 93.4025 41.7308 93.8027 42.0868L93.7495 42.1855C93.4962 41.9243 92.9256 41.3578 92.7334 41.3785C92.7036 41.382 92.692 41.4004 92.6936 41.4305C92.7036 41.614 93.2259 42.2447 93.5444 42.5578C93.6012 42.6175 93.6635 42.6717 93.7304 42.7197C93.7444 42.7297 93.7597 42.7378 93.7758 42.7438C93.9258 42.86 94.1359 43.0172 94.3708 43.1763C94.611 43.343 94.8621 43.4935 95.1223 43.6269L96.1848 42.1141C96.1898 41.7771 96.1297 41.2288 96.1137 40.7601C96.0962 40.1416 96.0677 40.0934 95.8798 40.1159Z" fill="white"/>
<path d="M102.8 63.1418H94.6527C94.4891 63.1417 94.3271 63.1739 94.1759 63.2365C94.0247 63.2992 93.8873 63.3909 93.7716 63.5066C93.6559 63.6223 93.5641 63.7597 93.5015 63.9109C93.4389 64.0621 93.4067 64.2241 93.4067 64.3878V74.7247C93.4067 75.118 93.8968 75.2983 94.1517 74.9987L95.1156 73.8654H102.8C103.131 73.8654 103.448 73.7341 103.681 73.5005C103.915 73.2669 104.046 72.9501 104.046 72.6197V64.3878C104.046 64.2242 104.014 64.0622 103.951 63.911C103.889 63.7598 103.797 63.6225 103.681 63.5068C103.566 63.391 103.428 63.2993 103.277 63.2366C103.126 63.174 102.964 63.1418 102.8 63.1418Z" fill="url(#paint56_linear_53_4170)"/>
<path d="M101.664 67.6026C101.548 67.5399 101.409 67.5368 101.277 67.5359L99.9357 67.5258C100.057 66.8263 100.092 66.0638 99.7375 65.4494C99.6304 65.2643 99.3429 65.0423 99.1143 65.1848C98.9005 65.3182 98.9596 65.6501 98.9706 65.8596C99.0151 66.7295 98.52 67.6051 97.7512 68.015C97.7512 68.015 97.802 69.8688 97.791 70.8141C98.8657 70.8326 99.9542 70.847 100.943 70.7788C101.256 70.7572 101.526 70.2599 101.146 70.103C101.306 70.021 101.468 69.9417 101.538 69.7626C101.604 69.5926 101.525 69.3624 101.348 69.3186C101.721 69.4125 101.867 68.8191 101.577 68.6297C101.731 68.4988 101.859 68.3253 101.89 68.1258C101.921 67.9263 101.842 67.6993 101.664 67.6026Z" fill="white"/>
<path d="M97.401 68.015H95.7761V70.8116H97.401V68.015Z" fill="url(#paint57_linear_53_4170)"/>
<path d="M70.3964 71.5824C72.5715 71.5824 74.3348 69.8191 74.3348 67.644C74.3348 65.4689 72.5715 63.7056 70.3964 63.7056C68.2213 63.7056 66.458 65.4689 66.458 67.644C66.458 69.8191 68.2213 71.5824 70.3964 71.5824Z" fill="url(#paint58_linear_53_4170)"/>
<path d="M72.2688 68.6729C71.9838 68.4462 71.5595 68.1719 71.3588 68.2032C71.1581 68.2345 71.1431 68.2593 71.0526 68.434C70.9621 68.6087 70.7663 68.9162 70.7663 68.9162C70.7663 68.9162 70.0809 68.563 69.6638 68.0335C69.2467 67.504 69.1161 67.11 69.1001 67.023C69.0841 66.9359 69.1508 66.9165 69.2113 66.903C69.2717 66.8896 69.7013 66.8623 69.7577 66.573C69.8141 66.2836 69.5485 65.8092 69.36 65.5334C69.1715 65.2575 68.8126 65.3715 68.4707 65.5647C68.1287 65.7579 67.9474 65.9238 67.907 66.0572C67.8666 66.1906 67.9202 66.8792 68.358 67.6543C68.7957 68.4293 69.5673 69.3487 70.4388 69.8068C71.3103 70.265 71.5915 70.2743 71.8479 70.0783C72.1044 69.8823 72.4019 69.3612 72.4777 69.1984C72.5535 69.0356 72.5522 68.8996 72.2688 68.6729Z" fill="white"/>
<path d="M71.3074 66.5841C71.0656 66.3805 70.7515 66.4128 70.7387 66.4128C70.7194 66.4148 70.7006 66.4207 70.6835 66.43C70.6664 66.4393 70.6513 66.4519 70.6391 66.467C70.6269 66.4821 70.6178 66.4995 70.6123 66.5182C70.6067 66.5369 70.605 66.5564 70.607 66.5758C70.6091 66.5951 70.6149 66.6139 70.6242 66.631C70.6335 66.6481 70.6461 66.6631 70.6613 66.6754C70.6764 66.6876 70.6938 66.6967 70.7124 66.7022C70.7311 66.7077 70.7507 66.7095 70.77 66.7075C70.77 66.7056 70.9733 66.6899 71.1173 66.8108C71.2112 66.8891 71.2629 67.0131 71.2739 67.18C71.2764 67.2191 71.2942 67.2556 71.3236 67.2815C71.3529 67.3075 71.3913 67.3207 71.4304 67.3184C71.4694 67.3157 71.5058 67.2978 71.5316 67.2685C71.5574 67.2391 71.5705 67.2008 71.5682 67.1618C71.5523 66.9097 71.4646 66.7168 71.3074 66.5841Z" fill="#F0F2FF"/>
<path d="M70.6595 65.7552C70.64 65.7564 70.621 65.7613 70.6035 65.7698C70.586 65.7783 70.5703 65.7902 70.5574 65.8047C70.5445 65.8193 70.5346 65.8363 70.5282 65.8546C70.5218 65.873 70.5191 65.8925 70.5203 65.9119C70.5214 65.9314 70.5264 65.9504 70.5349 65.9679C70.5434 65.9854 70.5553 66.0011 70.5698 66.014C70.5844 66.0269 70.6013 66.0368 70.6197 66.0432C70.6381 66.0496 70.6576 66.0523 70.677 66.0511C70.7252 66.0483 71.8641 65.9973 71.9471 67.2489C71.9497 67.288 71.9676 67.3244 71.9969 67.3503C72.0262 67.3762 72.0646 67.3895 72.1037 67.3873C72.1427 67.3847 72.1791 67.3668 72.205 67.3375C72.2309 67.3082 72.2441 67.2698 72.2418 67.2307C72.1403 65.6879 70.6742 65.7543 70.6595 65.7552Z" fill="#F0F2FF"/>
<path d="M72.1124 65.5853C71.4234 65.0119 70.5564 65.0893 70.5191 65.0927C70.4799 65.0965 70.4439 65.1157 70.4189 65.146C70.3939 65.1764 70.3819 65.2154 70.3857 65.2546C70.3872 65.2741 70.3926 65.2931 70.4016 65.3104C70.4107 65.3277 70.4231 65.3431 70.4382 65.3555C70.4533 65.3679 70.4707 65.3772 70.4894 65.3827C70.5082 65.3882 70.5279 65.3899 70.5473 65.3877C70.556 65.3877 71.3279 65.3178 71.9226 65.8129C72.3178 66.1417 72.547 66.6471 72.604 67.316C72.6074 67.3545 72.6257 67.3901 72.6549 67.4153C72.6841 67.4406 72.722 67.4535 72.7606 67.4513H72.764C72.8032 67.4478 72.8394 67.4289 72.8647 67.3988C72.8901 67.3688 72.9025 67.3299 72.8993 67.2907C72.8345 66.54 72.5699 65.9657 72.1124 65.5853Z" fill="#F0F2FF"/>
<path d="M120.163 23.0882H128.896C129.245 23.0882 129.579 23.2266 129.825 23.4729C130.071 23.7192 130.21 24.0532 130.21 24.4015V28.6258C130.21 28.9741 130.071 29.3082 129.825 29.5545C129.579 29.8008 129.245 29.9392 128.896 29.9392H120.163C119.815 29.9392 119.481 29.8008 119.234 29.5546C118.988 29.3083 118.85 28.9744 118.85 28.6261V24.4012C118.85 24.053 118.988 23.7191 119.235 23.4729C119.481 23.2266 119.815 23.0883 120.163 23.0882Z" fill="url(#paint59_linear_53_4170)"/>
<path d="M121.546 25.9512C121.439 25.9512 121.333 25.9832 121.243 26.0431C121.154 26.1031 121.084 26.1883 121.042 26.2879C121.001 26.3876 120.99 26.4973 121.011 26.6031C121.033 26.7089 121.084 26.8061 121.161 26.8824C121.237 26.9587 121.334 27.0107 121.44 27.0317C121.546 27.0528 121.656 27.042 121.755 27.0007C121.855 26.9594 121.94 26.8895 122 26.7998C122.06 26.7101 122.092 26.6046 122.092 26.4967C122.092 26.4251 122.078 26.3541 122.051 26.2879C122.023 26.2217 121.983 26.1615 121.932 26.1109C121.882 26.0602 121.821 26.02 121.755 25.9926C121.689 25.9652 121.618 25.9512 121.546 25.9512Z" fill="white"/>
<path d="M124.458 27.0422C124.76 27.0422 125.004 26.798 125.004 26.4967C125.004 26.1954 124.76 25.9512 124.458 25.9512C124.157 25.9512 123.913 26.1954 123.913 26.4967C123.913 26.798 124.157 27.0422 124.458 27.0422Z" fill="white"/>
<path d="M127.37 25.9512C127.262 25.951 127.156 25.9829 127.067 26.0427C126.977 26.1025 126.907 26.1876 126.865 26.2873C126.824 26.387 126.813 26.4967 126.834 26.6025C126.855 26.7084 126.907 26.8057 126.983 26.8821C127.059 26.9585 127.156 27.0105 127.262 27.0316C127.368 27.0528 127.478 27.042 127.578 27.0008C127.677 26.9595 127.762 26.8896 127.822 26.7999C127.882 26.7101 127.914 26.6046 127.914 26.4967C127.915 26.3522 127.857 26.2135 127.755 26.1112C127.653 26.0089 127.514 25.9514 127.37 25.9512Z" fill="white"/>
<path d="M63.8895 38.6348H43.4631C42.6499 38.6348 41.9907 39.294 41.9907 40.1072V43.667C41.9907 44.4802 42.6499 45.1394 43.4631 45.1394H63.8895C64.7027 45.1394 65.3619 44.4802 65.3619 43.667V40.1072C65.3619 39.294 64.7027 38.6348 63.8895 38.6348Z" fill="url(#paint60_linear_53_4170)"/>
<path d="M63.6031 38.6348H43.1767C42.3636 38.6348 41.7043 39.294 41.7043 40.1072V43.667C41.7043 44.4802 42.3636 45.1394 43.1767 45.1394H63.6031C64.4163 45.1394 65.0755 44.4802 65.0755 43.667V40.1072C65.0755 39.294 64.4163 38.6348 63.6031 38.6348Z" fill="url(#paint61_linear_53_4170)"/>
<path d="M62.6619 41.2894L62.1872 40.3274L61.7124 41.2894L60.6509 41.4437L61.419 42.1925L61.2377 43.2496L62.1872 42.7505L63.1369 43.2496L62.9556 42.1925L63.7238 41.4437L62.6619 41.2894Z" fill="white"/>
<path d="M58.397 41.2894L57.9223 40.3274L57.4475 41.2894L56.386 41.4437L57.1541 42.1925L56.9728 43.2496L57.9223 42.7505L58.8717 43.2496L58.6904 42.1925L59.4586 41.4437L58.397 41.2894Z" fill="white"/>
<path d="M54.1321 41.2894L53.6574 40.3274L53.1827 41.2894L52.1211 41.4437L52.8892 42.1925L52.7079 43.2496L53.6574 42.7505L54.6068 43.2496L54.4258 42.1925L55.1937 41.4437L54.1321 41.2894Z" fill="white"/>
<path d="M49.403 40.3274L48.9283 41.2894L47.8667 41.4437L48.6349 42.1925L48.4536 43.2496L49.403 42.7505L50.3525 43.2496C50.2966 42.9236 50.3208 42.5889 50.423 42.2743C50.5253 41.9597 50.7024 41.6746 50.9393 41.4437L49.879 41.2894L49.403 40.3274ZM45.6234 41.2894L45.1483 40.3274L44.6736 41.2894L43.6121 41.4437L44.3802 42.1925L44.1989 43.2496C44.4917 43.0957 44.8175 43.0153 45.1483 43.0153C45.4791 43.0153 45.805 43.0957 46.0978 43.2496L45.9165 42.1925L46.6849 41.4437L45.6234 41.2894Z" fill="white"/>
<path d="M41.0938 77.9316C41.0938 79.5405 41.6211 90.4705 41.8368 94.8705C41.848 95.1006 41.9066 95.326 42.0089 95.5325C42.1113 95.7389 42.2553 95.9219 42.4318 96.0701C42.6062 96.217 42.8098 96.3252 43.0291 96.3876C43.2485 96.4499 43.4785 96.465 43.7041 96.4318L47.0861 95.9286L43.5848 75.9857C43.5848 75.9857 41.0944 75.909 41.0938 77.9316Z" fill="url(#paint62_linear_53_4170)"/>
<path d="M68.3429 74.6705C68.2694 74.2402 68.0335 73.8546 67.6838 73.5932C67.3342 73.3319 66.8975 73.2148 66.464 73.2661L42.7706 76.0797C42.6034 76.0992 42.4418 76.1521 42.2954 76.2354C42.149 76.3186 42.0209 76.4305 41.9186 76.5643C41.8164 76.6981 41.7421 76.851 41.7002 77.0141C41.6582 77.1772 41.6496 77.3471 41.6746 77.5136L44.5058 96.1412C44.5296 96.2977 44.5843 96.4478 44.6668 96.5828C44.7492 96.7179 44.8578 96.8352 44.986 96.9279C45.1142 97.0206 45.2597 97.0868 45.4138 97.1227C45.5679 97.1586 45.7276 97.1635 45.8836 97.137L69.5259 93.1028C70.0312 93.0165 70.4816 92.733 70.7779 92.3148C71.0742 91.8965 71.1923 91.3776 71.1061 90.8723L68.3429 74.6705Z" fill="url(#paint63_linear_53_4170)"/>
<path d="M67.7952 74.8059C67.789 74.7369 67.7691 74.6697 67.7366 74.6085C67.7041 74.5473 67.6597 74.4932 67.606 74.4494C67.5522 74.4057 67.4903 74.3731 67.4238 74.3536C67.3572 74.3342 67.2875 74.3282 67.2187 74.3362L43.4094 77.1097C43.2529 77.1278 43.1098 77.2072 43.0115 77.3304C42.9132 77.4535 42.8676 77.6106 42.8846 77.7673C43.1796 80.4396 44.4334 91.4388 45.5037 95.2557C45.5353 95.3678 45.607 95.4642 45.7052 95.5267C45.8034 95.5892 45.9212 95.6134 46.0361 95.5945L70.8442 91.5112C70.9236 91.4981 70.9992 91.4682 71.066 91.4234C71.1328 91.3786 71.1892 91.32 71.2313 91.2515C71.2735 91.1831 71.3005 91.1064 71.3105 91.0266C71.3205 90.9468 71.3132 90.8658 71.2892 90.789C70.6122 88.629 68.3857 81.179 67.7952 74.8059Z" fill="white"/>
<path d="M67.2745 75.2753C67.2683 75.209 67.2489 75.1446 67.2175 75.0859C67.186 75.0271 67.1432 74.9753 67.0915 74.9333C67.0398 74.8913 66.9803 74.86 66.9164 74.8413C66.8525 74.8226 66.7855 74.8169 66.7193 74.8243L43.8069 77.492C43.6562 77.5099 43.5187 77.5865 43.4244 77.7053C43.33 77.8241 43.2864 77.9753 43.303 78.1261C43.5868 80.698 44.7936 91.2832 45.8235 94.9563C45.8539 95.0643 45.923 95.1572 46.0177 95.2173C46.1123 95.2774 46.2259 95.3005 46.3365 95.282L70.2105 91.3527C70.2869 91.3401 70.3596 91.3113 70.4239 91.2682C70.4882 91.2251 70.5424 91.1687 70.583 91.1029C70.6236 91.037 70.6495 90.9632 70.6591 90.8864C70.6687 90.8096 70.6617 90.7317 70.6386 90.6578C69.9854 88.5779 67.8428 81.4082 67.2745 75.2753Z" fill="url(#paint64_linear_53_4170)"/>
<path opacity="0.72" d="M54.2853 80.6257C54.266 80.5119 54.2042 80.4098 54.1124 80.34C54.0206 80.2702 53.9056 80.238 53.7909 80.2499L52.0933 80.4262C52.0315 80.4326 51.9717 80.4517 51.9176 80.4822C51.8635 80.5126 51.8162 80.5539 51.7787 80.6034C51.7411 80.6529 51.7141 80.7095 51.6994 80.7699C51.6846 80.8302 51.6824 80.8929 51.6928 80.9542L51.9865 82.6764C52.0066 82.7939 52.072 82.8987 52.1687 82.9684C52.2653 83.038 52.3855 83.0669 52.5032 83.0488L54.1864 82.7882C54.2459 82.779 54.3029 82.7581 54.3543 82.7266C54.4056 82.6952 54.4502 82.6538 54.4854 82.605C54.5206 82.5562 54.5457 82.5008 54.5593 82.4422C54.5729 82.3835 54.5747 82.3228 54.5646 82.2634L54.2853 80.6257ZM60.6259 79.9167C60.6066 79.8022 60.5443 79.6995 60.4516 79.6296C60.3589 79.5597 60.243 79.528 60.1276 79.5409L58.4326 79.7313C58.3712 79.7383 58.3118 79.7576 58.2582 79.7883C58.2045 79.819 58.1577 79.8603 58.1205 79.9097C58.0834 79.9591 58.0567 80.0155 58.0421 80.0756C58.0276 80.1356 58.0254 80.1981 58.0358 80.259L58.2864 81.7226C58.3063 81.8401 58.3717 81.945 58.4684 82.0147C58.5651 82.0843 58.6853 82.1132 58.803 82.0949L60.4862 81.8347C60.5457 81.8255 60.6028 81.8045 60.6541 81.773C60.7054 81.7415 60.75 81.7002 60.7852 81.6513C60.8204 81.6024 60.8455 81.5471 60.8591 81.4884C60.8728 81.4297 60.8746 81.3689 60.8645 81.3096L60.6259 79.9167ZM62.2652 89.523C62.2435 89.3942 62.1719 89.2792 62.0658 89.203C61.9598 89.1267 61.828 89.0955 61.699 89.1159L60.0988 89.3699C60.0341 89.3802 59.9721 89.4033 59.9164 89.4377C59.8606 89.4722 59.8123 89.5173 59.7741 89.5706C59.7359 89.6239 59.7087 89.6842 59.6939 89.748C59.6792 89.8119 59.6773 89.878 59.6883 89.9426L59.9526 91.4905C59.9637 91.5555 59.9876 91.6176 60.023 91.6733C60.0584 91.7289 60.1045 91.7769 60.1587 91.8145C60.2129 91.852 60.2741 91.8784 60.3386 91.892C60.4031 91.9056 60.4697 91.9063 60.5344 91.8938L62.1258 91.5876C62.253 91.563 62.3656 91.4896 62.4394 91.3831C62.5131 91.2766 62.5422 91.1454 62.5204 91.0176L62.2652 89.523ZM65.411 89.0151C65.3893 88.8888 65.3187 88.7762 65.2146 88.7015C65.1104 88.6269 64.9811 88.5962 64.8545 88.6162L63.2378 88.8729C63.1741 88.883 63.113 88.9057 63.0581 88.9396C63.0033 88.9735 62.9557 89.0179 62.9181 89.0704C62.8806 89.1228 62.8538 89.1822 62.8394 89.245C62.825 89.3079 62.8232 89.373 62.8341 89.4366L63.0847 90.899C63.0955 90.9629 63.119 91.024 63.1538 91.0787C63.1885 91.1333 63.2339 91.1805 63.2872 91.2175C63.3404 91.2544 63.4005 91.2803 63.4639 91.2937C63.5274 91.3071 63.5928 91.3077 63.6565 91.2954L65.2644 90.986C65.3895 90.9619 65.5001 90.8897 65.5727 90.785C65.6452 90.6803 65.6738 90.5514 65.6524 90.4258L65.411 89.0151ZM64.33 82.6912C64.3071 82.5562 64.2322 82.4355 64.1214 82.3551C64.0106 82.2747 63.8727 82.2409 63.7372 82.2609L62.1906 82.4882C62.1216 82.4984 62.0553 82.5223 61.9956 82.5585C61.9359 82.5946 61.884 82.6423 61.843 82.6988C61.802 82.7553 61.7727 82.8193 61.7568 82.8873C61.7409 82.9552 61.7387 83.0257 61.7504 83.0945L61.9551 84.2951C61.9668 84.3634 61.9919 84.4288 62.029 84.4873C62.0661 84.5459 62.1145 84.5965 62.1713 84.6362C62.228 84.676 62.2922 84.7041 62.3599 84.7189C62.4276 84.7337 62.4976 84.7349 62.5658 84.7225L64.1036 84.4407C64.2393 84.4159 64.3597 84.3386 64.4388 84.2256C64.5179 84.1126 64.5492 83.9729 64.5261 83.837L64.33 82.6912ZM64.8141 85.5273C64.8025 85.459 64.7774 85.3936 64.7403 85.3351C64.7032 85.2765 64.6548 85.2259 64.598 85.1861C64.5413 85.1464 64.4771 85.1183 64.4094 85.1035C64.3417 85.0887 64.2717 85.0874 64.2035 85.0999L62.63 85.387C62.5039 85.4101 62.3919 85.4819 62.3184 85.587C62.2449 85.692 62.2158 85.8218 62.2373 85.9482L62.5504 87.7844C62.5719 87.91 62.6417 88.0221 62.7448 88.0969C62.8479 88.1716 62.9762 88.203 63.1022 88.1843L64.7218 87.9429C64.7858 87.9332 64.8473 87.9109 64.9026 87.8772C64.9578 87.8435 65.0059 87.7991 65.0438 87.7466C65.0817 87.6941 65.1087 87.6346 65.1233 87.5715C65.138 87.5084 65.1398 87.4431 65.1289 87.3792L64.8141 85.5273ZM57.4572 80.2731C57.4379 80.1586 57.3755 80.0559 57.2828 79.986C57.1902 79.9162 57.0743 79.8844 56.9589 79.8973L55.2639 80.0877C55.2025 80.0946 55.1432 80.1141 55.0895 80.1447C55.0359 80.1754 54.9891 80.2167 54.9519 80.2661C54.9148 80.3155 54.8881 80.3719 54.8735 80.432C54.859 80.492 54.8568 80.5544 54.8671 80.6153L55.1393 82.2099C55.1592 82.3273 55.2246 82.4322 55.3213 82.5019C55.418 82.5716 55.5382 82.6004 55.656 82.5822L57.3391 82.322C57.3986 82.3127 57.4557 82.2918 57.507 82.2603C57.5584 82.2288 57.6029 82.1874 57.6381 82.1385C57.6733 82.0897 57.6984 82.0343 57.7121 81.9756C57.7257 81.917 57.7275 81.8562 57.7174 81.7968L57.4572 80.2731ZM61.6761 86.0694C61.6651 86.0047 61.6414 85.943 61.6063 85.8876C61.5712 85.8322 61.5255 85.7844 61.4718 85.7468C61.4181 85.7092 61.3574 85.6827 61.2934 85.6687C61.2294 85.6547 61.1632 85.6536 61.0987 85.6654L59.5048 85.9563C59.3765 85.9797 59.2627 86.0527 59.1879 86.1595C59.1132 86.2663 59.0836 86.3983 59.1055 86.5269L59.3986 88.2444C59.4203 88.3723 59.4912 88.4865 59.5961 88.5626C59.701 88.6387 59.8316 88.6707 59.9598 88.6515L61.5628 88.4126C61.628 88.4029 61.6906 88.3803 61.747 88.3461C61.8034 88.3118 61.8523 88.2667 61.891 88.2133C61.9297 88.1599 61.9573 88.0993 61.9723 88.035C61.9872 87.9708 61.9892 87.9042 61.978 87.8392L61.6761 86.0694ZM58.0023 83.4753C57.9859 83.3784 57.9321 83.2919 57.8527 83.2342C57.7732 83.1765 57.6743 83.1522 57.5771 83.1665L55.7371 83.4371C55.6875 83.4444 55.64 83.4615 55.5971 83.4874C55.5543 83.5134 55.5171 83.5476 55.4877 83.5881C55.4583 83.6286 55.4373 83.6746 55.4259 83.7234C55.4145 83.7721 55.413 83.8227 55.4214 83.872L55.7139 85.5871C55.7223 85.6362 55.7403 85.683 55.7669 85.725C55.7936 85.7671 55.8283 85.8034 55.8691 85.8319C55.9099 85.8603 55.9559 85.8805 56.0045 85.891C56.0531 85.9016 56.1034 85.9024 56.1523 85.8934L57.9814 85.5596C58.0787 85.5418 58.1651 85.4865 58.2218 85.4054C58.2786 85.3244 58.3011 85.2243 58.2845 85.1268L58.0023 83.4753ZM54.8665 84.0317C54.8457 83.9101 54.7782 83.8015 54.6784 83.729C54.5786 83.6565 54.4544 83.6259 54.3323 83.6437L52.683 83.8864C52.6207 83.8956 52.561 83.9171 52.5071 83.9497C52.4533 83.9823 52.4066 84.0253 52.3696 84.0762C52.3327 84.1271 52.3062 84.1849 52.2919 84.2461C52.2776 84.3074 52.2757 84.3709 52.2862 84.4329L52.5643 86.0628C52.5748 86.1244 52.5975 86.1832 52.6309 86.236C52.6644 86.2888 52.708 86.3344 52.7592 86.3702C52.8104 86.406 52.8682 86.4312 52.9292 86.4445C52.9903 86.4578 53.0533 86.4589 53.1148 86.4476L54.7541 86.1486C54.8764 86.1263 54.9849 86.0567 55.0562 85.9548C55.1275 85.853 55.1558 85.7272 55.1349 85.6046L54.8665 84.0317ZM61.1541 83.0118C61.1377 82.915 61.0839 82.8285 61.0045 82.7707C60.925 82.713 60.8261 82.6887 60.7289 82.7031L58.8888 82.9736C58.8393 82.9809 58.7917 82.998 58.7488 83.024C58.706 83.05 58.6688 83.0842 58.6394 83.1248C58.61 83.1653 58.5889 83.2114 58.5776 83.2602C58.5662 83.3089 58.5647 83.3595 58.5732 83.4089L58.8472 85.0153C58.8556 85.0644 58.8736 85.1112 58.9003 85.1532C58.9269 85.1953 58.9616 85.2316 59.0024 85.2601C59.0432 85.2885 59.0892 85.3086 59.1378 85.3192C59.1864 85.3298 59.2367 85.3306 59.2856 85.3216L61.115 84.9878C61.2123 84.97 61.2987 84.9147 61.3554 84.8336C61.4122 84.7526 61.4347 84.6525 61.4181 84.555L61.1541 83.0118ZM58.5428 86.6424C58.5318 86.5778 58.5081 86.516 58.473 86.4606C58.4379 86.4053 58.3922 86.3574 58.3385 86.3198C58.2848 86.2823 58.2241 86.2557 58.1601 86.2418C58.096 86.2278 58.0299 86.2267 57.9654 86.2384L56.3718 86.5294C56.2434 86.5527 56.1295 86.6258 56.0547 86.7327C55.9799 86.8395 55.9502 86.9716 55.9722 87.1002L56.2478 88.7151C56.2695 88.8429 56.3404 88.9572 56.4454 89.0333C56.5504 89.1094 56.681 89.1413 56.8093 89.1222L58.4119 88.8836C58.4771 88.8739 58.5398 88.8512 58.5961 88.817C58.6524 88.7827 58.7014 88.7376 58.7401 88.6842C58.7787 88.6308 58.8064 88.5702 58.8213 88.506C58.8363 88.4418 58.8383 88.3752 58.8272 88.3102L58.5428 86.6424ZM55.3998 87.1578C55.3901 87.1006 55.3691 87.0459 55.3381 86.9968C55.3071 86.9478 55.2666 86.9054 55.2191 86.8721C55.1715 86.8388 55.1179 86.8153 55.0611 86.8029C55.0044 86.7905 54.9458 86.7895 54.8888 86.7999L53.1834 87.1112C53.0697 87.1318 52.9688 87.1965 52.9025 87.2911C52.8362 87.3858 52.81 87.5027 52.8295 87.6166L53.1063 89.2393C53.1255 89.3525 53.1883 89.4538 53.2813 89.5212C53.3743 89.5886 53.49 89.6168 53.6036 89.5997L55.3184 89.3442C55.3762 89.3357 55.4317 89.3156 55.4817 89.2853C55.5316 89.255 55.575 89.215 55.6093 89.1677C55.6436 89.1204 55.668 89.0667 55.6813 89.0098C55.6945 88.9529 55.6962 88.8939 55.6863 88.8363L55.3998 87.1578ZM63.818 79.69C63.7916 79.5349 63.7068 79.3958 63.5811 79.3012C63.4554 79.2066 63.2983 79.1636 63.142 79.1811L61.7115 79.3421C61.6356 79.3506 61.5622 79.3745 61.4958 79.4124C61.4294 79.4503 61.3715 79.5014 61.3256 79.5624C61.2797 79.6235 61.2467 79.6933 61.2288 79.7676C61.2108 79.8419 61.2082 79.9191 61.2211 79.9944L61.4006 81.0459C61.4284 81.2088 61.5191 81.3542 61.6532 81.4508C61.7874 81.5473 61.9541 81.5873 62.1174 81.562L63.3947 81.3644C63.4848 81.3503 63.5713 81.3186 63.6491 81.2708C63.7268 81.2231 63.7944 81.1604 63.8477 81.0864C63.901 81.0124 63.9392 80.9285 63.9598 80.8396C63.9805 80.7507 63.9833 80.6586 63.968 80.5687L63.818 79.69ZM67.8454 88.7915C67.7853 88.4405 67.3976 88.2122 66.9748 88.2792L66.4187 88.3675C66.3502 88.3784 66.2846 88.4027 66.2256 88.4391C66.1666 88.4755 66.1154 88.5233 66.0751 88.5796C66.0347 88.6359 66.0058 88.6997 65.9903 88.7673C65.9747 88.8348 65.9727 88.9048 65.9844 88.9731L66.2101 90.2965C66.2211 90.3604 66.2446 90.4214 66.2794 90.4761C66.3143 90.5307 66.3596 90.5779 66.4129 90.6148C66.4662 90.6517 66.5263 90.6776 66.5897 90.6909C66.6532 90.7043 66.7186 90.7049 66.7823 90.6926L67.3772 90.5783C67.794 90.4981 68.079 90.1565 68.0195 89.808L67.8454 88.7915ZM49.6831 91.5218C49.6612 91.393 49.5895 91.278 49.4834 91.2017C49.3772 91.1255 49.2453 91.0943 49.1163 91.1147L48.0228 91.2882C47.5916 91.3568 47.2891 91.7056 47.3501 92.0639L47.6288 93.6972C47.6915 94.0583 48.0985 94.2875 48.5294 94.2042L49.6129 93.996C49.7403 93.9714 49.8529 93.8979 49.9268 93.7912C50.0007 93.6846 50.0298 93.5533 50.0081 93.4254L49.6831 91.5218ZM67.2354 85.2179C67.1727 84.86 66.7732 84.6311 66.3439 84.7094L65.7993 84.8086C65.6636 84.8334 65.543 84.9106 65.4639 85.0237C65.3848 85.1367 65.3534 85.2764 65.3766 85.4124L65.6953 87.2793C65.7184 87.4147 65.7937 87.5355 65.9049 87.6159C66.0162 87.6964 66.1546 87.7299 66.2903 87.7093L66.8339 87.6285C67.2692 87.5637 67.577 87.2123 67.5153 86.8513L67.2354 85.2179ZM66.7641 82.456C66.7049 82.1084 66.3238 81.8804 65.9045 81.9421L65.2131 82.0439C65.1608 82.0515 65.1106 82.0695 65.0654 82.0969C65.0202 82.1242 64.981 82.1603 64.9499 82.2031C64.9189 82.2458 64.8968 82.2944 64.8848 82.3458C64.8728 82.3973 64.8713 82.4506 64.8802 82.5027L65.1101 83.851C65.1189 83.9027 65.138 83.9521 65.166 83.9964C65.1941 84.0406 65.2307 84.0789 65.2736 84.1089C65.3166 84.139 65.3651 84.1602 65.4163 84.1714C65.4675 84.1826 65.5204 84.1836 65.572 84.1742L66.253 84.049C66.6742 83.9722 66.9642 83.6281 66.9044 83.2771L66.7641 82.456ZM47.9451 81.3371C47.9248 81.2183 47.8598 81.1117 47.7634 81.0393C47.6671 80.9668 47.5467 80.9339 47.4269 80.9473L46.3224 81.0725C45.8724 81.1233 45.5439 81.4818 45.6075 81.8554L45.8759 83.4289C45.9357 83.779 46.3211 84.007 46.7426 83.9419L47.8728 83.7671C47.9348 83.7575 47.9942 83.7357 48.0477 83.7028C48.1012 83.67 48.1476 83.6268 48.1842 83.5759C48.2208 83.5249 48.2469 83.4672 48.2609 83.4061C48.275 83.3449 48.2768 83.2816 48.2661 83.2197L47.9451 81.3371ZM59.1196 90.0228C59.098 89.894 59.0263 89.779 58.9203 89.7028C58.8143 89.6265 58.6824 89.5952 58.5535 89.6157L56.9533 89.87C56.8886 89.8802 56.8266 89.9032 56.7708 89.9376C56.715 89.9721 56.6666 90.0172 56.6285 90.0704C56.5903 90.1237 56.563 90.184 56.5483 90.2478C56.5336 90.3117 56.5317 90.3778 56.5428 90.4424L56.8246 92.093C56.8357 92.158 56.8597 92.2201 56.8951 92.2757C56.9305 92.3314 56.9767 92.3793 57.0309 92.4169C57.0852 92.4544 57.1463 92.4807 57.2109 92.4943C57.2754 92.5079 57.342 92.5085 57.4067 92.496L58.9978 92.1897C59.1251 92.1654 59.2377 92.0921 59.3116 91.9856C59.3854 91.8791 59.4145 91.7479 59.3927 91.6201L59.1196 90.0228ZM48.5639 84.9586C48.5432 84.837 48.4757 84.7283 48.3758 84.6558C48.276 84.5832 48.1517 84.5527 48.0297 84.5706L46.9161 84.7344C46.4799 84.7986 46.1711 85.15 46.2328 85.5116L46.4834 86.9866C46.5444 87.3448 46.9456 87.5737 47.3749 87.4954L48.4875 87.2922C48.6097 87.2698 48.7182 87.2002 48.7894 87.0983C48.8606 86.9965 48.8888 86.8707 48.8679 86.7482L48.5639 84.9586ZM49.1335 88.3014C49.1237 88.2442 49.1027 88.1895 49.0717 88.1405C49.0406 88.0914 49.0001 88.049 48.9525 88.0158C48.905 87.9825 48.8513 87.959 48.7945 87.9467C48.7378 87.9343 48.6792 87.9334 48.6221 87.9438L47.4657 88.1549C47.0448 88.2316 46.7545 88.5754 46.8147 88.9268L46.9881 89.9433C47.0476 90.2918 47.4297 90.5194 47.8496 90.4571L49.017 90.283C49.0748 90.2745 49.1303 90.2545 49.1802 90.2242C49.2301 90.1939 49.2735 90.1539 49.3078 90.1066C49.3421 90.0593 49.3665 90.0057 49.3798 89.9488C49.393 89.8919 49.3948 89.833 49.3849 89.7754L49.1335 88.3014ZM52.2668 87.729C52.2571 87.6718 52.2361 87.617 52.2051 87.5679C52.174 87.5188 52.1335 87.4764 52.086 87.4431C52.0384 87.4098 51.9847 87.3863 51.9279 87.3739C51.8712 87.3616 51.8126 87.3606 51.7554 87.3711L50.0501 87.6824C49.9364 87.703 49.8354 87.7676 49.7692 87.8623C49.7029 87.9569 49.6767 88.0739 49.6962 88.1878L49.9558 89.7084C49.975 89.8215 50.0378 89.9226 50.1308 89.9899C50.2237 90.0572 50.3393 90.0855 50.4528 90.0685L52.1678 89.813C52.2257 89.8044 52.2812 89.7844 52.3311 89.7541C52.3811 89.7238 52.4245 89.6838 52.4588 89.6365C52.493 89.5892 52.5175 89.5355 52.5307 89.4786C52.544 89.4216 52.5457 89.3627 52.5358 89.3051L52.2668 87.729ZM52.8286 91.0223C52.8068 90.8936 52.735 90.7786 52.629 90.7024C52.5229 90.6262 52.3911 90.5949 52.2621 90.6153L50.6619 90.8698C50.5972 90.8802 50.5351 90.9032 50.4793 90.9377C50.4235 90.9722 50.375 91.0174 50.3368 91.0708C50.2986 91.1241 50.2714 91.1845 50.2567 91.2484C50.2419 91.3123 50.24 91.3785 50.2511 91.4432L50.5674 93.2973C50.5785 93.3624 50.6025 93.4245 50.638 93.4802C50.6734 93.5358 50.7196 93.5838 50.7739 93.6214C50.8281 93.659 50.8893 93.6854 50.9538 93.6991C51.0184 93.7127 51.085 93.7134 51.1498 93.701L52.7403 93.3947C52.8676 93.3702 52.9803 93.2968 53.0542 93.1902C53.128 93.0836 53.1572 92.9523 53.1355 92.8245L52.8286 91.0223ZM66.2499 79.4432C66.1923 79.1054 65.8306 78.8796 65.422 78.925L64.7083 79.0051C64.6547 79.0112 64.6029 79.0281 64.556 79.0549C64.5092 79.0817 64.4683 79.1177 64.4359 79.1608C64.4035 79.204 64.3802 79.2533 64.3675 79.3057C64.3548 79.3581 64.3529 79.4126 64.362 79.4658L64.5871 80.7844C64.6045 80.8871 64.6616 80.9787 64.746 81.0395C64.8305 81.1004 64.9355 81.1255 65.0384 81.1095L65.7079 81.0058C66.1406 80.9391 66.4456 80.589 66.3842 80.2299L66.2499 79.4432ZM55.9788 90.5495C55.9556 90.4137 55.8798 90.2925 55.7679 90.2122C55.6559 90.1319 55.5168 90.0989 55.3807 90.1205L53.8084 90.371C53.7436 90.3813 53.6815 90.4043 53.6257 90.4388C53.5699 90.4732 53.5215 90.5184 53.4832 90.5717C53.445 90.625 53.4177 90.6854 53.4029 90.7493C53.3882 90.8132 53.3862 90.8794 53.3972 90.9441L53.6963 92.6961C53.7074 92.7612 53.7313 92.8234 53.7668 92.879C53.8022 92.9347 53.8484 92.9828 53.9027 93.0203C53.9569 93.0579 54.0181 93.0842 54.0827 93.0978C54.1473 93.1114 54.214 93.112 54.2787 93.0994L55.8692 92.7935C55.9965 92.769 56.1092 92.6955 56.183 92.5889C56.2568 92.4823 56.2859 92.3511 56.2641 92.2233L55.9788 90.5495ZM51.1151 80.9808C51.0948 80.8619 51.0298 80.7553 50.9334 80.6828C50.8371 80.6103 50.7166 80.5774 50.5968 80.5909L48.9396 80.7772C48.8758 80.7845 48.814 80.8046 48.7582 80.8365C48.7024 80.8685 48.6537 80.9114 48.6151 80.9628C48.5764 81.0142 48.5487 81.0729 48.5335 81.1354C48.5184 81.1979 48.5161 81.2628 48.5269 81.3262L48.8373 83.1452C48.8581 83.2672 48.9259 83.376 49.0261 83.4485C49.1264 83.521 49.251 83.5513 49.3734 83.5329L51.0205 83.278C51.0824 83.2684 51.1418 83.2466 51.1951 83.2138C51.2485 83.181 51.2949 83.1379 51.3314 83.0871C51.368 83.0362 51.3941 82.9786 51.4082 82.9176C51.4223 82.8565 51.4241 82.7933 51.4135 82.7316L51.1151 80.9808ZM51.7147 84.4952C51.694 84.3735 51.6265 84.2648 51.5267 84.1923C51.4268 84.1198 51.3026 84.0893 51.1805 84.1072L49.5315 84.3499C49.4692 84.359 49.4094 84.3805 49.3556 84.4131C49.3017 84.4456 49.2549 84.4886 49.2179 84.5395C49.1809 84.5904 49.1545 84.6482 49.1402 84.7095C49.1258 84.7708 49.1239 84.8343 49.1344 84.8963L49.431 86.6346C49.4416 86.6962 49.4642 86.755 49.4977 86.8078C49.5311 86.8605 49.5747 86.9061 49.6259 86.9419C49.6771 86.9778 49.7349 87.0031 49.7959 87.0164C49.8569 87.0298 49.92 87.0309 49.9815 87.0197L51.6208 86.7204C51.7431 86.6981 51.8516 86.6285 51.9229 86.5266C51.9942 86.4248 52.0225 86.299 52.0016 86.1764L51.7147 84.4952Z" fill="white"/>
<path d="M64.9859 77.1132L64.8697 77.1176C64.8172 77.1196 64.7657 77.1328 64.7187 77.1563C64.6717 77.1799 64.6303 77.2131 64.5972 77.254C64.564 77.2948 64.54 77.3422 64.5267 77.393C64.5134 77.4439 64.5111 77.497 64.52 77.5488L64.6167 78.1162C64.6249 78.164 64.6424 78.2098 64.6682 78.2508C64.694 78.2919 64.7277 78.3274 64.7673 78.3555C64.8069 78.3835 64.8516 78.4035 64.8989 78.4142C64.9462 78.425 64.9951 78.4263 65.0429 78.4181L65.0692 78.4137C65.1559 78.3989 65.2345 78.3536 65.2908 78.2861C65.3471 78.2185 65.3775 78.1331 65.3764 78.0451L65.3695 77.4777C65.3689 77.4284 65.3585 77.3797 65.3387 77.3345C65.319 77.2893 65.2904 77.2485 65.2547 77.2145C65.2189 77.1805 65.1767 77.1541 65.1306 77.1367C65.0844 77.1193 65.0352 77.1113 64.9859 77.1132ZM62.3834 77.355L62.2672 77.3594C62.2147 77.3614 62.1632 77.3746 62.1162 77.3981C62.0691 77.4216 62.0277 77.4549 61.9945 77.4957C61.9614 77.5365 61.9373 77.5839 61.924 77.6348C61.9106 77.6856 61.9083 77.7387 61.9171 77.7906L62.0142 78.358C62.0307 78.4546 62.0848 78.5406 62.1647 78.5973C62.2446 78.654 62.3438 78.6766 62.4404 78.6602L62.4664 78.6555C62.5531 78.6407 62.6317 78.5954 62.688 78.5279C62.7443 78.4603 62.7747 78.3748 62.7736 78.2869L62.7667 77.7195C62.7661 77.6702 62.7556 77.6215 62.7359 77.5763C62.7162 77.5311 62.6877 77.4903 62.6519 77.4564C62.6162 77.4224 62.574 77.3959 62.5279 77.3785C62.4818 77.3611 62.4327 77.3531 62.3834 77.355ZM59.2137 77.8717L59.0976 77.876C59.045 77.8781 58.9936 77.8913 58.9465 77.9148C58.8995 77.9383 58.8581 77.9716 58.825 78.0124C58.7919 78.0532 58.7678 78.1006 58.7545 78.1515C58.7412 78.2023 58.7389 78.2554 58.7478 78.3072L58.8446 78.8747C58.8527 78.9225 58.8702 78.9682 58.896 79.0093C58.9219 79.0503 58.9555 79.0859 58.9951 79.1139C59.0347 79.1419 59.0794 79.1619 59.1267 79.1726C59.174 79.1834 59.2229 79.1847 59.2707 79.1765L59.297 79.1721C59.3837 79.1573 59.4623 79.1121 59.5186 79.0445C59.5749 78.9769 59.6053 78.8915 59.6042 78.8036L59.5974 78.2362C59.5967 78.1869 59.5862 78.1382 59.5665 78.093C59.5467 78.0478 59.5181 78.007 59.4824 77.973C59.4466 77.9391 59.4045 77.9126 59.3583 77.8952C59.3122 77.8778 59.263 77.8698 59.2137 77.8717ZM56.0989 78.1936L55.9827 78.1983C55.9302 78.2002 55.8787 78.2134 55.8316 78.2369C55.7846 78.2604 55.7431 78.2937 55.7099 78.3345C55.6768 78.3753 55.6527 78.4228 55.6394 78.4736C55.6261 78.5245 55.6238 78.5776 55.6326 78.6295L55.7294 79.1969C55.7376 79.2447 55.755 79.2904 55.7809 79.3315C55.8067 79.3725 55.8404 79.4081 55.88 79.4361C55.9195 79.4642 55.9642 79.4841 56.0115 79.4949C56.0588 79.5056 56.1078 79.5069 56.1556 79.4988L56.1819 79.4944C56.2686 79.4795 56.3471 79.4343 56.4035 79.3667C56.4598 79.2992 56.4901 79.2137 56.4891 79.1258L56.4822 78.5584C56.4816 78.5091 56.4712 78.4604 56.4514 78.4152C56.4317 78.37 56.4032 78.3292 56.3675 78.2952C56.3317 78.2612 56.2896 78.2347 56.2435 78.2172C56.1973 78.1998 56.1482 78.1917 56.0989 78.1936ZM52.8604 78.2628L52.7442 78.2672C52.6917 78.2692 52.6402 78.2824 52.5931 78.3059C52.5461 78.3294 52.5047 78.3627 52.4715 78.4035C52.4384 78.4443 52.4143 78.4917 52.401 78.5426C52.3876 78.5934 52.3853 78.6465 52.3941 78.6984L52.4912 79.2658C52.4993 79.3136 52.5168 79.3594 52.5426 79.4005C52.5684 79.4416 52.6021 79.4771 52.6416 79.5052C52.6812 79.5333 52.7259 79.5533 52.7733 79.564C52.8206 79.5748 52.8695 79.5761 52.9174 79.568L52.9434 79.5633C53.0301 79.5486 53.1087 79.5033 53.1651 79.4357C53.2214 79.3682 53.2517 79.2827 53.2506 79.1947L53.2437 78.6273C53.2431 78.578 53.2326 78.5293 53.2129 78.4841C53.1932 78.4389 53.1646 78.3981 53.1289 78.3642C53.0932 78.3302 53.051 78.3037 53.0049 78.2863C52.9588 78.2689 52.9096 78.2609 52.8604 78.2628ZM49.5032 78.8355L49.387 78.8399C49.3345 78.8419 49.283 78.8551 49.236 78.8786C49.189 78.9021 49.1475 78.9354 49.1144 78.9762C49.0813 79.0171 49.0573 79.0645 49.044 79.1153C49.0306 79.1662 49.0283 79.2193 49.0372 79.2711L49.134 79.8385C49.1504 79.9351 49.2046 80.0212 49.2845 80.0778C49.3644 80.1345 49.4636 80.1571 49.5602 80.1407L49.5862 80.136C49.6729 80.1213 49.7515 80.0761 49.8079 80.0085C49.8642 79.9409 49.8945 79.8554 49.8933 79.7674L49.8865 79.2C49.8859 79.1507 49.8754 79.102 49.8557 79.0569C49.836 79.0117 49.8074 78.9709 49.7717 78.9369C49.736 78.9029 49.6938 78.8765 49.6477 78.859C49.6016 78.8416 49.5524 78.8336 49.5032 78.8355ZM46.6536 79.1991L46.5377 79.2035C46.4852 79.2055 46.4337 79.2187 46.3866 79.2422C46.3396 79.2657 46.2982 79.299 46.265 79.3398C46.2319 79.3806 46.2078 79.428 46.1945 79.4789C46.1811 79.5297 46.1788 79.5828 46.1876 79.6347L46.2844 80.2021C46.3008 80.2987 46.355 80.3847 46.4349 80.4414C46.5148 80.4981 46.614 80.5207 46.7106 80.5043L46.7369 80.4999C46.8236 80.485 46.9022 80.4397 46.9585 80.3721C47.0148 80.3045 47.0452 80.219 47.0441 80.131L47.0372 79.5636C47.0365 79.5143 47.026 79.4656 47.0063 79.4204C46.9866 79.3752 46.958 79.3344 46.9222 79.3004C46.8865 79.2665 46.8443 79.24 46.7981 79.2226C46.752 79.2052 46.7028 79.1972 46.6536 79.1991Z" fill="white"/>
<path d="M47.8593 84.5309C47.7318 84.8494 47.6332 85.1787 47.5649 85.5148C47.4644 85.258 47.3483 85.0076 47.2173 84.7649C47.0921 84.5341 46.9593 84.3092 46.8215 84.0869C46.7028 83.8959 46.5976 83.688 46.3978 83.574C46.3828 83.5644 46.3654 83.5593 46.3476 83.5593C46.3298 83.5592 46.3124 83.5642 46.2973 83.5737C46.2822 83.5832 46.2702 83.5968 46.2625 83.6128C46.2549 83.6289 46.252 83.6468 46.2541 83.6645C46.2735 83.8837 46.4028 84.0484 46.5153 84.2303C46.6405 84.4357 46.7658 84.6434 46.881 84.8566C47.1249 85.2988 47.3136 85.7692 47.4428 86.2573C47.4898 86.4377 47.7559 86.4452 47.7788 86.2457C47.8414 85.6842 47.9485 85.13 48.0196 84.5698C48.0315 84.4724 47.894 84.4461 47.8593 84.5309Z" fill="url(#paint65_linear_53_4170)"/>
<path d="M47.3115 83.6007C47.1978 83.5781 47.1825 83.7572 47.2936 83.7788C48.1532 83.9598 48.9129 84.4909 49.345 85.2609C49.7944 86.0616 49.8113 87.1833 48.7469 87.4529C48.2875 87.5691 47.8138 87.4664 47.3791 87.3045C46.9504 87.1451 46.4942 86.9529 46.1303 86.6723C45.3431 86.0654 45.2923 84.8773 46.1741 84.3215C46.3072 84.2376 46.2211 84.0469 46.0699 84.0992C45.1251 84.4258 44.8774 85.5547 45.3374 86.3804C45.7758 87.1683 46.8455 87.597 47.6819 87.7896C48.4422 87.9646 49.3936 87.8106 49.7953 87.0593C50.1833 86.3338 49.8241 85.4485 49.3569 84.8526C48.8458 84.2052 48.1206 83.7612 47.3115 83.6007ZM66.298 87.5225C66.1692 87.7344 66.067 87.9613 65.9936 88.1982C65.887 88.0177 65.767 87.8455 65.6344 87.6831C65.5064 87.5247 65.368 87.37 65.2252 87.2171C65.1024 87.0863 64.9937 86.9435 64.7868 86.8649C64.7138 86.837 64.6302 86.8702 64.638 86.9275C64.6581 87.0772 64.7918 87.1912 64.9079 87.3161C65.0395 87.4573 65.1675 87.5998 65.2865 87.7461C65.5371 88.0529 65.7353 88.3695 65.8671 88.7077C65.9156 88.833 66.1921 88.8358 66.2147 88.6999C66.2773 88.3141 66.3901 87.9333 66.4636 87.5485C66.4759 87.4821 66.334 87.4642 66.298 87.5225Z" fill="url(#paint66_linear_53_4170)"/>
<path d="M67.0961 89.7855C66.9649 89.6443 66.8368 89.5018 66.7178 89.3559C66.4673 89.0487 66.2687 88.7321 66.1369 88.3939C66.0887 88.2702 65.8122 88.2658 65.7896 88.402C65.727 88.7875 65.6139 89.1683 65.5391 89.5532C65.5266 89.6192 65.6691 89.6374 65.7051 89.5792C65.834 89.3672 65.9364 89.1401 66.0098 88.9031C66.1162 89.0837 66.2363 89.2559 66.3689 89.4182C66.4967 89.577 66.6354 89.7313 66.7782 89.8842C66.9007 90.0154 67.0096 90.1582 67.2166 90.2364C67.2896 90.2643 67.3732 90.2311 67.3654 90.1738C67.3459 90.0248 67.2125 89.9105 67.0961 89.7855Z" fill="url(#paint67_linear_53_4170)"/>
<path d="M65.6177 86.5986C65.5041 86.5757 65.4887 86.7533 65.5999 86.7764C66.4598 86.9574 67.2191 87.4885 67.6513 88.2585C68.101 89.0592 68.1175 90.1809 67.0532 90.4505C66.5938 90.5667 66.1203 90.464 65.6854 90.3021C65.2567 90.1427 64.8007 89.9508 64.4365 89.6699C63.6493 89.063 63.5986 87.8749 64.4804 87.3191C64.6135 87.2352 64.5274 87.0445 64.3761 87.0968C63.4314 87.4234 63.184 88.5526 63.6437 89.378C64.0821 90.1659 65.1518 90.5949 65.9882 90.7872C66.7485 90.9622 67.7001 90.8081 68.1016 90.0572C68.4896 89.3314 68.1304 88.4461 67.6632 87.8505C67.1521 87.203 66.4268 86.7591 65.6177 86.5986Z" fill="url(#paint68_linear_53_4170)"/>
<path d="M42.9898 85.4362C42.9876 85.4203 42.9791 85.406 42.9663 85.3964C42.9535 85.3868 42.9374 85.3826 42.9216 85.3848C42.9138 85.386 42.9063 85.3887 42.8995 85.3927C42.8927 85.3968 42.8868 85.4021 42.8821 85.4085C42.8774 85.4148 42.8739 85.422 42.872 85.4297C42.8701 85.4373 42.8697 85.4453 42.8709 85.4531L44.3605 95.9575C44.3627 95.9734 44.3712 95.9877 44.384 95.9973C44.3968 96.0069 44.4129 96.0111 44.4287 96.0088C44.4445 96.0064 44.4586 95.9979 44.4681 95.9851C44.4776 95.9724 44.4817 95.9564 44.4795 95.9406L42.9898 85.4362ZM42.1284 79.3556C42.1261 79.3397 42.1177 79.3254 42.1049 79.3158C42.0921 79.3061 42.076 79.302 42.0601 79.3042C42.0444 79.3066 42.0302 79.3151 42.0207 79.3279C42.0112 79.3407 42.0071 79.3567 42.0094 79.3725L42.5295 83.0413C42.5319 83.0571 42.5403 83.0714 42.5531 83.081C42.5659 83.0906 42.5819 83.0948 42.5978 83.0926C42.6136 83.0903 42.6278 83.0818 42.6374 83.069C42.647 83.0562 42.6511 83.0402 42.6488 83.0244L42.1284 79.3556Z" fill="white"/>
<path d="M64.4091 75.3921C64.2827 75.411 64.1647 75.4669 64.07 75.5528C63.9754 75.6387 63.9084 75.7508 63.8774 75.8748C63.8464 75.9988 63.853 76.1293 63.8961 76.2496C63.9393 76.3699 64.0171 76.4747 64.1199 76.5508C64.2226 76.6269 64.3456 76.6708 64.4733 76.6769C64.601 76.6831 64.7276 76.6513 64.8372 76.5855C64.9468 76.5197 65.0344 76.4228 65.089 76.3072C65.1435 76.1916 65.1626 76.0625 65.1437 75.936C65.1313 75.8521 65.1024 75.7714 65.0587 75.6986C65.015 75.6258 64.9574 75.5623 64.8892 75.5118C64.8209 75.4613 64.7434 75.4247 64.661 75.4042C64.5787 75.3836 64.4931 75.3795 64.4091 75.3921Z" fill="url(#paint69_linear_53_4170)"/>
<path d="M59.3803 77.3945C59.7312 77.3291 59.9626 76.9915 59.8971 76.6406C59.8316 76.2897 59.4941 76.0583 59.1432 76.1238C58.7923 76.1893 58.5609 76.5268 58.6264 76.8777C58.6919 77.2286 59.0294 77.46 59.3803 77.3945Z" fill="url(#paint70_linear_53_4170)"/>
<path d="M54.1008 78.0043C54.4474 77.9191 54.6593 77.569 54.5741 77.2224C54.4889 76.8757 54.1388 76.6638 53.7922 76.749C53.4456 76.8342 53.2336 77.1843 53.3188 77.5309C53.404 77.8776 53.7541 78.0895 54.1008 78.0043Z" fill="url(#paint71_linear_53_4170)"/>
<path d="M48.9743 78.4827C49.2885 78.3133 49.4059 77.9213 49.2365 77.6071C49.0671 77.2929 48.6751 77.1755 48.3609 77.3449C48.0467 77.5143 47.9293 77.9063 48.0987 78.2205C48.2681 78.5347 48.6601 78.6521 48.9743 78.4827Z" fill="url(#paint72_linear_53_4170)"/>
<path d="M47.5237 73.5537C46.1267 73.4598 46.1333 75.6984 46.1333 75.6984L46.7477 75.607C46.6794 74.4922 47.2625 74.5082 47.2625 74.5082C48.0745 74.5238 48.2492 77.0547 48.2855 77.9371C48.2871 77.9747 48.2965 78.0116 48.3132 78.0454C48.3299 78.0792 48.3535 78.1091 48.3825 78.1331C48.4115 78.1572 48.4452 78.1749 48.4815 78.1851C48.5178 78.1953 48.5558 78.1977 48.593 78.1923C48.7237 78.1728 48.8423 78.1047 48.9249 78.0016C49.0075 77.8985 49.0481 77.768 49.0386 77.6362C48.9544 76.4741 48.6344 73.6282 47.5237 73.5537ZM52.7838 72.9193C51.3872 72.8253 51.3935 75.0621 51.3935 75.0621L52.0082 74.9704C51.9434 73.8797 52.5233 73.8744 52.5233 73.8744C53.3353 73.8903 53.51 76.423 53.5467 77.3055C53.5481 77.3431 53.5574 77.38 53.5741 77.4138C53.5908 77.4475 53.6144 77.4774 53.6434 77.5014C53.6724 77.5255 53.7061 77.5431 53.7424 77.5532C53.7786 77.5633 53.8166 77.5656 53.8539 77.5601C53.9846 77.5406 54.1032 77.4724 54.1858 77.3693C54.2684 77.2661 54.309 77.1355 54.2995 77.0036C54.2149 75.8406 53.8946 72.9938 52.7838 72.9193ZM58.0443 72.2855C56.6477 72.1915 56.6537 74.4271 56.6537 74.4271L57.2718 74.3566C57.2061 73.2606 57.7835 73.2396 57.7835 73.2396C58.5958 73.2556 58.7708 75.7896 58.8072 76.672C58.8087 76.7096 58.8182 76.7465 58.8349 76.7802C58.8516 76.8139 58.8753 76.8437 58.9043 76.8677C58.9333 76.8917 58.967 76.9094 59.0032 76.9195C59.0395 76.9296 59.0774 76.9321 59.1147 76.9266C59.2454 76.907 59.3639 76.8387 59.4464 76.7355C59.529 76.6322 59.5696 76.5017 59.56 76.3698C59.4754 75.2074 59.1551 72.36 58.0443 72.2855ZM63.308 71.6749C61.9114 71.5809 61.917 73.813 61.917 73.813L62.5317 73.7216C62.4669 72.6306 63.0474 72.6287 63.0474 72.6287C63.8594 72.6447 64.0351 75.1817 64.0714 76.0642C64.073 76.1017 64.0824 76.1385 64.0991 76.1722C64.1159 76.2058 64.1395 76.2356 64.1685 76.2595C64.1974 76.2834 64.2311 76.301 64.2673 76.311C64.3035 76.3211 64.3414 76.3234 64.3786 76.3178C64.5094 76.2981 64.628 76.2298 64.7105 76.1264C64.7931 76.0231 64.8336 75.8924 64.8239 75.7604C64.7394 74.5984 64.419 71.7494 63.308 71.6749Z" fill="url(#paint73_linear_53_4170)"/>
</g>
<defs>
<linearGradient id="paint0_linear_53_4170" x1="105.364" y1="96.0812" x2="104.591" y2="85.6156" gradientUnits="userSpaceOnUse">
<stop stop-color="#13B601"/>
<stop offset="0.51" stop-color="#13B601"/>
<stop offset="1" stop-color="#CBF4B4"/>
</linearGradient>
<linearGradient id="paint1_linear_53_4170" x1="139.35" y1="95.8982" x2="138.312" y2="85.9408" gradientUnits="userSpaceOnUse">
<stop stop-color="#13B601"/>
<stop offset="0.51" stop-color="#13B601"/>
<stop offset="1" stop-color="#CBF4B4"/>
</linearGradient>
<linearGradient id="paint2_linear_53_4170" x1="137.977" y1="79.5508" x2="110.261" y2="68.7452" gradientUnits="userSpaceOnUse">
<stop stop-color="#FE7838"/>
<stop offset="0.54" stop-color="#FE7636"/>
<stop offset="1" stop-color="#FFAD8A"/>
</linearGradient>
<linearGradient id="paint3_linear_53_4170" x1="125.804" y1="78.0958" x2="116.98" y2="74.7983" gradientUnits="userSpaceOnUse">
<stop stop-color="#34344F"/>
<stop offset="0.26" stop-color="#3B3B57"/>
<stop offset="0.66" stop-color="#50506D"/>
<stop offset="1" stop-color="#666684"/>
</linearGradient>
<linearGradient id="paint4_linear_53_4170" x1="138.164" y1="72.1969" x2="127.19" y2="74.7002" gradientUnits="userSpaceOnUse">
<stop stop-color="#39AFFD"/>
<stop offset="1" stop-color="#477FFF"/>
</linearGradient>
<linearGradient id="paint5_linear_53_4170" x1="130.107" y1="72.1969" x2="106.876" y2="87.4694" gradientUnits="userSpaceOnUse">
<stop stop-color="#39AFFD"/>
<stop offset="1" stop-color="#477FFF"/>
</linearGradient>
<linearGradient id="paint6_linear_53_4170" x1="130.107" y1="72.1969" x2="106.876" y2="87.4694" gradientUnits="userSpaceOnUse">
<stop stop-color="#39AFFD"/>
<stop offset="1" stop-color="#477FFF"/>
</linearGradient>
<linearGradient id="paint7_linear_53_4170" x1="135.306" y1="117.895" x2="134.115" y2="117.885" gradientUnits="userSpaceOnUse">
<stop stop-color="#34344F"/>
<stop offset="0.26" stop-color="#3B3B57"/>
<stop offset="0.66" stop-color="#50506D"/>
<stop offset="1" stop-color="#666684"/>
</linearGradient>
<linearGradient id="paint8_linear_53_4170" x1="90.0546" y1="176.468" x2="49.2975" y2="173.133" gradientUnits="userSpaceOnUse">
<stop stop-color="#34344F"/>
<stop offset="0.26" stop-color="#3B3B57"/>
<stop offset="0.66" stop-color="#50506D"/>
<stop offset="1" stop-color="#666684"/>
</linearGradient>
<linearGradient id="paint9_linear_53_4170" x1="97.4869" y1="89.365" x2="52.3593" y2="63.4489" gradientUnits="userSpaceOnUse">
<stop stop-color="#1EB4EB"/>
<stop offset="0.54" stop-color="#1EB4EB"/>
<stop offset="1" stop-color="#92F4FE"/>
</linearGradient>
<linearGradient id="paint10_linear_53_4170" x1="85.3079" y1="95.7686" x2="78.2345" y2="93.0119" gradientUnits="userSpaceOnUse">
<stop stop-color="#34344F"/>
<stop offset="0.26" stop-color="#3B3B57"/>
<stop offset="0.66" stop-color="#50506D"/>
<stop offset="1" stop-color="#666684"/>
</linearGradient>
<linearGradient id="paint11_linear_53_4170" x1="85.972" y1="34.183" x2="74.9705" y2="28.4063" gradientUnits="userSpaceOnUse">
<stop stop-color="#34344F"/>
<stop offset="0.26" stop-color="#3B3B57"/>
<stop offset="0.66" stop-color="#50506D"/>
<stop offset="1" stop-color="#666684"/>
</linearGradient>
<linearGradient id="paint12_linear_53_4170" x1="85.2793" y1="30.2308" x2="80.8196" y2="25.0988" gradientUnits="userSpaceOnUse">
<stop stop-color="#34344F"/>
<stop offset="0.26" stop-color="#3B3B57"/>
<stop offset="0.66" stop-color="#50506D"/>
<stop offset="1" stop-color="#666684"/>
</linearGradient>
<linearGradient id="paint13_linear_53_4170" x1="91.7775" y1="61.3551" x2="65.4662" y2="43.8901" gradientUnits="userSpaceOnUse">
<stop stop-color="#1EB4EB"/>
<stop offset="0.54" stop-color="#1EB4EB"/>
<stop offset="1" stop-color="#92F4FE"/>
</linearGradient>
<linearGradient id="paint14_linear_53_4170" x1="88.7911" y1="41.5014" x2="88.2633" y2="37.8409" gradientUnits="userSpaceOnUse">
<stop stop-color="#34344F"/>
<stop offset="0.26" stop-color="#3B3B57"/>
<stop offset="0.66" stop-color="#50506D"/>
<stop offset="1" stop-color="#666684"/>
</linearGradient>
<linearGradient id="paint15_linear_53_4170" x1="88.7911" y1="52.9248" x2="88.2633" y2="49.2644" gradientUnits="userSpaceOnUse">
<stop stop-color="#34344F"/>
<stop offset="0.26" stop-color="#3B3B57"/>
<stop offset="0.66" stop-color="#50506D"/>
<stop offset="1" stop-color="#666684"/>
</linearGradient>
<linearGradient id="paint16_linear_53_4170" x1="85.5137" y1="62.1546" x2="79.3359" y2="55.4336" gradientUnits="userSpaceOnUse">
<stop stop-color="#1EB4EB"/>
<stop offset="0.54" stop-color="#1EB4EB"/>
<stop offset="1" stop-color="#92F4FE"/>
</linearGradient>
<linearGradient id="paint17_linear_53_4170" x1="85.001" y1="55.7151" x2="81.4726" y2="50.5383" gradientUnits="userSpaceOnUse">
<stop stop-color="#34344F"/>
<stop offset="0.26" stop-color="#3B3B57"/>
<stop offset="0.66" stop-color="#50506D"/>
<stop offset="1" stop-color="#666684"/>
</linearGradient>
<linearGradient id="paint18_linear_53_4170" x1="84.7562" y1="64.2443" x2="82.5312" y2="59.9682" gradientUnits="userSpaceOnUse">
<stop stop-color="#34344F"/>
<stop offset="0.26" stop-color="#3B3B57"/>
<stop offset="0.66" stop-color="#50506D"/>
<stop offset="1" stop-color="#666684"/>
</linearGradient>
<linearGradient id="paint19_linear_53_4170" x1="85.0149" y1="65.1961" x2="82.4092" y2="60.5718" gradientUnits="userSpaceOnUse">
<stop stop-color="#34344F"/>
<stop offset="0.26" stop-color="#3B3B57"/>
<stop offset="0.66" stop-color="#50506D"/>
<stop offset="1" stop-color="#666684"/>
</linearGradient>
<linearGradient id="paint20_linear_53_4170" x1="85.9597" y1="63.3339" x2="85.9505" y2="62.9606" gradientUnits="userSpaceOnUse">
<stop stop-color="#1EB4EB"/>
<stop offset="0.54" stop-color="#1EB4EB"/>
<stop offset="1" stop-color="#92F4FE"/>
</linearGradient>
<linearGradient id="paint21_linear_53_4170" x1="74.1463" y1="42.0503" x2="76.9284" y2="45.3129" gradientUnits="userSpaceOnUse">
<stop stop-color="#00D9FF"/>
<stop offset="1" stop-color="#75B4FF"/>
</linearGradient>
<linearGradient id="paint22_linear_53_4170" x1="77.6271" y1="53.8868" x2="73.5205" y2="53.4197" gradientUnits="userSpaceOnUse">
<stop stop-color="#34344F"/>
<stop offset="0.26" stop-color="#3B3B57"/>
<stop offset="0.66" stop-color="#50506D"/>
<stop offset="1" stop-color="#666684"/>
</linearGradient>
<linearGradient id="paint23_linear_53_4170" x1="77.8484" y1="50.3498" x2="74.0257" y2="48.188" gradientUnits="userSpaceOnUse">
<stop stop-color="#34344F"/>
<stop offset="0.26" stop-color="#3B3B57"/>
<stop offset="0.66" stop-color="#50506D"/>
<stop offset="1" stop-color="#666684"/>
</linearGradient>
<linearGradient id="paint24_linear_53_4170" x1="78.4298" y1="49.8037" x2="78.142" y2="48.3751" gradientUnits="userSpaceOnUse">
<stop stop-color="#1EB4EB"/>
<stop offset="0.54" stop-color="#1EB4EB"/>
<stop offset="1" stop-color="#92F4FE"/>
</linearGradient>
<linearGradient id="paint25_linear_53_4170" x1="78.1112" y1="45.1514" x2="77.9347" y2="46.1216" gradientUnits="userSpaceOnUse">
<stop stop-color="#39AFFD"/>
<stop offset="1" stop-color="#477FFF"/>
</linearGradient>
<linearGradient id="paint26_linear_53_4170" x1="85.5948" y1="42.0503" x2="88.3769" y2="45.3129" gradientUnits="userSpaceOnUse">
<stop stop-color="#00D9FF"/>
<stop offset="1" stop-color="#75B4FF"/>
</linearGradient>
<linearGradient id="paint27_linear_53_4170" x1="89.0758" y1="53.8868" x2="84.9692" y2="53.4197" gradientUnits="userSpaceOnUse">
<stop stop-color="#34344F"/>
<stop offset="0.26" stop-color="#3B3B57"/>
<stop offset="0.66" stop-color="#50506D"/>
<stop offset="1" stop-color="#666684"/>
</linearGradient>
<linearGradient id="paint28_linear_53_4170" x1="89.2971" y1="50.3498" x2="85.4744" y2="48.188" gradientUnits="userSpaceOnUse">
<stop stop-color="#34344F"/>
<stop offset="0.26" stop-color="#3B3B57"/>
<stop offset="0.66" stop-color="#50506D"/>
<stop offset="1" stop-color="#666684"/>
</linearGradient>
<linearGradient id="paint29_linear_53_4170" x1="89.8785" y1="49.8037" x2="89.5907" y2="48.3751" gradientUnits="userSpaceOnUse">
<stop stop-color="#1EB4EB"/>
<stop offset="0.54" stop-color="#1EB4EB"/>
<stop offset="1" stop-color="#92F4FE"/>
</linearGradient>
<linearGradient id="paint30_linear_53_4170" x1="89.5597" y1="45.1514" x2="89.3832" y2="46.1216" gradientUnits="userSpaceOnUse">
<stop stop-color="#39AFFD"/>
<stop offset="1" stop-color="#477FFF"/>
</linearGradient>
<linearGradient id="paint31_linear_53_4170" x1="74.1463" y1="30.3777" x2="76.9284" y2="33.6404" gradientUnits="userSpaceOnUse">
<stop stop-color="#00D9FF"/>
<stop offset="1" stop-color="#75B4FF"/>
</linearGradient>
<linearGradient id="paint32_linear_53_4170" x1="77.6271" y1="42.215" x2="73.5205" y2="41.7479" gradientUnits="userSpaceOnUse">
<stop stop-color="#34344F"/>
<stop offset="0.26" stop-color="#3B3B57"/>
<stop offset="0.66" stop-color="#50506D"/>
<stop offset="1" stop-color="#666684"/>
</linearGradient>
<linearGradient id="paint33_linear_53_4170" x1="77.8484" y1="38.6772" x2="74.0257" y2="36.5155" gradientUnits="userSpaceOnUse">
<stop stop-color="#34344F"/>
<stop offset="0.26" stop-color="#3B3B57"/>
<stop offset="0.66" stop-color="#50506D"/>
<stop offset="1" stop-color="#666684"/>
</linearGradient>
<linearGradient id="paint34_linear_53_4170" x1="78.4298" y1="38.1305" x2="78.142" y2="36.702" gradientUnits="userSpaceOnUse">
<stop stop-color="#1EB4EB"/>
<stop offset="0.54" stop-color="#1EB4EB"/>
<stop offset="1" stop-color="#92F4FE"/>
</linearGradient>
<linearGradient id="paint35_linear_53_4170" x1="78.1112" y1="33.4789" x2="77.9347" y2="34.4491" gradientUnits="userSpaceOnUse">
<stop stop-color="#39AFFD"/>
<stop offset="1" stop-color="#477FFF"/>
</linearGradient>
<linearGradient id="paint36_linear_53_4170" x1="85.5948" y1="30.3777" x2="88.3769" y2="33.6404" gradientUnits="userSpaceOnUse">
<stop stop-color="#00D9FF"/>
<stop offset="1" stop-color="#75B4FF"/>
</linearGradient>
<linearGradient id="paint37_linear_53_4170" x1="89.0758" y1="42.215" x2="84.9692" y2="41.7479" gradientUnits="userSpaceOnUse">
<stop stop-color="#34344F"/>
<stop offset="0.26" stop-color="#3B3B57"/>
<stop offset="0.66" stop-color="#50506D"/>
<stop offset="1" stop-color="#666684"/>
</linearGradient>
<linearGradient id="paint38_linear_53_4170" x1="89.2971" y1="38.6772" x2="85.4744" y2="36.5155" gradientUnits="userSpaceOnUse">
<stop stop-color="#34344F"/>
<stop offset="0.26" stop-color="#3B3B57"/>
<stop offset="0.66" stop-color="#50506D"/>
<stop offset="1" stop-color="#666684"/>
</linearGradient>
<linearGradient id="paint39_linear_53_4170" x1="89.8785" y1="38.1305" x2="89.5907" y2="36.702" gradientUnits="userSpaceOnUse">
<stop stop-color="#1EB4EB"/>
<stop offset="0.54" stop-color="#1EB4EB"/>
<stop offset="1" stop-color="#92F4FE"/>
</linearGradient>
<linearGradient id="paint40_linear_53_4170" x1="89.5597" y1="33.4789" x2="89.3832" y2="34.4491" gradientUnits="userSpaceOnUse">
<stop stop-color="#39AFFD"/>
<stop offset="1" stop-color="#477FFF"/>
</linearGradient>
<linearGradient id="paint41_linear_53_4170" x1="89.7657" y1="27.7333" x2="89.5482" y2="25.1956" gradientUnits="userSpaceOnUse">
<stop stop-color="#FE7838"/>
<stop offset="0.54" stop-color="#FE7636"/>
<stop offset="1" stop-color="#FFAD8A"/>
</linearGradient>
<linearGradient id="paint42_linear_53_4170" x1="86.7303" y1="28.3735" x2="83.1155" y2="20.9217" gradientUnits="userSpaceOnUse">
<stop stop-color="#FE7838"/>
<stop offset="0.54" stop-color="#FE7636"/>
<stop offset="1" stop-color="#FFAD8A"/>
</linearGradient>
<linearGradient id="paint43_linear_53_4170" x1="89.7657" y1="29.0618" x2="89.4713" y2="26.1131" gradientUnits="userSpaceOnUse">
<stop stop-color="#FE7838"/>
<stop offset="0.54" stop-color="#FE7636"/>
<stop offset="1" stop-color="#FFAD8A"/>
</linearGradient>
<linearGradient id="paint44_linear_53_4170" x1="89.5552" y1="83.2276" x2="86.8679" y2="74.4041" gradientUnits="userSpaceOnUse">
<stop stop-color="#1EB4EB"/>
<stop offset="0.54" stop-color="#1EB4EB"/>
<stop offset="1" stop-color="#92F4FE"/>
</linearGradient>
<linearGradient id="paint45_linear_53_4170" x1="115.055" y1="37.9102" x2="106.278" y2="36.0842" gradientUnits="userSpaceOnUse">
<stop stop-color="#34344F"/>
<stop offset="0.26" stop-color="#3B3B57"/>
<stop offset="0.66" stop-color="#50506D"/>
<stop offset="1" stop-color="#666684"/>
</linearGradient>
<linearGradient id="paint46_linear_53_4170" x1="113.61" y1="28.5733" x2="110.88" y2="27.8745" gradientUnits="userSpaceOnUse">
<stop stop-color="#34344F"/>
<stop offset="0.26" stop-color="#3B3B57"/>
<stop offset="0.66" stop-color="#50506D"/>
<stop offset="1" stop-color="#666684"/>
</linearGradient>
<linearGradient id="paint47_linear_53_4170" x1="116.687" y1="98.8986" x2="103.673" y2="89.4337" gradientUnits="userSpaceOnUse">
<stop stop-color="#34344F"/>
<stop offset="0.26" stop-color="#3B3B57"/>
<stop offset="0.66" stop-color="#50506D"/>
<stop offset="1" stop-color="#666684"/>
</linearGradient>
<linearGradient id="paint48_linear_53_4170" x1="117.421" y1="129.357" x2="102.236" y2="128.442" gradientUnits="userSpaceOnUse">
<stop stop-color="#34344F"/>
<stop offset="0.26" stop-color="#3B3B57"/>
<stop offset="0.66" stop-color="#50506D"/>
<stop offset="1" stop-color="#666684"/>
</linearGradient>
<linearGradient id="paint49_linear_53_4170" x1="112.655" y1="124.139" x2="106.782" y2="123.984" gradientUnits="userSpaceOnUse">
<stop stop-color="#34344F"/>
<stop offset="0.26" stop-color="#3B3B57"/>
<stop offset="0.66" stop-color="#50506D"/>
<stop offset="1" stop-color="#666684"/>
</linearGradient>
<linearGradient id="paint50_linear_53_4170" x1="117.943" y1="128.831" x2="105.083" y2="128.171" gradientUnits="userSpaceOnUse">
<stop stop-color="#34344F"/>
<stop offset="0.26" stop-color="#3B3B57"/>
<stop offset="0.66" stop-color="#50506D"/>
<stop offset="1" stop-color="#666684"/>
</linearGradient>
<linearGradient id="paint51_linear_53_4170" x1="123.005" y1="57.4016" x2="104.748" y2="45.1587" gradientUnits="userSpaceOnUse">
<stop stop-color="#13B601"/>
<stop offset="0.51" stop-color="#13B601"/>
<stop offset="1" stop-color="#CBF4B4"/>
</linearGradient>
<linearGradient id="paint52_linear_53_4170" x1="120.803" y1="51.0261" x2="105.001" y2="32.74" gradientUnits="userSpaceOnUse">
<stop stop-color="#13B601"/>
<stop offset="0.51" stop-color="#13B601"/>
<stop offset="1" stop-color="#CBF4B4"/>
</linearGradient>
<linearGradient id="paint53_linear_53_4170" x1="112.002" y1="44.2723" x2="107.612" y2="46.3114" gradientUnits="userSpaceOnUse">
<stop stop-color="#39AFFD"/>
<stop offset="1" stop-color="#477FFF"/>
</linearGradient>
<linearGradient id="paint54_linear_53_4170" x1="111.76" y1="44.4488" x2="107.371" y2="46.4876" gradientUnits="userSpaceOnUse">
<stop stop-color="#39AFFD"/>
<stop offset="1" stop-color="#477FFF"/>
</linearGradient>
<linearGradient id="paint55_linear_53_4170" x1="110.964" y1="44.779" x2="110.017" y2="45.4438" gradientUnits="userSpaceOnUse">
<stop stop-color="#39AFFD"/>
<stop offset="1" stop-color="#477FFF"/>
</linearGradient>
<linearGradient id="paint56_linear_53_4170" x1="103.285" y1="63.1418" x2="91.2964" y2="70.476" gradientUnits="userSpaceOnUse">
<stop stop-color="#39AFFD"/>
<stop offset="1" stop-color="#477FFF"/>
</linearGradient>
<linearGradient id="paint57_linear_53_4170" x1="97.0185" y1="74.1368" x2="95.3114" y2="73.9915" gradientUnits="userSpaceOnUse">
<stop stop-color="#34344F"/>
<stop offset="0.26" stop-color="#3B3B57"/>
<stop offset="0.66" stop-color="#50506D"/>
<stop offset="1" stop-color="#666684"/>
</linearGradient>
<linearGradient id="paint58_linear_53_4170" x1="73.4411" y1="71.0596" x2="67.5117" y2="64.9661" gradientUnits="userSpaceOnUse">
<stop stop-color="#1EB4EB"/>
<stop offset="0.54" stop-color="#1EB4EB"/>
<stop offset="1" stop-color="#92F4FE"/>
</linearGradient>
<linearGradient id="paint59_linear_53_4170" x1="128.921" y1="29.4844" x2="124.417" y2="21.8094" gradientUnits="userSpaceOnUse">
<stop stop-color="#1EB4EB"/>
<stop offset="0.54" stop-color="#1EB4EB"/>
<stop offset="1" stop-color="#92F4FE"/>
</linearGradient>
<linearGradient id="paint60_linear_53_4170" x1="62.7102" y1="44.7077" x2="60.2383" y2="35.5806" gradientUnits="userSpaceOnUse">
<stop stop-color="#1EB4EB"/>
<stop offset="0.54" stop-color="#1EB4EB"/>
<stop offset="1" stop-color="#92F4FE"/>
</linearGradient>
<linearGradient id="paint61_linear_53_4170" x1="62.4238" y1="44.7077" x2="59.9519" y2="35.5806" gradientUnits="userSpaceOnUse">
<stop stop-color="#1EB4EB"/>
<stop offset="0.54" stop-color="#1EB4EB"/>
<stop offset="1" stop-color="#92F4FE"/>
</linearGradient>
<linearGradient id="paint62_linear_53_4170" x1="45.8552" y1="103.375" x2="38.9427" y2="102.349" gradientUnits="userSpaceOnUse">
<stop stop-color="#FE7838"/>
<stop offset="0.54" stop-color="#FE7636"/>
<stop offset="1" stop-color="#FFAD8A"/>
</linearGradient>
<linearGradient id="paint63_linear_53_4170" x1="65.0796" y1="105.243" x2="40.0915" y2="89.6263" gradientUnits="userSpaceOnUse">
<stop stop-color="#FE7838"/>
<stop offset="0.54" stop-color="#FE7636"/>
<stop offset="1" stop-color="#FFAD8A"/>
</linearGradient>
<linearGradient id="paint64_linear_53_4170" x1="65.0426" y1="102.215" x2="42.9318" y2="87.2344" gradientUnits="userSpaceOnUse">
<stop stop-color="#FE7838"/>
<stop offset="0.54" stop-color="#FE7636"/>
<stop offset="1" stop-color="#FFAD8A"/>
</linearGradient>
<linearGradient id="paint65_linear_53_4170" x1="47.6044" y1="89.7643" x2="45.75" y2="89.595" gradientUnits="userSpaceOnUse">
<stop stop-color="#34344F"/>
<stop offset="0.26" stop-color="#3B3B57"/>
<stop offset="0.66" stop-color="#50506D"/>
<stop offset="1" stop-color="#666684"/>
</linearGradient>
<linearGradient id="paint66_linear_53_4170" x1="61.4381" y1="94.9879" x2="44.8368" y2="85.013" gradientUnits="userSpaceOnUse">
<stop stop-color="#34344F"/>
<stop offset="0.26" stop-color="#3B3B57"/>
<stop offset="0.66" stop-color="#50506D"/>
<stop offset="1" stop-color="#666684"/>
</linearGradient>
<linearGradient id="paint67_linear_53_4170" x1="66.9357" y1="92.5602" x2="65.0376" y2="92.2992" gradientUnits="userSpaceOnUse">
<stop stop-color="#34344F"/>
<stop offset="0.26" stop-color="#3B3B57"/>
<stop offset="0.66" stop-color="#50506D"/>
<stop offset="1" stop-color="#666684"/>
</linearGradient>
<linearGradient id="paint68_linear_53_4170" x1="67.1253" y1="95.9129" x2="62.1347" y2="95.0808" gradientUnits="userSpaceOnUse">
<stop stop-color="#34344F"/>
<stop offset="0.26" stop-color="#3B3B57"/>
<stop offset="0.66" stop-color="#50506D"/>
<stop offset="1" stop-color="#666684"/>
</linearGradient>
<linearGradient id="paint69_linear_53_4170" x1="64.8465" y1="78.2146" x2="63.5073" y2="78.0186" gradientUnits="userSpaceOnUse">
<stop stop-color="#34344F"/>
<stop offset="0.26" stop-color="#3B3B57"/>
<stop offset="0.66" stop-color="#50506D"/>
<stop offset="1" stop-color="#666684"/>
</linearGradient>
<linearGradient id="paint70_linear_53_4170" x1="59.9984" y1="78.8426" x2="58.646" y2="78.8955" gradientUnits="userSpaceOnUse">
<stop stop-color="#34344F"/>
<stop offset="0.26" stop-color="#3B3B57"/>
<stop offset="0.66" stop-color="#50506D"/>
<stop offset="1" stop-color="#666684"/>
</linearGradient>
<linearGradient id="paint71_linear_53_4170" x1="54.7998" y1="79.4151" x2="53.4525" y2="79.5444" gradientUnits="userSpaceOnUse">
<stop stop-color="#34344F"/>
<stop offset="0.26" stop-color="#3B3B57"/>
<stop offset="0.66" stop-color="#50506D"/>
<stop offset="1" stop-color="#666684"/>
</linearGradient>
<linearGradient id="paint72_linear_53_4170" x1="50.0047" y1="79.6732" x2="48.7329" y2="80.1362" gradientUnits="userSpaceOnUse">
<stop stop-color="#34344F"/>
<stop offset="0.26" stop-color="#3B3B57"/>
<stop offset="0.66" stop-color="#50506D"/>
<stop offset="1" stop-color="#666684"/>
</linearGradient>
<linearGradient id="paint73_linear_53_4170" x1="60.9858" y1="80.4029" x2="53.8971" y2="70.1089" gradientUnits="userSpaceOnUse">
<stop stop-color="#FE7838"/>
<stop offset="0.54" stop-color="#FE7636"/>
<stop offset="1" stop-color="#FFAD8A"/>
</linearGradient>
<clipPath id="clip0_53_4170">
<rect width="180" height="120" fill="white"/>
</clipPath>
</defs>
</svg>
