<svg width="133" height="40" viewBox="0 0 133 40" fill="none" xmlns="http://www.w3.org/2000/svg">
<path fill-rule="evenodd" clip-rule="evenodd" d="M12.1139 20C13.8633 22.3274 15.9101 24.6945 18.2095 27.0028C18.3547 27.1486 18.5002 27.2932 18.6458 27.4369C20.8066 29.5693 23.0132 31.4767 25.1854 33.122C33.2555 39.2352 40.8485 41.7326 43.8413 38.7282C46.8341 35.7238 44.3463 28.1013 38.2567 20C44.3463 11.8987 46.8341 4.27623 43.8413 1.27184C40.8485 -1.73255 33.2555 0.764835 25.1854 6.87802C23.0132 8.52344 20.8067 10.4307 18.6458 12.5631C18.5002 12.7068 18.3547 12.8516 18.2095 12.9972C15.91 15.3057 13.8633 17.6726 12.1139 20Z" fill="url(#paint0_linear_86_1336)"/>
<path fill-rule="evenodd" clip-rule="evenodd" d="M7.60438 0.512699C3.25632 2.46426 0 10.4479 0 20.0002C0 29.5524 3.25632 37.5359 7.60438 39.4876C7.19973 39.2923 6.84011 39.04 6.52983 38.7285C3.53703 35.7241 6.02479 28.1017 12.1144 20.0003C13.8638 17.6729 15.9106 15.3058 18.21 12.9976C18.3552 12.8517 18.5007 12.7071 18.6463 12.5634C20.8071 10.431 23.0138 8.5236 25.1859 6.87834C17.9523 1.39866 11.1022 -1.17587 7.60438 0.512699Z" fill="#499CFF"/>
<path fill-rule="evenodd" clip-rule="evenodd" d="M18.3834 27.4369C18.2378 27.2932 18.0923 27.1484 17.9471 27.0028C15.6476 24.6943 13.6009 22.3274 11.8515 20C5.76188 28.1013 3.27413 35.7238 6.26693 38.7282C6.57721 39.0396 6.937 39.2919 7.34148 39.4873C10.8393 41.1759 17.6894 38.6013 24.9228 33.122C22.7507 31.4766 20.5443 29.5694 18.3834 27.4369Z" fill="url(#paint1_linear_86_1336)"/>
<path d="M116.291 8.08141V17.9864L119.251 13.518H124.579L120.373 19.6486L125.319 26.5509H119.547L116.291 21.859V26.5509H111.666L111.555 26.4391V8.19312L111.666 8.08141H116.291Z" fill="#0E00D6"/>
<path d="M56.4272 17.9864L59.4241 13.518H64.7149L60.5089 19.6501L65.3808 26.5509H59.7201L56.4272 21.9335V26.4391L56.3162 26.5509H51.6914V8.08141H56.3162L56.4272 8.19312V17.9864Z" fill="#0E00D6"/>
<path d="M79.219 21.3376H70.1914C70.7537 23.4214 73.6071 23.3335 75.2424 22.7348C75.6982 22.5679 76.0504 22.2879 76.5077 22.1509L78.7735 24.7262C75.9868 27.2657 70.3838 27.5845 67.489 25.1373C64.8932 22.9433 64.686 18.4912 66.6824 15.8325C68.8565 12.9385 73.6381 12.508 76.6232 14.3058C79.0917 15.7923 79.7503 18.6164 79.219 21.3376ZM74.8532 18.9545C74.9479 16.1066 70.2032 16.2138 70.1914 18.9545H74.8532Z" fill="#0E00D6"/>
<path d="M87.3574 9.869V13.5182H90.3173V17.2419H87.3574V22.0454C87.3574 22.1333 87.6637 22.5295 87.7644 22.604C88.1151 22.8676 88.6686 22.8676 89.0889 22.8185C89.2946 22.7946 89.965 22.5131 90.0257 22.5608L91.0498 26.0193C88.6997 27.1975 84.6062 27.4477 83.2239 24.716C83.0242 24.3198 82.6231 23.0508 82.6231 22.6397V17.2404H80.5512V13.5167H82.6231V10.3888L87.3589 9.86751L87.3574 9.869Z" fill="#0E00D6"/>
<path d="M98.6055 9.869V13.5182H101.565V17.2419H98.6055V21.971C98.6055 21.9903 98.7357 22.2823 98.7653 22.3314C99.2566 23.1551 100.614 22.7961 101.343 22.528L102.29 26.0134C100.649 26.8713 98.3568 27.1424 96.5883 26.5317C92.9255 25.2657 94.0547 20.2283 93.8697 17.2404H91.7978V13.5167H93.8697V10.3888L98.6055 9.86751V9.869Z" fill="#0E00D6"/>
<path d="M108.743 13.5179H104.007V26.5508H108.743V13.5179Z" fill="#0E00D6"/>
<path d="M131.755 8.08141L131.385 20.444H127.02L126.687 8.08141H131.755Z" fill="#0E00D6"/>
<ellipse cx="2.71854" cy="1.75152" rx="2.71854" ry="1.75152" transform="matrix(0.808865 -0.587994 0.58417 0.811632 126.057 24.4503)" fill="#00D9FF"/>
<ellipse cx="2.71854" cy="1.75152" rx="2.71854" ry="1.75152" transform="matrix(0.808865 -0.587994 0.58417 0.811632 103.129 10.4251)" fill="#00D9FF"/>
<defs>
<linearGradient id="paint0_linear_86_1336" x1="12.1139" y1="20" x2="45.1082" y2="20" gradientUnits="userSpaceOnUse">
<stop stop-color="#00D9FF"/>
<stop offset="1" stop-color="#75B4FF"/>
</linearGradient>
<linearGradient id="paint1_linear_86_1336" x1="5" y1="30" x2="24.9228" y2="30" gradientUnits="userSpaceOnUse">
<stop stop-color="#0157C0"/>
<stop offset="1" stop-color="#003983"/>
</linearGradient>
</defs>
</svg>
