<svg width="16" height="16" viewBox="0 0 16 16" fill="none" xmlns="http://www.w3.org/2000/svg">
<g clip-path="url(#clip0_118_474)">
<path d="M4 5.99998V1.33331H12V5.99998" stroke="#3E3AFF" stroke-width="1.67" stroke-linecap="round" stroke-linejoin="round"/>
<path d="M3.99999 12H2.66666C2.31304 12 1.9739 11.8595 1.72385 11.6095C1.4738 11.3594 1.33333 11.0203 1.33333 10.6667V7.33333C1.33333 6.97971 1.4738 6.64057 1.72385 6.39052C1.9739 6.14048 2.31304 6 2.66666 6H13.3333C13.6869 6 14.0261 6.14048 14.2761 6.39052C14.5262 6.64057 14.6667 6.97971 14.6667 7.33333V10.6667C14.6667 11.0203 14.5262 11.3594 14.2761 11.6095C14.0261 11.8595 13.6869 12 13.3333 12H12" stroke="#3E3AFF" stroke-width="1.67" stroke-linecap="round" stroke-linejoin="round"/>
<path d="M12 9.33331H4V14.6666H12V9.33331Z" stroke="#3E3AFF" stroke-width="1.67" stroke-linecap="round" stroke-linejoin="round"/>
</g>
<defs>
<clipPath id="clip0_118_474">
<rect width="16" height="16" fill="white"/>
</clipPath>
</defs>
</svg>
