<svg width="16" height="16" viewBox="0 0 16 16" fill="none" xmlns="http://www.w3.org/2000/svg">
<g clip-path="url(#clip0_92_8)">
<path d="M7.66669 11.3333H2.66669C3.02998 11.1276 3.33989 10.8395 3.57148 10.4921C3.80306 10.1447 3.94985 9.7478 4.00002 9.33333V7.33333C4.03973 6.48738 4.30889 5.66818 4.77865 4.96353C5.24842 4.25888 5.90108 3.69535 6.66669 3.33333C6.66669 2.97971 6.80716 2.64057 7.05721 2.39052C7.30726 2.14048 7.6464 2 8.00002 2C8.35364 2 8.69278 2.14048 8.94283 2.39052C9.19288 2.64057 9.33335 2.97971 9.33335 3.33333C10.099 3.69535 10.7516 4.25888 11.2214 4.96353C11.6912 5.66818 11.9603 6.48738 12 7.33333V9.33333C12.0107 9.41933 12.0247 9.504 12.0434 9.588" stroke="#1D9F18" stroke-linecap="round" stroke-linejoin="round"/>
<path d="M6 11.3333V12C5.9999 12.4729 6.16741 12.9306 6.47278 13.2918C6.77815 13.6529 7.20162 13.8942 7.668 13.9727" stroke="#1D9F18" stroke-linecap="round" stroke-linejoin="round"/>
<path d="M10 12.6667L11.3333 14L14 11.3333" stroke="#1D9F18" stroke-linecap="round" stroke-linejoin="round"/>
</g>
<defs>
<clipPath id="clip0_92_8">
<rect width="16" height="16" fill="white"/>
</clipPath>
</defs>
</svg>
