<svg width="16" height="16" viewBox="0 0 16 16" fill="none" xmlns="http://www.w3.org/2000/svg">
<path fill-rule="evenodd" clip-rule="evenodd" d="M5.3335 0.666504C5.70169 0.666504 6.00016 0.964981 6.00016 1.33317V1.99984L10.0002 1.99984V1.33317C10.0002 0.964981 10.2986 0.666504 10.6668 0.666504C11.035 0.666504 11.3335 0.964981 11.3335 1.33317V2.00092C11.6505 2.0031 11.9275 2.00965 12.168 2.0293C12.5428 2.05992 12.8872 2.12563 13.2108 2.29049C13.7126 2.54615 14.1205 2.9541 14.3762 3.45586C14.541 3.77942 14.6068 4.12389 14.6374 4.49862C14.6668 4.85941 14.6668 5.30231 14.6668 5.83895L14.6668 11.4941C14.6668 12.0307 14.6668 12.4736 14.6374 12.8344C14.6068 13.2091 14.541 13.5536 14.3762 13.8771C14.1205 14.3789 13.7126 14.7869 13.2108 15.0425C12.8872 15.2074 12.5428 15.2731 12.168 15.3037C11.8073 15.3332 11.3644 15.3332 10.8277 15.3332L5.17261 15.3332C4.63597 15.3332 4.19307 15.3332 3.83228 15.3037C3.45755 15.2731 3.11308 15.2074 2.78952 15.0425C2.28776 14.7869 1.87981 14.3789 1.62415 13.8771C1.45929 13.5536 1.39358 13.2091 1.36296 12.8344C1.33348 12.4736 1.33349 12.0307 1.3335 11.494L1.3335 5.83897C1.33349 5.30232 1.33348 4.85942 1.36296 4.49862C1.39358 4.12389 1.45929 3.77942 1.62415 3.45586C1.87981 2.9541 2.28776 2.54615 2.78952 2.29049C3.11308 2.12563 3.45755 2.05992 3.83228 2.0293C4.07282 2.00965 4.34985 2.0031 4.66683 2.00092V1.33317C4.66683 0.964981 4.96531 0.666504 5.3335 0.666504ZM4.66683 3.33435C4.36981 3.33643 4.13658 3.34221 3.94086 3.3582C3.64858 3.38208 3.49911 3.42537 3.39484 3.4785C3.14396 3.60633 2.93999 3.8103 2.81215 4.06118C2.75903 4.16545 2.71574 4.31492 2.69186 4.6072C2.66735 4.90725 2.66683 5.29545 2.66683 5.8665V5.99984L13.3335 5.99984V5.8665C13.3335 5.29545 13.333 4.90726 13.3085 4.6072C13.2846 4.31492 13.2413 4.16545 13.1882 4.06118C13.0603 3.8103 12.8564 3.60633 12.6055 3.4785C12.5012 3.42537 12.3517 3.38208 12.0595 3.3582C11.8637 3.34221 11.6305 3.33643 11.3335 3.33435V3.99984C11.3335 4.36803 11.035 4.6665 10.6668 4.6665C10.2986 4.6665 10.0002 4.36803 10.0002 3.99984V3.33317L6.00016 3.33317V3.99984C6.00016 4.36803 5.70169 4.6665 5.3335 4.6665C4.96531 4.6665 4.66683 4.36803 4.66683 3.99984V3.33435ZM13.3335 7.33317L2.66683 7.33317L2.66683 11.4665C2.66683 12.0376 2.66735 12.4258 2.69186 12.7258C2.71574 13.0181 2.75903 13.1676 2.81215 13.2718C2.93999 13.5227 3.14396 13.7267 3.39484 13.8545C3.49911 13.9076 3.64858 13.9509 3.94086 13.9748C4.24092 13.9993 4.62911 13.9998 5.20016 13.9998L10.8002 13.9998C11.3712 13.9998 11.7594 13.9993 12.0595 13.9748C12.3517 13.9509 12.5012 13.9076 12.6055 13.8545C12.8564 13.7267 13.0603 13.5227 13.1882 13.2718C13.2413 13.1676 13.2846 13.0181 13.3085 12.7258C13.333 12.4258 13.3335 12.0376 13.3335 11.4665L13.3335 7.33317Z" fill="#3E3AFF"/>
</svg>
