<svg width="180" height="120" viewBox="0 0 180 120" fill="none" xmlns="http://www.w3.org/2000/svg">
<path d="M33.1896 87.6433C30.2703 85.764 24.2774 81.7817 23.6069 75.2841C22.8663 68.1101 28.8413 60.0768 35.2825 57.7672C40.1975 56.0049 42.6205 58.5659 45.5263 56.5093C50.2234 53.1847 45.3097 44.0232 48.5004 33.3632C51.1947 24.3607 58.7547 16.4245 66.8952 14.6199C73.6449 13.1236 79.2135 16.1934 89.3653 21.7902C102.236 28.886 102.364 32.9958 109.192 33.8663C119.416 35.1698 123.067 26.4569 132.323 27.0733C141.607 27.6921 150.336 36.3052 154.133 46.3196C159.843 61.3841 154.282 79.6892 144.77 86.196C139.295 89.9412 134.871 88.1627 121.253 87.4539C113.603 87.0557 104.037 87.7546 84.9047 89.1522C54.6286 91.3644 45.1815 95.3637 33.1896 87.6433Z" fill="#F0F2FF"/>
<path d="M35.0125 89.315V80.574H41.4299V70.7406H46.912V81.8853H52.1264V73.5814H58.4103V56.9735H65.7642V77.0779H74.4548V50.418H78.3322V47.1401H80.8726V49.7624H83.279V57.4106H90.9002V60.6886H89.4296V70.9591H92.9058V32.7178H97.4517V34.8542H103.87V75.4025H110.703L111.773 69.3809L116.408 69.1867V57.0466H121.994V51.9963H124.906V56.5608H126.807V72.1973H132.66V54.4243H140.95V89.315H35.0125Z" fill="#CDD3FF"/>
<path d="M87.7082 96.6962C120.665 96.6962 147.381 94.2291 147.381 91.1858C147.381 88.1424 120.665 85.6753 87.7082 85.6753C54.7518 85.6753 28.0354 88.1424 28.0354 91.1858C28.0354 94.2291 54.7518 96.6962 87.7082 96.6962Z" fill="url(#paint0_linear_12355_40125)"/>
<path d="M56.8006 38.1349V41.3303H54.5839V38.1349L55.5911 37.4235L55.6922 37.3511L55.6993 37.3561L55.7931 37.4235L56.8006 38.1349Z" fill="url(#paint1_linear_12355_40125)"/>
<path d="M55.7978 37.5337H55.5864L55.5911 37.4234L55.6466 35.8726H55.7379L55.7931 37.4234L55.7978 37.5337Z" fill="url(#paint2_linear_12355_40125)"/>
<path d="M59.4523 43.0108H51.9319L54.5839 41.1596L54.5863 41.1572H56.7982L56.8006 41.1596L59.4523 43.0108Z" fill="url(#paint3_linear_12355_40125)"/>
<path d="M59.4523 45.0664H51.9319V46.8696H59.4523V45.0664Z" fill="url(#paint4_linear_12355_40125)"/>
<path d="M59.0267 46.8696L58.5002 49.5213H52.8839L52.3551 46.8696H59.0267Z" fill="url(#paint5_linear_12355_40125)"/>
<path d="M57.579 43.0112H53.7537V45.0655H57.579V43.0112Z" fill="#C75824"/>
<path d="M56.97 43.0107H54.3566V45.0663H56.97V43.0107Z" fill="#A6471B"/>
<path d="M56.97 43.0107H54.3566V45.0663H56.97V43.0107Z" fill="#A6471B"/>
<path d="M56.0915 43.0112H55.2413V45.0655H56.0915V43.0112Z" fill="url(#paint6_linear_12355_40125)"/>
<path d="M52.7814 43.0112H51.9312V45.0655H52.7814V43.0112Z" fill="url(#paint7_linear_12355_40125)"/>
<path d="M59.4533 43.0112H58.6031V45.0655H59.4533V43.0112Z" fill="url(#paint8_linear_12355_40125)"/>
<path d="M58.4475 49.5215H52.8792V72.2413H58.4475V49.5215Z" fill="url(#paint9_linear_12355_40125)"/>
<path d="M60.8444 72.2417H50.333V88.0061H60.8444V72.2417Z" fill="url(#paint10_linear_12355_40125)"/>
<path d="M60.8444 72.2417H55.6993V88.0061H60.8444V72.2417Z" fill="url(#paint11_linear_12355_40125)"/>
<path d="M61.6814 84.1943H49.4971V88.0068H61.6814V84.1943Z" fill="url(#paint12_linear_12355_40125)"/>
<path d="M55.6993 45.0664H59.4523V46.8696H59.0267L58.5002 49.5213H58.4475V72.2415H55.6993V45.0664Z" fill="url(#paint13_linear_12355_40125)"/>
<path d="M58.4481 49.522H52.8842V49.8312H58.4481V49.522Z" fill="url(#paint14_linear_12355_40125)"/>
<path d="M58.4481 51.1045H52.8842V51.4137H58.4481V51.1045Z" fill="url(#paint15_linear_12355_40125)"/>
<path d="M58.4481 52.6865H52.8842V52.9957H58.4481V52.6865Z" fill="url(#paint16_linear_12355_40125)"/>
<path d="M58.4481 54.269H52.8842V54.5783H58.4481V54.269Z" fill="url(#paint17_linear_12355_40125)"/>
<path d="M58.4481 55.8511H52.8842V56.1603H58.4481V55.8511Z" fill="url(#paint18_linear_12355_40125)"/>
<path d="M58.4481 57.4341H52.8842V57.7433H58.4481V57.4341Z" fill="url(#paint19_linear_12355_40125)"/>
<path d="M58.4481 59.0161H52.8842V59.3253H58.4481V59.0161Z" fill="url(#paint20_linear_12355_40125)"/>
<path d="M58.4481 60.5986H52.8842V60.9079H58.4481V60.5986Z" fill="url(#paint21_linear_12355_40125)"/>
<path d="M58.4481 62.1807H52.8842V62.4899H58.4481V62.1807Z" fill="url(#paint22_linear_12355_40125)"/>
<path d="M58.4481 63.7632H52.8842V64.0724H58.4481V63.7632Z" fill="url(#paint23_linear_12355_40125)"/>
<path d="M58.4481 65.3457H52.8842V65.6549H58.4481V65.3457Z" fill="url(#paint24_linear_12355_40125)"/>
<path d="M58.4481 66.9282H52.8842V67.2374H58.4481V66.9282Z" fill="url(#paint25_linear_12355_40125)"/>
<path d="M58.4481 68.5103H52.8842V68.8195H58.4481V68.5103Z" fill="url(#paint26_linear_12355_40125)"/>
<path d="M58.4481 70.0928H52.8842V70.402H58.4481V70.0928Z" fill="url(#paint27_linear_12355_40125)"/>
<path d="M58.4481 71.6753H52.8842V71.9845H58.4481V71.6753Z" fill="url(#paint28_linear_12355_40125)"/>
<path d="M56.0914 50.9131H55.0095V55.4725H56.0914V50.9131Z" fill="#C75824"/>
<path d="M56.0914 50.9136V55.4717H55.0095V55.2362H55.9351V50.9136H56.0914Z" fill="#A1471D"/>
<path d="M58.5933 73.1108H52.5848V74.0574H58.5933V73.1108Z" fill="url(#paint29_linear_12355_40125)"/>
<path d="M58.0364 74.8501H53.142V75.4875H58.0364V74.8501Z" fill="url(#paint30_linear_12355_40125)"/>
<path d="M52.3047 73.1108H51.5513V74.0574H52.3047V73.1108Z" fill="url(#paint31_linear_12355_40125)"/>
<path d="M59.8264 73.1108H59.073V74.0574H59.8264V73.1108Z" fill="url(#paint32_linear_12355_40125)"/>
<path d="M52.3047 74.9272H51.5513V84.1943H52.3047V74.9272Z" fill="url(#paint33_linear_12355_40125)"/>
<path d="M59.8264 74.9272H59.073V84.1943H59.8264V74.9272Z" fill="url(#paint34_linear_12355_40125)"/>
<path d="M58.0361 79.5608H53.3734V75.9703C53.3734 75.7889 53.5202 75.6421 53.7016 75.6421H57.7079C57.8892 75.6421 58.0361 75.7889 58.0361 75.9703V79.5608Z" fill="url(#paint35_linear_12355_40125)"/>
<path d="M61.6811 84.1943H55.5891V88.0068H61.6811V84.1943Z" fill="url(#paint36_linear_12355_40125)"/>
<path d="M58.0364 80.0986H53.3738V81.979H58.0364V80.0986Z" fill="url(#paint37_linear_12355_40125)"/>
<path d="M52.3047 85.1729H51.1842V86.6668H52.3047V85.1729Z" fill="url(#paint38_linear_12355_40125)"/>
<path d="M60.1935 85.1729H59.073V86.6668H60.1935V85.1729Z" fill="url(#paint39_linear_12355_40125)"/>
<path d="M59.4523 43.0106H55.6993V35.8726H55.7379L55.7931 37.4234L56.8006 38.1349V41.1594L59.4523 43.0106Z" fill="url(#paint40_linear_12355_40125)"/>
<path d="M58.0364 82.3911H53.3738V83.6791H58.0364V82.3911Z" fill="url(#paint41_linear_12355_40125)"/>
<path d="M125.384 57.8105H95.2608V86.939H125.384V57.8105Z" fill="url(#paint42_linear_12355_40125)"/>
<path d="M138.741 78.9824H81.9045V86.9396H138.741V78.9824Z" fill="url(#paint43_linear_12355_40125)"/>
<path d="M125.651 62.9971H94.9945V63.4233H125.651V62.9971Z" fill="url(#paint44_linear_12355_40125)"/>
<path d="M125.651 64.5601H94.9945V64.9863H125.651V64.5601Z" fill="url(#paint45_linear_12355_40125)"/>
<path d="M125.384 66.3359H95.2608V66.7622H125.384V66.3359Z" fill="url(#paint46_linear_12355_40125)"/>
<path d="M110.323 80.9772C113.069 80.9772 115.296 78.7506 115.296 76.004C115.296 73.2573 113.069 71.0308 110.323 71.0308C107.576 71.0308 105.349 73.2573 105.349 76.004C105.349 78.7506 107.576 80.9772 110.323 80.9772Z" fill="url(#paint47_linear_12355_40125)"/>
<path d="M118.493 86.8742H102.152L103.999 75.0806H116.646L118.493 86.8742Z" fill="url(#paint48_linear_12355_40125)"/>
<path d="M111.335 86.8741H108.919V77.3292C108.919 77.2612 108.974 77.2061 109.042 77.2061H111.211C111.279 77.2061 111.334 77.2612 111.334 77.3292V86.8741H111.335ZM107.96 86.8741H105.544V78.7511C105.544 78.6831 105.6 78.628 105.668 78.628H107.837C107.905 78.628 107.96 78.6831 107.96 78.7511V86.8741H107.96ZM115.1 86.8741H112.685V78.7511C112.685 78.6831 112.74 78.628 112.808 78.628H114.977C115.045 78.628 115.1 78.6831 115.1 78.7511V86.8741H115.1Z" fill="url(#paint49_linear_12355_40125)"/>
<path d="M116.646 75.0806L124.683 86.9392L118.493 86.8742L116.646 75.0806Z" fill="url(#paint50_linear_12355_40125)"/>
<path d="M124.683 81.4507H123.51V86.9388H124.683V81.4507Z" fill="url(#paint51_linear_12355_40125)"/>
<path d="M125.161 81.4507H123.989V86.9388H125.161V81.4507Z" fill="url(#paint52_linear_12355_40125)"/>
<path d="M125.639 81.4507H124.467V86.9388H125.639V81.4507Z" fill="url(#paint53_linear_12355_40125)"/>
<path d="M126.118 81.4507H124.946V86.9388H126.118V81.4507Z" fill="url(#paint54_linear_12355_40125)"/>
<path d="M126.596 81.4507H125.424V86.9388H126.596V81.4507Z" fill="url(#paint55_linear_12355_40125)"/>
<path d="M127.075 81.4507H125.903V86.9388H127.075V81.4507Z" fill="url(#paint56_linear_12355_40125)"/>
<path d="M127.553 81.4507H126.381V86.9388H127.553V81.4507Z" fill="url(#paint57_linear_12355_40125)"/>
<path d="M128.032 81.4507H126.859V86.9388H128.032V81.4507Z" fill="url(#paint58_linear_12355_40125)"/>
<path d="M128.51 81.4507H127.338V86.9388H128.51V81.4507Z" fill="url(#paint59_linear_12355_40125)"/>
<path d="M128.989 81.4507H127.816V86.9388H128.989V81.4507Z" fill="url(#paint60_linear_12355_40125)"/>
<path d="M129.467 81.4507H128.295V86.9388H129.467V81.4507Z" fill="url(#paint61_linear_12355_40125)"/>
<path d="M129.945 81.4507H128.773V86.9388H129.945V81.4507Z" fill="url(#paint62_linear_12355_40125)"/>
<path d="M130.424 81.4507H129.252V86.9388H130.424V81.4507Z" fill="url(#paint63_linear_12355_40125)"/>
<path d="M130.902 81.4507H129.73V86.9388H130.902V81.4507Z" fill="url(#paint64_linear_12355_40125)"/>
<path d="M131.381 81.4507H130.209V86.9388H131.381V81.4507Z" fill="url(#paint65_linear_12355_40125)"/>
<path d="M131.859 81.4507H130.687V86.9388H131.859V81.4507Z" fill="url(#paint66_linear_12355_40125)"/>
<path d="M132.338 81.4507H131.165V86.9388H132.338V81.4507Z" fill="url(#paint67_linear_12355_40125)"/>
<path d="M132.816 81.4507H131.644V86.9388H132.816V81.4507Z" fill="url(#paint68_linear_12355_40125)"/>
<path d="M133.295 81.4507H132.122V86.9388H133.295V81.4507Z" fill="url(#paint69_linear_12355_40125)"/>
<path d="M133.773 81.4507H132.601V86.9388H133.773V81.4507Z" fill="url(#paint70_linear_12355_40125)"/>
<path d="M134.251 81.4507H133.079V86.9388H134.251V81.4507Z" fill="url(#paint71_linear_12355_40125)"/>
<path d="M134.73 81.4507H133.558V86.9388H134.73V81.4507Z" fill="url(#paint72_linear_12355_40125)"/>
<path d="M135.208 81.4507H134.036V86.9388H135.208V81.4507Z" fill="url(#paint73_linear_12355_40125)"/>
<path d="M135.687 81.4507H134.515V86.9388H135.687V81.4507Z" fill="url(#paint74_linear_12355_40125)"/>
<path d="M136.165 81.4507H134.993V86.9388H136.165V81.4507Z" fill="url(#paint75_linear_12355_40125)"/>
<path d="M101.078 81.4507H99.9055V86.9388H101.078V81.4507Z" fill="url(#paint76_linear_12355_40125)"/>
<path d="M97.8009 81.4507H96.6286V86.9388H97.8009V81.4507Z" fill="url(#paint77_linear_12355_40125)"/>
<path d="M97.3225 81.4507H96.1502V86.9388H97.3225V81.4507Z" fill="url(#paint78_linear_12355_40125)"/>
<path d="M96.8438 81.4507H95.6715V86.9388H96.8438V81.4507Z" fill="url(#paint79_linear_12355_40125)"/>
<path d="M96.3654 81.4507H95.1931V86.9388H96.3654V81.4507Z" fill="url(#paint80_linear_12355_40125)"/>
<path d="M95.887 81.4507H94.7147V86.9388H95.887V81.4507Z" fill="url(#paint81_linear_12355_40125)"/>
<path d="M95.4087 81.4507H94.2364V86.9388H95.4087V81.4507Z" fill="url(#paint82_linear_12355_40125)"/>
<path d="M94.9303 81.4507H93.758V86.9388H94.9303V81.4507Z" fill="url(#paint83_linear_12355_40125)"/>
<path d="M94.4516 81.4507H93.2793V86.9388H94.4516V81.4507Z" fill="url(#paint84_linear_12355_40125)"/>
<path d="M93.9732 81.4507H92.8009V86.9388H93.9732V81.4507Z" fill="url(#paint85_linear_12355_40125)"/>
<path d="M93.4948 81.4507H92.3225V86.9388H93.4948V81.4507Z" fill="url(#paint86_linear_12355_40125)"/>
<path d="M93.0164 81.4507H91.8442V86.9388H93.0164V81.4507Z" fill="url(#paint87_linear_12355_40125)"/>
<path d="M92.5377 81.4507H91.3654V86.9388H92.5377V81.4507Z" fill="url(#paint88_linear_12355_40125)"/>
<path d="M92.0593 81.4507H90.8871V86.9388H92.0593V81.4507Z" fill="url(#paint89_linear_12355_40125)"/>
<path d="M91.5809 81.4507H90.4087V86.9388H91.5809V81.4507Z" fill="url(#paint90_linear_12355_40125)"/>
<path d="M91.1026 81.4507H89.9303V86.9388H91.1026V81.4507Z" fill="url(#paint91_linear_12355_40125)"/>
<path d="M90.6242 81.4507H89.452V86.9388H90.6242V81.4507Z" fill="url(#paint92_linear_12355_40125)"/>
<path d="M90.1455 81.4507H88.9732V86.9388H90.1455V81.4507Z" fill="url(#paint93_linear_12355_40125)"/>
<path d="M89.6671 81.4507H88.4949V86.9388H89.6671V81.4507Z" fill="url(#paint94_linear_12355_40125)"/>
<path d="M89.1887 81.4507H88.0165V86.9388H89.1887V81.4507Z" fill="url(#paint95_linear_12355_40125)"/>
<path d="M88.7103 81.4507H87.5381V86.9388H88.7103V81.4507Z" fill="url(#paint96_linear_12355_40125)"/>
<path d="M88.2319 81.4507H87.0597V86.9388H88.2319V81.4507Z" fill="url(#paint97_linear_12355_40125)"/>
<path d="M87.7533 81.4507H86.581V86.9388H87.7533V81.4507Z" fill="url(#paint98_linear_12355_40125)"/>
<path d="M87.2749 81.4507H86.1026V86.9388H87.2749V81.4507Z" fill="url(#paint99_linear_12355_40125)"/>
<path d="M86.7965 81.4507H85.6243V86.9388H86.7965V81.4507Z" fill="url(#paint100_linear_12355_40125)"/>
<path d="M86.3181 81.4507H85.1459V86.9388H86.3181V81.4507Z" fill="url(#paint101_linear_12355_40125)"/>
<path d="M87.7083 105.757C114.147 105.757 135.579 103.709 135.579 101.184C135.579 98.6582 114.147 96.6108 87.7083 96.6108C61.2698 96.6108 39.8372 98.6582 39.8372 101.184C39.8372 103.709 61.2698 105.757 87.7083 105.757Z" fill="url(#paint102_linear_12355_40125)"/>
<path d="M87.7082 104.567C105.184 104.567 119.35 103.213 119.35 101.544C119.35 99.8744 105.184 98.521 87.7082 98.521C70.2329 98.521 56.0664 99.8744 56.0664 101.544C56.0664 103.213 70.2329 104.567 87.7082 104.567Z" fill="url(#paint103_linear_12355_40125)"/>
<path d="M83.0852 40.4581C83.0852 40.4581 83.0141 41.287 82.8423 42.3185C82.758 42.8232 83.0852 44.3572 83.0852 44.3572C83.0852 44.3572 82.4055 44.3071 82.3449 44.4986C82.1176 45.2175 81.83 45.8264 81.4718 46.1052C80.2616 47.0464 76.6315 45.3433 76.5865 44.7608C76.5418 44.1778 77.2141 37.0519 83.0852 40.4581Z" fill="white"/>
<path d="M83.731 40.0272C84.2104 39.5938 84.5846 38.9615 84.3549 38.0978C84.3549 38.0978 84.1157 37.5899 81.9346 37.7692C81.9346 37.7692 77.4827 36.4843 76.9448 37.2016C76.4069 37.9188 75.5702 42.2211 75.5404 43.5957C75.5107 44.9703 76.3639 45.5897 76.7952 45.4781C77.2269 45.3664 77.8707 42.0462 78.319 41.2373C78.7111 40.5296 79.9727 39.9605 81.6629 40.49C82.3822 40.7149 83.1725 40.5323 83.731 40.0272Z" fill="url(#paint104_linear_12355_40125)"/>
<path d="M70.7441 62.5218C70.6995 62.625 70.6548 62.7197 70.6102 62.8077C70.1697 63.6694 69.8696 64.8129 69.6663 65.952C69.6663 65.9533 69.6663 65.9547 69.6663 65.9547C69.2633 68.2149 69.237 70.457 69.237 70.457C69.237 70.457 66.6072 70.8152 66.4273 70.457C66.2486 70.0973 68.2203 56.7116 68.4588 53.4252C68.6987 50.1388 70.984 47.8535 70.984 47.8535C73.1357 50.6084 72.0088 59.5978 70.7441 62.5218Z" fill="url(#paint105_linear_12355_40125)"/>
<path d="M83.1789 85.1084C83.1789 85.1084 81.5611 97.8696 81.4267 98.4522C81.2924 99.0348 79.3651 98.1386 79.3651 98.1386V85.1084H83.1789Z" fill="white"/>
<path d="M70.7442 62.5215C70.6995 62.6247 70.6548 62.7194 70.6102 62.8074C70.1697 63.6691 69.8696 64.8126 69.6663 65.9517C69.6538 65.7913 69.1811 59.7385 69.1642 58.1532C69.146 56.5482 69.6663 56.5929 69.6663 56.5929L70.7442 62.5215Z" fill="url(#paint106_linear_12355_40125)"/>
<path d="M72.5978 85.1084C72.5978 85.1084 72.5978 88.4131 72.5978 89.5782C72.5978 90.7434 73.1804 96.2562 73.1804 96.2562C73.1804 96.2562 75.0177 96.1665 75.3763 96.2562C75.735 96.3458 75.69 89.8472 75.69 89.8472C75.69 89.8472 76.8984 87.3166 76.6751 85.1084H72.5978Z" fill="white"/>
<path d="M78.2902 71.7187C78.2902 71.7187 78.233 74.8447 78.1562 77.784C78.0964 80.0608 78.0267 82.2277 77.961 82.7366C77.8118 83.9007 77.8413 84.7083 77.6319 84.8879C77.5425 84.9647 76.5026 85.1697 75.2782 85.2979H75.2711C73.6117 85.4722 71.6207 85.5057 71.208 84.8879C70.4914 83.8114 71.2374 76.6709 71.208 75.2964C71.1772 73.9214 70.8957 71.561 70.8957 71.561L78.2902 71.7187Z" fill="url(#paint107_linear_12355_40125)"/>
<path d="M78.1566 77.7842C78.0967 80.0611 78.0271 82.228 77.9614 82.7368C77.8122 83.901 77.8417 84.7085 77.6322 84.8882C77.5429 84.965 76.503 85.17 75.2786 85.2982H75.2715L77.3393 84.4226C77.3393 84.4226 77.844 81.8112 77.572 80.5547C77.1244 78.4856 76.9752 74.46 76.9752 74.46L78.1566 77.7842Z" fill="#1D243D"/>
<path d="M85.0724 83.0646C85.0724 85.4253 80.7694 85.7251 79.4855 85.3651C79.1076 85.2592 78.748 84.0348 78.4286 82.3588C77.6603 78.3319 77.1248 71.6979 77.1248 71.6979L84.5815 70.8335C84.5815 70.8335 84.7615 74.4545 84.9036 77.8346C84.9956 80.036 85.0724 82.1345 85.0724 83.0646ZM93.854 82.3967L93.9752 85.8144C93.9752 85.8144 93.9166 94.5987 93.7367 95.137C93.65 95.3934 93.2373 95.6502 92.7829 95.7645C92.288 95.8887 91.7443 95.8413 91.5254 95.4354C91.1073 94.6586 90.1005 85.9568 89.5537 83.663C87.9809 77.0595 87.9809 70.8338 87.9809 70.8338H94.5733L93.6169 75.7306L93.854 82.3967Z" fill="url(#paint108_linear_12355_40125)"/>
<path d="M93.9751 85.8137C93.9751 85.8137 93.9166 94.5981 93.7366 95.1363C93.65 95.3928 93.2373 95.6495 92.7829 95.7639C92.4666 95.6884 92.2572 95.5785 92.3979 95.4432C92.7633 95.0934 93.2582 94.9567 93.289 94.0906C93.3185 93.2232 93.4677 86.0228 92.925 83.3278C92.3813 80.6338 92.925 76.7939 92.925 76.7939C93.0938 76.9293 93.5468 80.1098 93.8537 82.3964L93.9751 85.8137Z" fill="#27272A"/>
<path d="M97.203 85.9927C97.203 88.2042 98.1608 94.3 97.6814 95.1366C97.203 95.9733 95.41 94.8369 95.41 94.8369C95.41 94.8369 95.3863 94.685 95.3457 94.4143C95.025 92.3005 93.6027 82.9583 93.4981 82.5875C93.3784 82.1694 92.3979 70.8332 92.3979 70.8332C92.3979 70.8332 95.9479 70.2949 97.9795 70.525L98.1608 75.239C98.1608 75.239 97.9155 77.4239 97.6743 79.8695C97.6743 79.8695 97.6743 79.8695 97.6743 79.8709C97.4375 82.2601 97.203 84.8996 97.203 85.9927Z" fill="url(#paint109_linear_12355_40125)"/>
<path d="M97.6814 95.1365C97.203 95.9732 95.4099 94.8368 95.4099 94.8368C95.4099 94.8368 95.3863 94.6849 95.3457 94.4142C95.7307 94.2914 97.681 95.1365 97.3813 93.4328C97.0816 91.7304 96.8139 85.9926 96.7537 85.0791C96.6938 84.1741 97.6587 79.9354 97.6739 79.8715C97.4368 82.26 97.2027 84.8995 97.2027 85.9926C97.203 88.2038 98.1611 94.2999 97.6814 95.1365ZM82.2319 71.2725C82.2319 71.2725 78.3494 72.7188 76.1683 72.7882C73.9872 72.8575 72.2243 72.0913 71.8061 72.7882C71.388 73.4851 71.866 75.3265 71.6867 76.1632C71.5074 76.9998 70.9867 79.476 70.9867 79.476C70.9867 79.476 70.7885 72.3673 70.7445 71.5615C70.7005 70.7549 79.6005 69.8476 82.2319 71.2725Z" fill="#27272A"/>
<path d="M83.936 71.0243C82.4133 71.2936 71.0287 72.816 70.4918 71.3826C70.2452 70.7245 70.1112 66.0101 70.1376 60.9669C70.1639 56.2109 70.3328 51.1605 70.6826 48.9408C70.7719 48.383 70.8724 48.0037 70.9837 47.8532C71.9624 46.5327 72.0111 45.4562 79.856 46.6779C80.2687 46.7421 80.7024 46.8132 81.1581 46.8896C81.1581 46.8896 83.3541 47.3457 83.0852 49.0633C82.9164 50.1341 83.4881 65.2865 83.9357 67.8868C84.0988 68.8334 84.3457 69.4707 84.52 69.9112C84.52 69.9112 84.52 69.9126 84.5213 69.9139C84.6079 70.1342 84.6763 70.3044 84.7067 70.4397C84.7839 70.7804 84.6276 70.9018 83.936 71.0243Z" fill="url(#paint110_linear_12355_40125)"/>
<path d="M83.8163 67.3041C83.8163 67.3041 80.1273 57.1753 80.7099 54.8447C81.2924 52.5141 81.7854 54.3518 81.7854 54.3518C81.7854 54.3518 83.8301 65.4664 83.8163 67.3041Z" fill="url(#paint111_linear_12355_40125)"/>
<path d="M82.3233 48.8616C82.3233 48.8616 83.8024 46.9792 85.0122 50.9906C85.7426 53.4123 84.6536 61.9263 85.1465 63.5844C85.6394 65.2428 85.1465 67.8871 85.1465 67.8871C85.1465 67.8871 84.1607 67.5061 83.7675 66.414C82.4735 62.8151 80.8892 54.0828 82.3233 48.8616Z" fill="url(#paint112_linear_12355_40125)"/>
<path d="M80.6469 47.1407C80.6469 47.1407 78.9195 48.1739 77.0314 47.775C75.1422 47.3761 73.674 46.9424 73.0017 47.1407C72.589 47.2604 71.4803 48.2185 70.6829 48.9408C70.7722 48.383 70.8727 48.0037 70.984 47.8532C71.9628 46.5327 72.0115 45.4562 79.8563 46.6779C80.1185 46.8145 80.382 46.9678 80.6469 47.1407Z" fill="url(#paint113_linear_12355_40125)"/>
<path d="M80.172 47.5395C80.172 47.5395 81.1216 47.5178 81.1578 46.8896C81.194 46.2613 79.2308 46.038 78.043 45.2538C76.8551 44.4696 75.7796 42.4302 74.4575 42.9617C73.2768 43.4364 73.2923 43.4387 73.382 44.8055C73.4717 46.1723 73.9872 47.6961 80.172 47.5395Z" fill="url(#paint114_linear_12355_40125)"/>
<path d="M85.6997 72.8462C85.6997 72.8462 85.5654 73.7275 85.4906 74.4298C85.4158 75.1318 86.357 75.7296 86.9098 75.7296C87.4626 75.7296 87.8141 75.1021 87.8141 75.1021C87.8141 75.1021 87.6044 72.8821 87.1899 72.8641C86.7752 72.8462 85.6997 72.8462 85.6997 72.8462Z" fill="white"/>
<path d="M86.1936 72.8462C86.1936 72.8462 85.5353 73.399 85.9088 74.1758C86.2822 74.9525 87.5821 75.4018 87.7614 75.1846C87.9407 74.9674 87.4775 73.8022 87.3879 73.6229C87.2979 73.444 86.5093 72.7819 86.1936 72.8462Z" fill="#D7DBDF"/>
<path d="M68.2141 73.2485L66.847 83.9351L67.2621 83.9882L68.6292 73.3016L68.2141 73.2485Z" fill="#27272A"/>
<path d="M62.6699 73.2521L61.352 83.938L61.7673 83.9892L63.0853 73.3033L62.6699 73.2521Z" fill="#27272A"/>
<path d="M68.5844 70.532C68.5844 70.532 69.5726 73.2646 68.8107 73.5785C68.0488 73.8922 66.3007 73.5785 66.0768 72.996C65.8528 72.4134 66.2524 70.6257 66.4466 70.3517C66.6408 70.0773 68.5844 70.532 68.5844 70.532Z" fill="white"/>
<path d="M68.0586 72.788H63.3161L63.5445 71.8691H68.2873L68.0586 72.788Z" fill="#3D4A80"/>
<path d="M63.4427 71.8696C62.9545 71.8696 62.4653 72.2445 62.3503 72.707L62.3367 72.7611L62.1865 73.365H63.1724L63.3226 72.7611L63.3361 72.707L63.5445 71.8696H63.4427ZM68.3892 71.8696C68.8774 71.8696 69.1798 72.2445 69.0648 72.707L69.0513 72.7611L68.901 73.365H67.9152L68.0654 72.7611L68.0789 72.707L68.2873 71.8696H68.3892Z" fill="#3D4A80"/>
<path d="M66.0105 71.983C66.0105 71.983 65.4719 72.0097 65.6211 73.3244C65.7706 74.6391 66.9189 75.356 67.5549 75.177C68.1909 74.9977 69.0814 74.6692 69.0993 74.4899C69.1169 74.3106 69.3561 73.5338 68.7884 72.8467C68.2207 72.1596 66.7883 71.5381 66.0105 71.983Z" fill="white"/>
<path d="M68.9291 71.6973C68.9291 71.6973 70.3761 72.9747 70.1349 73.7025C69.8936 74.4302 68.8181 74.8185 68.4 74.5794C67.9818 74.3402 68.0414 73.8919 68.4 73.5184C68.7583 73.1453 69.078 72.2541 68.9291 71.6973Z" fill="white"/>
<path d="M70.2671 85.3654L68.1405 84.1333L68.4247 85.2609H62.3026C61.8117 85.2609 61.3999 85.6324 61.3502 86.1209L59.9418 99.8832L58.1887 99.9204L60.3194 101.156C60.4719 101.259 60.6556 101.321 60.8553 101.321H68.3868C68.8777 101.321 69.2894 100.949 69.3392 100.461L70.7865 86.3158C70.8284 85.9071 70.6075 85.5383 70.2671 85.3654Z" fill="url(#paint115_linear_12355_40125)"/>
<path d="M66.1458 100.021H58.6142C58.0469 100.021 57.604 99.5306 57.6619 98.9663L59.1092 84.8214C59.1593 84.3329 59.5707 83.9614 60.0615 83.9614H67.5931C68.1604 83.9614 68.6033 84.452 68.5454 85.0163L67.0981 99.1612C67.0484 99.6497 66.637 100.021 66.1458 100.021Z" fill="url(#paint116_linear_12355_40125)"/>
<path d="M65.4046 96.6773H58.9059L59.2794 92.6978H65.7781L65.4046 96.6773Z" fill="url(#paint117_linear_12355_40125)"/>
<path d="M99.6142 85.0809L100.03 85.0247L98.7945 73.7139L98.3787 73.77L99.6142 85.0809Z" fill="#27272A"/>
<path d="M105.112 85.0798L105.528 85.0257L104.347 73.7148L103.931 73.769L105.112 85.0798Z" fill="#27272A"/>
<path d="M99.1081 72.0503C99.1081 72.0503 98.2261 72.8291 98.3729 73.273C98.5198 73.7165 99.1758 73.9533 99.4308 73.8075C99.6859 73.6617 99.6494 73.3883 99.4308 73.1606C99.2123 72.933 99.0171 72.39 99.1081 72.0503Z" fill="#DEB787"/>
<path d="M99.3182 71.3397C99.3182 71.3397 98.7156 73.0059 99.1801 73.197C99.6447 73.3882 100.71 73.197 100.847 72.8418C100.984 72.4866 100.74 71.3965 100.622 71.2297C100.503 71.0629 99.3182 71.3397 99.3182 71.3397Z" fill="white"/>
<path d="M98.8181 73.4439H103.561L103.333 72.5254H98.5898L98.8181 73.4439Z" fill="#3D4A80"/>
<path d="M103.434 72.5254C103.923 72.5254 104.412 72.9002 104.527 73.3627L104.54 73.4169L104.691 74.0207H103.705L103.554 73.4169L103.541 73.3627L103.333 72.5254H103.434ZM98.4876 72.5254C97.9994 72.5254 97.6969 72.9002 97.8119 73.3627L97.8255 73.4169L97.9757 74.0207H98.9615L98.8113 73.4169L98.7978 73.3627L98.5894 72.5254H98.4876Z" fill="#3D4A80"/>
<path d="M100.887 72.2243C100.887 72.2243 101.216 72.2405 101.125 73.042C101.034 73.8435 100.333 74.2806 99.9457 74.1713C99.558 74.062 99.015 73.8617 99.0042 73.7525C98.9933 73.6432 98.8475 73.1695 99.1936 72.7507C99.5397 72.3319 100.413 71.953 100.887 72.2243Z" fill="white"/>
<path d="M95.9685 85.6868L98.3208 84.3237L98.0065 85.5711H104.778C105.321 85.5711 105.777 85.9821 105.832 86.5224L107.389 101.745L109.329 101.786L106.972 103.153V103.152C106.803 103.267 106.6 103.335 106.379 103.335H98.0481C97.5051 103.335 97.0498 102.924 96.9946 102.384L95.3937 86.7379C95.3477 86.286 95.5923 85.8783 95.9685 85.6868Z" fill="url(#paint118_linear_12355_40125)"/>
<path d="M100.527 101.897H108.858C109.486 101.897 109.975 101.354 109.911 100.73L108.311 85.0846C108.255 84.5443 107.8 84.1333 107.257 84.1333H98.9261C98.2985 84.1333 97.8086 84.676 97.8726 85.3001L99.4735 100.946C99.529 101.486 99.984 101.897 100.527 101.897Z" fill="url(#paint119_linear_12355_40125)"/>
<path d="M101.347 98.1987H108.536L108.122 93.7969H100.934L101.347 98.1987Z" fill="url(#paint120_linear_12355_40125)"/>
<path d="M87.1933 72.1541C87.1933 72.1541 87.7908 73.2448 87.9552 74.0513C88.1196 74.8582 87.4322 74.9178 87.1933 74.888C86.9541 74.8582 86.0728 73.7824 86.2075 73.3493C86.3418 72.9163 86.5062 72.0347 87.1933 72.1541Z" fill="white"/>
<path d="M82.0093 102.172C82.0093 102.172 82.2502 99.2321 81.3753 98.551C80.5005 97.87 79.2903 98.2882 79.2903 98.2882C79.2903 98.2882 78.6627 101.082 78.5731 101.679C78.4838 102.277 80.1422 102.815 82.0093 102.172Z" fill="url(#paint121_linear_12355_40125)"/>
<path d="M78.5961 101.543C78.5961 101.543 79.9324 102.218 82.0317 101.755L82.0097 102.172C82.0097 102.172 79.8204 102.933 78.5995 101.858L78.5961 101.543Z" fill="#27272A"/>
<path d="M75.9813 97.4958C75.9366 98.3476 75.3483 100.184 75.2647 100.537C75.1741 100.917 75.3987 101.59 74.9511 102.083C74.5022 102.576 72.1052 102.343 71.634 101.989C71.634 101.989 71.617 101.912 71.6032 101.777C71.5558 101.37 71.521 100.438 71.9922 99.529C72.6198 98.3189 73.1357 97.1307 73.1577 97.0414C73.18 96.9507 72.9111 96.0556 73.6513 95.9202C74.3902 95.7863 75.8696 95.7724 75.9813 97.3104C75.9857 97.3648 75.9857 97.4278 75.9813 97.4958Z" fill="url(#paint122_linear_12355_40125)"/>
<path d="M75.2647 100.537C75.1741 100.917 75.3987 101.589 74.9511 102.083C74.5022 102.575 72.1052 102.343 71.6339 101.988C71.6339 101.988 71.617 101.912 71.6031 101.777C71.6228 101.744 71.6339 101.725 71.6339 101.725C71.6339 101.725 73.2917 98.9225 73.4493 98.1613C73.6056 97.4001 75.0628 96.7502 75.87 97.3778C75.9106 97.4086 75.9468 97.4488 75.9816 97.4962C75.9369 98.3477 75.3483 100.184 75.2647 100.537Z" fill="url(#paint123_linear_12355_40125)"/>
<path d="M85.0725 83.0643C85.0725 85.4251 80.7694 85.7248 79.4855 85.3649C79.1076 85.259 78.748 84.0346 78.4286 82.3586C78.6922 83.0126 79.2528 84.4196 79.3658 84.828C79.515 85.3649 80.6206 84.8574 82.1447 84.828C83.6688 84.7972 84.8553 83.9104 84.904 82.5274C84.9527 81.1444 84.904 77.834 84.904 77.834C84.9957 80.0357 85.0725 82.1343 85.0725 83.0643Z" fill="#27272A"/>
<path d="M83.936 71.0242C82.4133 71.2935 71.0287 72.8159 70.4918 71.3824C70.2452 70.7244 70.1112 66.01 70.1376 60.9668C70.1447 60.9529 70.1528 60.939 70.1612 60.9248C70.1612 60.9248 70.7594 67.9161 71.2083 69.0217C71.6559 70.1273 78.4087 70.745 79.9033 70.6155C81.3967 70.4859 84.52 69.9114 84.52 69.9114C84.52 69.9114 84.52 69.9128 84.5213 69.9142C84.5271 69.9405 84.5731 70.1205 84.7067 70.4399C84.7839 70.7802 84.6276 70.9017 83.936 71.0242Z" fill="url(#paint124_linear_12355_40125)"/>
<path d="M89.2418 52.2749C89.2418 52.2749 87.283 53.6634 86.5661 54.4709C85.9162 55.2027 87.7613 67.2589 87.7911 68.4244C87.8209 69.5895 87.9806 70.8332 87.9806 70.8332C87.9806 70.8332 96.8444 71.2209 97.9798 70.525C99.1152 69.8287 97.4121 65.0483 97.4121 64.0324C97.4121 63.0164 97.8005 57.5486 97.8005 57.3097C97.8005 57.0709 98.7731 53.863 98.0924 53.4949C97.4117 53.1265 95.4752 50.4447 89.2418 52.2749Z" fill="url(#paint125_linear_12355_40125)"/>
<path d="M98.24 53.6637C98.24 53.6637 99.1747 53.844 99.4437 55.7261C99.7126 57.6081 100.689 69.8862 100.706 71.1765C100.713 71.7412 99.3987 71.3227 99.3987 71.3227C99.3987 71.3227 98.3381 66.8708 98.0989 65.5859C97.8597 64.301 96.9337 58.8632 97.2622 56.2937C97.4307 54.9797 97.7058 53.302 98.24 53.6637Z" fill="url(#paint126_linear_12355_40125)"/>
<path d="M89.2418 50.9341C89.2418 50.9341 89.4269 51.9538 89.393 52.402C89.3596 52.8503 92.422 51.2971 92.422 51.2971L91.3583 48.4204L89.2418 50.9341Z" fill="white"/>
<path d="M88.6873 43.9312C88.6873 43.9312 87.3652 46.7994 86.3793 47.6959L87.3878 48.5251C87.3878 48.5251 86.9396 50.8331 87.0966 50.9677C87.2535 51.1021 87.7241 51.7073 89.4495 50.8334C91.1746 49.9592 94.1328 44.1331 88.6873 43.9312Z" fill="white"/>
<path d="M87.3429 47.1356C87.3429 47.1356 87.1933 43.7145 88.8666 43.087C90.5399 42.4594 93.7069 42.6089 94.2448 43.6547C94.7827 44.7004 94.5435 44.7559 95.141 45.49C95.7385 46.2242 96.1268 46.5452 95.9178 47.55C95.7087 48.5548 95.9178 49.3915 96.9337 49.72C97.9497 50.0485 97.9196 52.5286 98.0691 53.3653C98.2186 54.2019 98.5471 55.905 98.2186 56.2335C97.8901 56.562 96.3961 55.5762 94.9021 56.2335C93.4081 56.8909 92.5417 58.3849 90.6593 57.4883C88.777 56.5918 89.4343 54.0822 90.0619 52.439C90.6895 50.7958 90.6296 50.0732 89.9123 48.9405C89.1951 47.8078 89.9123 46.5094 89.9722 46.143C90.0321 45.7762 90.0832 44.1642 89.4343 44.3719C88.3625 44.7156 87.3429 47.1356 87.3429 47.1356Z" fill="url(#paint127_linear_12355_40125)"/>
<path d="M86.5661 54.471C86.5661 54.471 85.6895 55.0089 85.3661 56.2339C85.0423 57.459 85.4608 66.6615 85.4608 67.8865C85.4608 69.1115 85.4009 72.6371 85.7 72.8462C85.9991 73.0552 87.3134 72.8462 87.3134 72.8462L87.6778 67.3036C87.6775 67.3039 88.3886 53.6343 86.5661 54.471Z" fill="url(#paint128_linear_12355_40125)"/>
<path d="M92.0038 95.6512C92.0038 95.6512 92.1719 97.018 92.2166 97.0742C92.2612 97.1303 93.6619 97.4551 93.8635 97.0295C94.0651 96.6039 93.6395 95.0352 93.6395 95.0352L92.0038 95.6512Z" fill="white"/>
<path d="M93.6544 102.598C93.0563 102.875 90.884 103.116 90.7486 102.365C90.7209 102.212 90.686 102.075 90.6512 101.949C90.5172 101.456 90.4029 101.115 90.884 100.492C91.4892 99.7074 92.0105 97.189 92.2169 97.0747C92.2169 97.0747 93.4886 96.2938 93.9751 96.7945C94.261 97.0889 94.4535 97.5236 94.5733 97.9492C94.6599 98.2489 94.7086 98.5433 94.7296 98.7815C94.7827 99.3559 94.1622 100.357 94.1551 100.835C94.148 101.314 94.2529 102.322 93.6544 102.598Z" fill="url(#paint129_linear_12355_40125)"/>
<path d="M93.6545 102.598C93.0563 102.875 90.884 103.116 90.7487 102.365C90.7209 102.211 90.6861 102.075 90.6512 101.949C90.8282 101.196 91.6872 100.155 92.0038 99.5956C92.3844 98.9234 93.3716 97.7356 93.9755 97.6686C94.2015 97.6436 94.4065 97.7745 94.5737 97.9487C94.6603 98.2485 94.709 98.5428 94.73 98.781C94.7831 99.3554 94.1626 100.357 94.1555 100.835C94.1484 101.313 94.2529 102.321 93.6545 102.598Z" fill="url(#paint130_linear_12355_40125)"/>
<path d="M107.075 69.0775L107.59 68.5991V69.0775H107.075Z" fill="#82340A"/>
<path d="M132.877 76.9346L132.363 77.4129V76.9346H132.877Z" fill="#82340A"/>
<defs>
<linearGradient id="paint0_linear_12355_40125" x1="128.099" y1="98.4289" x2="124.538" y2="77.849" gradientUnits="userSpaceOnUse">
<stop stop-color="#13B601"/>
<stop offset="0.51" stop-color="#13B601"/>
<stop offset="1" stop-color="#CBF4B4"/>
</linearGradient>
<linearGradient id="paint1_linear_12355_40125" x1="56.3452" y1="42.6771" x2="53.9248" y2="41.9938" gradientUnits="userSpaceOnUse">
<stop stop-color="#FE7838"/>
<stop offset="0.54" stop-color="#FE7636"/>
<stop offset="1" stop-color="#FFAD8A"/>
</linearGradient>
<linearGradient id="paint2_linear_12355_40125" x1="55.7544" y1="38.0959" x2="55.5061" y2="38.0799" gradientUnits="userSpaceOnUse">
<stop stop-color="#FE7838"/>
<stop offset="0.54" stop-color="#FE7636"/>
<stop offset="1" stop-color="#FFAD8A"/>
</linearGradient>
<linearGradient id="paint3_linear_12355_40125" x1="57.9075" y1="43.6382" x2="56.2114" y2="40.1509" gradientUnits="userSpaceOnUse">
<stop stop-color="#FE7838"/>
<stop offset="0.54" stop-color="#FE7636"/>
<stop offset="1" stop-color="#FFAD8A"/>
</linearGradient>
<linearGradient id="paint4_linear_12355_40125" x1="57.9075" y1="47.4799" x2="56.2857" y2="44.0522" gradientUnits="userSpaceOnUse">
<stop stop-color="#FE7838"/>
<stop offset="0.54" stop-color="#FE7636"/>
<stop offset="1" stop-color="#FFAD8A"/>
</linearGradient>
<linearGradient id="paint5_linear_12355_40125" x1="57.6563" y1="50.4188" x2="54.6606" y2="46.5993" gradientUnits="userSpaceOnUse">
<stop stop-color="#FE7838"/>
<stop offset="0.54" stop-color="#FE7636"/>
<stop offset="1" stop-color="#FFAD8A"/>
</linearGradient>
<linearGradient id="paint6_linear_12355_40125" x1="55.9168" y1="45.7608" x2="54.9567" y2="45.5594" gradientUnits="userSpaceOnUse">
<stop stop-color="#FE7838"/>
<stop offset="0.54" stop-color="#FE7636"/>
<stop offset="1" stop-color="#FFAD8A"/>
</linearGradient>
<linearGradient id="paint7_linear_12355_40125" x1="52.6068" y1="45.7608" x2="51.6467" y2="45.5594" gradientUnits="userSpaceOnUse">
<stop stop-color="#FE7838"/>
<stop offset="0.54" stop-color="#FE7636"/>
<stop offset="1" stop-color="#FFAD8A"/>
</linearGradient>
<linearGradient id="paint8_linear_12355_40125" x1="59.2786" y1="45.7608" x2="58.3185" y2="45.5594" gradientUnits="userSpaceOnUse">
<stop stop-color="#FE7838"/>
<stop offset="0.54" stop-color="#FE7636"/>
<stop offset="1" stop-color="#FFAD8A"/>
</linearGradient>
<linearGradient id="paint9_linear_12355_40125" x1="57.3037" y1="79.931" x2="50.8385" y2="79.128" gradientUnits="userSpaceOnUse">
<stop stop-color="#FE7838"/>
<stop offset="0.54" stop-color="#FE7636"/>
<stop offset="1" stop-color="#FFAD8A"/>
</linearGradient>
<linearGradient id="paint10_linear_12355_40125" x1="58.6853" y1="93.3417" x2="47.5626" y2="89.5833" gradientUnits="userSpaceOnUse">
<stop stop-color="#FE7838"/>
<stop offset="0.54" stop-color="#FE7636"/>
<stop offset="1" stop-color="#FFAD8A"/>
</linearGradient>
<linearGradient id="paint11_linear_12355_40125" x1="59.7876" y1="93.3417" x2="53.8832" y2="92.3651" gradientUnits="userSpaceOnUse">
<stop stop-color="#FE7838"/>
<stop offset="0.54" stop-color="#FE7636"/>
<stop offset="1" stop-color="#FFAD8A"/>
</linearGradient>
<linearGradient id="paint12_linear_12355_40125" x1="59.1787" y1="89.2972" x2="55.2139" y2="82.8757" gradientUnits="userSpaceOnUse">
<stop stop-color="#FE7838"/>
<stop offset="0.54" stop-color="#FE7636"/>
<stop offset="1" stop-color="#FFAD8A"/>
</linearGradient>
<linearGradient id="paint13_linear_12355_40125" x1="58.6814" y1="81.4391" x2="54.2784" y2="81.1309" gradientUnits="userSpaceOnUse">
<stop stop-color="#FE7838"/>
<stop offset="0.54" stop-color="#FE7636"/>
<stop offset="1" stop-color="#FFAD8A"/>
</linearGradient>
<linearGradient id="paint14_linear_12355_40125" x1="57.3053" y1="49.9358" x2="57.2273" y2="49.225" gradientUnits="userSpaceOnUse">
<stop stop-color="#FE7838"/>
<stop offset="0.54" stop-color="#FE7636"/>
<stop offset="1" stop-color="#FFAD8A"/>
</linearGradient>
<linearGradient id="paint15_linear_12355_40125" x1="57.3053" y1="51.5184" x2="57.2273" y2="50.8075" gradientUnits="userSpaceOnUse">
<stop stop-color="#FE7838"/>
<stop offset="0.54" stop-color="#FE7636"/>
<stop offset="1" stop-color="#FFAD8A"/>
</linearGradient>
<linearGradient id="paint16_linear_12355_40125" x1="57.3053" y1="53.1004" x2="57.2273" y2="52.3896" gradientUnits="userSpaceOnUse">
<stop stop-color="#FE7838"/>
<stop offset="0.54" stop-color="#FE7636"/>
<stop offset="1" stop-color="#FFAD8A"/>
</linearGradient>
<linearGradient id="paint17_linear_12355_40125" x1="57.3053" y1="54.6829" x2="57.2273" y2="53.9721" gradientUnits="userSpaceOnUse">
<stop stop-color="#FE7838"/>
<stop offset="0.54" stop-color="#FE7636"/>
<stop offset="1" stop-color="#FFAD8A"/>
</linearGradient>
<linearGradient id="paint18_linear_12355_40125" x1="57.3053" y1="56.265" x2="57.2273" y2="55.5541" gradientUnits="userSpaceOnUse">
<stop stop-color="#FE7838"/>
<stop offset="0.54" stop-color="#FE7636"/>
<stop offset="1" stop-color="#FFAD8A"/>
</linearGradient>
<linearGradient id="paint19_linear_12355_40125" x1="57.3053" y1="57.848" x2="57.2273" y2="57.1371" gradientUnits="userSpaceOnUse">
<stop stop-color="#FE7838"/>
<stop offset="0.54" stop-color="#FE7636"/>
<stop offset="1" stop-color="#FFAD8A"/>
</linearGradient>
<linearGradient id="paint20_linear_12355_40125" x1="57.3053" y1="59.43" x2="57.2273" y2="58.7192" gradientUnits="userSpaceOnUse">
<stop stop-color="#FE7838"/>
<stop offset="0.54" stop-color="#FE7636"/>
<stop offset="1" stop-color="#FFAD8A"/>
</linearGradient>
<linearGradient id="paint21_linear_12355_40125" x1="57.3053" y1="61.0125" x2="57.2273" y2="60.3017" gradientUnits="userSpaceOnUse">
<stop stop-color="#FE7838"/>
<stop offset="0.54" stop-color="#FE7636"/>
<stop offset="1" stop-color="#FFAD8A"/>
</linearGradient>
<linearGradient id="paint22_linear_12355_40125" x1="57.3053" y1="62.5945" x2="57.2273" y2="61.8837" gradientUnits="userSpaceOnUse">
<stop stop-color="#FE7838"/>
<stop offset="0.54" stop-color="#FE7636"/>
<stop offset="1" stop-color="#FFAD8A"/>
</linearGradient>
<linearGradient id="paint23_linear_12355_40125" x1="57.3053" y1="64.1771" x2="57.2273" y2="63.4662" gradientUnits="userSpaceOnUse">
<stop stop-color="#FE7838"/>
<stop offset="0.54" stop-color="#FE7636"/>
<stop offset="1" stop-color="#FFAD8A"/>
</linearGradient>
<linearGradient id="paint24_linear_12355_40125" x1="57.3053" y1="65.7596" x2="57.2273" y2="65.0488" gradientUnits="userSpaceOnUse">
<stop stop-color="#FE7838"/>
<stop offset="0.54" stop-color="#FE7636"/>
<stop offset="1" stop-color="#FFAD8A"/>
</linearGradient>
<linearGradient id="paint25_linear_12355_40125" x1="57.3053" y1="67.3421" x2="57.2273" y2="66.6313" gradientUnits="userSpaceOnUse">
<stop stop-color="#FE7838"/>
<stop offset="0.54" stop-color="#FE7636"/>
<stop offset="1" stop-color="#FFAD8A"/>
</linearGradient>
<linearGradient id="paint26_linear_12355_40125" x1="57.3053" y1="68.9241" x2="57.2273" y2="68.2133" gradientUnits="userSpaceOnUse">
<stop stop-color="#FE7838"/>
<stop offset="0.54" stop-color="#FE7636"/>
<stop offset="1" stop-color="#FFAD8A"/>
</linearGradient>
<linearGradient id="paint27_linear_12355_40125" x1="57.3053" y1="70.5066" x2="57.2273" y2="69.7958" gradientUnits="userSpaceOnUse">
<stop stop-color="#FE7838"/>
<stop offset="0.54" stop-color="#FE7636"/>
<stop offset="1" stop-color="#FFAD8A"/>
</linearGradient>
<linearGradient id="paint28_linear_12355_40125" x1="57.3053" y1="72.0892" x2="57.2273" y2="71.3783" gradientUnits="userSpaceOnUse">
<stop stop-color="#FE7838"/>
<stop offset="0.54" stop-color="#FE7636"/>
<stop offset="1" stop-color="#FFAD8A"/>
</linearGradient>
<linearGradient id="paint29_linear_12355_40125" x1="57.3591" y1="74.3778" x2="56.7348" y2="72.3697" gradientUnits="userSpaceOnUse">
<stop stop-color="#FE7838"/>
<stop offset="0.54" stop-color="#FE7636"/>
<stop offset="1" stop-color="#FFAD8A"/>
</linearGradient>
<linearGradient id="paint30_linear_12355_40125" x1="57.0311" y1="75.7032" x2="56.6736" y2="74.3122" gradientUnits="userSpaceOnUse">
<stop stop-color="#FE7838"/>
<stop offset="0.54" stop-color="#FE7636"/>
<stop offset="1" stop-color="#FFAD8A"/>
</linearGradient>
<linearGradient id="paint31_linear_12355_40125" x1="52.1499" y1="74.3778" x2="51.386" y2="74.0697" gradientUnits="userSpaceOnUse">
<stop stop-color="#FE7838"/>
<stop offset="0.54" stop-color="#FE7636"/>
<stop offset="1" stop-color="#FFAD8A"/>
</linearGradient>
<linearGradient id="paint32_linear_12355_40125" x1="59.6717" y1="74.3778" x2="58.9077" y2="74.0697" gradientUnits="userSpaceOnUse">
<stop stop-color="#FE7838"/>
<stop offset="0.54" stop-color="#FE7636"/>
<stop offset="1" stop-color="#FFAD8A"/>
</linearGradient>
<linearGradient id="paint33_linear_12355_40125" x1="52.1499" y1="87.3309" x2="51.2632" y2="87.2943" gradientUnits="userSpaceOnUse">
<stop stop-color="#FE7838"/>
<stop offset="0.54" stop-color="#FE7636"/>
<stop offset="1" stop-color="#FFAD8A"/>
</linearGradient>
<linearGradient id="paint34_linear_12355_40125" x1="59.6717" y1="87.3309" x2="58.7849" y2="87.2943" gradientUnits="userSpaceOnUse">
<stop stop-color="#FE7838"/>
<stop offset="0.54" stop-color="#FE7636"/>
<stop offset="1" stop-color="#FFAD8A"/>
</linearGradient>
<linearGradient id="paint35_linear_12355_40125" x1="57.0783" y1="80.8871" x2="53.047" y2="78.4562" gradientUnits="userSpaceOnUse">
<stop stop-color="#FE7838"/>
<stop offset="0.54" stop-color="#FE7636"/>
<stop offset="1" stop-color="#FFAD8A"/>
</linearGradient>
<linearGradient id="paint36_linear_12355_40125" x1="60.4297" y1="89.2972" x2="56.0919" y2="85.7845" gradientUnits="userSpaceOnUse">
<stop stop-color="#FE7838"/>
<stop offset="0.54" stop-color="#FE7636"/>
<stop offset="1" stop-color="#FFAD8A"/>
</linearGradient>
<linearGradient id="paint37_linear_12355_40125" x1="57.0787" y1="82.6154" x2="54.9473" y2="79.937" gradientUnits="userSpaceOnUse">
<stop stop-color="#FE7838"/>
<stop offset="0.54" stop-color="#FE7636"/>
<stop offset="1" stop-color="#FFAD8A"/>
</linearGradient>
<linearGradient id="paint38_linear_12355_40125" x1="52.0745" y1="87.1725" x2="50.9203" y2="86.7338" gradientUnits="userSpaceOnUse">
<stop stop-color="#FE7838"/>
<stop offset="0.54" stop-color="#FE7636"/>
<stop offset="1" stop-color="#FFAD8A"/>
</linearGradient>
<linearGradient id="paint39_linear_12355_40125" x1="59.9633" y1="87.1725" x2="58.8091" y2="86.7338" gradientUnits="userSpaceOnUse">
<stop stop-color="#FE7838"/>
<stop offset="0.54" stop-color="#FE7636"/>
<stop offset="1" stop-color="#FFAD8A"/>
</linearGradient>
<linearGradient id="paint40_linear_12355_40125" x1="58.6814" y1="45.4266" x2="54.5501" y2="44.3258" gradientUnits="userSpaceOnUse">
<stop stop-color="#FE7838"/>
<stop offset="0.54" stop-color="#FE7636"/>
<stop offset="1" stop-color="#FFAD8A"/>
</linearGradient>
<linearGradient id="paint41_linear_12355_40125" x1="57.0787" y1="84.115" x2="55.8196" y2="81.805" gradientUnits="userSpaceOnUse">
<stop stop-color="#FE7838"/>
<stop offset="0.54" stop-color="#FE7636"/>
<stop offset="1" stop-color="#FFAD8A"/>
</linearGradient>
<linearGradient id="paint42_linear_12355_40125" x1="119.196" y1="96.7978" x2="91.3346" y2="82.196" gradientUnits="userSpaceOnUse">
<stop stop-color="#FE7838"/>
<stop offset="0.54" stop-color="#FE7636"/>
<stop offset="1" stop-color="#FFAD8A"/>
</linearGradient>
<linearGradient id="paint43_linear_12355_40125" x1="125.985" y1="92.3395" x2="114.109" y2="67.8233" gradientUnits="userSpaceOnUse">
<stop stop-color="#FFD2D2"/>
<stop offset="0.57" stop-color="white"/>
<stop offset="1" stop-color="white"/>
</linearGradient>
<linearGradient id="paint44_linear_12355_40125" x1="118.434" y1="63.9302" x2="118.144" y2="60.8769" gradientUnits="userSpaceOnUse">
<stop stop-color="#34344F"/>
<stop offset="0.26" stop-color="#3B3B57"/>
<stop offset="0.66" stop-color="#50506D"/>
<stop offset="1" stop-color="#666684"/>
</linearGradient>
<linearGradient id="paint45_linear_12355_40125" x1="118.434" y1="65.4932" x2="118.144" y2="62.4399" gradientUnits="userSpaceOnUse">
<stop stop-color="#34344F"/>
<stop offset="0.26" stop-color="#3B3B57"/>
<stop offset="0.66" stop-color="#50506D"/>
<stop offset="1" stop-color="#666684"/>
</linearGradient>
<linearGradient id="paint46_linear_12355_40125" x1="118.293" y1="67.269" x2="117.998" y2="64.2167" gradientUnits="userSpaceOnUse">
<stop stop-color="#34344F"/>
<stop offset="0.26" stop-color="#3B3B57"/>
<stop offset="0.66" stop-color="#50506D"/>
<stop offset="1" stop-color="#666684"/>
</linearGradient>
<linearGradient id="paint47_linear_12355_40125" x1="114.584" y1="71.0308" x2="104.153" y2="78.232" gradientUnits="userSpaceOnUse">
<stop stop-color="#39AFFD"/>
<stop offset="1" stop-color="#477FFF"/>
</linearGradient>
<linearGradient id="paint48_linear_12355_40125" x1="114.825" y1="94.8777" x2="99.3432" y2="88.6782" gradientUnits="userSpaceOnUse">
<stop stop-color="#FFD2D2"/>
<stop offset="0.57" stop-color="white"/>
<stop offset="1" stop-color="white"/>
</linearGradient>
<linearGradient id="paint49_linear_12355_40125" x1="113.137" y1="90.1463" x2="104.131" y2="85.6351" gradientUnits="userSpaceOnUse">
<stop stop-color="#FE7838"/>
<stop offset="0.54" stop-color="#FE7636"/>
<stop offset="1" stop-color="#FFAD8A"/>
</linearGradient>
<linearGradient id="paint50_linear_12355_40125" x1="123.032" y1="90.9528" x2="114.556" y2="88.0418" gradientUnits="userSpaceOnUse">
<stop stop-color="#FE7838"/>
<stop offset="0.54" stop-color="#FE7636"/>
<stop offset="1" stop-color="#FFAD8A"/>
</linearGradient>
<linearGradient id="paint51_linear_12355_40125" x1="124.442" y1="88.7963" x2="123.076" y2="88.6484" gradientUnits="userSpaceOnUse">
<stop stop-color="#FE7838"/>
<stop offset="0.54" stop-color="#FE7636"/>
<stop offset="1" stop-color="#FFAD8A"/>
</linearGradient>
<linearGradient id="paint52_linear_12355_40125" x1="124.92" y1="88.7963" x2="123.554" y2="88.6484" gradientUnits="userSpaceOnUse">
<stop stop-color="#FE7838"/>
<stop offset="0.54" stop-color="#FE7636"/>
<stop offset="1" stop-color="#FFAD8A"/>
</linearGradient>
<linearGradient id="paint53_linear_12355_40125" x1="125.399" y1="88.7963" x2="124.033" y2="88.6484" gradientUnits="userSpaceOnUse">
<stop stop-color="#FE7838"/>
<stop offset="0.54" stop-color="#FE7636"/>
<stop offset="1" stop-color="#FFAD8A"/>
</linearGradient>
<linearGradient id="paint54_linear_12355_40125" x1="125.877" y1="88.7963" x2="124.511" y2="88.6484" gradientUnits="userSpaceOnUse">
<stop stop-color="#FE7838"/>
<stop offset="0.54" stop-color="#FE7636"/>
<stop offset="1" stop-color="#FFAD8A"/>
</linearGradient>
<linearGradient id="paint55_linear_12355_40125" x1="126.356" y1="88.7963" x2="124.99" y2="88.6484" gradientUnits="userSpaceOnUse">
<stop stop-color="#FE7838"/>
<stop offset="0.54" stop-color="#FE7636"/>
<stop offset="1" stop-color="#FFAD8A"/>
</linearGradient>
<linearGradient id="paint56_linear_12355_40125" x1="126.834" y1="88.7963" x2="125.468" y2="88.6484" gradientUnits="userSpaceOnUse">
<stop stop-color="#FE7838"/>
<stop offset="0.54" stop-color="#FE7636"/>
<stop offset="1" stop-color="#FFAD8A"/>
</linearGradient>
<linearGradient id="paint57_linear_12355_40125" x1="127.312" y1="88.7963" x2="125.946" y2="88.6484" gradientUnits="userSpaceOnUse">
<stop stop-color="#FE7838"/>
<stop offset="0.54" stop-color="#FE7636"/>
<stop offset="1" stop-color="#FFAD8A"/>
</linearGradient>
<linearGradient id="paint58_linear_12355_40125" x1="127.791" y1="88.7963" x2="126.425" y2="88.6484" gradientUnits="userSpaceOnUse">
<stop stop-color="#FE7838"/>
<stop offset="0.54" stop-color="#FE7636"/>
<stop offset="1" stop-color="#FFAD8A"/>
</linearGradient>
<linearGradient id="paint59_linear_12355_40125" x1="128.269" y1="88.7963" x2="126.903" y2="88.6484" gradientUnits="userSpaceOnUse">
<stop stop-color="#FE7838"/>
<stop offset="0.54" stop-color="#FE7636"/>
<stop offset="1" stop-color="#FFAD8A"/>
</linearGradient>
<linearGradient id="paint60_linear_12355_40125" x1="128.748" y1="88.7963" x2="127.382" y2="88.6484" gradientUnits="userSpaceOnUse">
<stop stop-color="#FE7838"/>
<stop offset="0.54" stop-color="#FE7636"/>
<stop offset="1" stop-color="#FFAD8A"/>
</linearGradient>
<linearGradient id="paint61_linear_12355_40125" x1="129.226" y1="88.7963" x2="127.86" y2="88.6484" gradientUnits="userSpaceOnUse">
<stop stop-color="#FE7838"/>
<stop offset="0.54" stop-color="#FE7636"/>
<stop offset="1" stop-color="#FFAD8A"/>
</linearGradient>
<linearGradient id="paint62_linear_12355_40125" x1="129.705" y1="88.7963" x2="128.339" y2="88.6484" gradientUnits="userSpaceOnUse">
<stop stop-color="#FE7838"/>
<stop offset="0.54" stop-color="#FE7636"/>
<stop offset="1" stop-color="#FFAD8A"/>
</linearGradient>
<linearGradient id="paint63_linear_12355_40125" x1="130.183" y1="88.7963" x2="128.817" y2="88.6484" gradientUnits="userSpaceOnUse">
<stop stop-color="#FE7838"/>
<stop offset="0.54" stop-color="#FE7636"/>
<stop offset="1" stop-color="#FFAD8A"/>
</linearGradient>
<linearGradient id="paint64_linear_12355_40125" x1="130.662" y1="88.7963" x2="129.296" y2="88.6484" gradientUnits="userSpaceOnUse">
<stop stop-color="#FE7838"/>
<stop offset="0.54" stop-color="#FE7636"/>
<stop offset="1" stop-color="#FFAD8A"/>
</linearGradient>
<linearGradient id="paint65_linear_12355_40125" x1="131.14" y1="88.7963" x2="129.774" y2="88.6484" gradientUnits="userSpaceOnUse">
<stop stop-color="#FE7838"/>
<stop offset="0.54" stop-color="#FE7636"/>
<stop offset="1" stop-color="#FFAD8A"/>
</linearGradient>
<linearGradient id="paint66_linear_12355_40125" x1="131.618" y1="88.7963" x2="130.252" y2="88.6484" gradientUnits="userSpaceOnUse">
<stop stop-color="#FE7838"/>
<stop offset="0.54" stop-color="#FE7636"/>
<stop offset="1" stop-color="#FFAD8A"/>
</linearGradient>
<linearGradient id="paint67_linear_12355_40125" x1="132.097" y1="88.7963" x2="130.731" y2="88.6484" gradientUnits="userSpaceOnUse">
<stop stop-color="#FE7838"/>
<stop offset="0.54" stop-color="#FE7636"/>
<stop offset="1" stop-color="#FFAD8A"/>
</linearGradient>
<linearGradient id="paint68_linear_12355_40125" x1="132.575" y1="88.7963" x2="131.209" y2="88.6484" gradientUnits="userSpaceOnUse">
<stop stop-color="#FE7838"/>
<stop offset="0.54" stop-color="#FE7636"/>
<stop offset="1" stop-color="#FFAD8A"/>
</linearGradient>
<linearGradient id="paint69_linear_12355_40125" x1="133.054" y1="88.7963" x2="131.688" y2="88.6484" gradientUnits="userSpaceOnUse">
<stop stop-color="#FE7838"/>
<stop offset="0.54" stop-color="#FE7636"/>
<stop offset="1" stop-color="#FFAD8A"/>
</linearGradient>
<linearGradient id="paint70_linear_12355_40125" x1="133.532" y1="88.7963" x2="132.166" y2="88.6484" gradientUnits="userSpaceOnUse">
<stop stop-color="#FE7838"/>
<stop offset="0.54" stop-color="#FE7636"/>
<stop offset="1" stop-color="#FFAD8A"/>
</linearGradient>
<linearGradient id="paint71_linear_12355_40125" x1="134.011" y1="88.7963" x2="132.645" y2="88.6484" gradientUnits="userSpaceOnUse">
<stop stop-color="#FE7838"/>
<stop offset="0.54" stop-color="#FE7636"/>
<stop offset="1" stop-color="#FFAD8A"/>
</linearGradient>
<linearGradient id="paint72_linear_12355_40125" x1="134.489" y1="88.7963" x2="133.123" y2="88.6484" gradientUnits="userSpaceOnUse">
<stop stop-color="#FE7838"/>
<stop offset="0.54" stop-color="#FE7636"/>
<stop offset="1" stop-color="#FFAD8A"/>
</linearGradient>
<linearGradient id="paint73_linear_12355_40125" x1="134.967" y1="88.7963" x2="133.601" y2="88.6484" gradientUnits="userSpaceOnUse">
<stop stop-color="#FE7838"/>
<stop offset="0.54" stop-color="#FE7636"/>
<stop offset="1" stop-color="#FFAD8A"/>
</linearGradient>
<linearGradient id="paint74_linear_12355_40125" x1="135.446" y1="88.7963" x2="134.08" y2="88.6484" gradientUnits="userSpaceOnUse">
<stop stop-color="#FE7838"/>
<stop offset="0.54" stop-color="#FE7636"/>
<stop offset="1" stop-color="#FFAD8A"/>
</linearGradient>
<linearGradient id="paint75_linear_12355_40125" x1="135.925" y1="88.7963" x2="134.558" y2="88.6484" gradientUnits="userSpaceOnUse">
<stop stop-color="#FE7838"/>
<stop offset="0.54" stop-color="#FE7636"/>
<stop offset="1" stop-color="#FFAD8A"/>
</linearGradient>
<linearGradient id="paint76_linear_12355_40125" x1="100.837" y1="88.7963" x2="99.4709" y2="88.6484" gradientUnits="userSpaceOnUse">
<stop stop-color="#FE7838"/>
<stop offset="0.54" stop-color="#FE7636"/>
<stop offset="1" stop-color="#FFAD8A"/>
</linearGradient>
<linearGradient id="paint77_linear_12355_40125" x1="97.5601" y1="88.7963" x2="96.194" y2="88.6484" gradientUnits="userSpaceOnUse">
<stop stop-color="#FE7838"/>
<stop offset="0.54" stop-color="#FE7636"/>
<stop offset="1" stop-color="#FFAD8A"/>
</linearGradient>
<linearGradient id="paint78_linear_12355_40125" x1="97.0817" y1="88.7963" x2="95.7156" y2="88.6484" gradientUnits="userSpaceOnUse">
<stop stop-color="#FE7838"/>
<stop offset="0.54" stop-color="#FE7636"/>
<stop offset="1" stop-color="#FFAD8A"/>
</linearGradient>
<linearGradient id="paint79_linear_12355_40125" x1="96.603" y1="88.7963" x2="95.2369" y2="88.6484" gradientUnits="userSpaceOnUse">
<stop stop-color="#FE7838"/>
<stop offset="0.54" stop-color="#FE7636"/>
<stop offset="1" stop-color="#FFAD8A"/>
</linearGradient>
<linearGradient id="paint80_linear_12355_40125" x1="96.1246" y1="88.7963" x2="94.7585" y2="88.6484" gradientUnits="userSpaceOnUse">
<stop stop-color="#FE7838"/>
<stop offset="0.54" stop-color="#FE7636"/>
<stop offset="1" stop-color="#FFAD8A"/>
</linearGradient>
<linearGradient id="paint81_linear_12355_40125" x1="95.6462" y1="88.7963" x2="94.2801" y2="88.6484" gradientUnits="userSpaceOnUse">
<stop stop-color="#FE7838"/>
<stop offset="0.54" stop-color="#FE7636"/>
<stop offset="1" stop-color="#FFAD8A"/>
</linearGradient>
<linearGradient id="paint82_linear_12355_40125" x1="95.1679" y1="88.7963" x2="93.8018" y2="88.6484" gradientUnits="userSpaceOnUse">
<stop stop-color="#FE7838"/>
<stop offset="0.54" stop-color="#FE7636"/>
<stop offset="1" stop-color="#FFAD8A"/>
</linearGradient>
<linearGradient id="paint83_linear_12355_40125" x1="94.6895" y1="88.7963" x2="93.3234" y2="88.6484" gradientUnits="userSpaceOnUse">
<stop stop-color="#FE7838"/>
<stop offset="0.54" stop-color="#FE7636"/>
<stop offset="1" stop-color="#FFAD8A"/>
</linearGradient>
<linearGradient id="paint84_linear_12355_40125" x1="94.2108" y1="88.7963" x2="92.8447" y2="88.6484" gradientUnits="userSpaceOnUse">
<stop stop-color="#FE7838"/>
<stop offset="0.54" stop-color="#FE7636"/>
<stop offset="1" stop-color="#FFAD8A"/>
</linearGradient>
<linearGradient id="paint85_linear_12355_40125" x1="93.7324" y1="88.7963" x2="92.3663" y2="88.6484" gradientUnits="userSpaceOnUse">
<stop stop-color="#FE7838"/>
<stop offset="0.54" stop-color="#FE7636"/>
<stop offset="1" stop-color="#FFAD8A"/>
</linearGradient>
<linearGradient id="paint86_linear_12355_40125" x1="93.254" y1="88.7963" x2="91.8879" y2="88.6484" gradientUnits="userSpaceOnUse">
<stop stop-color="#FE7838"/>
<stop offset="0.54" stop-color="#FE7636"/>
<stop offset="1" stop-color="#FFAD8A"/>
</linearGradient>
<linearGradient id="paint87_linear_12355_40125" x1="92.7756" y1="88.7963" x2="91.4096" y2="88.6484" gradientUnits="userSpaceOnUse">
<stop stop-color="#FE7838"/>
<stop offset="0.54" stop-color="#FE7636"/>
<stop offset="1" stop-color="#FFAD8A"/>
</linearGradient>
<linearGradient id="paint88_linear_12355_40125" x1="92.2969" y1="88.7963" x2="90.9308" y2="88.6484" gradientUnits="userSpaceOnUse">
<stop stop-color="#FE7838"/>
<stop offset="0.54" stop-color="#FE7636"/>
<stop offset="1" stop-color="#FFAD8A"/>
</linearGradient>
<linearGradient id="paint89_linear_12355_40125" x1="91.8186" y1="88.7963" x2="90.4525" y2="88.6484" gradientUnits="userSpaceOnUse">
<stop stop-color="#FE7838"/>
<stop offset="0.54" stop-color="#FE7636"/>
<stop offset="1" stop-color="#FFAD8A"/>
</linearGradient>
<linearGradient id="paint90_linear_12355_40125" x1="91.3402" y1="88.7963" x2="89.9741" y2="88.6484" gradientUnits="userSpaceOnUse">
<stop stop-color="#FE7838"/>
<stop offset="0.54" stop-color="#FE7636"/>
<stop offset="1" stop-color="#FFAD8A"/>
</linearGradient>
<linearGradient id="paint91_linear_12355_40125" x1="90.8618" y1="88.7963" x2="89.4957" y2="88.6484" gradientUnits="userSpaceOnUse">
<stop stop-color="#FE7838"/>
<stop offset="0.54" stop-color="#FE7636"/>
<stop offset="1" stop-color="#FFAD8A"/>
</linearGradient>
<linearGradient id="paint92_linear_12355_40125" x1="90.3834" y1="88.7963" x2="89.0174" y2="88.6484" gradientUnits="userSpaceOnUse">
<stop stop-color="#FE7838"/>
<stop offset="0.54" stop-color="#FE7636"/>
<stop offset="1" stop-color="#FFAD8A"/>
</linearGradient>
<linearGradient id="paint93_linear_12355_40125" x1="89.9047" y1="88.7963" x2="88.5386" y2="88.6484" gradientUnits="userSpaceOnUse">
<stop stop-color="#FE7838"/>
<stop offset="0.54" stop-color="#FE7636"/>
<stop offset="1" stop-color="#FFAD8A"/>
</linearGradient>
<linearGradient id="paint94_linear_12355_40125" x1="89.4263" y1="88.7963" x2="88.0603" y2="88.6484" gradientUnits="userSpaceOnUse">
<stop stop-color="#FE7838"/>
<stop offset="0.54" stop-color="#FE7636"/>
<stop offset="1" stop-color="#FFAD8A"/>
</linearGradient>
<linearGradient id="paint95_linear_12355_40125" x1="88.9479" y1="88.7963" x2="87.5819" y2="88.6484" gradientUnits="userSpaceOnUse">
<stop stop-color="#FE7838"/>
<stop offset="0.54" stop-color="#FE7636"/>
<stop offset="1" stop-color="#FFAD8A"/>
</linearGradient>
<linearGradient id="paint96_linear_12355_40125" x1="88.4696" y1="88.7963" x2="87.1035" y2="88.6484" gradientUnits="userSpaceOnUse">
<stop stop-color="#FE7838"/>
<stop offset="0.54" stop-color="#FE7636"/>
<stop offset="1" stop-color="#FFAD8A"/>
</linearGradient>
<linearGradient id="paint97_linear_12355_40125" x1="87.9912" y1="88.7963" x2="86.6251" y2="88.6484" gradientUnits="userSpaceOnUse">
<stop stop-color="#FE7838"/>
<stop offset="0.54" stop-color="#FE7636"/>
<stop offset="1" stop-color="#FFAD8A"/>
</linearGradient>
<linearGradient id="paint98_linear_12355_40125" x1="87.5125" y1="88.7963" x2="86.1464" y2="88.6484" gradientUnits="userSpaceOnUse">
<stop stop-color="#FE7838"/>
<stop offset="0.54" stop-color="#FE7636"/>
<stop offset="1" stop-color="#FFAD8A"/>
</linearGradient>
<linearGradient id="paint99_linear_12355_40125" x1="87.0341" y1="88.7963" x2="85.668" y2="88.6484" gradientUnits="userSpaceOnUse">
<stop stop-color="#FE7838"/>
<stop offset="0.54" stop-color="#FE7636"/>
<stop offset="1" stop-color="#FFAD8A"/>
</linearGradient>
<linearGradient id="paint100_linear_12355_40125" x1="86.5557" y1="88.7963" x2="85.1897" y2="88.6484" gradientUnits="userSpaceOnUse">
<stop stop-color="#FE7838"/>
<stop offset="0.54" stop-color="#FE7636"/>
<stop offset="1" stop-color="#FFAD8A"/>
</linearGradient>
<linearGradient id="paint101_linear_12355_40125" x1="86.0773" y1="88.7963" x2="84.7113" y2="88.6484" gradientUnits="userSpaceOnUse">
<stop stop-color="#FE7838"/>
<stop offset="0.54" stop-color="#FE7636"/>
<stop offset="1" stop-color="#FFAD8A"/>
</linearGradient>
<linearGradient id="paint102_linear_12355_40125" x1="120.111" y1="107.195" x2="117.06" y2="90.1507" gradientUnits="userSpaceOnUse">
<stop stop-color="#13B601"/>
<stop offset="0.51" stop-color="#13B601"/>
<stop offset="1" stop-color="#CBF4B4"/>
</linearGradient>
<linearGradient id="paint103_linear_12355_40125" x1="109.125" y1="105.517" x2="107.109" y2="94.2508" gradientUnits="userSpaceOnUse">
<stop stop-color="#13B601"/>
<stop offset="0.51" stop-color="#13B601"/>
<stop offset="1" stop-color="#CBF4B4"/>
</linearGradient>
<linearGradient id="paint104_linear_12355_40125" x1="82.3328" y1="55.6053" x2="73.1457" y2="54.2004" gradientUnits="userSpaceOnUse">
<stop stop-color="#34344F"/>
<stop offset="0.26" stop-color="#3B3B57"/>
<stop offset="0.66" stop-color="#50506D"/>
<stop offset="1" stop-color="#666684"/>
</linearGradient>
<linearGradient id="paint105_linear_12355_40125" x1="71.5381" y1="69.1054" x2="63.1651" y2="66.9213" gradientUnits="userSpaceOnUse">
<stop stop-color="#1EB4EB"/>
<stop offset="0.54" stop-color="#1EB4EB"/>
<stop offset="1" stop-color="#92F4FE"/>
</linearGradient>
<linearGradient id="paint106_linear_12355_40125" x1="69.954" y1="56.5928" x2="69.954" y2="65.9517" gradientUnits="userSpaceOnUse">
<stop stop-color="#9D8EFF"/>
<stop offset="1" stop-color="#1FFBB9"/>
</linearGradient>
<linearGradient id="paint107_linear_12355_40125" x1="76.5495" y1="101.871" x2="68.772" y2="101.263" gradientUnits="userSpaceOnUse">
<stop stop-color="#34344F"/>
<stop offset="0.26" stop-color="#3B3B57"/>
<stop offset="0.66" stop-color="#50506D"/>
<stop offset="1" stop-color="#666684"/>
</linearGradient>
<linearGradient id="paint108_linear_12355_40125" x1="90.4658" y1="125.539" x2="72.1923" y2="123.671" gradientUnits="userSpaceOnUse">
<stop stop-color="#34344F"/>
<stop offset="0.26" stop-color="#3B3B57"/>
<stop offset="0.66" stop-color="#50506D"/>
<stop offset="1" stop-color="#666684"/>
</linearGradient>
<linearGradient id="paint109_linear_12355_40125" x1="96.8042" y1="125.14" x2="90.7128" y2="124.934" gradientUnits="userSpaceOnUse">
<stop stop-color="#34344F"/>
<stop offset="0.26" stop-color="#3B3B57"/>
<stop offset="0.66" stop-color="#50506D"/>
<stop offset="1" stop-color="#666684"/>
</linearGradient>
<linearGradient id="paint110_linear_12355_40125" x1="83.0692" y1="70.2735" x2="66.1732" y2="60.4715" gradientUnits="userSpaceOnUse">
<stop stop-color="#1EB4EB"/>
<stop offset="0.54" stop-color="#1EB4EB"/>
<stop offset="1" stop-color="#92F4FE"/>
</linearGradient>
<linearGradient id="paint111_linear_12355_40125" x1="82.2319" y1="53.6636" x2="82.2319" y2="67.3041" gradientUnits="userSpaceOnUse">
<stop stop-color="#9D8EFF"/>
<stop offset="1" stop-color="#1FFBB9"/>
</linearGradient>
<linearGradient id="paint112_linear_12355_40125" x1="84.956" y1="66.595" x2="79.5649" y2="65.5677" gradientUnits="userSpaceOnUse">
<stop stop-color="#1EB4EB"/>
<stop offset="0.54" stop-color="#1EB4EB"/>
<stop offset="1" stop-color="#92F4FE"/>
</linearGradient>
<linearGradient id="paint113_linear_12355_40125" x1="75.6649" y1="46.1431" x2="75.6649" y2="48.9408" gradientUnits="userSpaceOnUse">
<stop stop-color="#9D8EFF"/>
<stop offset="1" stop-color="#1FFBB9"/>
</linearGradient>
<linearGradient id="paint114_linear_12355_40125" x1="80.2719" y1="47.2402" x2="77.2091" y2="41.9814" gradientUnits="userSpaceOnUse">
<stop stop-color="#1EB4EB"/>
<stop offset="0.54" stop-color="#1EB4EB"/>
<stop offset="1" stop-color="#92F4FE"/>
</linearGradient>
<linearGradient id="paint115_linear_12355_40125" x1="69.8901" y1="84.1333" x2="54.3551" y2="91.9975" gradientUnits="userSpaceOnUse">
<stop stop-color="#39AFFD"/>
<stop offset="1" stop-color="#477FFF"/>
</linearGradient>
<linearGradient id="paint116_linear_12355_40125" x1="67.3145" y1="98.9553" x2="55.9675" y2="91.0454" gradientUnits="userSpaceOnUse">
<stop stop-color="#1EB4EB"/>
<stop offset="0.54" stop-color="#1EB4EB"/>
<stop offset="1" stop-color="#92F4FE"/>
</linearGradient>
<linearGradient id="paint117_linear_12355_40125" x1="65.2865" y1="92.6978" x2="60.8914" y2="97.9375" gradientUnits="userSpaceOnUse">
<stop stop-color="#39AFFD"/>
<stop offset="1" stop-color="#477FFF"/>
</linearGradient>
<linearGradient id="paint118_linear_12355_40125" x1="108.331" y1="84.3237" x2="91.1478" y2="93.0226" gradientUnits="userSpaceOnUse">
<stop stop-color="#39AFFD"/>
<stop offset="1" stop-color="#477FFF"/>
</linearGradient>
<linearGradient id="paint119_linear_12355_40125" x1="108.55" y1="100.718" x2="95.9986" y2="91.9684" gradientUnits="userSpaceOnUse">
<stop stop-color="#1EB4EB"/>
<stop offset="0.54" stop-color="#1EB4EB"/>
<stop offset="1" stop-color="#92F4FE"/>
</linearGradient>
<linearGradient id="paint120_linear_12355_40125" x1="107.992" y1="93.7969" x2="103.13" y2="99.5925" gradientUnits="userSpaceOnUse">
<stop stop-color="#39AFFD"/>
<stop offset="1" stop-color="#477FFF"/>
</linearGradient>
<linearGradient id="paint121_linear_12355_40125" x1="81.2228" y1="107.578" x2="77.6012" y2="107.151" gradientUnits="userSpaceOnUse">
<stop stop-color="#34344F"/>
<stop offset="0.26" stop-color="#3B3B57"/>
<stop offset="0.66" stop-color="#50506D"/>
<stop offset="1" stop-color="#666684"/>
</linearGradient>
<linearGradient id="paint122_linear_12355_40125" x1="74.947" y1="110.094" x2="70.3285" y2="109.635" gradientUnits="userSpaceOnUse">
<stop stop-color="#34344F"/>
<stop offset="0.26" stop-color="#3B3B57"/>
<stop offset="0.66" stop-color="#50506D"/>
<stop offset="1" stop-color="#666684"/>
</linearGradient>
<linearGradient id="paint123_linear_12355_40125" x1="74.9509" y1="108.593" x2="70.3859" y2="108.035" gradientUnits="userSpaceOnUse">
<stop stop-color="#34344F"/>
<stop offset="0.26" stop-color="#3B3B57"/>
<stop offset="0.66" stop-color="#50506D"/>
<stop offset="1" stop-color="#666684"/>
</linearGradient>
<linearGradient id="paint124_linear_12355_40125" x1="83.6811" y1="60.9248" x2="71.327" y2="72.1721" gradientUnits="userSpaceOnUse">
<stop stop-color="#39AFFD"/>
<stop offset="1" stop-color="#477FFF"/>
</linearGradient>
<linearGradient id="paint125_linear_12355_40125" x1="95.8063" y1="76.189" x2="83.0201" y2="71.9267" gradientUnits="userSpaceOnUse">
<stop stop-color="#EF3739"/>
<stop offset="0.54" stop-color="#EF3739"/>
<stop offset="1" stop-color="#FF8C8B"/>
</linearGradient>
<linearGradient id="paint126_linear_12355_40125" x1="99.9514" y1="76.3281" x2="95.8186" y2="75.8902" gradientUnits="userSpaceOnUse">
<stop stop-color="#EF3739"/>
<stop offset="0.54" stop-color="#EF3739"/>
<stop offset="1" stop-color="#FF8C8B"/>
</linearGradient>
<linearGradient id="paint127_linear_12355_40125" x1="95.7654" y1="75.6646" x2="84.236" y2="74.4287" gradientUnits="userSpaceOnUse">
<stop stop-color="#34344F"/>
<stop offset="0.26" stop-color="#3B3B57"/>
<stop offset="0.66" stop-color="#50506D"/>
<stop offset="1" stop-color="#666684"/>
</linearGradient>
<linearGradient id="paint128_linear_12355_40125" x1="87.2622" y1="77.9712" x2="84.2209" y2="77.7436" gradientUnits="userSpaceOnUse">
<stop stop-color="#EF3739"/>
<stop offset="0.54" stop-color="#EF3739"/>
<stop offset="1" stop-color="#FF8C8B"/>
</linearGradient>
<linearGradient id="paint129_linear_12355_40125" x1="93.8316" y1="104.564" x2="89.4173" y2="102.964" gradientUnits="userSpaceOnUse">
<stop stop-color="#EF3739"/>
<stop offset="0.54" stop-color="#EF3739"/>
<stop offset="1" stop-color="#FF8C8B"/>
</linearGradient>
<linearGradient id="paint130_linear_12355_40125" x1="93.8947" y1="104.627" x2="89.7395" y2="102.975" gradientUnits="userSpaceOnUse">
<stop stop-color="#FE7838"/>
<stop offset="0.54" stop-color="#FE7636"/>
<stop offset="1" stop-color="#FFAD8A"/>
</linearGradient>
</defs>
</svg>
