<svg width="16" height="16" viewBox="0 0 16 16" fill="none" xmlns="http://www.w3.org/2000/svg">
<g clip-path="url(#clip0_3574_3358)">
<path d="M7.6665 11.3333H2.6665C3.0298 11.1276 3.33971 10.8395 3.5713 10.4921C3.80288 10.1447 3.94967 9.7478 3.99984 9.33333V7.33333C4.03954 6.48738 4.3087 5.66818 4.77847 4.96353C5.24824 4.25888 5.9009 3.69535 6.6665 3.33333C6.6665 2.97971 6.80698 2.64057 7.05703 2.39052C7.30708 2.14048 7.64622 2 7.99984 2C8.35346 2 8.6926 2.14048 8.94265 2.39052C9.19269 2.64057 9.33317 2.97971 9.33317 3.33333C10.0988 3.69535 10.7514 4.25888 11.2212 4.96353C11.691 5.66818 11.9601 6.48738 11.9998 7.33333V9.33333C12.0105 9.41933 12.0245 9.504 12.0432 9.588" stroke="#17922F" stroke-linecap="round" stroke-linejoin="round"/>
<path d="M6 11.3334V12C5.9999 12.473 6.16741 12.9307 6.47278 13.2918C6.77815 13.653 7.20162 13.8942 7.668 13.9727" stroke="#17922F" stroke-linecap="round" stroke-linejoin="round"/>
<path d="M10 12.6667L11.3333 14L14 11.3334" stroke="#17922F" stroke-linecap="round" stroke-linejoin="round"/>
</g>
<defs>
<clipPath id="clip0_3574_3358">
<rect width="16" height="16" fill="white"/>
</clipPath>
</defs>
</svg>
