<svg width="16" height="16" viewBox="0 0 16 16" fill="none" xmlns="http://www.w3.org/2000/svg">
<path d="M2.45332 13.5462H13.602C13.546 12.8182 13.434 12.0902 13.098 11.4175C12.818 10.8575 11.5853 10.4088 10.0167 9.79216L9.40065 9.62416L9.28865 9.51216C9.17665 9.34416 9.06465 9.17683 9.06465 9.00883C9.00865 8.67216 9.00865 8.2235 9.12065 7.8315L9.17665 7.7195L9.28865 7.6075C9.96065 6.8795 10.2967 5.92683 10.1847 4.91816C10.1847 3.4055 9.28865 2.3975 8.05598 2.3975C6.82332 2.3975 5.87132 3.4055 5.87132 4.86216C5.81641 5.35719 5.86795 5.85823 6.02248 6.33171C6.17701 6.80519 6.43096 7.24017 6.76732 7.6075L6.87932 7.8315C6.99132 8.2235 7.04732 8.6715 6.93532 9.06416C6.93532 9.17683 6.82332 9.40016 6.71132 9.51216L6.65532 9.62416L6.03932 9.84883C4.47065 10.4088 3.23798 10.9128 2.90198 11.4728C2.60895 12.1249 2.45565 12.8313 2.45332 13.5462ZM13.7707 14.6662H2.22998C2.1119 14.6678 1.99469 14.6457 1.88526 14.6013C1.77583 14.5569 1.6764 14.491 1.59283 14.4076C1.50926 14.3242 1.44325 14.2248 1.39868 14.1155C1.35411 14.0061 1.33188 13.8889 1.33332 13.7708C1.33332 12.8175 1.55732 11.8655 1.89332 10.9695C2.39798 9.96016 3.74198 9.45616 5.64665 8.78416L5.87132 8.72816V8.2795C5.46123 7.81651 5.1503 7.27446 4.95768 6.68673C4.76506 6.09901 4.69483 5.47806 4.75132 4.86216C4.75065 2.8455 6.09465 1.3335 7.99998 1.3335C9.90532 1.3335 11.2493 2.8455 11.2493 4.91816C11.3613 6.0955 10.9693 7.3835 10.1293 8.2795C10.0733 8.42381 10.0733 8.58385 10.1293 8.72816L10.3527 8.78416C12.258 9.45683 13.602 9.96016 14.106 10.9695V11.0248C14.4987 11.9215 14.6667 12.8182 14.6667 13.7708C14.6667 14.2742 14.2753 14.6662 13.7707 14.6662Z" fill="#3E3AFF"/>
</svg>
