<svg width="260" height="69" viewBox="0 0 260 69" fill="none" xmlns="http://www.w3.org/2000/svg">
<path d="M83.4182 24.1056C79.0342 24.1056 76.0902 20.4256 76.0902 15.6576C76.0902 10.6336 79.3222 6.95359 83.9302 6.95359C86.3302 6.95359 88.2502 7.94559 89.3062 9.76959V7.27359H94.5862V22.5696C94.5862 27.8176 90.4902 31.2416 84.3462 31.2416C80.7942 31.2416 78.2022 30.0896 76.1542 28.0096L79.3542 24.6816C80.5702 25.8336 82.3942 26.7296 84.3462 26.7296C86.5542 26.7296 88.5062 25.5776 88.5062 22.5696V21.4816C87.5462 23.2416 85.5622 24.1056 83.4182 24.1056ZM85.5942 19.3056C86.8102 19.3056 87.7062 18.7296 88.5062 17.5776V14.5696C87.8982 13.0336 86.6182 12.0736 85.3382 12.0736C83.6102 12.0736 82.2982 13.7696 82.2982 15.8176C82.2982 17.8976 83.6742 19.3056 85.5942 19.3056ZM105.961 24.4256C100.041 24.4256 96.745 20.4256 96.745 15.9136C96.745 11.0496 99.945 6.95359 105.961 6.95359C111.977 6.95359 115.177 11.0496 115.177 15.6896C115.177 16.3296 115.113 17.0336 115.017 17.5456H103.209C103.337 19.3376 104.745 20.0736 106.153 20.0736C107.465 20.0736 108.809 19.4336 109.193 18.3776L114.345 19.8496C112.969 22.5376 110.057 24.4256 105.961 24.4256ZM103.081 13.8976H108.649C108.457 12.2656 107.401 11.2736 105.865 11.2736C104.329 11.2736 103.273 12.2656 103.081 13.8976ZM127.705 18.3776L128.793 23.1776C127.097 23.9136 125.049 24.4576 123.193 24.4576C120.441 24.4576 118.137 23.2096 118.137 19.5616V11.8496H116.057V7.27359H118.137V1.99359H124.217V7.27359H127.513V11.8496H124.217V17.4176C124.217 18.5376 124.729 18.9216 125.529 18.9216C126.137 18.9216 126.937 18.6976 127.705 18.3776ZM148.424 18.3776L149.512 23.1776C147.816 23.9136 145.768 24.4576 143.912 24.4576C141.16 24.4576 138.856 23.2096 138.856 19.5616V11.8496H136.776V7.27359H138.856V1.99359H144.936V7.27359H148.232V11.8496H144.936V17.4176C144.936 18.5376 145.448 18.9216 146.248 18.9216C146.856 18.9216 147.656 18.6976 148.424 18.3776ZM157.315 24.1056H151.235V7.27359H157.315V24.1056ZM157.315 5.86559H151.235V0.74559H157.315V5.86559ZM159.464 15.6896C159.464 11.0816 162.76 6.95359 168.712 6.95359C172.776 6.95359 175.56 8.84159 176.936 11.5296L171.016 13.3216C170.472 12.5216 169.672 12.0736 168.68 12.0736C167.016 12.0736 165.704 13.4176 165.704 15.6896C165.704 17.9616 167.016 19.3056 168.68 19.3056C169.672 19.3056 170.472 18.8576 171.016 18.0576L176.936 19.8496C175.56 22.5376 172.776 24.4256 168.712 24.4256C162.76 24.4256 159.464 20.2976 159.464 15.6896ZM196.396 24.1056H189.964L186.156 17.9616L184.94 19.3056V24.1056H178.86V0.74559H184.94V13.5136L189.42 7.27359H195.82L190.028 14.6336L196.396 24.1056ZM204.93 24.4256C199.01 24.4256 195.714 20.4256 195.714 15.9136C195.714 11.0496 198.914 6.95359 204.93 6.95359C210.946 6.95359 214.146 11.0496 214.146 15.6896C214.146 16.3296 214.082 17.0336 213.986 17.5456H202.178C202.306 19.3376 203.714 20.0736 205.122 20.0736C206.434 20.0736 207.778 19.4336 208.162 18.3776L213.314 19.8496C211.938 22.5376 209.026 24.4256 204.93 24.4256ZM202.05 13.8976H207.618C207.426 12.2656 206.37 11.2736 204.834 11.2736C203.298 11.2736 202.242 12.2656 202.05 13.8976ZM226.674 18.3776L227.762 23.1776C226.066 23.9136 224.018 24.4576 222.162 24.4576C219.41 24.4576 217.106 23.2096 217.106 19.5616V11.8496H215.026V7.27359H217.106V1.99359H223.186V7.27359H226.482V11.8496H223.186V17.4176C223.186 18.5376 223.698 18.9216 224.498 18.9216C225.106 18.9216 225.906 18.6976 226.674 18.3776ZM259.297 24.1056H251.329L250.113 22.8256C248.289 23.9136 246.241 24.4256 244.257 24.4256C238.977 24.4256 236.257 20.7136 236.257 17.1936C236.257 14.6016 237.729 12.7456 239.457 11.3376C238.113 9.67359 237.601 8.52159 237.601 6.95359C237.601 3.24159 240.449 1.09759 244.257 1.09759C247.553 1.09759 250.945 2.66559 250.945 6.56959C250.945 8.84159 249.761 10.6656 248.001 12.2016L250.625 14.9856C251.073 13.8016 251.361 12.3936 251.361 10.7936H256.257C256.225 14.0576 255.457 16.6816 254.209 18.7616L259.297 24.1056ZM244.897 19.6896C245.505 19.6896 246.145 19.5616 246.785 19.2736L243.169 15.4016C242.465 15.9776 242.081 16.5536 242.081 17.1936C242.081 18.0896 242.817 19.6896 244.897 19.6896ZM243.105 6.69759C243.105 7.24159 243.393 7.52959 244.161 8.26559C245.025 7.68959 245.377 7.30559 245.377 6.63359C245.377 5.92959 244.929 5.51359 244.257 5.51359C243.521 5.51359 243.105 6.02559 243.105 6.69759ZM9.25784 61.4256C3.33784 61.4256 0.0418379 57.4256 0.0418379 52.9136C0.0418379 48.0496 3.24184 43.9536 9.25784 43.9536C15.2738 43.9536 18.4738 48.0496 18.4738 52.6896C18.4738 53.3296 18.4098 54.0336 18.3138 54.5456H6.50584C6.63384 56.3376 8.04184 57.0736 9.44984 57.0736C10.7618 57.0736 12.1058 56.4336 12.4898 55.3776L17.6418 56.8496C16.2658 59.5376 13.3538 61.4256 9.25784 61.4256ZM6.37784 50.8976H11.9458C11.7538 49.2656 10.6978 48.2736 9.16184 48.2736C7.62584 48.2736 6.56984 49.2656 6.37784 50.8976ZM37.3978 50.0336V61.1056H31.3178V51.6336C31.3178 49.9696 30.4538 49.2656 29.4618 49.2656C28.4378 49.2656 27.0938 50.2576 26.5498 51.6656V61.1056H20.4698V44.2736H25.9418V46.7696C27.1258 44.9456 29.3658 43.9536 32.2778 43.9536C36.8538 43.9536 37.3978 47.7296 37.3978 50.0336ZM39.9608 67.7936C38.2008 67.7936 36.5048 67.1856 35.1928 66.0656L37.6888 61.9376C38.0408 62.3216 38.6168 62.5776 39.1928 62.5776C39.9928 62.5776 40.4728 62.0656 40.4728 61.2016V44.2736H46.5528V60.7216C46.5528 64.9136 43.8328 67.7936 39.9608 67.7936ZM46.5528 42.8656H40.4728V37.7456H46.5528V42.8656ZM71.209 67.9856V62.8016C72.169 63.1536 73.033 63.3456 73.705 63.3456C75.017 63.3456 75.721 62.6096 75.849 61.1056L69.737 44.2736H75.977L79.177 55.9536L81.769 44.2736H87.433L81.737 63.1216C80.745 66.4176 77.801 68.5936 74.345 68.5936C73.289 68.5936 72.233 68.4016 71.209 67.9856ZM94.5215 67.9856V62.8016C95.4815 63.1536 96.3455 63.3456 97.0175 63.3456C98.3295 63.3456 99.0335 62.6096 99.1615 61.1056L93.0495 44.2736H99.2895L102.49 55.9536L105.082 44.2736H110.746L105.05 63.1216C104.058 66.4176 101.114 68.5936 97.6575 68.5936C96.6015 68.5936 95.5455 68.4016 94.5215 67.9856ZM139.198 61.4256C135.806 61.4256 133.95 59.2816 133.95 55.3456V44.2736H140.03V53.9696C140.03 55.4416 140.734 56.3056 141.886 56.3056C142.814 56.3056 143.806 56.0176 144.798 54.5776V44.2736H150.878V54.3856C150.878 55.5376 151.166 55.9216 152.03 55.9856V61.1056C150.942 61.3296 150.11 61.4256 149.47 61.4256C147.422 61.4256 146.206 60.6576 145.886 59.0896L145.758 58.4816C144.19 60.5616 141.982 61.4256 139.198 61.4256ZM165.941 43.9856V49.4576C163.605 49.4576 161.525 49.9376 160.597 51.1216V61.1056H154.517V44.2736H160.085V47.4736C161.269 45.2336 163.157 43.9536 165.173 43.9536C165.621 43.9536 165.781 43.9536 165.941 43.9856ZM195.16 55.4736L195.896 60.3376C195.8 60.4336 193.304 61.3936 191 61.3936C187.8 61.3936 185.88 59.5376 185.88 57.3616V45.9696C185.88 43.6656 185.624 42.5456 183.896 42.5456C182.168 42.5456 181.656 43.6656 181.656 45.2976V46.2256H183.864V50.8016H181.656V61.1056H175.576V50.8016H173.496V46.2256H175.576V43.8256C175.576 39.3776 178.872 37.4256 183.64 37.4256C189.432 37.4256 191.96 40.3056 191.96 44.7856V54.1616C191.96 54.9616 192.312 55.9856 193.336 55.9856C194.04 55.9856 195.096 55.4736 195.16 55.4736ZM203.44 61.1056H197.36V44.2736H203.44V61.1056ZM203.44 42.8656H197.36V37.7456H203.44V42.8656ZM212.981 61.1056C208.597 61.1056 205.653 57.4256 205.653 52.6576C205.653 47.6336 208.885 43.9536 213.493 43.9536C215.893 43.9536 217.813 44.9456 218.869 46.7696V44.2736H224.149V59.5696C224.149 64.8176 220.053 68.2416 213.909 68.2416C210.357 68.2416 207.765 67.0896 205.717 65.0096L208.917 61.6816C210.133 62.8336 211.957 63.7296 213.909 63.7296C216.117 63.7296 218.069 62.5776 218.069 59.5696V58.4816C217.109 60.2416 215.125 61.1056 212.981 61.1056ZM215.157 56.3056C216.373 56.3056 217.269 55.7296 218.069 54.5776V51.5696C217.461 50.0336 216.181 49.0736 214.901 49.0736C213.173 49.0736 211.861 50.7696 211.861 52.8176C211.861 54.8976 213.237 56.3056 215.157 56.3056ZM244.163 50.0336V61.1056H238.083V51.6336C238.083 49.9696 237.251 49.2656 236.131 49.2656C235.331 49.2656 233.891 50.1936 233.315 51.6656V61.1056H227.235V37.7456H233.315V46.7696C234.499 44.9456 236.515 43.9536 238.883 43.9536C243.619 43.9536 244.163 47.5696 244.163 50.0336ZM257.83 55.3776L258.918 60.1776C257.222 60.9136 255.174 61.4576 253.318 61.4576C250.566 61.4576 248.262 60.2096 248.262 56.5616V48.8496H246.182V44.2736H248.262V38.9936H254.342V44.2736H257.638V48.8496H254.342V54.4176C254.342 55.5376 254.854 55.9216 255.654 55.9216C256.262 55.9216 257.062 55.6976 257.83 55.3776Z" fill="white"/>
<path d="M58.8088 61.6115C57.5875 61.6115 56.398 61.4018 55.2405 60.9825C54.0829 60.5542 53.0393 59.9435 52.1096 59.1505C51.189 58.3484 50.4553 57.3914 49.9084 56.2794C49.3707 55.1583 49.1018 53.9096 49.1018 52.5333C49.1018 51.1753 49.357 49.9402 49.8674 48.8282C50.3778 47.7163 51.0797 46.7638 51.9729 45.9708C52.8661 45.1687 53.8961 44.5535 55.0627 44.1251C56.2385 43.6876 57.4872 43.4689 58.8088 43.4689C60.6682 43.4689 62.3499 43.838 63.8538 44.5763C65.3577 45.3055 66.5471 46.3536 67.4221 47.7208C68.3062 49.0789 68.7483 50.7013 68.7483 52.588C68.7483 53.9734 68.4794 55.2221 67.9417 56.3341C67.4039 57.4461 66.6702 58.394 65.7405 59.1779C64.8108 59.9617 63.7489 60.5633 62.5549 60.9825C61.37 61.4018 60.1213 61.6115 58.8088 61.6115ZM57.9475 56.088C58.3486 56.088 58.7952 55.9012 59.2874 55.5275C59.7795 55.1447 60.2535 54.6616 60.7092 54.0782C61.165 53.4858 61.5387 52.866 61.8303 52.2189C62.1311 51.5717 62.2815 50.9793 62.2815 50.4415C62.2815 50.0314 62.1721 49.6577 61.9534 49.3204C61.7437 48.9832 61.3792 48.8146 60.8596 48.8146C60.3857 48.8146 59.8844 48.9969 59.3557 49.3615C58.8271 49.7169 58.3303 50.1863 57.8655 50.7697C57.4097 51.3439 57.0361 51.9591 56.7444 52.6154C56.4618 53.2625 56.3206 53.8823 56.3206 54.4747C56.3206 54.8758 56.439 55.2449 56.676 55.5822C56.913 55.9194 57.3368 56.088 57.9475 56.088ZM121.582 61.6115C120.361 61.6115 119.171 61.4018 118.014 60.9825C116.856 60.5542 115.813 59.9435 114.883 59.1505C113.962 58.3484 113.229 57.3914 112.682 56.2794C112.144 55.1583 111.875 53.9096 111.875 52.5333C111.875 51.1753 112.13 49.9402 112.641 48.8282C113.151 47.7163 113.853 46.7638 114.746 45.9708C115.64 45.1687 116.67 44.5535 117.836 44.1251C119.012 43.6876 120.261 43.4689 121.582 43.4689C123.442 43.4689 125.123 43.838 126.627 44.5763C128.131 45.3055 129.321 46.3536 130.196 47.7208C131.08 49.0789 131.522 50.7013 131.522 52.588C131.522 53.9734 131.253 55.2221 130.715 56.3341C130.177 57.4461 129.444 58.394 128.514 59.1779C127.584 59.9617 126.522 60.5633 125.328 60.9825C124.143 61.4018 122.895 61.6115 121.582 61.6115ZM120.721 56.088C121.122 56.088 121.569 55.9012 122.061 55.5275C122.553 55.1447 123.027 54.6616 123.483 54.0782C123.938 53.4858 124.312 52.866 124.604 52.2189C124.905 51.5717 125.055 50.9793 125.055 50.4415C125.055 50.0314 124.946 49.6577 124.727 49.3204C124.517 48.9832 124.153 48.8146 123.633 48.8146C123.159 48.8146 122.658 48.9969 122.129 49.3615C121.601 49.7169 121.104 50.1863 120.639 50.7697C120.183 51.3439 119.809 51.9591 119.518 52.6154C119.235 53.2625 119.094 53.8823 119.094 54.4747C119.094 54.8758 119.212 55.2449 119.449 55.5822C119.686 55.9194 120.11 56.088 120.721 56.088Z" fill="#00D9FF"/>
</svg>
