<svg width="193" height="82" viewBox="0 0 193 82" fill="none" xmlns="http://www.w3.org/2000/svg">
<path fill-rule="evenodd" clip-rule="evenodd" d="M12.1145 38.4125C13.8639 40.7399 15.9107 43.107 18.2101 45.4153C18.3553 45.5611 18.5008 45.7057 18.6464 45.8494C20.8072 47.9818 23.0138 49.8892 25.186 51.5345C33.256 57.6476 40.849 60.145 43.8418 57.1406C46.8346 54.1362 44.3468 46.5138 38.2573 38.4125C44.3468 30.3112 46.8346 22.6888 43.8418 19.6845C40.849 16.6801 33.256 19.1775 25.186 25.2906C23.0138 26.936 20.8073 28.8432 18.6464 30.9756C18.5008 31.1194 18.3553 31.2642 18.2101 31.4098C15.9106 33.7182 13.8639 36.0851 12.1145 38.4125Z" fill="url(#paint0_linear_536_28248)"/>
<path fill-rule="evenodd" clip-rule="evenodd" d="M7.60435 18.9252C3.25631 20.8767 0 28.8603 0 38.4125C0 47.9648 3.25631 55.9482 7.60435 57.8999C7.1997 57.7046 6.84008 57.4523 6.5298 57.1408C3.53702 54.1364 6.02476 46.514 12.1143 38.4127C13.8638 36.0853 15.9106 33.7182 18.2099 31.41C18.3552 31.2642 18.5006 31.1196 18.6462 30.9758C20.807 28.8434 23.0137 26.936 25.1858 25.2908C17.9522 19.8111 11.1022 17.2366 7.60435 18.9252Z" fill="#499CFF"/>
<path fill-rule="evenodd" clip-rule="evenodd" d="M18.6465 45.8495C18.5009 45.7057 18.3555 45.5609 18.2102 45.4153C15.9107 43.1069 13.8641 40.7399 12.1146 38.4125C6.02506 46.5138 3.53732 54.1363 6.53011 57.1406C6.84039 57.4521 7.20018 57.7044 7.60466 57.8997C11.1025 59.5883 17.9525 57.0138 25.1859 51.5345C23.0138 49.8891 20.8073 47.9819 18.6463 45.8495H18.6465ZM7.7298 57.9541C8.35689 58.2176 9.00599 58.3558 9.67073 58.3558C9.00599 58.3558 8.35689 58.2174 7.7298 57.9541Z" fill="url(#paint1_linear_536_28248)"/>
<path d="M120.465 20.8794V31.0843L123.504 26.4806H128.974L124.656 32.7969L129.734 39.9082H123.808L120.465 35.0742V39.9082H115.717L115.603 39.7931V20.9945L115.717 20.8794H120.465Z" fill="#FFF0E0"/>
<path d="M58.9712 31.0843L62.0482 26.4806H67.4803L63.1619 32.7985L68.1641 39.9082H62.3521L58.9712 35.151V39.7931L58.8573 39.9082H54.1089V20.8794H58.8573L58.9712 20.9945V31.0843Z" fill="#FFF0E0"/>
<path d="M82.4024 34.5371H73.1336C73.711 36.684 76.6405 36.5935 78.3196 35.9766C78.7876 35.8047 79.1492 35.5162 79.6187 35.375L81.945 38.0283C79.0839 40.6448 73.3311 40.9732 70.359 38.4518C67.6938 36.1914 67.4811 31.6045 69.5309 28.8653C71.763 25.8836 76.6724 25.4401 79.7372 27.2924C82.2717 28.8239 82.9479 31.7334 82.4024 34.5371ZM77.9199 32.0818C78.0172 29.1477 73.1457 29.2582 73.1336 32.0818H77.9199Z" fill="#FFF0E0"/>
<path d="M90.7591 22.7209V26.4806H93.798V30.3171H90.7591V35.2661C90.7591 35.3566 91.0736 35.7648 91.1769 35.8416C91.5371 36.1132 92.1053 36.1132 92.5369 36.0625C92.7481 36.038 93.4364 35.7479 93.4987 35.7971L94.5502 39.3604C92.1372 40.5742 87.9344 40.832 86.5152 38.0176C86.31 37.6094 85.8983 36.3019 85.8983 35.8784V30.3155H83.771V26.4791H85.8983V23.2565L90.7606 22.7194L90.7591 22.7209Z" fill="#FFF0E0"/>
<path d="M102.307 22.7209V26.4806H105.346V30.3171H102.307V35.1894C102.307 35.2093 102.441 35.5101 102.471 35.5607C102.976 36.4094 104.369 36.0395 105.118 35.7633L106.091 39.3542C104.406 40.2381 102.052 40.5174 100.236 39.8883C96.4755 38.5839 97.6348 33.3939 97.4449 30.3155H95.3176V26.4791H97.4449V23.2565L102.307 22.7194V22.7209Z" fill="#FFF0E0"/>
<path d="M112.716 26.4806H107.854V39.9082H112.716V26.4806Z" fill="#FFF0E0"/>
<path d="M136.343 20.8794L135.964 33.6164H131.481L131.139 20.8794H136.343Z" fill="#FFF0E0"/>
<ellipse cx="2.79454" cy="1.80243" rx="2.79454" ry="1.80243" transform="matrix(0.807894 -0.589328 0.582835 0.81259 130.492 37.7441)" fill="#00D9FF"/>
<ellipse cx="2.79454" cy="1.80243" rx="2.79454" ry="1.80243" transform="matrix(0.807894 -0.589328 0.582835 0.81259 106.952 23.2938)" fill="#00D9FF"/>
<path opacity="0.7" d="M54.9896 56.7643V49.4916H57.447C58.0175 49.4916 58.4839 49.5946 58.8461 49.8005C59.2107 50.0041 59.4806 50.2799 59.6558 50.6279C59.831 50.976 59.9185 51.3642 59.9185 51.7927C59.9185 52.2212 59.831 52.6107 59.6558 52.961C59.4829 53.3114 59.2154 53.5908 58.8532 53.7991C58.491 54.0051 58.027 54.1081 57.4612 54.1081H55.6998V53.3268H57.4328C57.8234 53.3268 58.1371 53.2593 58.3738 53.1244C58.6105 52.9895 58.7822 52.8072 58.8887 52.5775C58.9976 52.3455 59.0521 52.0839 59.0521 51.7927C59.0521 51.5015 58.9976 51.2411 58.8887 51.0115C58.7822 50.7818 58.6094 50.6019 58.3703 50.4717C58.1311 50.3391 57.8139 50.2728 57.4185 50.2728H55.8703V56.7643H54.9896ZM63.4809 56.8779C62.9885 56.8779 62.5564 56.7608 62.1847 56.5264C61.8154 56.292 61.5266 55.9641 61.3183 55.5427C61.1123 55.1213 61.0093 54.6289 61.0093 54.0654C61.0093 53.4973 61.1123 53.0013 61.3183 52.5775C61.5266 52.1538 61.8154 51.8247 62.1847 51.5903C62.5564 51.3559 62.9885 51.2387 63.4809 51.2387C63.9733 51.2387 64.4042 51.3559 64.7735 51.5903C65.1452 51.8247 65.434 52.1538 65.64 52.5775C65.8483 53.0013 65.9525 53.4973 65.9525 54.0654C65.9525 54.6289 65.8483 55.1213 65.64 55.5427C65.434 55.9641 65.1452 56.292 64.7735 56.5264C64.4042 56.7608 63.9733 56.8779 63.4809 56.8779ZM63.4809 56.1251C63.855 56.1251 64.1627 56.0292 64.4042 55.8375C64.6457 55.6457 64.8244 55.3936 64.9404 55.0811C65.0564 54.7686 65.1144 54.43 65.1144 54.0654C65.1144 53.7009 65.0564 53.3611 64.9404 53.0463C64.8244 52.7314 64.6457 52.4769 64.4042 52.2828C64.1627 52.0886 63.855 51.9916 63.4809 51.9916C63.1069 51.9916 62.7991 52.0886 62.5576 52.2828C62.3161 52.4769 62.1374 52.7314 62.0214 53.0463C61.9054 53.3611 61.8474 53.7009 61.8474 54.0654C61.8474 54.43 61.9054 54.7686 62.0214 55.0811C62.1374 55.3936 62.3161 55.6457 62.5576 55.8375C62.7991 56.0292 63.1069 56.1251 63.4809 56.1251ZM68.382 56.7643L66.7201 51.3098H67.6008L68.7798 55.4859H68.8366L70.0014 51.3098H70.8962L72.0468 55.4717H72.1036L73.2826 51.3098H74.1633L72.5014 56.7643H71.6775L70.4843 52.574H70.3991L69.2059 56.7643H68.382ZM77.4726 56.8779C76.9471 56.8779 76.4937 56.7619 76.1125 56.5299C75.7338 56.2956 75.4414 55.9689 75.2354 55.5498C75.0318 55.1284 74.93 54.6384 74.93 54.0797C74.93 53.5209 75.0318 53.0285 75.2354 52.6024C75.4414 52.1739 75.7278 51.8401 76.0948 51.601C76.4641 51.3595 76.895 51.2387 77.3874 51.2387C77.6715 51.2387 77.952 51.2861 78.229 51.3808C78.506 51.4755 78.7581 51.6294 78.9854 51.8424C79.2127 52.0531 79.3938 52.3325 79.5287 52.6805C79.6637 53.0285 79.7312 53.457 79.7312 53.966V54.3211H75.5266V53.5967H78.8789C78.8789 53.2889 78.8173 53.0143 78.6942 52.7728C78.5735 52.5314 78.4007 52.3408 78.1758 52.2011C77.9532 52.0614 77.6904 51.9916 77.3874 51.9916C77.0536 51.9916 76.7648 52.0744 76.5209 52.2402C76.2794 52.4035 76.0936 52.6166 75.9634 52.8794C75.8332 53.1422 75.7681 53.4239 75.7681 53.7245V54.2075C75.7681 54.6194 75.8391 54.9686 75.9812 55.2551C76.1256 55.5392 76.3256 55.7558 76.5813 55.9049C76.837 56.0517 77.1341 56.1251 77.4726 56.1251C77.6928 56.1251 77.8917 56.0943 78.0692 56.0328C78.2491 55.9689 78.4042 55.8742 78.5344 55.7487C78.6646 55.6208 78.7652 55.4622 78.8363 55.2728L79.6459 55.5001C79.5607 55.7747 79.4175 56.0162 79.2162 56.2245C79.015 56.4305 78.7664 56.5915 78.4705 56.7075C78.1746 56.8211 77.8419 56.8779 77.4726 56.8779ZM81.106 56.7643V51.3098H81.9157V52.1336H81.9725C82.0719 51.8637 82.2518 51.6448 82.5123 51.4767C82.7727 51.3086 83.0662 51.2245 83.3929 51.2245C83.4545 51.2245 83.5314 51.2257 83.6238 51.2281C83.7161 51.2305 83.7859 51.234 83.8333 51.2387V52.091C83.8049 52.0839 83.7398 52.0733 83.638 52.0591C83.5385 52.0425 83.4332 52.0342 83.3219 52.0342C83.0568 52.0342 82.82 52.0898 82.6117 52.2011C82.4057 52.31 82.2424 52.4615 82.1216 52.6556C82.0033 52.8474 81.9441 53.0664 81.9441 53.3126V56.7643H81.106ZM87.0476 56.8779C86.5221 56.8779 86.0687 56.7619 85.6875 56.5299C85.3088 56.2956 85.0164 55.9689 84.8104 55.5498C84.6068 55.1284 84.505 54.6384 84.505 54.0797C84.505 53.5209 84.6068 53.0285 84.8104 52.6024C85.0164 52.1739 85.3028 51.8401 85.6698 51.601C86.0391 51.3595 86.47 51.2387 86.9624 51.2387C87.2465 51.2387 87.527 51.2861 87.804 51.3808C88.081 51.4755 88.3331 51.6294 88.5604 51.8424C88.7877 52.0531 88.9688 52.3325 89.1037 52.6805C89.2387 53.0285 89.3062 53.457 89.3062 53.966V54.3211H85.1016V53.5967H88.4539C88.4539 53.2889 88.3923 53.0143 88.2692 52.7728C88.1485 52.5314 87.9757 52.3408 87.7508 52.2011C87.5282 52.0614 87.2654 51.9916 86.9624 51.9916C86.6286 51.9916 86.3398 52.0744 86.0959 52.2402C85.8544 52.4035 85.6686 52.6166 85.5384 52.8794C85.4082 53.1422 85.3431 53.4239 85.3431 53.7245V54.2075C85.3431 54.6194 85.4141 54.9686 85.5562 55.2551C85.7006 55.5392 85.9006 55.7558 86.1563 55.9049C86.412 56.0517 86.7091 56.1251 87.0476 56.1251C87.2678 56.1251 87.4667 56.0943 87.6442 56.0328C87.8241 55.9689 87.9792 55.8742 88.1094 55.7487C88.2396 55.6208 88.3402 55.4622 88.4113 55.2728L89.2209 55.5001C89.1357 55.7747 88.9925 56.0162 88.7912 56.2245C88.59 56.4305 88.3414 56.5915 88.0455 56.7075C87.7496 56.8211 87.4169 56.8779 87.0476 56.8779ZM92.7407 56.8779C92.2861 56.8779 91.8848 56.7631 91.5368 56.5335C91.1888 56.3015 90.9166 55.9748 90.7201 55.5534C90.5236 55.1296 90.4253 54.6289 90.4253 54.0512C90.4253 53.4783 90.5236 52.9812 90.7201 52.5598C90.9166 52.1384 91.19 51.8128 91.5404 51.5832C91.8908 51.3536 92.2956 51.2387 92.7549 51.2387C93.11 51.2387 93.3905 51.2979 93.5965 51.4163C93.8048 51.5323 93.9634 51.6649 94.0723 51.814C94.1836 51.9608 94.27 52.0815 94.3316 52.1762H94.4026V49.4916H95.2407V56.7643H94.431V55.9262H94.3316C94.27 56.0257 94.1824 56.1511 94.0688 56.3027C93.9552 56.4518 93.793 56.5856 93.5823 56.7039C93.3716 56.8199 93.091 56.8779 92.7407 56.8779ZM92.8543 56.1251C93.1905 56.1251 93.4746 56.0375 93.7066 55.8623C93.9386 55.6848 94.115 55.4397 94.2357 55.1272C94.3564 54.8124 94.4168 54.449 94.4168 54.037C94.4168 53.6298 94.3576 53.2735 94.2392 52.9681C94.1209 52.6604 93.9457 52.4213 93.7137 52.2508C93.4817 52.078 93.1952 51.9916 92.8543 51.9916C92.4992 51.9916 92.2033 52.0827 91.9665 52.265C91.7321 52.4449 91.5558 52.69 91.4374 53.0001C91.3214 53.3079 91.2634 53.6535 91.2634 54.037C91.2634 54.4253 91.3226 54.778 91.441 55.0953C91.5617 55.4101 91.7392 55.6611 91.9736 55.8481C92.2104 56.0328 92.5039 56.1251 92.8543 56.1251ZM100.018 56.7643V49.4916H100.856V52.1762H100.927C100.989 52.0815 101.074 51.9608 101.183 51.814C101.294 51.6649 101.453 51.5323 101.659 51.4163C101.867 51.2979 102.149 51.2387 102.504 51.2387C102.963 51.2387 103.368 51.3536 103.718 51.5832C104.069 51.8128 104.342 52.1384 104.539 52.5598C104.735 52.9812 104.833 53.4783 104.833 54.0512C104.833 54.6289 104.735 55.1296 104.539 55.5534C104.342 55.9748 104.07 56.3015 103.722 56.5335C103.374 56.7631 102.973 56.8779 102.518 56.8779C102.168 56.8779 101.887 56.8199 101.676 56.7039C101.466 56.5856 101.304 56.4518 101.19 56.3027C101.076 56.1511 100.989 56.0257 100.927 55.9262H100.828V56.7643H100.018ZM100.842 54.037C100.842 54.449 100.902 54.8124 101.023 55.1272C101.144 55.4397 101.32 55.6848 101.552 55.8623C101.784 56.0375 102.068 56.1251 102.404 56.1251C102.755 56.1251 103.047 56.0328 103.282 55.8481C103.518 55.6611 103.696 55.4101 103.814 55.0953C103.935 54.778 103.995 54.4253 103.995 54.037C103.995 53.6535 103.936 53.3079 103.818 53.0001C103.702 52.69 103.525 52.4449 103.289 52.265C103.054 52.0827 102.76 51.9916 102.404 51.9916C102.064 51.9916 101.777 52.078 101.545 52.2508C101.313 52.4213 101.138 52.6604 101.02 52.9681C100.901 53.2735 100.842 53.6298 100.842 54.037ZM106.56 58.8098C106.418 58.8098 106.291 58.7979 106.18 58.7743C106.069 58.7529 105.992 58.7316 105.949 58.7103L106.162 57.9717C106.366 58.0238 106.546 58.0427 106.702 58.0285C106.858 58.0143 106.997 57.9445 107.117 57.819C107.24 57.6959 107.353 57.4958 107.455 57.2189L107.611 56.7927L105.594 51.3098H106.503L108.009 55.6564H108.066L109.571 51.3098H110.48L108.165 57.5598C108.061 57.8415 107.932 58.0747 107.778 58.2593C107.624 58.4464 107.445 58.5849 107.242 58.6748C107.04 58.7648 106.813 58.8098 106.56 58.8098Z" fill="#FFF0E0"/>
<mask id="mask0_536_28248" style="mask-type:alpha" maskUnits="userSpaceOnUse" x="116" y="44" width="17" height="17">
<path fill-rule="evenodd" clip-rule="evenodd" d="M116.483 52.7643C116.483 57.2161 119.983 60.825 124.301 60.825C128.618 60.825 132.118 57.2161 132.118 52.7643C132.118 48.3126 128.618 44.7037 124.301 44.7037C119.983 44.7037 116.483 48.3126 116.483 52.7643Z" fill="white"/>
</mask>
<g mask="url(#mask0_536_28248)">
<path fill-rule="evenodd" clip-rule="evenodd" d="M116.483 52.7647C116.483 57.2165 119.983 60.8253 124.301 60.8253C128.618 60.8253 132.118 57.2165 132.118 52.7647C132.118 48.313 128.618 44.7042 124.301 44.7042C119.983 44.7042 116.483 48.313 116.483 52.7647Z" fill="#FFC800"/>
<path fill-rule="evenodd" clip-rule="evenodd" d="M130.014 44.0587H118.444V47.2829H130.014V44.0587ZM118.444 61.4695H130.014V58.2453H118.444V61.4695ZM115.629 54.8601H132.985V50.6686H115.629V54.8601Z" fill="url(#paint2_linear_536_28248)"/>
</g>
<path d="M137.492 48.5373H143.629C146.036 48.5373 146.636 49.5952 146.636 50.5382V50.6631C146.636 51.7211 145.72 52.2556 145.088 52.3343C146.038 52.4705 147.054 53.0737 147.054 54.4265V54.5513C147.054 55.7004 146.365 56.9969 143.664 56.9969H137.493V48.5373H137.492ZM139.821 50.2997V51.8122H143.291C143.992 51.8122 144.207 51.4712 144.207 51.0728V51.0503C144.207 50.6406 143.981 50.2997 143.291 50.2997H139.821ZM139.821 53.4722V55.1433H143.472C144.297 55.1433 144.523 54.7224 144.523 54.2903V54.2453C144.523 53.8244 144.297 53.4722 143.472 53.4722H139.821Z" fill="white"/>
<path d="M152.372 57.147H151.954C148.857 57.147 148.088 55.4408 148.088 53.9283V53.7697C148.088 52.337 148.788 50.5509 151.761 50.5509H152.259C155.469 50.5509 156.045 52.3483 156.045 54.1106V54.3155H150.337C150.439 55.0436 150.88 55.6344 152.237 55.6344C153.514 55.6344 153.683 55.1448 153.729 55.0311H156.023C156.023 55.5432 155.616 57.147 152.372 57.147ZM150.36 53.1214H153.683C153.672 52.6555 153.457 51.996 152.044 51.996C150.891 51.996 150.496 52.4619 150.36 53.1214Z" fill="white"/>
<path d="M161.294 57.147H160.876C157.778 57.147 157.01 55.4408 157.01 53.9283V53.7697C157.01 52.337 157.71 50.5509 160.683 50.5509H161.181C164.391 50.5509 164.967 52.3483 164.967 54.1106V54.3155H159.259C159.361 55.0436 159.802 55.6344 161.159 55.6344C162.436 55.6344 162.605 55.1448 162.651 55.0311H164.945C164.945 55.5432 164.538 57.147 161.294 57.147ZM159.282 53.1214H162.605C162.594 52.6555 162.379 51.996 160.966 51.996C159.813 51.996 159.418 52.4619 159.282 53.1214Z" fill="white"/>
<path d="M168.304 56.9995H166.099V48.39H168.304V56.9995Z" fill="white"/>
<path d="M171.865 49.9825H169.615V48.39H171.865V49.9825ZM171.842 56.9995H169.638V50.687H171.842V56.9983V56.9995Z" fill="white"/>
<path d="M173.095 50.6868H175.276V51.6873C175.536 51.3463 176.395 50.5382 177.82 50.5382H177.933C179.764 50.5382 180.6 51.7897 180.6 52.9039V56.9981H178.396V53.7119C178.396 52.9838 177.977 52.2793 176.893 52.2793C175.808 52.2793 175.299 53.0188 175.299 53.7919V56.9994H173.094V50.6868H173.095Z" fill="white"/>
<path d="M186.063 57.147H185.645C182.548 57.147 181.78 55.4408 181.78 53.9283V53.7697C181.78 52.337 182.48 50.5509 185.453 50.5509H185.95C189.161 50.5509 189.737 52.3483 189.737 54.1106V54.3155H184.029C184.131 55.0436 184.571 55.6344 185.928 55.6344C187.205 55.6344 187.374 55.1448 187.42 55.0311H189.714C189.714 55.5432 189.307 57.147 186.063 57.147ZM184.051 53.1214H187.374C187.363 52.6555 187.148 51.996 185.736 51.996C184.583 51.996 184.188 52.4619 184.051 53.1214Z" fill="white"/>
<path d="M190.603 50.9612C189.37 50.9612 189.059 50.2842 189.059 49.7109V49.6172C189.059 49.0827 189.342 48.3819 190.603 48.3819H190.788C192.045 48.3819 192.314 49.0827 192.314 49.6272V49.7109C192.314 50.2842 191.929 50.9612 190.779 50.9612H190.604H190.603ZM190.705 50.6277C191.786 50.6277 191.928 50.0693 191.928 49.6372C191.928 49.23 191.796 48.7154 190.705 48.7154H190.695C189.574 48.7154 189.457 49.2101 189.457 49.6659C189.457 50.1218 189.574 50.6264 190.695 50.6264H190.705V50.6277ZM190.413 50.3292H189.912V49.0052H191.003C191.398 49.0052 191.509 49.1526 191.509 49.3237V49.3437C191.509 49.5248 191.368 49.6135 191.251 49.6334C191.441 49.6722 191.529 49.7958 191.529 49.932V50.1718C191.529 50.2455 191.534 50.2742 191.559 50.3042V50.3292H191.062C191.042 50.3092 191.019 50.2855 191.019 50.2168V50.0794C191.019 49.947 190.98 49.8932 190.854 49.8932H190.416V50.3292H190.413ZM190.881 49.5598C190.988 49.5598 191.018 49.506 191.018 49.4374C191.018 49.3636 190.988 49.31 190.881 49.31H190.413V49.5598H190.881Z" fill="white"/>
<defs>
<linearGradient id="paint0_linear_536_28248" x1="12.1145" y1="38.4125" x2="45.1087" y2="38.4125" gradientUnits="userSpaceOnUse">
<stop stop-color="#00D9FF"/>
<stop offset="1" stop-color="#75B4FF"/>
</linearGradient>
<linearGradient id="paint1_linear_536_28248" x1="5.26318" y1="48.4125" x2="25.1859" y2="48.4125" gradientUnits="userSpaceOnUse">
<stop stop-color="#0157C0"/>
<stop offset="1" stop-color="#003983"/>
</linearGradient>
<linearGradient id="paint2_linear_536_28248" x1="116.46" y1="52.4974" x2="132.165" y2="52.4974" gradientUnits="userSpaceOnUse">
<stop stop-color="#2B2B2B"/>
<stop offset="0.152836" stop-color="#131313"/>
<stop offset="0.745954" stop-color="#131313"/>
<stop offset="1" stop-color="#1B1B1B"/>
</linearGradient>
</defs>
</svg>
