<svg width="107" height="33" viewBox="0 0 107 33" fill="none" xmlns="http://www.w3.org/2000/svg">
<path fill-rule="evenodd" clip-rule="evenodd" d="M9.92749 16.7887C11.327 18.6506 12.9645 20.5443 14.804 22.3909C14.9202 22.5076 15.0365 22.6232 15.153 22.7382C16.8816 24.4442 18.647 25.9701 20.3847 27.2863C26.8407 32.1768 32.9151 34.1747 35.3093 31.7712C37.7036 29.3677 35.7134 23.2697 30.8417 16.7887C35.7134 10.3077 37.7036 4.20975 35.3093 1.80625C32.9151 -0.597256 26.8407 1.40065 20.3847 6.29117C18.647 7.6075 16.8818 9.13327 15.153 10.8392C15.0365 10.9542 14.9202 11.07 14.804 11.1865C12.9643 13.0333 11.327 14.9268 9.92749 16.7887Z" fill="url(#paint0_linear_869_14816)"/>
<path fill-rule="evenodd" clip-rule="evenodd" d="M6.31932 1.1988C2.84089 2.76004 0.23584 9.14692 0.23584 16.7887C0.23584 24.4305 2.84089 30.8172 6.31932 32.3786C5.9956 32.2223 5.70791 32.0205 5.45968 31.7713C3.06546 29.3678 5.05565 23.2699 9.9273 16.7888C11.3268 14.9269 12.9643 13.0332 14.8038 11.1867C14.92 11.07 15.0363 10.9543 15.1528 10.8393C16.8814 9.13339 18.6468 7.60749 20.3845 6.2913C14.5976 1.90756 9.11758 -0.152047 6.31932 1.1988Z" fill="#499CFF"/>
<path fill-rule="evenodd" clip-rule="evenodd" d="M15.1529 22.7382C15.0365 22.6233 14.9201 22.5074 14.8039 22.3909C12.9643 20.5442 11.327 18.6506 9.92745 16.7887C5.05579 23.2698 3.0656 29.3677 5.45983 31.7712C5.70805 32.0204 5.99588 32.2222 6.31947 32.3785C9.11773 33.7293 14.5978 31.6697 20.3845 27.2863C18.6468 25.9699 16.8816 24.4442 15.1528 22.7382H15.1529ZM6.41958 32.422C6.92126 32.6328 7.44053 32.7434 7.97232 32.7434C7.44053 32.7434 6.92126 32.6326 6.41958 32.422Z" fill="url(#paint1_linear_869_14816)"/>
<path d="M93.2676 7.25379V15.1777L95.6355 11.603H99.8977L96.5329 16.5075L100.49 22.0293H95.8723L93.2676 18.2758V22.0293H89.5678L89.479 21.9399V7.34316L89.5678 7.25379H93.2676Z" fill="#FFF0E0"/>
<path d="M45.3528 15.1777L47.7503 11.603H51.9829L48.6181 16.5087L52.5157 22.0293H47.9871L45.3528 18.3354V21.9399L45.264 22.0293H41.5642V7.25379H45.264L45.3528 7.34316V15.1777Z" fill="#FFF0E0"/>
<path d="M63.6098 17.8588H56.3878C56.8377 19.5258 59.1203 19.4555 60.4286 18.9765C60.7932 18.843 61.075 18.619 61.4408 18.5094L63.2535 20.5696C61.0241 22.6012 56.5417 22.8562 54.2259 20.8985C52.1493 19.1433 51.9835 15.5817 53.5806 13.4547C55.3199 11.1395 59.1452 10.7951 61.5332 12.2334C63.508 13.4225 64.0349 15.6818 63.6098 17.8588ZM60.1172 15.9523C60.193 13.674 56.3972 13.7598 56.3878 15.9523H60.1172Z" fill="#FFF0E0"/>
<path d="M70.1212 8.68368V11.603H72.4891V14.582H70.1212V18.4248C70.1212 18.4951 70.3663 18.812 70.4468 18.8716C70.7274 19.0825 71.1702 19.0825 71.5064 19.0432C71.671 19.0241 72.2073 18.7989 72.2559 18.8371L73.0752 21.6039C71.1951 22.5464 67.9203 22.7466 66.8145 20.5613C66.6546 20.2443 66.3338 19.2291 66.3338 18.9002V14.5808H64.6763V11.6018H66.3338V9.09954L70.1224 8.68249L70.1212 8.68368Z" fill="#FFF0E0"/>
<path d="M79.1192 8.68368V11.603H81.4871V14.582H79.1192V18.3652C79.1192 18.3807 79.2234 18.6142 79.2471 18.6536C79.6402 19.3125 80.7258 19.0253 81.3095 18.8109L82.0673 21.5991C80.7543 22.2855 78.9203 22.5023 77.5055 22.0138C74.5753 21.001 75.4786 16.9711 75.3306 14.5808H73.6731V11.6018H75.3306V9.09954L79.1192 8.68249V8.68368Z" fill="#FFF0E0"/>
<path d="M87.2293 11.603H83.4407V22.0293H87.2293V11.603Z" fill="#FFF0E0"/>
<path d="M105.64 7.25379L105.344 17.1438H101.851L101.585 7.25379H105.64Z" fill="#FFF0E0"/>
<ellipse cx="2.17482" cy="1.40121" rx="2.17482" ry="1.40121" transform="matrix(0.808865 -0.587995 0.58417 0.811632 101.081 20.349)" fill="#00D9FF"/>
<ellipse cx="2.17482" cy="1.40121" rx="2.17482" ry="1.40121" transform="matrix(0.808865 -0.587995 0.58417 0.811632 82.7385 9.12856)" fill="#00D9FF"/>
<defs>
<linearGradient id="paint0_linear_869_14816" x1="9.92749" y1="16.7887" x2="36.3229" y2="16.7887" gradientUnits="userSpaceOnUse">
<stop stop-color="#00D9FF"/>
<stop offset="1" stop-color="#75B4FF"/>
</linearGradient>
<linearGradient id="paint1_linear_869_14816" x1="4.44629" y1="24.7887" x2="20.3845" y2="24.7887" gradientUnits="userSpaceOnUse">
<stop stop-color="#0157C0"/>
<stop offset="1" stop-color="#003983"/>
</linearGradient>
</defs>
</svg>
